/* XPM */
static char *result[] = {
/* columns rows colors chars-per-pixel */
"64 64 6 1 ",
"  c #040509",
". c #0E5667",
"X c #147A92",
"o c #1AA3C3",
"O c #FFDDAF",
"+ c None",
/* pixels */
"++++                                                        ++++",
"++++                                                        ++++",
"++  ..XXXXXXXXXXXXXXXXXXXXXXXXXXXXXXXXXXXXXXXXXXXXXXXXXXXX..  ++",
"++  ..XXXXXXXXXXXXXXXXXXXXXXXXXXXXXXXXXXXXXXXXXXXXXXXXXXXX..  ++",
"  ..XXooooooooooooooooooooooooooooooooooooooooooooooooooooXX..  ",
"  ..XXooooooooooooooooooooooooooooooooooooooooooooooooooooXX..  ",
"  XXooooXXooXXooooooooooooooooooooooooooooooooooooXXooXXooooXX  ",
"  XXooooXXooXXooooooooooooooooooooooooooooooooooooXXooXXooooXX  ",
"  XXooXXXXooooooooooooooooooooooooooooooooooooooooooooXXXXooXX  ",
"  XXooXXXXooooooooooooooooooooooooooooooooooooooooooooXXXXooXX  ",
"  XXooooooooooooooooooooooooooooooooooooooooooooooooooooooooXX  ",
"  XXooooooooooooooooooooooooooooooooooooooooooooooooooooooooXX  ",
"  XXooXXooooooooooooooooooooooooooooooooooooooooooooooooXXooXX  ",
"  XXooXXooooooooooooooooooooooooooooooooooooooooooooooooXXooXX  ",
"  XXooooooooooooooooooooOOOOOOOOOOooooooooooooooooooooooooooXX  ",
"  XXooooooooooooooooooooOOOOOOOOOOooooooooooooooooooooooooooXX  ",
"  XXooooooooooooooooOOOOOOOOOOOOOOOOooooooooooooooooooooooooXX  ",
"  XXooooooooooooooooOOOOOOOOOOOOOOOOooooooooooooooooooooooooXX  ",
"  XXooooooooooooooooOOOOOOOOOOOOOOOOOOooooooooooooooooooooooXX  ",
"  XXooooooooooooooooOOOOOOOOOOOOOOOOOOooooooooooooooooooooooXX  ",
"  XXooooooooooooooooOOOOOOooooooOOOOOOooooooooooooooooooooooXX  ",
"  XXooooooooooooooooOOOOOOooooooOOOOOOooooooooooooooooooooooXX  ",
"  XXooooooooooooooooOOOOOOooooooOOOOOOooooooooooooooooooooooXX  ",
"  XXooooooooooooooooOOOOOOooooooOOOOOOooooooooooooooooooooooXX  ",
"  XXooooooooooooooooooooooooooOOOOOOOOooooooooooooooooooooooXX  ",
"  XXooooooooooooooooooooooooooOOOOOOOOooooooooooooooooooooooXX  ",
"  XXooooooooooooooooooooooooOOOOOOOOOOooooooooooooooooooooooXX  ",
"  XXooooooooooooooooooooooooOOOOOOOOOOooooooooooooooooooooooXX  ",
"  XXooooooooooooooooooooooOOOOOOOOOOooooooooooooooooooooooooXX  ",
"  XXooooooooooooooooooooooOOOOOOOOOOooooooooooooooooooooooooXX  ",
"  XXooooooooooooooooooooOOOOOOOOOOooooooooooooooooooooooooooXX  ",
"  XXooooooooooooooooooooOOOOOOOOOOooooooooooooooooooooooooooXX  ",
"  XXooooooooooooooooOOOOOOOOOOOOooooooooooooooooooooooooooooXX  ",
"  XXooooooooooooooooOOOOOOOOOOOOooooooooooooooooooooooooooooXX  ",
"  XXooooooooooooooooOOOOOOOOooooooooOOooooooooooooooooooooooXX  ",
"  XXooooooooooooooooOOOOOOOOooooooooOOooooooooooooooooooooooXX  ",
"  XXooooooooooooooooOOOOOOOOooooOOOOOOooooooooooooooooooooooXX  ",
"  XXooooooooooooooooOOOOOOOOooooOOOOOOooooooooooooooooooooooXX  ",
"  XXooooooooooooooooOOOOOOOOooooOOOOOOooooooooooooooooooooooXX  ",
"  XXooooooooooooooooOOOOOOOOooooOOOOOOooooooooooooooooooooooXX  ",
"  XXooooooooooooooooOOOOOOOOooooOOOOOOooooooooooooooooooooooXX  ",
"  XXooooooooooooooooOOOOOOOOooooOOOOOOooooooooooooooooooooooXX  ",
"  XXooooooooooooooooOOOOOOOOOOOOOOOOOOooooooooooooooooooooooXX  ",
"  XXooooooooooooooooOOOOOOOOOOOOOOOOOOooooooooooooooooooooooXX  ",
"  XXooooooooooooooooOOOOOOOOOOOOOOOOOOooooooooooooooooooooooXX  ",
"  XXooooooooooooooooOOOOOOOOOOOOOOOOOOooooooooooooooooooooooXX  ",
"  XXooXXooooooooooooOOOOOOOOOOOOOOOOOOooooooooooooooooooXXooXX  ",
"  XXooXXooooooooooooOOOOOOOOOOOOOOOOOOooooooooooooooooooXXooXX  ",
"  XXooooooooooooooooooooooooooooooooooooooooooooooooooooooooXX  ",
"  XXooooooooooooooooooooooooooooooooooooooooooooooooooooooooXX  ",
"  XXooXXXXooooooooooooooooooooooooooooooooooooooooooooXXXXooXX  ",
"  XXooXXXXooooooooooooooooooooooooooooooooooooooooooooXXXXooXX  ",
"  XXooooXXooXXooooooooooooooooooooooooooooooooooooXXooXXooooXX  ",
"  XXooooXXooXXooooooooooooooooooooooooooooooooooooXXooXXooooXX  ",
"  ..XXooooooooooooooooooooooooooooooooooooooooooooooooooooXX..  ",
"  ..XXooooooooooooooooooooooooooooooooooooooooooooooooooooXX..  ",
"  ....XXXXXXXXXXXXXXXXXXXXXXXXXXXXXXXXXXXXXXXXXXXXXXXXXXXX....  ",
"  ....XXXXXXXXXXXXXXXXXXXXXXXXXXXXXXXXXXXXXXXXXXXXXXXXXXXX....  ",
"  ............................................................  ",
"  ............................................................  ",
"++  ........................................................  ++",
"++  ........................................................  ++",
"++++                                                        ++++",
"++++                                                        ++++"
};
