/* XPM */
static char *result[] = {
/* columns rows colors chars-per-pixel */
"65 65 6 1 ",
"  c #040509",
". c #31383C",
"X c #0E5667",
"o c #147A92",
"O c #1AA3C3",
"+ c None",
/* pixels */
"++++                                                        +++++",
"++++                                                        +++++",
"++  XXooooooooooooooooooooooooooooooooooooooooooooooooooooXX  +++",
"++  XXooooooooooooooooooooooooooooooooooooooooooooooooooooXX  +++",
"  XXooOOOOOOOOOOOOOOOOOOOOOOOOOOOOOOOOOOOOOOOOOOOOOOOOOOOOooXX  +",
"  XXooOOOOOOOOOOOOOOOOOOOOOOOOOOOOOOOOOOOOOOOOOOOOOOOOOOOOooXX  +",
"  ooOOOOooOOooOOOOOOOOOOOOOOOOOOOOOOOOOOOOOOOOOOOOooOOooOOOOoo  +",
"  ooOOOOooOOooOOOOOOOOOOOOOOOOOOOOOOOOOOOOOOOOOOOOooOOooOOOOoo  +",
"  ooOOooooOOOOOOOOOOOOOOOOOOOOOOOOOOOOOOOOOOOOOOOOOOOOooooOOoo  +",
"  ooOOooooOOOOOOOOOOOOOOOOOOOOOOOOOOOOOOOOOOOOOOOOOOOOooooOOoo  +",
"  ooOOOOOOOOOOOOOOOOOOOOOOOOOOOOOOOOOOOOOOOOOOOOOOOOOOOOOOOOoo  +",
"  ooOOOOOOOOOOOOOOOOOOOOOOOOOOOOOOOOOOOOOOOOOOOOOOOOOOOOOOOOoo  +",
"  ooOOooOOOOOOOOOOOOOOOOOOOOOOOOOOOOOOOOOOOOOOOOOOOOOOOOooOOoo  +",
"  ooOOooOOOOOOOOOOOOOOOOOOOOOOOOOOOOOOOOOOOOOOOOOOOOOOOOooOOoo  +",
"  ooOOOOOOOOOOOOOOOOOOOOOOOOOO........OOOOOOOOOOOOOOOOOOOOOOoo  +",
"  ooOOOOOOOOOOOOOOOOOOOOOOOOOO........OOOOOOOOOOOOOOOOOOOOOOoo  +",
"  ooOOOOOOOOOOOOOOOOOOOOOOOOOO........OOOOOOOOOOOOOOOOOOOOOOoo  +",
"  ooOOOOOOOOOOOOOOOOOOOOOOOOOO........OOOOOOOOOOOOOOOOOOOOOOoo  +",
"  ooOOOOOOOOOOOOOOOOOOOOOOOOOO......OOOOOOOOOOOOOOOOOOOOOOOOoo  +",
"  ooOOOOOOOOOOOOOOOOOOOOOOOOOO......OOOOOOOOOOOOOOOOOOOOOOOOoo  +",
"  ooOOOOOOOOOOOOOOOOOOOOOOOO........OOOOOOOOOOOOOOOOOOOOOOOOoo  +",
"  ooOOOOOOOOOOOOOOOOOOOOOOOO........OOOOOOOOOOOOOOOOOOOOOOOOoo  +",
"  ooOOOOOOOOOOOOOOOOOOOOOO........OOOOOOOOOOOOOOOOOOOOOOOOOOoo  +",
"  ooOOOOOOOOOOOOOOOOOOOOOO........OOOOOOOOOOOOOOOOOOOOOOOOOOoo  +",
"  ooOOOOOOOOOOOOOOOOOOOOOO........OOOOOOOOOOOOOOOOOOOOOOOOOOoo  +",
"  ooOOOOOOOOOOOOOOOOOOOOOO........OOOOOOOOOOOOOOOOOOOOOOOOOOoo  +",
"  ooOOOOOOOOOOOOOOOOOOOO........OOOOOOOOOOOOOOOOOOOOOOOOOOOOoo  +",
"  ooOOOOOOOOOOOOOOOOOOOO........OOOOOOOOOOOOOOOOOOOOOOOOOOOOoo  +",
"  ooOOOOOOOOOOOOOOOOOO........OOOOOOOOOOOOOOOOOOOOOOOOOOOOOOoo  +",
"  ooOOOOOOOOOOOOOOOOOO........OOOOOOOOOOOOOOOOOOOOOOOOOOOOOOoo  +",
"  ooOOOOOOOOOOOOOOOOOO........OO......OOOOOOOOOOOOOOOOOOOOOOoo  +",
"  ooOOOOOOOOOOOOOOOOOO........OO......OOOOOOOOOOOOOOOOOOOOOOoo  +",
"  ooOOOOOOOOOOOOOOOOOO........OO......OOOOOOOOOOOOOOOOOOOOOOoo  +",
"  ooOOOOOOOOOOOOOOOOOO........OO......OOOOOOOOOOOOOOOOOOOOOOoo  +",
"  ooOOOOOOOOOOOOOOOOOO........OO......OOOOOOOOOOOOOOOOOOOOOOoo  +",
"  ooOOOOOOOOOOOOOOOOOO........OO......OOOOOOOOOOOOOOOOOOOOOOoo  +",
"  ooOOOOOOOOOOOOOOOOOO................OOOOOOOOOOOOOOOOOOOOOOoo  +",
"  ooOOOOOOOOOOOOOOOOOO................OOOOOOOOOOOOOOOOOOOOOOoo  +",
"  ooOOOOOOOOOOOOOOOOOO................OOOOOOOOOOOOOOOOOOOOOOoo  +",
"  ooOOOOOOOOOOOOOOOOOO................OOOOOOOOOOOOOOOOOOOOOOoo  +",
"  ooOOOOOOOOOOOOOOOOOO................OOOOOOOOOOOOOOOOOOOOOOoo  +",
"  ooOOOOOOOOOOOOOOOOOO................OOOOOOOOOOOOOOOOOOOOOOoo  +",
"  ooOOOOOOOOOOOOOOOOOOOOOOOOOOOO......OOOOOOOOOOOOOOOOOOOOOOoo  +",
"  ooOOOOOOOOOOOOOOOOOOOOOOOOOOOO......OOOOOOOOOOOOOOOOOOOOOOoo  +",
"  ooOOOOOOOOOOOOOOOOOOOOOOOOOOOO......OOOOOOOOOOOOOOOOOOOOOOoo  +",
"  ooOOOOOOOOOOOOOOOOOOOOOOOOOOOO......OOOOOOOOOOOOOOOOOOOOOOoo  +",
"  ooOOooOOOOOOOOOOOOOOOOOOOOOOOO......OOOOOOOOOOOOOOOOOOooOOoo  +",
"  ooOOooOOOOOOOOOOOOOOOOOOOOOOOO......OOOOOOOOOOOOOOOOOOooOOoo  +",
"  ooOOOOOOOOOOOOOOOOOOOOOOOOOOOOOOOOOOOOOOOOOOOOOOOOOOOOOOOOoo  +",
"  ooOOOOOOOOOOOOOOOOOOOOOOOOOOOOOOOOOOOOOOOOOOOOOOOOOOOOOOOOoo  +",
"  ooOOooooOOOOOOOOOOOOOOOOOOOOOOOOOOOOOOOOOOOOOOOOOOOOooooOOoo  +",
"  ooOOooooOOOOOOOOOOOOOOOOOOOOOOOOOOOOOOOOOOOOOOOOOOOOooooOOoo  +",
"  ooOOOOooOOooOOOOOOOOOOOOOOOOOOOOOOOOOOOOOOOOOOOOooOOooOOOOoo  +",
"  ooOOOOooOOooOOOOOOOOOOOOOOOOOOOOOOOOOOOOOOOOOOOOooOOooOOOOoo  +",
"  XXooOOOOOOOOOOOOOOOOOOOOOOOOOOOOOOOOOOOOOOOOOOOOOOOOOOOOooXX  +",
"  XXooOOOOOOOOOOOOOOOOOOOOOOOOOOOOOOOOOOOOOOOOOOOOOOOOOOOOooXX  +",
"  XXXXooooooooooooooooooooooooooooooooooooooooooooooooooooXXXX  +",
"  XXXXooooooooooooooooooooooooooooooooooooooooooooooooooooXXXX  +",
"  XXXXXXXXXXXXXXXXXXXXXXXXXXXXXXXXXXXXXXXXXXXXXXXXXXXXXXXXXXXX  +",
"  XXXXXXXXXXXXXXXXXXXXXXXXXXXXXXXXXXXXXXXXXXXXXXXXXXXXXXXXXXXX  +",
"++  XXXXXXXXXXXXXXXXXXXXXXXXXXXXXXXXXXXXXXXXXXXXXXXXXXXXXXXX  +++",
"++  XXXXXXXXXXXXXXXXXXXXXXXXXXXXXXXXXXXXXXXXXXXXXXXXXXXXXXXX  +++",
"++++                                                        +++++",
"++++                                                        +++++",
"+++++++++++++++++++++++++++++++++++++++++++++++++++++++++++++++++"
};
