/* XPM */
static char *result[] = {
/* columns rows colors chars-per-pixel */
"64 64 6 1 ",
"  c #040509",
". c #0E5667",
"X c #147A92",
"o c #1AA3C3",
"O c #FFDDAF",
"+ c None",
/* pixels */
"++++                                                        ++++",
"++++                                                        ++++",
"++  ..XXXXXXXXXXXXXXXXXXXXXXXXXXXXXXXXXXXXXXXXXXXXXXXXXXXX..  ++",
"++  ..XXXXXXXXXXXXXXXXXXXXXXXXXXXXXXXXXXXXXXXXXXXXXXXXXXXX..  ++",
"  ..XXooooooooooooooooooooooooooooooooooooooooooooooooooooXX..  ",
"  ..XXooooooooooooooooooooooooooooooooooooooooooooooooooooXX..  ",
"  XXooooXXooXXooooooooooooooooooooooooooooooooooooXXooXXooooXX  ",
"  XXooooXXooXXooooooooooooooooooooooooooooooooooooXXooXXooooXX  ",
"  XXooXXXXooooooooooooooooooooooooooooooooooooooooooooXXXXooXX  ",
"  XXooXXXXooooooooooooooooooooooooooooooooooooooooooooXXXXooXX  ",
"  XXooooooooooooooooooooooooooooooooooooooooooooooooooooooooXX  ",
"  XXooooooooooooooooooooooooooooooooooooooooooooooooooooooooXX  ",
"  XXooXXooooooooooooooooooooooooooooooooooooooooooooooooXXooXX  ",
"  XXooXXooooooooooooooooooooooooooooooooooooooooooooooooXXooXX  ",
"  XXooooooooooooooooooooooooooOOOOOOOOooooooooooooooooooooooXX  ",
"  XXooooooooooooooooooooooooooOOOOOOOOooooooooooooooooooooooXX  ",
"  XXooooooooooooooooooooooooooOOOOOOOOooooooooooooooooooooooXX  ",
"  XXooooooooooooooooooooooooooOOOOOOOOooooooooooooooooooooooXX  ",
"  XXooooooooooooooooooooooooooOOOOOOooooooooooooooooooooooooXX  ",
"  XXooooooooooooooooooooooooooOOOOOOooooooooooooooooooooooooXX  ",
"  XXooooooooooooooooooooooooOOOOOOOOooooooooooooooooooooooooXX  ",
"  XXooooooooooooooooooooooooOOOOOOOOooooooooooooooooooooooooXX  ",
"  XXooooooooooooooooooooooOOOOOOOOooooooooooooooooooooooooooXX  ",
"  XXooooooooooooooooooooooOOOOOOOOooooooooooooooooooooooooooXX  ",
"  XXooooooooooooooooooooooOOOOOOOOooooooooooooooooooooooooooXX  ",
"  XXooooooooooooooooooooooOOOOOOOOooooooooooooooooooooooooooXX  ",
"  XXooooooooooooooooooooOOOOOOOOooooooooooooooooooooooooooooXX  ",
"  XXooooooooooooooooooooOOOOOOOOooooooooooooooooooooooooooooXX  ",
"  XXooooooooooooooooooOOOOOOOOooooooooooooooooooooooooooooooXX  ",
"  XXooooooooooooooooooOOOOOOOOooooooooooooooooooooooooooooooXX  ",
"  XXooooooooooooooooooOOOOOOOOooOOOOOOooooooooooooooooooooooXX  ",
"  XXooooooooooooooooooOOOOOOOOooOOOOOOooooooooooooooooooooooXX  ",
"  XXooooooooooooooooooOOOOOOOOooOOOOOOooooooooooooooooooooooXX  ",
"  XXooooooooooooooooooOOOOOOOOooOOOOOOooooooooooooooooooooooXX  ",
"  XXooooooooooooooooooOOOOOOOOooOOOOOOooooooooooooooooooooooXX  ",
"  XXooooooooooooooooooOOOOOOOOooOOOOOOooooooooooooooooooooooXX  ",
"  XXooooooooooooooooooOOOOOOOOOOOOOOOOooooooooooooooooooooooXX  ",
"  XXooooooooooooooooooOOOOOOOOOOOOOOOOooooooooooooooooooooooXX  ",
"  XXooooooooooooooooooOOOOOOOOOOOOOOOOooooooooooooooooooooooXX  ",
"  XXooooooooooooooooooOOOOOOOOOOOOOOOOooooooooooooooooooooooXX  ",
"  XXooooooooooooooooooOOOOOOOOOOOOOOOOooooooooooooooooooooooXX  ",
"  XXooooooooooooooooooOOOOOOOOOOOOOOOOooooooooooooooooooooooXX  ",
"  XXooooooooooooooooooooooooooooOOOOOOooooooooooooooooooooooXX  ",
"  XXooooooooooooooooooooooooooooOOOOOOooooooooooooooooooooooXX  ",
"  XXooooooooooooooooooooooooooooOOOOOOooooooooooooooooooooooXX  ",
"  XXooooooooooooooooooooooooooooOOOOOOooooooooooooooooooooooXX  ",
"  XXooXXooooooooooooooooooooooooOOOOOOooooooooooooooooooXXooXX  ",
"  XXooXXooooooooooooooooooooooooOOOOOOooooooooooooooooooXXooXX  ",
"  XXooooooooooooooooooooooooooooooooooooooooooooooooooooooooXX  ",
"  XXooooooooooooooooooooooooooooooooooooooooooooooooooooooooXX  ",
"  XXooXXXXooooooooooooooooooooooooooooooooooooooooooooXXXXooXX  ",
"  XXooXXXXooooooooooooooooooooooooooooooooooooooooooooXXXXooXX  ",
"  XXooooXXooXXooooooooooooooooooooooooooooooooooooXXooXXooooXX  ",
"  XXooooXXooXXooooooooooooooooooooooooooooooooooooXXooXXooooXX  ",
"  ..XXooooooooooooooooooooooooooooooooooooooooooooooooooooXX..  ",
"  ..XXooooooooooooooooooooooooooooooooooooooooooooooooooooXX..  ",
"  ....XXXXXXXXXXXXXXXXXXXXXXXXXXXXXXXXXXXXXXXXXXXXXXXXXXXX....  ",
"  ....XXXXXXXXXXXXXXXXXXXXXXXXXXXXXXXXXXXXXXXXXXXXXXXXXXXX....  ",
"  ............................................................  ",
"  ............................................................  ",
"++  ........................................................  ++",
"++  ........................................................  ++",
"++++                                                        ++++",
"++++                                                        ++++"
};
