/* XPM */
static char *result[] = {
/* columns rows colors chars-per-pixel */
"64 64 6 1 ",
"  c #040509",
". c #0E5667",
"X c #147A92",
"o c #1AA3C3",
"O c #FFDDAF",
"+ c None",
/* pixels */
"++++                                                        ++++",
"++++                                                        ++++",
"++  ..XXXXXXXXXXXXXXXXXXXXXXXXXXXXXXXXXXXXXXXXXXXXXXXXXXXX..  ++",
"++  ..XXXXXXXXXXXXXXXXXXXXXXXXXXXXXXXXXXXXXXXXXXXXXXXXXXXX..  ++",
"  ..XXooooooooooooooooooooooooooooooooooooooooooooooooooooXX..  ",
"  ..XXooooooooooooooooooooooooooooooooooooooooooooooooooooXX..  ",
"  XXooooXXooXXooooooooooooooooooooooooooooooooooooXXooXXooooXX  ",
"  XXooooXXooXXooooooooooooooooooooooooooooooooooooXXooXXooooXX  ",
"  XXooXXXXooooooooooooooooooooooooooooooooooooooooooooXXXXooXX  ",
"  XXooXXXXooooooooooooooooooooooooooooooooooooooooooooXXXXooXX  ",
"  XXooooooooooooooooooooooooooooooooooooooooooooooooooooooooXX  ",
"  XXooooooooooooooooooooooooooooooooooooooooooooooooooooooooXX  ",
"  XXooXXooooooooooooooooooooooooooooooooooooooooooooooooXXooXX  ",
"  XXooXXooooooooooooooooooooooooooooooooooooooooooooooooXXooXX  ",
"  XXooooooooooooooooooooooOOOOOOOOOOOOooooooooooooooooooooooXX  ",
"  XXooooooooooooooooooooooOOOOOOOOOOOOooooooooooooooooooooooXX  ",
"  XXooooooooooooooooooooOOOOOOOOOOOOOOOOooooooooooooooooooooXX  ",
"  XXooooooooooooooooooooOOOOOOOOOOOOOOOOooooooooooooooooooooXX  ",
"  XXooooooooooooooooooOOOOOOOOOOOOOOOOOOooooooooooooooooooooXX  ",
"  XXooooooooooooooooooOOOOOOOOOOOOOOOOOOooooooooooooooooooooXX  ",
"  XXooooooooooooooooooOOOOOOOOooooOOOOOOOOooooooooooooooooooXX  ",
"  XXooooooooooooooooooOOOOOOOOooooOOOOOOOOooooooooooooooooooXX  ",
"  XXooooooooooooooooooOOOOOOOOooooOOOOOOOOooooooooooooooooooXX  ",
"  XXooooooooooooooooooOOOOOOOOooooOOOOOOOOooooooooooooooooooXX  ",
"  XXooooooooooooooooooOOOOOOOOOOOOooooooooooooooooooooooooooXX  ",
"  XXooooooooooooooooooOOOOOOOOOOOOooooooooooooooooooooooooooXX  ",
"  XXooooooooooooooooooOOOOOOOOOOOOOOOOooooooooooooooooooooooXX  ",
"  XXooooooooooooooooooOOOOOOOOOOOOOOOOooooooooooooooooooooooXX  ",
"  XXooooooooooooooooooOOOOOOOOOOOOOOOOOOooooooooooooooooooooXX  ",
"  XXooooooooooooooooooOOOOOOOOOOOOOOOOOOooooooooooooooooooooXX  ",
"  XXooooooooooooooooooOOOOOOOOooOOOOOOOOooooooooooooooooooooXX  ",
"  XXooooooooooooooooooOOOOOOOOooOOOOOOOOooooooooooooooooooooXX  ",
"  XXooooooooooooooooooOOOOOOOOooooOOOOOOOOooooooooooooooooooXX  ",
"  XXooooooooooooooooooOOOOOOOOooooOOOOOOOOooooooooooooooooooXX  ",
"  XXooooooooooooooooooOOOOOOOOooooOOOOOOOOooooooooooooooooooXX  ",
"  XXooooooooooooooooooOOOOOOOOooooOOOOOOOOooooooooooooooooooXX  ",
"  XXooooooooooooooooooOOOOOOOOooooOOOOOOOOooooooooooooooooooXX  ",
"  XXooooooooooooooooooOOOOOOOOooooOOOOOOOOooooooooooooooooooXX  ",
"  XXooooooooooooooooooOOOOOOOOooooOOOOOOOOooooooooooooooooooXX  ",
"  XXooooooooooooooooooOOOOOOOOooooOOOOOOOOooooooooooooooooooXX  ",
"  XXooooooooooooooooooOOOOOOOOooooOOOOOOOOooooooooooooooooooXX  ",
"  XXooooooooooooooooooOOOOOOOOooooOOOOOOOOooooooooooooooooooXX  ",
"  XXooooooooooooooooooOOOOOOOOOOOOOOOOOOooooooooooooooooooooXX  ",
"  XXooooooooooooooooooOOOOOOOOOOOOOOOOOOooooooooooooooooooooXX  ",
"  XXooooooooooooooooooooOOOOOOOOOOOOOOOOooooooooooooooooooooXX  ",
"  XXooooooooooooooooooooOOOOOOOOOOOOOOOOooooooooooooooooooooXX  ",
"  XXooXXooooooooooooooooooOOOOOOOOOOOOooooooooooooooooooXXooXX  ",
"  XXooXXooooooooooooooooooOOOOOOOOOOOOooooooooooooooooooXXooXX  ",
"  XXooooooooooooooooooooooooooooooooooooooooooooooooooooooooXX  ",
"  XXooooooooooooooooooooooooooooooooooooooooooooooooooooooooXX  ",
"  XXooXXXXooooooooooooooooooooooooooooooooooooooooooooXXXXooXX  ",
"  XXooXXXXooooooooooooooooooooooooooooooooooooooooooooXXXXooXX  ",
"  XXooooXXooXXooooooooooooooooooooooooooooooooooooXXooXXooooXX  ",
"  XXooooXXooXXooooooooooooooooooooooooooooooooooooXXooXXooooXX  ",
"  ..XXooooooooooooooooooooooooooooooooooooooooooooooooooooXX..  ",
"  ..XXooooooooooooooooooooooooooooooooooooooooooooooooooooXX..  ",
"  ....XXXXXXXXXXXXXXXXXXXXXXXXXXXXXXXXXXXXXXXXXXXXXXXXXXXX....  ",
"  ....XXXXXXXXXXXXXXXXXXXXXXXXXXXXXXXXXXXXXXXXXXXXXXXXXXXX....  ",
"  ............................................................  ",
"  ............................................................  ",
"++  ........................................................  ++",
"++  ........................................................  ++",
"++++                                                        ++++",
"++++                                                        ++++"
};
