/* XPM */
static char *_3b3f3aeb9714191c21d8741bee0a957vtjiwpj9ZY496INi[] = {
/* columns rows colors chars-per-pixel */
"128 64 6 1 ",
"  c None",
". c #040509",
"X c #31383C",
"o c #0E5667",
"O c #147A92",
"+ c #1AA3C3",
/* pixels */
"    ........................................................................................................................    ",
"    ........................................................................................................................    ",
"  ..ooOOOOOOOOOOOOOOOOOOOOOOOOOOOOOOOOOOOOOOOOOOOOOOOOOOOOOOOOOOOOOOOOOOOOOOOOOOOOOOOOOOOOOOOOOOOOOOOOOOOOOOOOOOOOOOOOOOOOoo..  ",
"  ..ooOOOOOOOOOOOOOOOOOOOOOOOOOOOOOOOOOOOOOOOOOOOOOOOOOOOOOOOOOOOOOOOOOOOOOOOOOOOOOOOOOOOOOOOOOOOOOOOOOOOOOOOOOOOOOOOOOOOOoo..  ",
"..ooOO++++++++++++++++++++++++++++++++++++++++++++++++++++++++++++++++++++++++++++++++++++++++++++++++++++++++++++++++++++OOoo..",
"..ooOO++++++++++++++++++++++++++++++++++++++++++++++++++++++++++++++++++++++++++++++++++++++++++++++++++++++++++++++++++++OOoo..",
"..OO++++OO++OO++++++++++++++++++++++++++++++++++++++++++++++++++++++++++++++++++++++++++++++++++++++++++++++++++++OO++OO++++OO..",
"..OO++++OO++OO++++++++++++++++++++++++++++++++++++++++++++++++++++++++++++++++++++++++++++++++++++++++++++++++++++OO++OO++++OO..",
"..OO++OOOO++++++++++++++++++++++++++++++++++++++++++++++++++++++++++++++++++++++++++++++++++++++++++++++++++++++++++++OOOO++OO..",
"..OO++OOOO++++++++++++++++++++++++++++++++++++++++++++++++++++++++++++++++++++++++++++++++++++++++++++++++++++++++++++OOOO++OO..",
"..OO++++++++++++++++++++++++++++++++++++++++++++++++++++++++++++++++++++++++++++++++++++++++++++++++++++++++++++++++++++++++OO..",
"..OO++++++++++++++++++XXXXXXX++++++XXXXXXX+++++++XXXXXXXXXX+++++++++++++++XXXXXXXXXXXXXXXXXXXXXXXXXXXXX+++++++++++++++++++++OO..",
"..OO++OO++++++++++++++XXXXXXX++++++XXXXXXX+++++XXXXXXXXXXXXXX+++++++++XXXXXXXXXXXXXXXXXXXXXXXXXXXXXXXXX+++++++++++++++++OO++OO..",
"..OO++OO++++++++++++++XXXXXXX++++++XXXXXXX++++XXXXXXXXXXXXXXXX+++++++XXXXXXXXXXXXXXX+XXXXXXXXXXXXXXXXXX+++++++++++++++++OO++OO..",
"..OO++++++++++++++++++XXXXXXX++++++XXXXXXX++++XXXXXXXXXXXXXXXX++++++XXXXXXXXXXXXXXXX+XXXXXXXXXXXXXXXXXX+++++++++++++++++++++OO..",
"..OO++++++++++++++++++XXXXXXX++++++XXXXXXX+++XXXXXXXXXXXXXXXXXX++++XXXXXXXXXXXXXXXXX+XXXXXXXXXXXXXXXXXX+++++++++++++++++++++OO..",
"..OO++++++++++++++++++XXXXXXX++++++XXXXXXX+++XXXXXXXXXXXXXXXXXX++++XXXXXXXXXXXXXXXXX+XXXXXXXXXXXXXXXXXX+++++++++++++++++++++OO..",
"..OO++++++++++++++++++XXXXXXX++++++XXXXXXX+++XXXXXXX++++XXXXXXX++++XXXXXXX++++XXXXXX+++++++XXXXXXX++++++++++++++++++++++++++OO..",
"..OO++++++++++++++++++XXXXXXX++++++XXXXXXX+++XXXXXXX++++XXXXXXX++++XXXXXX+++++XXXXXX+++++++XXXXXXX++++++++++++++++++++++++++OO..",
"..OO++++++++++++++++++XXXXXXX++++++XXXXXXX+++XXXXXXX+++++XXXXXX++++XXXXXX+++++XXXXXX+++++++XXXXXXX++++++++++++++++++++++++++OO..",
"..OO++++++++++++++++++XXXXXXX++++++XXXXXXX+++XXXXXXX+++++XXXXXX++++XXXXXX+++++XXXXXX+++++++XXXXXXX++++++++++++++++++++++++++OO..",
"..OO++++++++++++++++++XXXXXXX++++++XXXXXXX+++XXXXXXX+++++XXXXXX++++XXXXXX+++++XXXXXX+++++++XXXXXXX++++++++++++++++++++++++++OO..",
"..OO++++++++++++++++++XXXXXXX++++++XXXXXXX+++XXXXXXX+++++XXXXXX++++XXXXXX+++++XXXXXX+++++++XXXXXXX++++++++++++++++++++++++++OO..",
"..OO++++++++++++++++++XXXXXXX++++++XXXXXXX+++XXXXXXX+++++XXXXXX++++XXXXXXX++++XXXXXX+++++++XXXXXXX++++++++++++++++++++++++++OO..",
"..OO++++++++++++++++++XXXXXXX++++++XXXXXXX+++XXXXXXX+++++XXXXXX++++XXXXXXXXX+++++++++++++++XXXXXXX++++++++++++++++++++++++++OO..",
"..OO++++++++++++++++++XXXXXXX++++++XXXXXXX+++XXXXXXX+++++XXXXXX++++XXXXXXXXXX++++++++++++++XXXXXXX++++++++++++++++++++++++++OO..",
"..OO++++++++++++++++++XXXXXXX++++++XXXXXXX+++XXXXXXX+++++XXXXXX++++XXXXXXXXXXXX++++++++++++XXXXXXX++++++++++++++++++++++++++OO..",
"..OO++++++++++++++++++XXXXXXX++++++XXXXXXX+++XXXXXXX+++++XXXXXX+++++XXXXXXXXXXXX+++++++++++XXXXXXX++++++++++++++++++++++++++OO..",
"..OO++++++++++++++++++XXXXXXX++++++XXXXXXX+++XXXXXXX+++++XXXXXX+++++++XXXXXXXXXXX++++++++++XXXXXXX++++++++++++++++++++++++++OO..",
"..OO++++++++++++++++XXXXXXXXXXXXXXXXXXXXXX+++XXXXXXX+++++XXXXXX++++++++XXXXXXXXXXXX++++++++XXXXXXX++++++++++++++++++++++++++OO..",
"..OO++++++++++++++++XXXXXXXXXXXXXXXXXXXXXX+++XXXXXXX+++++XXXXXX+++++++++XXXXXXXXXXXX+++++++XXXXXXX++++++++++++++++++++++++++OO..",
"..OO+++++++++++++++++XXXXXXXXXXXXXXXXXXXXX+++XXXXXXX+++++XXXXXX+++++++++++XXXXXXXXXXX++++++XXXXXXX++++++++++++++++++++++++++OO..",
"..OO+++++++++++++++++XXXXXXXXXXXXXXXXXXXXX+++XXXXXXX+++++XXXXXX++++++++++++XXXXXXXXXX++++++XXXXXXX++++++++++++++++++++++++++OO..",
"..OO+++++++++++++++++XXXXXXXXXXXXXXXXXXXXX+++XXXXXXX+++++XXXXXX++++XXXXX+++++XXXXXXXX++++++XXXXXXX++++++++++++++++++++++++++OO..",
"..OO++++++++++++++++++XXXXXXX++XXXXXXXXXXX+++XXXXXXX+++++XXXXXX++++XXXXX++++++XXXXXXX++++++XXXXXXX++++++++++++++++++++++++++OO..",
"..OO++++++++++++++++++XXXXXXX++++++XXXXXXX+++XXXXXXX+++++XXXXXX++++XXXXX+++++++XXXXXX++++++XXXXXXX++++++++++++++++++++++++++OO..",
"..OO++++++++++++++++++XXXXXXX++++++XXXXXXX+++XXXXXXX+++++XXXXXX++++XXXXX++++++XXXXXXX++++++XXXXXXX++++++++++++++++++++++++++OO..",
"..OO++++++++++++++++++XXXXXXX++++++XXXXXXX+++XXXXXXX++++XXXXXXX++++XXXXXX+++++XXXXXXX++++++XXXXXXX++++++++++++++++++++++++++OO..",
"..OO++++++++++++++++++XXXXXXX++++++XXXXXXX+++XXXXXXX++++XXXXXXX++++XXXXXX+++++XXXXXXX++++++XXXXXXX++++++++++++++++++++++++++OO..",
"..OO++++++++++++++++++XXXXXXX++++++XXXXXXX+++XXXXXXXX++XXXXXXXX++++XXXXXXXXXXXXXXXXXX++++++XXXXXXX++++++++++++++++++++++++++OO..",
"..OO++++++++++++++++++XXXXXXX++++++XXXXXXX+++XXXXXXXXXXXXXXXXXX++++XXXXXXXXXXXXXXXXX+++++++XXXXXXX++++++++++++++++++++++++++OO..",
"..OO++++++++++++++++++XXXXXXX++++++XXXXXXX+++XXXXXXXXXXXXXXXXXX++++XXXXXXXXXXXXXXXXX+++++++XXXXXXX++++++++++++++++++++++++++OO..",
"..OO++++++++++++++++++XXXXXXX++++++XXXXXXX++++XXXXXXXXXXXXXXXX+++++XXXXXXXXXXXXXXXX++++++++XXXXXXX++++++++++++++++++++++++++OO..",
"..OO++++++++++++++++++XXXXXXX++++++XXXXXXX+++++XXXXXXXXXXXXXX++++++XXXXXXXXXXXXXXX+++++++++XXXXXXX++++++++++++++++++++++++++OO..",
"..OO++++++++++++++++++XXXXXXX++++++XXXXXXX++++++XXXXXXXXXXXX+++++++XXXXXXXXXXXXX+++++++++++XXXXXXX++++++++++++++++++++++++++OO..",
"..OO++++++++++++++++++++++++++++++++++++++++++++++++XXXX++++++++++++++++++++++++++++++++++++++++++++++++++++++++++++++++++++OO..",
"..OO++OO++++++++++++++++++++++++++++++++++++++++++++++++++++++++++++++++++++++++++++++++++++++++++++++++++++++++++++++++OO++OO..",
"..OO++OO++++++++++++++++++++++++++++++++++++++++++++++++++++++++++++++++++++++++++++++++++++++++++++++++++++++++++++++++OO++OO..",
"..OO++++++++++++++++++++++++++++++++++++++++++++++++++++++++++++++++++++++++++++++++++++++++++++++++++++++++++++++++++++++++OO..",
"..OO++++++++++++++++++++++++++++++++++++++++++++++++++++++++++++++++++++++++++++++++++++++++++++++++++++++++++++++++++++++++OO..",
"..OO++OOOO++++++++++++++++++++++++++++++++++++++++++++++++++++++++++++++++++++++++++++++++++++++++++++++++++++++++++++OOOO++OO..",
"..OO++OOOO++++++++++++++++++++++++++++++++++++++++++++++++++++++++++++++++++++++++++++++++++++++++++++++++++++++++++++OOOO++OO..",
"..OO++++OO++OO++++++++++++++++++++++++++++++++++++++++++++++++++++++++++++++++++++++++++++++++++++++++++++++++++++OO++OO++++OO..",
"..OO++++OO++OO++++++++++++++++++++++++++++++++++++++++++++++++++++++++++++++++++++++++++++++++++++++++++++++++++++OO++OO++++OO..",
"..ooOO++++++++++++++++++++++++++++++++++++++++++++++++++++++++++++++++++++++++++++++++++++++++++++++++++++++++++++++++++++OOoo..",
"..ooOO++++++++++++++++++++++++++++++++++++++++++++++++++++++++++++++++++++++++++++++++++++++++++++++++++++++++++++++++++++OOoo..",
"..ooooOOOOOOOOOOOOOOOOOOOOOOOOOOOOOOOOOOOOOOOOOOOOOOOOOOOOOOOOOOOOOOOOOOOOOOOOOOOOOOOOOOOOOOOOOOOOOOOOOOOOOOOOOOOOOOOOOOOOoooo..",
"..ooooOOOOOOOOOOOOOOOOOOOOOOOOOOOOOOOOOOOOOOOOOOOOOOOOOOOOOOOOOOOOOOOOOOOOOOOOOOOOOOOOOOOOOOOOOOOOOOOOOOOOOOOOOOOOOOOOOOOOoooo..",
"..oooooooooooooooooooooooooooooooooooooooooooooooooooooooooooooooooooooooooooooooooooooooooooooooooooooooooooooooooooooooooooo..",
"..oooooooooooooooooooooooooooooooooooooooooooooooooooooooooooooooooooooooooooooooooooooooooooooooooooooooooooooooooooooooooooo..",
"  ..oooooooooooooooooooooooooooooooooooooooooooooooooooooooooooooooooooooooooooooooooooooooooooooooooooooooooooooooooooooooo..  ",
"  ..oooooooooooooooooooooooooooooooooooooooooooooooooooooooooooooooooooooooooooooooooooooooooooooooooooooooooooooooooooooooo..  ",
"    ........................................................................................................................    ",
"    ........................................................................................................................    "
};
