/* XPM */
static char *_1b72a936e0743adb0bf85fde2681e35KVW4xDQ7qcnfuobO[] = {
/* columns rows colors chars-per-pixel */
"128 64 6 1 ",
"  c None",
". c #040509",
"X c #07323C",
"o c #31383C",
"O c #0C4451",
"+ c #0D5A6D",
/* pixels */
"                                                                                                                                ",
"                                                                                                                                ",
"                                                                                                                                ",
"                                                                                                                                ",
"    ........................................................................................................................    ",
"    ........................................................................................................................    ",
"  ..XXOOOOOOOOOOOOOOOOOOOOOOOOOOOOOOOOOOOOOOOOOOOOOOOOOOOOOOOOOOOOOOOOOOOOOOOOOOOOOOOOOOOOOOOOOOOOOOOOOOOOOOOOOOOOOOOOOOOOXX..  ",
"  ..XXOOOOOOOOOOOOOOOOOOOOOOOOOOOOOOOOOOOOOOOOOOOOOOOOOOOOOOOOOOOOOOOOOOOOOOOOOOOOOOOOOOOOOOOOOOOOOOOOOOOOOOOOOOOOOOOOOOOOXX..  ",
"..XXOO++++++++++++++++++++++++++++++++++++++++++++++++++++++++++++++++++++++++++++++++++++++++++++++++++++++++++++++++++++OOXX..",
"..XXOO++++++++++++++++++++++++++++++++++++++++++++++++++++++++++++++++++++++++++++++++++++++++++++++++++++++++++++++++++++OOXX..",
"..OO++++OO++OO++++++++++++++++++++++++++++++++++++++++++++++++++++++++++++++++++++++++++++++++++++++++++++++++++++OO++OO++++OO..",
"..OO++++OO++OO++++++++++++++++++++++++++++++++++++++++++++++++++++++++++++++++++++++++++++++++++++++++++++++++++++OO++OO++++OO..",
"..OO++OOOO++++++++++++++++++++++++++++++++++++++++++++++++++++++++++++++++++++++++++++++++++++++++++++++++++++++++++++OOOO++OO..",
"..OO++OOOO++++++++++++++++++++++++++++++++++++++++++++++++++++++++++++++++++++++++++++++++++++++++++++++++++++++++++++OOOO++OO..",
"..OO++++++++++++++++++++++++++++++++++++++++++++++++++++++++++++++++++++++++++++++++++++++++++++++++++++++++++++++++++++++++OO..",
"..OO+++++++++++++++++++ooooooo++++++ooooooo+++++++oooooooooo+++++++++++++++ooooooooooooooooooooooooooooo++++++++++++++++++++OO..",
"..OO++OO+++++++++++++++ooooooo++++++ooooooo+++++oooooooooooooo+++++++++ooooooooooooooooooooooooooooooooo++++++++++++++++OO++OO..",
"..OO++OO+++++++++++++++ooooooo++++++ooooooo++++oooooooooooooooo+++++++ooooooooooooooo+oooooooooooooooooo++++++++++++++++OO++OO..",
"..OO+++++++++++++++++++ooooooo++++++ooooooo++++oooooooooooooooo++++++oooooooooooooooo+oooooooooooooooooo++++++++++++++++++++OO..",
"..OO+++++++++++++++++++ooooooo++++++ooooooo+++oooooooooooooooooo++++ooooooooooooooooo+oooooooooooooooooo++++++++++++++++++++OO..",
"..OO+++++++++++++++++++ooooooo++++++ooooooo+++oooooooooooooooooo++++ooooooooooooooooo+oooooooooooooooooo++++++++++++++++++++OO..",
"..OO+++++++++++++++++++ooooooo++++++ooooooo+++ooooooo++++ooooooo++++ooooooo++++oooooo+++++++ooooooo+++++++++++++++++++++++++OO..",
"..OO+++++++++++++++++++ooooooo++++++ooooooo+++ooooooo++++ooooooo++++oooooo+++++oooooo+++++++ooooooo+++++++++++++++++++++++++OO..",
"..OO+++++++++++++++++++ooooooo++++++ooooooo+++ooooooo+++++oooooo++++oooooo+++++oooooo+++++++ooooooo+++++++++++++++++++++++++OO..",
"..OO+++++++++++++++++++ooooooo++++++ooooooo+++ooooooo+++++oooooo++++oooooo+++++oooooo+++++++ooooooo+++++++++++++++++++++++++OO..",
"..OO+++++++++++++++++++ooooooo++++++ooooooo+++ooooooo+++++oooooo++++oooooo+++++oooooo+++++++ooooooo+++++++++++++++++++++++++OO..",
"..OO+++++++++++++++++++ooooooo++++++ooooooo+++ooooooo+++++oooooo++++oooooo+++++oooooo+++++++ooooooo+++++++++++++++++++++++++OO..",
"..OO+++++++++++++++++++ooooooo++++++ooooooo+++ooooooo+++++oooooo++++ooooooo++++oooooo+++++++ooooooo+++++++++++++++++++++++++OO..",
"..OO+++++++++++++++++++ooooooo++++++ooooooo+++ooooooo+++++oooooo++++ooooooooo+++++++++++++++ooooooo+++++++++++++++++++++++++OO..",
"..OO+++++++++++++++++++ooooooo++++++ooooooo+++ooooooo+++++oooooo++++oooooooooo++++++++++++++ooooooo+++++++++++++++++++++++++OO..",
"..OO+++++++++++++++++++ooooooo++++++ooooooo+++ooooooo+++++oooooo++++oooooooooooo++++++++++++ooooooo+++++++++++++++++++++++++OO..",
"..OO+++++++++++++++++++ooooooo++++++ooooooo+++ooooooo+++++oooooo+++++oooooooooooo+++++++++++ooooooo+++++++++++++++++++++++++OO..",
"..OO+++++++++++++++++++ooooooo++++++ooooooo+++ooooooo+++++oooooo+++++++ooooooooooo++++++++++ooooooo+++++++++++++++++++++++++OO..",
"..OO+++++++++++++++++oooooooooooooooooooooo+++ooooooo+++++oooooo++++++++oooooooooooo++++++++ooooooo+++++++++++++++++++++++++OO..",
"..OO+++++++++++++++++oooooooooooooooooooooo+++ooooooo+++++oooooo+++++++++oooooooooooo+++++++ooooooo+++++++++++++++++++++++++OO..",
"..OO++++++++++++++++++ooooooooooooooooooooo+++ooooooo+++++oooooo+++++++++++ooooooooooo++++++ooooooo+++++++++++++++++++++++++OO..",
"..OO++++++++++++++++++ooooooooooooooooooooo+++ooooooo+++++oooooo++++++++++++oooooooooo++++++ooooooo+++++++++++++++++++++++++OO..",
"..OO++++++++++++++++++ooooooooooooooooooooo+++ooooooo+++++oooooo++++ooooo+++++oooooooo++++++ooooooo+++++++++++++++++++++++++OO..",
"..OO+++++++++++++++++++ooooooo++ooooooooooo+++ooooooo+++++oooooo++++ooooo++++++ooooooo++++++ooooooo+++++++++++++++++++++++++OO..",
"..OO+++++++++++++++++++ooooooo++++++ooooooo+++ooooooo+++++oooooo++++ooooo+++++++oooooo++++++ooooooo+++++++++++++++++++++++++OO..",
"..OO+++++++++++++++++++ooooooo++++++ooooooo+++ooooooo+++++oooooo++++ooooo++++++ooooooo++++++ooooooo+++++++++++++++++++++++++OO..",
"..OO+++++++++++++++++++ooooooo++++++ooooooo+++ooooooo++++ooooooo++++oooooo+++++ooooooo++++++ooooooo+++++++++++++++++++++++++OO..",
"..OO+++++++++++++++++++ooooooo++++++ooooooo+++ooooooo++++ooooooo++++oooooo+++++ooooooo++++++ooooooo+++++++++++++++++++++++++OO..",
"..OO+++++++++++++++++++ooooooo++++++ooooooo+++oooooooo++oooooooo++++oooooooooooooooooo++++++ooooooo+++++++++++++++++++++++++OO..",
"..OO+++++++++++++++++++ooooooo++++++ooooooo+++oooooooooooooooooo++++ooooooooooooooooo+++++++ooooooo+++++++++++++++++++++++++OO..",
"..OO+++++++++++++++++++ooooooo++++++ooooooo+++oooooooooooooooooo++++ooooooooooooooooo+++++++ooooooo+++++++++++++++++++++++++OO..",
"..OO+++++++++++++++++++ooooooo++++++ooooooo++++oooooooooooooooo+++++oooooooooooooooo++++++++ooooooo+++++++++++++++++++++++++OO..",
"..OO+++++++++++++++++++ooooooo++++++ooooooo+++++oooooooooooooo++++++ooooooooooooooo+++++++++ooooooo+++++++++++++++++++++++++OO..",
"..OO+++++++++++++++++++ooooooo++++++ooooooo++++++oooooooooooo+++++++ooooooooooooo+++++++++++ooooooo+++++++++++++++++++++++++OO..",
"..OO+++++++++++++++++++++++++++++++++++++++++++++++++oooo+++++++++++++++++++++++++++++++++++++++++++++++++++++++++++++++++++OO..",
"..OO++OO++++++++++++++++++++++++++++++++++++++++++++++++++++++++++++++++++++++++++++++++++++++++++++++++++++++++++++++++OO++OO..",
"..OO++OO++++++++++++++++++++++++++++++++++++++++++++++++++++++++++++++++++++++++++++++++++++++++++++++++++++++++++++++++OO++OO..",
"..OO++++++++++++++++++++++++++++++++++++++++++++++++++++++++++++++++++++++++++++++++++++++++++++++++++++++++++++++++++++++++OO..",
"..OO++++++++++++++++++++++++++++++++++++++++++++++++++++++++++++++++++++++++++++++++++++++++++++++++++++++++++++++++++++++++OO..",
"..OO++OOOO++++++++++++++++++++++++++++++++++++++++++++++++++++++++++++++++++++++++++++++++++++++++++++++++++++++++++++OOOO++OO..",
"..OO++OOOO++++++++++++++++++++++++++++++++++++++++++++++++++++++++++++++++++++++++++++++++++++++++++++++++++++++++++++OOOO++OO..",
"..OO++++OO++OO++++++++++++++++++++++++++++++++++++++++++++++++++++++++++++++++++++++++++++++++++++++++++++++++++++OO++OO++++OO..",
"..OO++++OO++OO++++++++++++++++++++++++++++++++++++++++++++++++++++++++++++++++++++++++++++++++++++++++++++++++++++OO++OO++++OO..",
"..XXOO++++++++++++++++++++++++++++++++++++++++++++++++++++++++++++++++++++++++++++++++++++++++++++++++++++++++++++++++++++OOXX..",
"..XXOO++++++++++++++++++++++++++++++++++++++++++++++++++++++++++++++++++++++++++++++++++++++++++++++++++++++++++++++++++++OOXX..",
"  ..XXOOOOOOOOOOOOOOOOOOOOOOOOOOOOOOOOOOOOOOOOOOOOOOOOOOOOOOOOOOOOOOOOOOOOOOOOOOOOOOOOOOOOOOOOOOOOOOOOOOOOOOOOOOOOOOOOOOOOXX..  ",
"  ..XXOOOOOOOOOOOOOOOOOOOOOOOOOOOOOOOOOOOOOOOOOOOOOOOOOOOOOOOOOOOOOOOOOOOOOOOOOOOOOOOOOOOOOOOOOOOOOOOOOOOOOOOOOOOOOOOOOOOOXX..  ",
"    ........................................................................................................................    ",
"    ........................................................................................................................    "
};
