/* XPM */
static char *result[] = {
/* columns rows colors chars-per-pixel */
"128 64 6 1 ",
"  c #040509",
". c #07323C",
"X c #0C4451",
"o c #0D5A6D",
"O c #FFDDAF",
"+ c None",
/* pixels */
"++++++++++++++++++++++++++++++++++++++++++++++++++++++++++++++++++++++++++++++++++++++++++++++++++++++++++++++++++++++++++++++++",
"++++++++++++++++++++++++++++++++++++++++++++++++++++++++++++++++++++++++++++++++++++++++++++++++++++++++++++++++++++++++++++++++",
"++++++++++++++++++++++++++++++++++++++++++++++++++++++++++++++++++++++++++++++++++++++++++++++++++++++++++++++++++++++++++++++++",
"++++++++++++++++++++++++++++++++++++++++++++++++++++++++++++++++++++++++++++++++++++++++++++++++++++++++++++++++++++++++++++++++",
"++++                                                                                                                        ++++",
"++++                                                                                                                        ++++",
"++  ..XXXXXXXXXXXXXXXXXXXXXXXXXXXXXXXXXXXXXXXXXXXXXXXXXXXXXXXXXXXXXXXXXXXXXXXXXXXXXXXXXXXXXXXXXXXXXXXXXXXXXXXXXXXXXXXXXXXX..  ++",
"++  ..XXXXXXXXXXXXXXXXXXXXXXXXXXXXXXXXXXXXXXXXXXXXXXXXXXXXXXXXXXXXXXXXXXXXXXXXXXXXXXXXXXXXXXXXXXXXXXXXXXXXXXXXXXXXXXXXXXXX..  ++",
"  ..XXooooooooooooooooooooooooooooooooooooooooooooooooooooooooooooooooooooooooooooooooooooooooooooooooooooooooooooooooooooXX..  ",
"  ..XXooooooooooooooooooooooooooooooooooooooooooooooooooooooooooooooooooooooooooooooooooooooooooooooooooooooooooooooooooooXX..  ",
"  XXooooXXooXXooooooooooooooooooooooooooooooooooooooooooooooooooooooooooooooooooooooooooooooooooooooooooooooooooooXXooXXooooXX  ",
"  XXooooXXooXXooooooooooooooooooooooooooooooooooooooooooooooooooooooooooooooooooooooooooooooooooooooooooooooooooooXXooXXooooXX  ",
"  XXooXXXXooooooooooooooooooooooooooooooooooooooooooooooooooooooooooooooooooooooooooooooooooooooooooooooooooooooooooooXXXXooXX  ",
"  XXooXXXXooooooooooooooooooooooooooooooooooooooooooooooooooooooooooooooooooooooooooooooooooooooooooooooooooooooooooooXXXXooXX  ",
"  XXooooooooooooooooooooooooooooooooooooooooooooooooooooooooooooooooooooooooooooooooooooooooooooooooooooooooooooooooooooooooXX  ",
"  XXooooooooooooooooooooooooooooooooooooooooooooooooooooooooooooooooooooooooooooooooooooooooooooooooooooooooooooooooooooooooXX  ",
"  XXooXXooooooooooooooooooooooOOOOOOOOOOOOooooOOOOOOOOOOOOooOOOOOOOOOOOOooooOOOOOOooooOOOOOOooooooooooooooooooooooooooooXXooXX  ",
"  XXooXXooooooooooooooooooooooOOOOOOOOOOOOooooOOOOOOOOOOOOooOOOOOOOOOOOOooooOOOOOOooooOOOOOOooooooooooooooooooooooooooooXXooXX  ",
"  XXooooooooooooooooooooooooooooOOOOOOOOOOooOOOOOOOOOOOOOOooooOOOOOOOOOOooooOOOOOOOOooOOOOOOooooooooooooooooooooooooooooooooXX  ",
"  XXooooooooooooooooooooooooooooOOOOOOOOOOooOOOOOOOOOOOOOOooooOOOOOOOOOOooooOOOOOOOOooOOOOOOooooooooooooooooooooooooooooooooXX  ",
"  XXooooooooooooooooooooooooooooooooOOOOOOooOOOOOOooooOOOOOOooooOOOOOOooooooOOOOOOOOOOOOOOOOooooooooooooooooooooooooooooooooXX  ",
"  XXooooooooooooooooooooooooooooooooOOOOOOooOOOOOOooooOOOOOOooooOOOOOOooooooOOOOOOOOOOOOOOOOooooooooooooooooooooooooooooooooXX  ",
"  XXooooooooooooooooooooooooooooooooOOOOOOooOOOOOOooooOOOOOOooooOOOOOOooooooOOOOOOOOOOOOOOOOooooooooooooooooooooooooooooooooXX  ",
"  XXooooooooooooooooooooooooooooooooOOOOOOooOOOOOOooooOOOOOOooooOOOOOOooooooOOOOOOOOOOOOOOOOooooooooooooooooooooooooooooooooXX  ",
"  XXooooooooooooooooooooooooooooooooOOOOOOooOOOOOOooooOOOOOOooooOOOOOOooooooOOOOOOOOOOOOOOOOooooooooooooooooooooooooooooooooXX  ",
"  XXooooooooooooooooooooooooooooooooOOOOOOooOOOOOOooooOOOOOOooooOOOOOOooooooOOOOOOOOOOOOOOOOooooooooooooooooooooooooooooooooXX  ",
"  XXooooooooooooooooooooooooooooooooOOOOOOooOOOOOOooooOOOOOOooooOOOOOOooooooOOOOOOooOOOOOOOOooooooooooooooooooooooooooooooooXX  ",
"  XXooooooooooooooooooooooooooooooooOOOOOOooOOOOOOooooOOOOOOooooOOOOOOooooooOOOOOOooOOOOOOOOooooooooooooooooooooooooooooooooXX  ",
"  XXooooooooooooooooooooooooooooooooOOOOOOooOOOOOOooooOOOOOOooooOOOOOOooooooOOOOOOooooOOOOOOooooooooooooooooooooooooooooooooXX  ",
"  XXooooooooooooooooooooooooooooooooOOOOOOooOOOOOOooooOOOOOOooooOOOOOOooooooOOOOOOooooOOOOOOooooooooooooooooooooooooooooooooXX  ",
"  XXooooooooooooooooooooooooooooooooOOOOOOooOOOOOOooooOOOOOOooooOOOOOOooooooOOOOOOooooOOOOOOooooooooooooooooooooooooooooooooXX  ",
"  XXooooooooooooooooooooooooooooooooOOOOOOooOOOOOOooooOOOOOOooooOOOOOOooooooOOOOOOooooOOOOOOooooooooooooooooooooooooooooooooXX  ",
"  XXooooooooooooooooooooooooooooooooOOOOOOooOOOOOOooooOOOOOOooooOOOOOOooooooOOOOOOooooOOOOOOooooooooooooooooooooooooooooooooXX  ",
"  XXooooooooooooooooooooooooooooooooOOOOOOooOOOOOOooooOOOOOOooooOOOOOOooooooOOOOOOooooOOOOOOooooooooooooooooooooooooooooooooXX  ",
"  XXooooooooooooooooooooooooooOOOOooOOOOOOooOOOOOOooooOOOOOOooooOOOOOOooooooOOOOOOooooOOOOOOooooooooooooooooooooooooooooooooXX  ",
"  XXooooooooooooooooooooooooooOOOOooOOOOOOooOOOOOOooooOOOOOOooooOOOOOOooooooOOOOOOooooOOOOOOooooooooooooooooooooooooooooooooXX  ",
"  XXooooooooooooooooooooooooooOOOOooOOOOOOooOOOOOOooooOOOOOOooooOOOOOOooooooOOOOOOooooOOOOOOooooooooooooooooooooooooooooooooXX  ",
"  XXooooooooooooooooooooooooooOOOOooOOOOOOooOOOOOOooooOOOOOOooooOOOOOOooooooOOOOOOooooOOOOOOooooooooooooooooooooooooooooooooXX  ",
"  XXooooooooooooooooooooooooooOOOOOOOOOOOOooOOOOOOooooOOOOOOooooOOOOOOooooooOOOOOOooooOOOOOOooooooooooooooooooooooooooooooooXX  ",
"  XXooooooooooooooooooooooooooOOOOOOOOOOOOooOOOOOOooooOOOOOOooooOOOOOOooooooOOOOOOooooOOOOOOooooooooooooooooooooooooooooooooXX  ",
"  XXooooooooooooooooooooooooooOOOOOOOOOOooooOOOOOOOOOOOOOOooOOOOOOOOOOOOooooOOOOOOooooOOOOOOooooooooooooooooooooooooooooooooXX  ",
"  XXooooooooooooooooooooooooooOOOOOOOOOOooooOOOOOOOOOOOOOOooOOOOOOOOOOOOooooOOOOOOooooOOOOOOooooooooooooooooooooooooooooooooXX  ",
"  XXooooooooooooooooooooooooooOOOOOOOOooooooooOOOOOOOOOOOOooooOOOOOOOOOOooooOOOOOOooooOOOOOOooooooooooooooooooooooooooooooooXX  ",
"  XXooooooooooooooooooooooooooOOOOOOOOooooooooOOOOOOOOOOOOooooOOOOOOOOOOooooOOOOOOooooOOOOOOooooooooooooooooooooooooooooooooXX  ",
"  XXooooooooooooooooooooooooooooooooooooooooooooooooooooooooooooooooooooooooooooooooooooooooooooooooooooooooooooooooooooooooXX  ",
"  XXooooooooooooooooooooooooooooooooooooooooooooooooooooooooooooooooooooooooooooooooooooooooooooooooooooooooooooooooooooooooXX  ",
"  XXooooooooooooooooooooooooooooooooooooooooooooooooooooooooooooooooooooooooooooooooooooooooooooooooooooooooooooooooooooooooXX  ",
"  XXooooooooooooooooooooooooooooooooooooooooooooooooooooooooooooooooooooooooooooooooooooooooooooooooooooooooooooooooooooooooXX  ",
"  XXooooooooooooooooooooooooooooooooooooooooooooooooooooooooooooooooooooooooooooooooooooooooooooooooooooooooooooooooooooooooXX  ",
"  XXooooooooooooooooooooooooooooooooooooooooooooooooooooooooooooooooooooooooooooooooooooooooooooooooooooooooooooooooooooooooXX  ",
"  XXooXXooooooooooooooooooooooooooooooooooooooooooooooooooooooooooooooooooooooooooooooooooooooooooooooooooooooooooooooooXXooXX  ",
"  XXooXXooooooooooooooooooooooooooooooooooooooooooooooooooooooooooooooooooooooooooooooooooooooooooooooooooooooooooooooooXXooXX  ",
"  XXooooooooooooooooooooooooooooooooooooooooooooooooooooooooooooooooooooooooooooooooooooooooooooooooooooooooooooooooooooooooXX  ",
"  XXooooooooooooooooooooooooooooooooooooooooooooooooooooooooooooooooooooooooooooooooooooooooooooooooooooooooooooooooooooooooXX  ",
"  XXooXXXXooooooooooooooooooooooooooooooooooooooooooooooooooooooooooooooooooooooooooooooooooooooooooooooooooooooooooooXXXXooXX  ",
"  XXooXXXXooooooooooooooooooooooooooooooooooooooooooooooooooooooooooooooooooooooooooooooooooooooooooooooooooooooooooooXXXXooXX  ",
"  XXooooXXooXXooooooooooooooooooooooooooooooooooooooooooooooooooooooooooooooooooooooooooooooooooooooooooooooooooooXXooXXooooXX  ",
"  XXooooXXooXXooooooooooooooooooooooooooooooooooooooooooooooooooooooooooooooooooooooooooooooooooooooooooooooooooooXXooXXooooXX  ",
"  ..XXooooooooooooooooooooooooooooooooooooooooooooooooooooooooooooooooooooooooooooooooooooooooooooooooooooooooooooooooooooXX..  ",
"  ..XXooooooooooooooooooooooooooooooooooooooooooooooooooooooooooooooooooooooooooooooooooooooooooooooooooooooooooooooooooooXX..  ",
"++  ..XXXXXXXXXXXXXXXXXXXXXXXXXXXXXXXXXXXXXXXXXXXXXXXXXXXXXXXXXXXXXXXXXXXXXXXXXXXXXXXXXXXXXXXXXXXXXXXXXXXXXXXXXXXXXXXXXXXX..  ++",
"++  ..XXXXXXXXXXXXXXXXXXXXXXXXXXXXXXXXXXXXXXXXXXXXXXXXXXXXXXXXXXXXXXXXXXXXXXXXXXXXXXXXXXXXXXXXXXXXXXXXXXXXXXXXXXXXXXXXXXXX..  ++",
"++++                                                                                                                        ++++",
"++++                                                                                                                        ++++"
};
