/* XPM */
static char *c2b4b18f0be3478adeaa914f101612faWwFJM084EFEBVBwZ[] = {
/* columns rows colors chars-per-pixel */
"42 46 2 1 ",
"  c None",
". c #FFDDAF",
/* pixels */
"                                          ",
"                                          ",
"                                          ",
"                                          ",
"                                          ",
"                                          ",
"                                          ",
"                                          ",
"                                          ",
"                                          ",
"                                          ",
"                                          ",
"                                          ",
"                                          ",
"                                          ",
"                                          ",
"                                          ",
"                                          ",
"                                          ",
"                                          ",
"...              ..                       ",
"...................                       ",
"...................                       ",
"...................                       ",
"...................                       ",
"...................                       ",
"...................                       ",
"....           ....                       ",
"                                          ",
"                                          ",
"                                          ",
"                                          ",
"                                          ",
"                                          ",
"                                          ",
"                                          ",
"                                          ",
"                                          ",
"                                          ",
"                                          ",
"                                          ",
"                                          ",
"                                          ",
"                                          ",
"                                          ",
"                                          "
};
