/* XPM */
static char *result[] = {
/* columns rows colors chars-per-pixel */
"42 46 2 1 ",
"  c #FFDDAF",
". c None",
/* pixels */
"..........................................",
".......           ........................",
".....               ......................",
"...                  .....................",
"..                    ....................",
"..                     ...................",
".                       ..................",
".                       ..................",
"            .           ..................",
"          .....         ..................",
"         ......          .................",
"         .......         .................",
"         .......         .................",
"         .......         .................",
"         .................................",
"                 .........................",
"                   .......................",
"                     .....................",
"                      ....................",
"                       ...................",
"                       ...................",
"                        ..................",
"                        ..................",
"          .....         ..................",
"         ......          .................",
"         .......         .................",
"         .......         .................",
"         .......         .................",
"         .......         .................",
"         .......         .................",
"         .......         .................",
"         .......         .................",
"         .......         .................",
"         .......         .................",
"         .......         .................",
"         .......         .................",
"         ......          .................",
"          .....         ..................",
".                       ..................",
".                       ..................",
".                      ...................",
"..                     ...................",
"...                   ....................",
"....                 .....................",
".....              .......................",
".........        ........................."
};
