/* XPM */
static char *_6eacdc6acfe42e08087b172a7c024c4nllYkSlnEIjJwUcQ[] = {
/* columns rows colors chars-per-pixel */
"64 64 124 2 ",
"   c #050404",
".  c #090606",
"X  c #0A0906",
"o  c #070509",
"O  c #09070A",
"+  c #0C0A0C",
"@  c #110E0E",
"#  c #13110E",
"$  c #0F0D11",
"%  c #110E11",
"&  c #151214",
"*  c #191614",
"=  c #1C1916",
"-  c #161418",
";  c #19161A",
":  c #1D1A1B",
">  c #201E17",
",  c #211E1D",
"<  c #23211E",
"1  c #28231F",
"2  c #1E1C21",
"3  c #211E21",
"4  c #252322",
"5  c #292625",
"6  c #2B2926",
"7  c #26242A",
"8  c #292629",
"9  c #2D2A2B",
"0  c #312E2D",
"q  c #33312E",
"w  c #2F2C30",
"e  c #312E32",
"r  c #363532",
"t  c #363433",
"y  c #363533",
"u  c #353234",
"i  c #373735",
"p  c #373536",
"a  c #393433",
"s  c #383434",
"d  c #3A3434",
"f  c #393635",
"g  c #393735",
"h  c #3B3635",
"j  c #3C3735",
"k  c #373935",
"l  c #393A37",
"z  c #3B3A36",
"x  c #363439",
"c  c #39363A",
"v  c #393939",
"b  c #3C3C3A",
"n  c #3F3C3A",
"m  c #3D3A3C",
"M  c #3F3C3D",
"N  c #403A39",
"B  c #403D3D",
"V  c #423D3C",
"C  c #403E3C",
"Z  c #433E3D",
"A  c #403E3E",
"S  c #3F403C",
"D  c #3F413E",
"F  c #40413E",
"G  c #42413E",
"H  c #3F3C41",
"J  c #3F3E41",
"K  c #413E42",
"L  c #433F48",
"P  c #3E4042",
"I  c #434141",
"U  c #414343",
"Y  c #444442",
"T  c #454643",
"R  c #434144",
"E  c #444244",
"W  c #434444",
"Q  c #464546",
"!  c #494342",
"~  c #484643",
"^  c #484546",
"/  c #4B4546",
"(  c #4B4647",
")  c #474842",
"_  c #474945",
"`  c #4A4845",
"'  c #4A4945",
"]  c #484946",
"[  c #4C4A47",
"{  c #464449",
"}  c #49464A",
"|  c #4B4949",
" . c #4D494A",
".. c #4F4B4A",
"X. c #4E4C4A",
"o. c #4C4A4C",
"O. c #4F4B4C",
"+. c #4C4C4C",
"@. c #4E4D4E",
"#. c #514E4C",
"$. c #504D4E",
"%. c #4F504D",
"&. c #535046",
"*. c #52514E",
"=. c #474450",
"-. c #494651",
";. c #4C4A51",
":. c #514D51",
">. c #535351",
",. c #5A5555",
"<. c #575852",
"1. c #57575A",
"2. c #59555B",
"3. c #5B5A59",
"4. c #615E5D",
"5. c #676261",
"6. c #7B7A76",
"7. c #7E7C7A",
"8. c #817E7C",
"9. c #83817E",
"0. c #858382",
"q. c #898583",
"w. c #8A8887",
"e. c #8E8C8A",
/* pixels */
"i D U U K U K G T I Z ! z #.[ #.$.! K N ! ! B K / ~ G B G U T v 0 B G ~ ] ~ T ~ T I U L I ~ #.U I B Q Q _ [ ~ #.~  .~ U @.B Q m ",
"U N X @ +   @ X 0 # @ #   @ X q # > . . .   6   @ X       q & s 9 4     j X , .       , . , X   .   0 . 6 .       , O < @   X / ",
"T + N 1 X > . , 6 G q @ N   , * N , @ 3   * # N 6 * ,   * # a z 6 4   @ :  .s < l   @ # q , , 4   # X t 5 5 <   5 = 6 5 1 :   / ",
"_ * 5 q 0 * 6 X 9 9 V 6 @ N X 6 , d 5 @ 0 X > = Z 6 * 1 # @   z 6 0 :   , 4 B s , 0   : = 6 4 < 9 . = * 0 4 5 0 o 5 * 5 , 1 = #.",
"]   6 5 T q @ d % 4 9 B V X s % 9 5 9 a * e . , , Z q , 0 .   N 5 , * 5   4 3 B M ; 0   4 4 9 0 1 9   9 : t 5 0 9   4 * 4 : 9 [ ",
"*.6 ; 8 0 9 m @ N & e c N j % c X 9 5 t c & u O 5 , Z 0 * 5   c 6 0 , : 0 X u s i q < t X 0 : e q 5 c O 4 4 v i 4 m : X * l ,  .",
"#.X 0 @ 0 e t c & m & c H m s ; e O 0 d c L - i . , e e 0 * . N 0 , 0 , : } + c 6 u q 1 C   5 , 9 t 5 W   t 6 u m a &   a : < ~ ",
"X.q # t & 0 i e } + B ; e { E m - i + e e B K * ; + 9 5 N q # N 0 3 * 9 K & K X u 6 9 n ; s O 9 < n t 5 n + v 6 9 & 4 m X 0 @ $.",
"1.M { X s * e x K L - L : B u K c ; m * c u c ; % c + 8 6 i X S 0 1 6 , c E 5 } + 8 8 i m 3 m   e 3 e L 8  .O 9 + s m 8 L   5 | ",
">.H c m   B % i H <.o.O } ; { u { m - { - e ; m E $ L o 4 > 9 D 0 1   t e m H ; H o e 8 d a 3 L o c 3 e c 3 0   m 4 8 K 9 m   #.",
"1.9 m m W + m & c L o.{ O m O 9 x m K & } ; d m m m * u + ; X m 9 v s   e i H K 2 m o u 5 e K ; c O c e H 9 3 o.+ c w m B 9 m #.",
">.: e 0 B s + c % s L { L X c + e c s { 8 E % e m c Q + t     C 0 4 * i + c 9 { { : K   e 9 { e , c o K - 9 { 3 E X c 7 s m 0 #.",
"#.G ; q c K m @ c 4 c H / { O K & e m B :.%  .- 8 x m m + t   N 6 s 5 ; m + u c m L ; K $ c 8 { e 2 L @ % i L  .8 { o 8 q m 5 >.",
">.+ G ; 0 s s { % { 2 e c m K - U & ; m i L % { & x m s K * + v 0 4 t u ; K + s 9 K m 3 H + e w K m 0 ; o c 5 e { 9 H + s - i #.",
"*.t + s , e K L L X L & u m c { & : & t H x W * } % m x 9 9 ; T 0 1 : K K ; L + c 9 L { 3 H O e 9 K * 8 L o x i c K 7 K + 9 , ,.",
"] n u # c = c m K { % } & x m c & & K & K L ! { - } - e 8 z # B q < 4 6 W } : { + x 9 H L 4 $.- 9 @ L K 3 K + U 7 u x 6 c + 6  .",
"] 4 m a & K 2 c K m } % K ; c ; 0 { & B : c K L o.; } % 9 e 4 G s 4 o c i | Q 2 } % c w m { 8 K   H 9 m m 7 { + m w x { 9 E O #.",
"&.: 9 K K % -.2 c c H o.o E ; e K d K & } ; m m } o.- v X 0 X #.B 0 K @ c H v Q : L O c c L w 3 K O w e i H 7 E + H 3 K K 5 v  .",
") # t K { H @ K : s K { o.3 K & x m m } ; o.; K E H } & x & & G h 4 * E % H x H o.: E + H 4 w L 3 o.o B 7 u H 4 L + x 8 i c 9 >.",
") 4 # 0 { L { @ } 3 c K o.} X K & t H { o.% } : K m } L : u   T j j c - } % x H d { : } * % d K L 3 L O x 9 H W 7 W o x e u 5 ~ ",
">.  s % e c L } + } 2 3 K m } + u & m K } $.% ;.; x U  .t @ X b t < z G % } + H H K E 8 ; + H H E E 4 { O H w x K 8 o.O B e 0 #.",
"#.m O K ; s L B K + : 2 w c c L $ H 2 m c } } - ;.- v K U l # &.0 < 9 i W + } % K c B ; , } % c c o.K 5 W o H w m o.7 { O u 4 ,.",
">.:.c X B 3 e K K 2 + o.3 0 m :.{ $ } ; x L :.$.$ ] ; H e i # G 0 4 4 m c } & ;.$ 8 % m ;., K + m x m K 3 K O m e m } 3 {   s ,.",
"@., t c + K ; e 3 x E + { 2 e W L m &  .3 c K } } & { & e 4 q G 9 ,   w x H L ; u O m c E L : } % c e L { 8 } % K u K { 2 / . :.",
"~ : 5 w } + L : i K u L + :.- x u m { % } : ;.L #.W - { - 4 X D q 0 9 . e e L 0 3 W + m x 3.L : ;.+ m 9 L -.7 L $ H u H H : c >.",
"] * < v m ;.4 Q ; e m m { +  .: m L v } % { 6 x H ~ W % G & + G 9 5 @ t @ 9 8 e W = H % x m m { : L + u m m -.8 L $ H x c L , ;.",
"*.v - 0 m i { + H 4 m m e } & } : H m E H $ o.- v x H m = 4   G 9 l 6 = m X % e x H : G % x e } K 4 W 2 H m c { 3 -.- m e u s @.",
"<.  s % 0 E H m + H 2 c L x H X K - m K H H % c - u w v 9 # # S q 1 Z 0 3 * O m u n l : m O e 8 c K 7 { 3 c e s H 3 K O H 6 s X.",
"<.4 X 1 * z 0 t L + 0 ; u u k i & m & l 5 m H # v O 1 1 9 t @ l t 1 9 z @ & K & 9 < G r : t   4 5 E { 4 G X c 4 v Q 6 G   v 0 3.",
",.G 4 @ a * t l 9 m X 9 + 3 1 q u & a X 6 q n 0 O 6   < # 6 . D t 4 > X B 0 * I X < * q 6 1 9   4 4 z 9 , a O B 9 m s 6 H X q @.",
"*.> ~ 6   9 1 4 t t 0   6 * # q s s & q # : 6 G 9 . q * # 6 q n 9 6 + j j $.0 @ 6 X * 6 z 9 > 6 @ = , z G 6 z @ m z q l 1 q . ] ",
"] G z G *.] [ ) X.] ) X.G G G n N G G U B n n n U D G m G G G G q G [ T *.*.G z G G t z t t S N z m G  .] G G ~ *.I T G ) &.[ ] ",
"9.8.9.9.6.8.7.0.w.e.0.8.0.7.7.9.0.q.7.8.7.6.6.0.7.8.9.7.7.6.9.7.<.8.9.q.q.9.8.9.5.0.7.7.4.6.6.8.8.q.0.e.0.8.w.w.0.8.6.7.9.9.w.8.",
"G : < t 5 G 4 5 5 4 6 4 *.4 4 6 4 0 4 t 6 6 6 5 < > k 6 4 5 5 n 6 j 1 0 , 5 1 5 X., 4 4 4 5 , l 1 9 5 4 4 5  .6 q 4 4 4 5 D 1 [ ",
"G X < + t q 4 X.O 6 = 6 l s v + G + 8 t l q & m + 3 w 9 = =   n z 4 G > @ 4   6 w u 9 2 4   4 * q 5 ; z O 9 5 c q 4 m   1 > t [ ",
"<.6 + 0 : 0 v 9 K O c : i M Q W X Q - i t B I + t X 9 > < @ + b 6 5 * G 6 @ 0   4 6 C 9 : i o : = s t : m O u 9 G 9 3 i   9 # &.",
"3.9 G X Q 3 v H i m O o.2 l P H K & E : x 9 c m + v + < @ q X b 9 < , 9 m a * H @ 9 6 c s : m + 4 8 K { : { % c 9 E s 4 t   * [ ",
"*.t 6 U + { 3 m K v o.O ;.2 v P x Q & ;.2 u c K H + 6   4 < 4 n 9 1 X 9 9 a H & E - H e c H ; H + e 8 W } 8 o.+ 9 8 m v < t   %.",
"*.5 l 0 { + { 4 H W E ;.o { 7 H L L o.% K 2 x c W e $ Y @ 6 X n 6 s 0 . w x c U ; ;.& x x R W & M + c e } } 4 K + c c I P 4 n X.",
"X.  1 a u } $ E 7 K Q c ;.o -.7 c B E { & W ; x 9 e W X x & X n q < @ e + e e i } 2 { & c c W P & K & m H K { 7 L c c v H D < %.",
"*.< & 6 B t } + @.7 v H ;.;.o P 3 m H =.} % L % % P H H & v   G q q U # z % s v m ;.; H & P v H L * :.O K m L L m } % H m l 9 X.",
"*.  U : 9 K m ;.$ -.7 v -.P ;.$ L ; x H { { @ & 2 x H K { $ + ] z 4 s m @ K $ c m } @.: ;.; H x e } % L O B m U L : -.& c 8 m  .",
"] m   c ; 0 K K ;.O -.7 v P P P + W 2 w m m & O { 2 x H H { % C s 4 s s B O ~ % v H H P - { $ x c d o.; m $ e c { } 5 @.+ x < 3.",
"X.q q   m 3 e K P ;.O -.7 x -.-.{ o H 2 6 &  .}   ;.2 x H P & v l 5 6 c L L X -.- m P W P - { + x x :.o.O x @ E m ;.o.; E   5 #.",
"I 9 9 c O m 3 c H H -.O =.7 w H m } % d   m { H ;.+ } 2 i 6 9 n N 4 + v m Q -.- ;.= P v v P : { - c m o.c : { % m c m o.2 K   ] ",
"#.4 5 i K + K 8 x H P { O P 7 u H H x + { 2 i H @.;.+ { - 4 X n s q K & m P ;.{ & +.- v x P } ; K % c K L c 3 $.- m c K Q 4 m #.",
"T = 4 x K m O { 2 H H H { $ L ; x w 8 K $ H 2 x L } ;.$ H + # D q 1 & E - x K H -.- { & 1.P { H ; L m e x L } , } % L u E i : >.",
" .j , e 0 0 K + H 2 x H H P + { ; - K x W $ W : m { } } & 6   N 6 s z & } & H H x ;.- P - P v H { B c + x 9 L } 4 -.% c 8 0 6 #.",
">.  G * 0 x c L + L 3 t L L E % % ; c c c { + m ; c L K } + X N 0 4 m ~ % } - K L i ;.& m + i x  .u ; L % c e m } 3 K + s 3 0 @.",
"T 5 O t ; i x e K o m 2 e m d & % { ; c c e K X H ; c H U 9 + G t 5 c m L % L ; H L e { - H % m 7 K K ; m + c e c L 2 H + 5 * *.",
"G s t O c ; e K t E O m 4 8 % m K X L ; c c K B o =.2 x m t X v s , e N L m % =.; H x c E ; c % e c K K ; K + m i m L 4 m   : _ ",
"] : s s   m 4 c K c E O e   0 m e } + K ; e H L L o L 2 i 4 0 N N 5 * e 0 :.} % =.- x c x s & E % e c m E ; H & m w c m ; 9   ] ",
"G < t c B O { 3 e L K e   { & 8 e e K X K 2 u c ~ { O L & 0 # G q q U * e c m { % L % i c 9 { & K % e x c L - L $ e 0 K v : 9 X.",
"G @ , t ~ B   K 8 9 e m {   L 3 8 K K K o m 2 8 x 2.L   E ; + T a 4 . W & 8 H { { % K s 5 e m L % K $ c s s K 2 c X e w s t & _ ",
"G 1 @ 9 m 8 K O K ; 3 K K m   H : e e E L . K : 0 L { c X s   G z s s & s + 8 c } K B u % 0 c { K + L * 8 c K H ; H @ e 5 i 4 | ",
"G . 6 & 9 s 9 I @ % 5 m { K K + B ; e K K L % m - e c K c % & #.0 4 0 i % } % c c :.e % m + i x K L * E + c i m K ; L @ 9 = B [ ",
"G 1   9 ; 9 m 5 @ O L * 9 m c L + m & u i u E + { & w x M w # z q 4 0 K s + { ; t 9 Q m % H % e 9 W m * H $ u x m H : H X 5 : *.",
"X.t 9   l : 8 @ 9 L O K ; e m m Q + l ; e e m K X m - u 9 n X G G 4 , 6 K K & v + q 9 c c ; m * i 0 B U ; m + u 9 t M ; c O = } ",
"%.9 i t   5   9 c t m   s : e m l c X n & 8 m I m + u + 6 9 6 D q <   4 t  .K & m + 6 e e m % K + 0 e m c : { + e 8 9 c ; q   ~ ",
"G < 1 4 4   t - 9 d 0 x   8 & 9 9 i i @ i + e c m H + v + <   n 9 0 4   5 B U i - M % u 8 i x % c + 4 9 { c - v + w 7 e t * 4 } ",
"G . = * 4 6   5 & 9 9 n e o 0 # 4 6 w q + 9 # u u v m X l X # r 5 4 X < z 1 9 t l & m + 9 9 9 q & 0   9 < t 9 ; e + e 5 0 q * l ",
"[ # X # < 6 6   1 X 6 q Q 5   0 X 1 1 w u X q - : 9 m 9 X *   t 6 t < G , O q q v 6 + 5 X 6 5 s 9 @ 5   > = w 9 ; 0   6 < 9 9 ] ",
"%.    . = * 6 1   = X , 9 9 , o t + 6 4 t 5 + 6 . 5 4 T < +   z q < o.= + 9 O 1 < 6 5 + :   : : n 1 # 0   * # 6 4 * 1   1 , C  .",
"T 4 : < < q 4 G 4 6 4 5 5 5 B l 6 9 4 8 5 @.5 9 5 9 9 4 Y 4 9 z 9  .4 ~ 5 4 t 4 4 4 s 5 9 5 5 8 9 U 9 s 6 4 6 3 9 6 9 4 1 5 , ~ "
};
