/* XPM */
static char *result[] = {
/* columns rows colors chars-per-pixel */
"27 45 17 1 ",
"  c gray5",
". c #350000",
"X c #2D2D2D",
"o c #3C3C3C",
"O c #62001F",
"+ c #7C2732",
"@ c #2E2948",
"# c #006442",
"$ c #255A6A",
"% c #A34057",
"& c #BD6B79",
"* c #00947C",
"= c #6D8868",
"- c #00BEC6",
"; c #00C6CE",
": c #A5D8EB",
"> c None",
/* pixels */
">>>>>>>>>>>>>>>>O+++>>>>>>>",
">>>>>>>>>>>>>>O+++++++>>>>>",
">>>>>>>>>>>>>.+%%%%%+++>>>>",
">>>>>>>>>>>>>++%%%%%%++O>>>",
">>>>>>>>>>>>+++%%%%%%%+O>>>",
">@@>>>>>>>>>.++%&&&&&%++>>>",
"@o:$@>>>>>>>O++%&&&&&%+O>>>",
"@@$o$o@>>>>>O+++%&&&%++OO>>",
"> o =$o@>>>O%+++%%%%++++O>>",
">> o$=$o   .+++%%%%%++++O>>",
">> o$$=$ ooo+++%%%%%%++++>>",
">>> o$$=$$ooo++%%%%%%+++O>>",
">>>> o$$=$:$oO+%%%%%%+++O>>",
">>>>> o$$= ooOO+%%%%O+OOX >",
">>>>>O o$$ o::&&OOOOOO++X -",
">>>>>#; o   $$+%%%&%+.+++  ",
">>>>>#; o   o$$+++++.+++X  ",
">>>>>#;* o  $$++++O%%+++O >",
">>>>>#**  o oo.+%%++%+++O.>",
">>>>>>#*   o =@@@@@+%++O.>>",
">>>>>>+%    o=@#-#@@%++O.>>",
">>>>>>>+O   o @-:-@@%+O..>>",
">>>>>>>>>  + .@#-#@ ++O..>>",
">>>>>>>>> ++%% @ oo.++...>>",
">>>>>>>>> +%%+@@@&&o+O...>>",
">>>>>>>>  O+% @@ $ooO..o>>>",
">>>>>>>> oOO@%%&&:$$..@  >>",
">>>>>>>> oO.O%&&&:$$@oo@ >>",
">>>>>>>>>o:%.+%&&=$$@oo@ >>",
">>>>>>>>>>o..++++=$$o@  .O>",
">>>>>>>>>>  ..oo@@@  o   O>",
">>>>>>>>>> ooo@@   o    +.>",
">>>>>>>>++oo@ o  >>.O+&&+..",
">>>>>>>>O% @oo@@   OO+%&+O.",
">>>>>>>>.+  ooo$    .+%:%OO",
">>>>>>>>>O% @$$@@   OO+++.+",
">>>>>>>>>.% @ooo$    +&O%O.",
">>>>>>>>>>%+ o$$.     +%%O ",
">>>>>>++++%++%&&++        >",
">>>>>+++%%+%+%&%%+O       >",
">>>>>+%%%%&&&&%%%++      >>",
">>>>>O+%%%%%++%+%++     >>>",
">>>>>O%++++++++%+..    >>>>",
">>>>>>O%+O%+++++++   >>>>>>",
">>>>>>>>>>....++..>>>>>>>>>"
};
