/* XPM */
static char *result[] = {
/* columns rows colors chars-per-pixel */
"40 45 16 1 ",
"  c gray5",
". c #350000",
"X c #3C3C3C",
"o c #62001F",
"O c #7C2732",
"+ c #2E2948",
"@ c #006442",
"# c #255A6A",
"$ c #A34057",
"% c #BD6B79",
"& c #00947C",
"* c #6D8868",
"= c #00BEC6",
"- c #00C6CE",
"; c #A5D8EB",
": c None",
/* pixels */
":::::::::::::::::::OOOOOOO::::::::::::::",
"::::::::::::::::::oO$$OOOOOo::::::::::::",
":::::::::::::::::oO$$$$$$$OOo:::::::::::",
"::::::::::::::::oOO$$%%$$$$OO:::::::::::",
"::::::::::::::::oO$$$%%$$$$Oo:::::::::::",
":::::::::::::::oOO$$$%$$$$$Oo:::::::::::",
":::::::::::::::o$$$$$$$$$$OOo.::::::::::",
":::::::::::::::=;$%%$$$$$$OOo.::::::::::",
":::::::::::::::=;;o$$$$$$$$Ooo::::::::::",
":::::::::::::::o=;;#O$$$$$OOoo::::::::::",
":::::::::::::::.o==##O$O$$OOoo::::::::::",
":::::::::::::::  .o    $OOOOOo::::::::::",
"::::::::::::::: $        Oooo:::::::::::",
"::::::::::::::: $$    $$$OO.OOOO ++ ::::",
":::::::::::::: +$$########;OOOO$+XX=@:::",
":::::::::::::: ##*******;XX;$$%%+XX=@XXX",
"::::::::::::OO#*XXXXXXXXXXX $$%$+XX @XXX",
":::::::::::$$#*X+OOOo XXXXX;;#$O +XX XX#",
":::::::::::oX*XO oXXXXXX#X##;XXo  XX X#X",
":::::::XXXXX*XXXXX###**;;;;;;*X X+XXoO#X",
":::::XX#;;;;;;;;;;;;;;;;**####$OO ++$$o#",
"::::  ;;;;;;;;***#**######XX$$$$$O  %OOo",
"X##XX;****###***######XXXX;;%$$%%$++OOo:",
"X;*#X ###### @&-&@$ XXXXO$$;;$$$$$++ oo:",
"XX  X #X  Xo@&---&@ XXXXOO XX$$OOO+  .::",
"XX  :     : oOO$$&@ XXXXXOO$$OO.oo    ::",
":::::::::::::..oOOO #X +oo ;#OOoo. :::::",
"::::::::::::OO +++  #X +.oO  Ooo.:::::::",
"::::::::::::O% +++X XX+. #oo# ..::::::::",
"::::::::::::o%$  XX;#X   #### ::::::::::",
":::::::::::OOoo   X;#X XX# #X ::::::::::",
"::::::::::OOooO    ;#  XXXXX  ::::::::::",
":::::::OOOO%oo   OO##X +XXXX#X :::::::::",
"::::::OO$$$O$%%%OOOO:::  +X##   ::::::::",
"::::::O$$$$%%$$$O$oO  :O$%O++# .::::::::",
"::::::OO$$$$$$$$OOo.   OOO$$O+ Oo:::::::",
"::::::OO$$$o%OOOO.O     ooOOOO$OO:::::::",
"::::::..OOoOOoooo.       .ooO$$$o:::::::",
"::::::: .....             Oooo$$.:::::::",
":::::::                  OOO$$$Oo:::::::",
"::::::::                 O$$$$$Oo:::::::",
"::::::::::               O$%%%Oo.:::::::",
":::::::::::::            oO$$OoO.:::::::",
":::::::::::::::::        o$$$$Oo::::::::",
"::::::::::::::::::::      oO$Oo:::::::::"
};
