/* XPM */
static char *result[] = {
/* columns rows colors chars-per-pixel */
"35 45 16 1 ",
"  c gray5",
". c #350000",
"X c #3C3C3C",
"o c #62001F",
"O c #7C2732",
"+ c #2E2948",
"@ c #006442",
"# c #255A6A",
"$ c #A34057",
"% c #BD6B79",
"& c #00947C",
"* c #6D8868",
"= c #00BEC6",
"- c #00C6CE",
"; c #A5D8EB",
": c None",
/* pixels */
"::::::::::::::OOOOOOOO:::::::::::::",
":::::::::::::OO$$$OOOOo::::::::::::",
"::::::::::::oO$$$$$$OOO.:::::::::::",
"::::::::::::oO$$%%$$$OO.:::::::::::",
"::::::::::::O$$$%%$$$OO.:::::::::::",
":::::::::::oO$$%%%$$$OO.:::::::::::",
":::::::::::O$$$%%$$$OOOO.::::::::::",
":::::::::::=O.%%%$$$OOOOo::::::::::",
":::::::::::=;=O%$$$$OOOoo::::::::::",
":::::::::::=;;;;#X$$$OOoo::::::::::",
":::::::::::O=;;;#X.$OOOoo::  ::::::",
":::::::::::. ===O    .ooOO X#+#X:::",
":::::::::++ .       O oOOO$X##=XX :",
"::::::::=++O$     $OOXX#$$$XX# XXX:",
"::::::::#+O$%$   XXXX## %;$+XX #XX:",
":::::::: +O$%$$#XXXXXXX $ $o++ X X:",
":::::::: ++$$$#**XX XXX XXX. X# Oo:",
":::::::: +++O#;*X$* XXXXX#X XX# $O:",
":::::::O. X ;;#OOXXXXX###X.OOXX $Oo",
":::::::$+ OO##XX**#X###XXXO$$OX+Oo.",
":::::::O OXX#X**#X###XXX$$$O%$++ O:",
":::::::oXXX#*;*####XXXX.$#$O$O   o:",
":::::: XX#;;XX#@@@XXX.$$;; $OO   ::",
"::::::##;;XXXX@&&&@XX.$$X OOo.. :::",
"::::: X;;XXXX@&---&XXXO$$; O...::::",
":::*#XXXXXXX&&--&$   oOO## oo::::::",
":: #;; #XX .oOOOOOo  .ooO;X.:::::::",
":: X;# XXX+++....XXX+X.oo . :::::::",
"::: X : . ++++ O#X#XXXXX#  ::::::::",
":::::::OO$+++  o###XXXXXX  ::::::::",
":::::::OO$$+    ###XXXXX#  ::::::::",
"::::::OOOOO.  :::##X+XXXX# ::::::::",
":::::OOO$oo   :::::X +++#   :::::::",
"::::OOO$oo O :::::::  $$OO .:::::::",
":::Oo$%OO OOo      ::o$OOOOOO::::::",
":OOO$oO$$$OoO        .oo.OO$O::::::",
"OO$$$$%$OOooo         ...O$$OO:::::",
"o$$%%$$OO.OOo          o$OOO$O:::::",
"oO$$$OO$OOOO           O$$$$OOo::::",
"Oo$;%OoOO              O$$$$$OO::::",
":OOOOO                 oO$;$Oo.::::",
"::::                   OoO$OOo.::::",
"::::::                 .OOOO$o:::::",
":::::::::::              .OOo::::::",
":::::::::::::::::           :::::::"
};
