/* XPM */
static char *result[] = {
/* columns rows colors chars-per-pixel */
"31 45 16 1 ",
"  c gray5",
". c #350000",
"X c #3C3C3C",
"o c #62001F",
"O c #7C2732",
"+ c #2E2948",
"@ c #006442",
"# c #255A6A",
"$ c #A34057",
"% c #BD6B79",
"& c #00947C",
"* c #6D8868",
"= c #00BEC6",
"- c #00C6CE",
"; c #A5D8EB",
": c None",
/* pixels */
":::::::::::::oooo::::::::::::::",
":::::::::::ooOOOOoo::::::::::::",
"::::::::::oOOOO$$$OO:::::::::::",
":::::::::oOOO$$$$$$Oo::::::::::",
":::::::::ooO$$%%%$$Oo::::::::::",
":::::::::ooO$$%%%$$Oo::::::::::",
":::::::::ooO$$$%%$$Oo.:::::::::",
"::::::::ooOO$$$%%%$$OO:::::::::",
"::::::::ooOOO$$%$$$$Oo:::::::::",
"::::::  .oOOOO$$$$O=o.:::::::::",
"::: #+XX ooO XO=;;;;=::::::::::",
"::#X XXX$$$  X=;;;=;=::::::::::",
"::XX XX$O$Oo  O=;=O=o::::::::::",
"::XX +O$XX#Xo       O::::::::::",
"::XO  O$ X*#XO      $ ++:::::::",
":Oo +X .   *#OO    O$$++ ::::::",
":oO +X     X*#$O.$$$%%++ ::::::",
"OO  XOOX    ;*#OOO;$%%++ ::::::",
"Oo  O$O X +X ;#$$$%O$+++X::::::",
":  o$OOX+X +XX;#O$$$+++ :::::::",
": .o$OO$ +X +##*$$$$ XXX:::::::",
"::..o #$  +XX*##OO$O ++Oo::::::",
":::oooXO$  @+X;#+$O$O+X%o::::::",
"::::. OO$ @&@+#;#+$oO+ Oo::::::",
"::::..;O$ &&&  ;;* .O  o:::::::",
":::: X OO &--& #;;*   .o:::::::",
":::: X ooO$&--  #X ;XX ::::::::",
"::::::. XX.oOOO ;#X.XX  :::::::",
"::::::  XX #o.. ; ;;#+  :::::::",
"::::::  ++ #;;OOX ; #++ :::::::",
"::::::  ++ #;;OOoXX# ++ :::::::",
":::::   ++ #**oO:  ++O$X ::::::",
"::::: O  ++   ::::  O$$O ::::::",
"::::.oO%$   :::::: oO$OOo :::::",
":::.oooOO$ ::::::::.oOO$O.:::::",
":::oOOo.....::::::: .oOO$Oo::::",
"::.oOOoo.O...    ::: oo$OO$o:::",
":.oOOO$$Oo..        .oooO$$Oo::",
".oOO$$$$Oo.         .oO$$$$OOo:",
".oO$$$OOo.          .ooO$$$$$Oo",
".oOO$$Oo.            .ooO$$$$$O",
".oOOOOo.              .OoOO$%$o",
":.ooo..                .OooOOOo",
":::                     .o...o.",
":::::::                   oOOo:"
};
