/* XPM */
static char *result[] = {
/* columns rows colors chars-per-pixel */
"27 45 16 1 ",
"  c #202020",
". c #002040",
"X c #104860",
"o c #386078",
"O c gray25",
"+ c #505050",
"@ c #686868",
"# c #A04838",
"$ c #D07858",
"% c #F8A058",
"& c #488098",
"* c #989898",
"= c #80A0B0",
"- c #F0B888",
"; c gray91",
": c None",
/* pixels */
":::::::oooX::::::::::::::::",
":::::oooooooX::::::::::::::",
"::::ooo&&&&&o.:::::::::::::",
":::Xoo&&&&&&oo:::::::::::::",
":::Xo&&&&&&&ooo::::::::::::",
":::oo&=====&oo.:::::::::OO:",
":::Xo&=====&ooX:::::::O@;+O",
"::XXoo&===&oooX:::::O+@+@OO",
"::Xoooo&&&&ooo&X:::O+@* + :",
"::Xoooo&&&&&ooo.   +@*@+ ::",
"::oooo&&&&&&ooo+++ @*@@+ ::",
"::Xooo&&&&&&oo+++@@*@@+ :::",
"::Xooo&&&&&&oX+@;@*@@+ ::::",
": OXXoX&&&&oXX++ *@@+ :::::",
"% OooXXXXXX==;;+ @@+ X:::::",
"  ooo.o&=&&&o@@   + -#:::::",
"  Oooo.ooooo@@+   + -#:::::",
": Xooo&&Xoooo@@  + $-#:::::",
":.Xooo&oo&&o.++ +  $$#:::::",
"::.Xoo&oOOOOO* +   $#::::::",
"::.Xoo&OO#%#O*+    &o::::::",
"::..Xo&OO%;%O +   Xo:::::::",
"::..Xoo O#%#O. o  :::::::::",
"::...oo.++ O &&oo :::::::::",
"::...Xo+==OOOo&&o :::::::::",
":::+..X++@ OO &oX  ::::::::",
"::  O..@@;==&&OXX+ ::::::::",
":: O++O@@;===&X.X+ ::::::::",
":: O++O@@*==&o.&;+:::::::::",
":X.  O+@@*oooo..+::::::::::",
":X   +  OOO++..  ::::::::::",
":.o    +   OO+++ ::::::::::",
"..o==oX.::  + O++oo::::::::",
".Xo=&oXX   OO++O &X::::::::",
"XX&;&o.    @+++  o.::::::::",
"o.oooXX   OO@@O &X:::::::::",
".X&X=o    @+++O &.:::::::::",
" X&&o     .@@+ o&::::::::::",
":        oo==&oo&oooo::::::",
":       Xo&&=&o&o&&ooo:::::",
"::      oo&&&====&&&&o:::::",
":::     oo&o&oo&&&&&oX:::::",
"::::    ..o&oooooooo&X:::::",
"::::::   ooooooo&Xo&X::::::",
":::::::::..oo....::::::::::"
};
