/* XPM */
static char *result[] = {
/* columns rows colors chars-per-pixel */
"33 45 16 1 ",
"  c #202020",
". c #002040",
"X c #104860",
"o c #386078",
"O c gray25",
"+ c #505050",
"@ c #686868",
"# c #A04838",
"$ c #D07858",
"% c #F8A058",
"& c #488098",
"* c #989898",
"= c #80A0B0",
"- c #F0B888",
"; c gray91",
": c None",
/* pixels */
"::::::ooooooX::::::::::::::::::::",
":::::Xooo&&&oX:::::::::::::::::::",
"::::ooo&&&&&&o:::::::::::::::::::",
":::oo&&&&&&&&oX::::::::::::::::::",
":::oo&&&==&&&oXo:::::::::::::::::",
"::.Xo&&===&&oooo:::::::::::::::::",
"::.Xoo&&=&&&ooo&:::::::::::::::::",
"::.Xooo&&&&&ooo.:::::::::::::::::",
"::.Xooo&&&&&&o&.:::::::::::::::::",
"::XXooo&&&&&oooo:::::::::+@+::@@+",
"::XXooo&&&&&ooo:::++:::+@@*@+@;;@",
"::XXooo&&&&&oo +@@+*+++@;*@@@**+ ",
"::.oooo&&&&o. @@**++. +**@@+++  :",
":::X.Xoo&&o&.@@;*+o=X+@+@@++++:::",
":::Xo......@@*;++&++;@@@@+++ ::::",
"::XXo.Xoo&&+;*+++@@+@@@@++  :::::",
"::XXo&.oXo+;*+++;@*+@@@$#::::::::",
"::XoXooo&o+++++@**@++&$$#::::::::",
"::o OOOO oX+@ @*@@++ --$#::::::::",
"::OO#%#OO&;+@**@+++&&--#:::::::::",
":: O%;%+Oo+@@+++OO =$$&.:::::::::",
":: +#%#+O++@+++OOO &=&X::::::::::",
"+@@+@@++ +.+&o  OO.XoX:::::::::::",
"  @+@@+O =&&&@@ O :::::::::::::::",
" +@+@++O&o=&o@+ + :::::::::::::::",
" +@+o&== &o&o   +  ::::::::::::::",
" +@&&==&O&o=oX  +++::::::::::::::",
"++@&&=&&OOo&o@+ +++::::::::::::::",
"++@&o&&oO .o. +  @+::::::::::::::",
"  +X O   .X.++  ++:::::::::::::::",
"::::   && .@@++O ::::::::::::::::",
":::::.o&&o+ ++OO ::::::::::::::::",
":::: o&=&o   @@ &o:::::::::::::::",
":::  Xo&&oO@+++ =o:::::::::::::::",
":::  oo== OO@@ &oX:::::::::::::::",
":::  o&&o ++++ =XX:::::::::::::::",
":::       @@+O &.  ::::::::::::::",
":::    Xo&&&& =o    :::::::::::::",
"::::   oo&&&&&&ooXo :::::::::::::",
"::::   Xo&&=&&o&&&oo.::::::::::::",
"::::   o&o&&===&&&&&o::::::::::::",
":::::  Xo&ooo&&&==&oX::::::::::::",
":::::: oo&&o.ooooooXX::::::::::::",
"::::::::oo&&Xooooo&X:::::::::::::",
"::::::::::.........::::::::::::::"
};
