/* XPM */
static char *result[] = {
/* columns rows colors chars-per-pixel */
"31 47 16 1 ",
"  c #202020",
". c #002040",
"X c #104860",
"o c #386078",
"O c gray25",
"+ c #505050",
"@ c #686868",
"# c #A04838",
"$ c #D07858",
"% c #F8A058",
"& c #488098",
"* c #989898",
"= c #80A0B0",
"- c #F0B888",
"; c gray91",
": c None",
/* pixels */
"::::::::::::::::XXXXX::::::::::",
":::::::::::::::XoooooX:::::::::",
"::::::::::::::Xoo&&&ooX::::::::",
":::::::::::::Xo&&&&&&&oX:::::::",
":::::::::::::Xo&&&=&&&oX:::::::",
":::::::::::::Xo&&===&&oX:::::::",
"::::::::::::.Xo&&===&&oX.::::::",
"::::::::::::.oo&&===&&oX.::::::",
"::::::::::: .ooo&&=&&ooo.::::::",
"::::::::::  ..X.XoooX.X..::::::",
"::::::::: OOO& %;;;;;% .:::::::",
":::::::::  O&& %;;%;;% ::::::::",
":::::::::   O oX%%.%%X.::::::::",
"::::::::XX O+Oo .+@+  X::::::::",
":::::::Xo  O+Oo   +   ooo::::::",
":::::::XX +@@@+OX   oo&& O ::::",
":::::::X.o+@@@+ oXo&&&=&++O :::",
":::::::XXo+***+X&&&&==&=++O#:::",
":::::::XXX+***+oo&&&=&&+++%#:::",
":::::::X.@@;;;@ooXo&&o++++%#:::",
":::::::  +@;;;@XXoo&& ++OO#::::",
":::::::  #@;;;@&oXXXo @@o :::::",
"::::::: #$#OOO==&X&&+@+&o.:::::",
"::::::::#-$@@@oo&o=&++@=o.:::::",
"::::::::#- @@@ &oo&o++ oX.:::::",
"::::::::X$ ;;; &oooOOO X.::::::",
"::::::::.. ; ; oX..   +. ::::::",
":::::::::.; @ ;..ooooO.@  :::::",
"::::::::: @+;+@Oooo @@@@  :::::",
"::::::::: O; ;  XoXOO++O  :::::",
":::::::::  O@O O.XX ++++  :::::",
"::::::::XX    O :. O+++O@ :::::",
":::::::X.Xo OO X::: Oo&&@ :::::",
":::::::XoXXo  XX::: o&&&o  ::::",
":::::XXooo..XXX. ::XXoo&&. ::::",
"::::Xooo&&&oXX..    XXo&&&  :::",
":::Xo&&&&=&oo.X.    Xooo.&o.:::",
":::XXo&&&&oX..       XX&&&ooo::",
":::oX.XXX.Xo          XXo&&&o::",
":::.oo&&&&o           XX&&&=oo:",
"::::......            XX&&oooo:",
":::::                 ..o&&&&oo",
":::::::                Xo&&&&&X",
":::::::::              XXo&=&oX",
":::::::::::::          XX&o&oX.",
"::::::::::::::::::      ooXooX:",
"::::::::::::::::::::::   XXXX::"
};
