/* XPM */
static char *result[] = {
/* columns rows colors chars-per-pixel */
"35 45 16 1 ",
"  c #202020",
". c #002040",
"X c #104860",
"o c #386078",
"O c gray25",
"+ c #505050",
"@ c #686868",
"# c #A04838",
"$ c #D07858",
"% c #F8A058",
"& c #488098",
"* c #989898",
"= c #80A0B0",
"- c #F0B888",
"; c gray91",
": c None",
/* pixels */
":::::::::::::oooooooo::::::::::::::",
"::::::::::::Xoooo&&&oo:::::::::::::",
":::::::::::.ooo&&&&&&oX::::::::::::",
":::::::::::.oo&&&==&&oX::::::::::::",
":::::::::::.oo&&&==&&&o::::::::::::",
":::::::::::.oo&&&===&&oX:::::::::::",
"::::::::::.oooo&&&==&&&o:::::::::::",
"::::::::::Xoooo&&&===.o%:::::::::::",
"::::::::::XXooo&&&&=o%;%:::::::::::",
"::::::::::XXoo&&&+@;;;;%:::::::::::",
"::::::  ::XXooo&.+@;;;%o:::::::::::",
":::+@O@+ ooXX.    o%%% .:::::::::::",
": ++%@@+&oooX o       . OO:::::::::",
":+++ @++&&&@++oo&     &oOO%::::::::",
":++@ ++O&;= @@++++   &=&oO@::::::::",
":+ + OOX& & +++++++@&&=&oO ::::::::",
":Xo @+ .+++ +++ ++**@&&&OO ::::::::",
":o& @++ +@+++++ *&+*;@oOOO ::::::::",
"Xo& ++oo.+@@@+++++oo@;; + .o:::::::",
".XoO+o&&o+++@@@+@**++@@oo O&:::::::",
":o OO&=o&&&+++@@@+@**+@++o o:::::::",
":X   o&o&@&.++++@@@@*;*@+++X:::::::",
"::   oo& ;;&&.+++###@++;;@++ ::::::",
"::: ..Xoo +&&.++#$$$#++++;;@@::::::",
"::::...o ;&&o+++$---$#++++;;+ :::::",
"::::::XX @@ooX   &$--$$+++++++@*:::",
":::::::.+;oXX.  XoooooX. ++@ ;;@ ::",
"::::::: . XX.+O+++....OOO+++ @;+ ::",
"::::::::  @+++++@+@o OOOO . : + :::",
"::::::::  ++++++@@@X  OOO&oo:::::::",
"::::::::  @+++++@@@    O&&oo:::::::",
":::::::: @++++O+@@:::  .ooooo::::::",
":::::::   @OOO +:::::   XX&ooo:::::",
":::::::. oo&&  ::::::: o XX&ooo::::",
"::::::oooooo&X::      Xoo oo=&Xo:::",
"::::::o&oo.XX.        oXo&&&oX&ooo:",
":::::oo&&o...         XXXoo&=&&&&oo",
":::::o&ooo&X          Xoo.oo&&==&&X",
"::::Xoo&&&&o           oooo&oo&&&oX",
"::::oo&&&&&o              ooXo=;&Xo",
"::::.Xo&;&oX                 ooooo:",
"::::.Xoo&oXo                   ::::",
":::::X&oooo.                 ::::::",
"::::::Xoo.              :::::::::::",
":::::::           :::::::::::::::::"
};
