/* XPM */
static char *result[] = {
/* columns rows colors chars-per-pixel */
"130 66 34 1 ",
"  c #202020",
". c #2C2C2C",
"X c gray22",
"o c #484848",
"O c gray33",
"+ c #646464",
"@ c gray44",
"# c #7C7C7C",
"$ c #980000",
"% c #A80000",
"& c #B00000",
"* c #C80000",
"= c #FC0000",
"- c #FC2020",
"; c #FC4040",
": c #FC5454",
"> c #FC5C5C",
", c #C87C4C",
"< c #FC7C7C",
"1 c #FCA470",
"2 c #FCFC54",
"3 c gray55",
"4 c #989898",
"5 c gray66",
"6 c #B4B4B4",
"7 c #FC9C9C",
"8 c #FCB8B8",
"9 c #C0C0C0",
"0 c #D0D0D0",
"q c gainsboro",
"w c #FCD8D8",
"e c #ECECEC",
"r c gray99",
"t c None",
/* pixels */
"tttttttttttttttttttttttttttttttttttttttttttttttttttttttttttttttttttttttttttttttttttttttttttttttttttttttttttttttttttttttttttttttttt",
"tttttttttttttttttttttttttttttttttttttttttttttttttttttttttttttttttttttttttttttttttttttttttttttttttttttttttttttttttttttttttttttttttt",
"tttttttttttttttttttttttttttttttttttttttttttttttttttttttttttttttttttttttttttttttttttttttttttttttttttttttttttttttttttttttttttttttttt",
"tttttttttttttttttttttttttttttttttttttttttttttttttttttttttttttttttttttttttttttttttttttttttttttttttttttttttttttttttttttttttttttttttt",
"tttttttttttttttttttttttttttttttttttttttttttttttttttttttttttttttttttttttttttttttttttttttttttttttttttttttttttttttttttttttttttttttttt",
"tttttttttttttttttttttttttttttttttttttttttttttttttttttttttttttttttttttttttttttttttttttttttttttttttttttttttttttttttttttttttttttttttt",
"tttttttttttttttttttttttttttttttttttttttttttttttttttttttttttttttttttttttttttttttttttttttttttttttttttttttttttttttttttttttttttttttttt",
"tttttttttttttttttttttttttttttttttttttttttttttttttttttttttttttttttttttttttttttttttttttttttttttttttttttttttttttttttttttttttttttttttt",
"tttttttttttttttttttttttttttttttttttttttttttttttttttttttttttttttttttttttttttttttttttttttttttttttttttttttttttttttttttttttttttttttttt",
"tttttttttttttttttttttttttttttttttttttttttttttttttttttttttttttttttttttttttttttttttttttttttttttttttttttttttttttttttttttttttttttttttt",
"tttttttttttttttttttttttttttttttttttttttttttttttttttttttttttttttttttttttttttttttttttttttttttttttttttttttttttttttttttttttttttttttttt",
"tttttttttttttttttttttttttttttttttttttttttttttttttttttttttttttttttttttttttttttttttttttttttttttttttttttttttttttttttttttttttttttttttt",
"tttttttttttttttttttttttttttttttttttttttttttttttttttttttttttttttttttttttttttttttttttttttttttttttttttttttttttttttttttttttttttttttttt",
"tttttttttttttttttttttttttttttttttttttttttttttttttttttttttttttttttttttttttttttttttttttttttttttttttttttttttttttttttttttttttttttttttt",
"tttttttttttttttttttttttttttttttttttttttttttttttttttttttttttttttttttttttttttttttttttttttttttttttttttttttttttttttttttttttttttttttttt",
"tttttttttttttttttttttttttttttttttttttttttttttttttttttttttttttttttttttttttttttttttttttttttttttttttttttttttttttttttttttttttttttttttt",
"tttttttttttttttttttttttttttttttttttttttttttttttttttttttttttttttttttttttttttttttttttttttttttttttttttttttttttttttttttttttttttttttttt",
"tttttttttttttttttttttttttttttttttttttttttttttttttttttttttttttttttttttttttttttttttttttttttttttttttttttttttttttttttttttttttttttttttt",
"tttttttttttttttttttttttttttttttttttttttttttttttttttttttttttttttttttttttttttttttttttttttttttttttttttttttttttttttttttttttttttttttttt",
"tttttttttttttttttttttttttttttttttttttttttttttttttttttttttttttttttttttttttttttttttttttttttttttttttttttttttttttttttttttttttttttttttt",
"tttttttttttttttttttttttttttttttttttttttttttttttttttttttttttttttttttttttttttttttttttttttttttttttttttttttttttttttttttttttttttttttttt",
"tttttttttttttttttttttttttttttttttttttttttttttttttttttttttttttttttttttttttttttttttttttttttttttttttttttttttttttttttttttttttttttttttt",
"tttttttttttttttttttttttttttttttttttttttttttttttttttttttttttttttttttttttttttttttttttttttttttttttttttttttttttttttttttttttttttttttttt",
"tttttttttttttttttttttttttttttttttttttttttttttttttttttttttttttttttttttttttttttttttttttttttttttttttttttttttttttttttttttttttttttttttt",
"tttttttttttttttttttttttttttttttttttttttttttttttttttttttttttttttttttttttttttttttttttttttttttttttttttttttttttttttttttttttttttttttttt",
"tttttttttttttttttttttttttttttttttttttttttttttttttttttttttttttttttttttttttttttttttttttttttttttttttttttttttttttttttttttttttttttttttt",
"tttttttttttttttttttttttttttttttttttttttttttttttttttttttttttttttttttttttttttttttttttttttttttttttttttttttttttttttttttttttttttttttttt",
"tttttttttttttttttttttttttttttttttttttttttttttttttttttttttttttttttttttttttttttttttttttttttttttttttttttttttttttttttttttttttttttttttt",
"tttttttttttttttttttttttttttttttttttttttttttttttttttttttttttttttttttttttttttttttttttttttttttttttttttttttttttttttttttttttttttttttttt",
"tttttttttttttttttttttttttttttttttttttttttttttttttttttttttttttttttttttttttttttttttttttttttttttttttttttttttttttttttttttttttttttttttt",
"tttttttttttttttttttttttttttttttttttttttttttttttttttttttttttttttttttttttttttttttttttttttttttttttttttttttttttttttttttttttttttttttttt",
"tttttttttttttttttttttttttttttttttttttttttttttttttttttttttttttttttttttttttttttttttttttttttttttttttttttttttttttttttttttttttttttttttt",
"tttttttttttttttttttttttttttttttttttttttttttttttttttttttttttttttttttttttttttttttttttttttttttttttttttttttttttttttttttttttttttttttttt",
"tttttttttttttttttttttttttttttttttttttttttttttttttttttttttttttttttttttttttttttttttttttttttttttttttttttttttttttttttttttttttttttttttt",
"ttttttttttttttttttttttttttttttttttttttttttttttttttttttttttttttttttttttttttttttttttttttttttttttttt$tttttttttttttttttttttttttttttttt",
"ttttttttttttttttttttttttttttttttttttttttttttttttttttttttttttttttttttttttttttttttttttttttttttttttt*tttttttttttttttttttttttttttttttt",
"ttttttttttttttttttttttttttttttttttttttttttttttttttttttttttttttttttttttttttttttttttttttttttttttttt*tttttttttttttttttttttttttttttttt",
"tttttttttttttttttttttttttttttttttttttttttttttttttttttttttttttttttttttttttttttttttttttttttttttttt$:$ttttttttttttttttttttttttttttttt",
"tttttttttttttttttttttttttttttttttttttttttttttttttttttttttttttttttttttttttttttttttttttttttttttttt&7&tt$$ttttttttttttttttttttttttttt",
"ttttttttttttttttttttttttttttttttttttttttttttttttttttttttttttttttttttttttttttttttttttttttttttttt$*7*$$%$ttttttttttttttttttttttttttt",
"tttttttttttttttttttttttttttttttttttttttttttttttttttttttttttttttttttttttttttttttttttttttttttttt$&-7-&:*tttttttttttttttttttttttttttt",
"tttttttttttttttttttttttttttttttttttttttttttttttttttttttttttttttttttttttttttttttttttttttttt$$tt*-:2:-*$tttttttttttttttttttttttttttt",
"tttttttttttttttttttttttttttttttttttttttttttttttttttttttttttttttttttttttttttttttttttttttttt$***7;:27:-=%%$ttttttttttttttttttttttttt",
"ttttttttttttttttttttttttttttttttttttttttttttttttttttttttttttttttttttttttttttttttttttttttttt*:-778287:-:%tttttttttttttttttttttttttt",
"ttttttttttttttttttttttttttttttttttttttttttttttttttttttttttttttttttttttttttttttttttttttttttt$%:722r227:=&tttttttttttttttttttttttttt",
"ttttttttttttttttttttttttttttttttttttttttttttttttttttttttttttttttttttttttttttttttttttttttttt&*7282r28:;=*&ttttttttttttttttttttttttt",
"tttttttttttttttttttttttttttttttttttttttttttttttttttttttttttttttttttttttttttttttttttttt$$$$&*>7222w2227;==**$$ttttttttttttttttttttt",
"ttttttttttttttttttttttttttttttt3O3ttttttttttttttttttttttttttttttttttttttttttttttttt$$$%**=>:7222e9e22277<<>;*%$$$ttttttttttttttttt",
"tttttttttttttttttttttttttttttttOXOttttttttttttttttttttttttttttttttttttttttttttt$$$%%*=::727222rw9X9wr22227777:-*%%$$$ttttttttttttt",
"tttttttttttttttttttttttttttttttOOOttttttttttttttttttttttttttttttttttttttttttttttttt$$$**=>>777224O422277<>;=*%$$$ttttttttttttttttt",
"ttttttttttttttttttttttttttttttt06+tttttttttttttttttttttttttttttttttttttttttttttttttttt$$$$==>222eq#22227>==*$ttttttttttttttttttttt",
"tttttttttttttttttttttttttttttt5rq3Otttttttttttttttttttttttttttttttttttttttttttttttttttttttt=:777rq3777727>=ttttttttttttttttttttttt",
"tttttttttttttttttttttttttttttt566#Ottttttttttttttttttttttttttttttttttttttttttttttttttttttt$:7::566#+:>>72:=ttttttttttttttttttttttt",
"ttttttttttttttttttttttttttttttqrq5Ottttttttttttttttttttttttttttttttttttttttttttttttttttttt$::**qrq5+***>::=ttttttttttttttttttttttt",
"ttttttttttttttttttttttttttttt55###OOttttttttttttttttttttttttttttttttttttttttttttttttttttt$*=$t53###4+tt$*=*$tttttttttttttttttttttt",
"ttttttttttttttttttttttttttttt5rq53+Ottttttttttttttttttttttttttttttttttttttttttttttttttttt$$ttt5rq53+Otttt$$$tttttttttttttttttttttt",
"tttttttttttttttttttttttttttttq6XXX#Otttttttttttttttttttttttttttttttttttttttttttttttttttttttttt5#XXX6Ottttttttttttttttttttttttttttt",
"tttttttttttttttttttttttttttt5qX@@@XOOtttttttttttttttttttttttttttttttttttttttttttttttttttttttt5qX@@@XOOtttttttttttttttttttttttttttt",
"tttttttttttttttttttttttttttt53rq55@XOtttttttttttttttttttttttttttttttttttttttttttttttttttttttt53rq55@XOtttttttttttttttttttttttttttt",
"ttttttttttttttttttttttttttt5qr6333OO@Otttttttttttttttttttttttttttttttttttttttttttttttttttttt5qr6333OO@Ottttttttttttttttttttttttttt",
"ttttttttttttttttttttttttttt565rq55##XOtttttttttttttttttttttttttttttttttttttttttttttttttttttt565rq55##XOttttttttttttttttttttttttttt",
"ttttttttttttttttttttttt34,13qrr@oo###Xtttttttttttttttttttttttttttttttttttttttttttttttttt34,13qrr@oo###Xttttttttttttttttttttttttttt",
"tttttttttttttttttttt#44444,5qr@5O5o#5#Xtttttttttttttttttttttttttttttttttttttttttttttt#44444,5qr@5O5o#5#Xtttttttttttttttttttttttttt",
"ttttttttttttttttt#3444443350q5.   .o5#Ottttttttttttttttttttttttttttttttttttttttttt#3444443350q5.   .o5#Otttttttttttttttttttttttttt",
"ttttttttttttttt+#3433##34#50t#     o#5OXtttttttttttttttttttttttttttttttttttttttt+#3433##34#50t#     o#5OXttttttttttttttttttttttttt",
"tttttttttttttttttttttttttttttttttttttttttttttttttttttttttttttttttttttttttttttttttttttttttttttttttttttttttttttttttttttttttttttttttt"
};
