/* XPM */
static char *result[] = {
/* columns rows colors chars-per-pixel */
"43 46 16 1 ",
"  c #202020",
". c #002040",
"X c #104860",
"o c #386078",
"O c gray25",
"+ c #505050",
"@ c #686868",
"# c #A04838",
"$ c #D07858",
"% c #F8A058",
"& c #488098",
"* c #989898",
"= c #80A0B0",
"- c #F0B888",
"; c gray91",
": c None",
/* pixels */
":::::::::::::::::::::::ooooooo:::::::::::::",
"::::::::::::::::::::::oo&&oooooo:::::::::::",
":::::::::::::::::::::Xo&&&&&&&oo.::::::::::",
"::::::::::::::::::::Xoo&===&&&&oX::::::::::",
":::::::::::::::::::ooo&&&====&&oX.:::::::::",
":::::::::::::::::::o&o&&&&&&&&&oX.:::::::::",
":::::::::::::::::::X&&&&&&&&&&ooX.:::::::::",
":::::::::::::::::::;.&&&&&&&&&ooX.:::::::::",
":::::::::::::::::::;;@&&&&&&&&ooX.:::::::::",
":::::::::::::::::::%o@*&&=&&&&&oX.:::::::::",
":::::::::::::::::::XXo &o&o&&&ooX.:::::::::",
"::::::::::::::::::::.   &o&&&&ooX.:::::::::",
":::::::::::::::::::::       &oXoX::::::::::",
"::::::::::::::::::::OX   o&&&&oX:::::::::::",
":::::::::::::::+++++++++++++&oXooo:::::::::",
"::::::::::::::++***;;;;;;;;;@oooo&X OO:::::",
"::::: +@@@@@@++@ooX +X@*****;&o&&&+@@%#::::",
"@**::@******@@&++++++++@@@@@+&o&= +@%;#***@",
"@;;@**;;;;;;;**********@@@@;;;*@&&O+@%#***@",
"+;*+@**;;;;****;;;;;;;;;;;;;;;;@;;@O+@ ;;;@",
"   +@@@@@@@@@@****;;;;;;;;;*@*;@@X@O+@O +@ ",
":::++++++++++$--$#*********@@@;&&o.O++Oo@@ ",
":::         X&---$#&@@@@@@@@&&&&&ooOO&&oo@ ",
"::::::::::::oo&--$#o@@@+..o&@==&&&&  =&oo@ ",
"::::::::::::::oo&&#o @@@+Xo+;+&&&=&++&&oo@ ",
":::::::::::::: .Xo&. ++ @+o + &&o&&++&oXX  ",
":::::::::::::::::X&O@@@Xo.o+;&&&&ooOO  XX::",
":::::::::::::::::&= *@@X.O. @+oooXX     :::",
":::::::::::::::::X& *@@.o .X ;.X.X.  ::::::",
":::::::::::::::::.X*;@+   ++   ..::::::::::",
":::::::::::::oooooX@*@   O  +@  :::::::::::",
"::::::::::::oo&&ooX  @ .O++ @@  :::::::::::",
"::::::::::::X&&&&ooooo.. OO+@ O :::::::::::",
"::::::::::::Xo&&&&&&oo.. O+@ O@ O::::::::::",
"::::::::::::Xo.oooooX...o&& ++@+ ::::::::::",
":::::::::::: .&Xooo.oo..oo&&O@+O .:::::::::",
"::::::::::::: ..... .....Xoo&OO@ooX::::::::",
"::::::::::::::           .Xoo&&o&oX::::::::",
"::::::::::::::             Xo&&o&&.X:::::::",
":::::::::::::::           XooX&X&o.X:::::::",
"::::::::::::::::         Xo&&&&&oXoo:::::::",
"::::::::::::::::::       o&&&&&oXoX.:::::::",
":::::::::::::::::::      o&==&oXXXo::::::::",
":::::::::::::::::::::    XXXXoXXX::::::::::",
":::::::::::::::::::::::  Xo&&o.o:::::::::::",
"::::::::::::::::::::::::::XXXX:::::::::::::"
};
