/* XPM */
static char *_b45ee9ebd12471f9b51af1660379c457nz0F9X2IwcIJAIe[] = {
/* columns rows colors chars-per-pixel */
"40 38 28 1 ",
"  c None",
". c black",
"X c #010000",
"o c #000100",
"O c #010100",
"+ c #000001",
"@ c #010001",
"# c #000101",
"$ c #010101",
"% c #030202",
"& c #030302",
"* c #030203",
"= c #020303",
"- c gray1",
"; c #080908",
": c #ECD818",
"> c #EDD818",
", c #ECD918",
"< c #EDD918",
"1 c #ECD819",
"2 c #EDD819",
"3 c #ECD919",
"4 c #EDD919",
"5 c #593A80",
"6 c #583B80",
"7 c #593B80",
"8 c #593A81",
"9 c #593B81",
/* pixels */
"                                        ",
"                                        ",
"                                        ",
"                                        ",
"                                        ",
"                                        ",
"                                        ",
"                                        ",
"                                        ",
"                                        ",
"                                        ",
"                                        ",
"    oooooooo*oooooooooo*oooooo*-        ",
"   oo2>>>>22>2>2>>>>>2>>2222>>>--       ",
"  oo>ooooooooooo*oo**oo*ooooo-o>--      ",
" oo>ooooooo*ooooooooooooooooo--*>--     ",
"oo>ooooooooooooooooooo*o*ooooo*o-<-     ",
"o2oo888*9oo&8&89888**8887*&7889o-<-     ",
"o2;8oooo9*o*8&9&**o8oo*o*7&7oo*7-<-     ",
"o>o8*ooo8oo&9&9&&*o7*o*o*7&9*o&7-<-     ",
"o>o8oooo7o**9&9&&-o8&o*o&7&9oo*8-<-     ",
"o>o8oooo7oo*9&77999&***899&9oo&8-<-     ",
"o>o8oooo8oo*7&8&&&o8oo*o&9*9oo&9->-     ",
"o>o7oooo8oo*9&9*o&o8*o*o&7*8oo&9->-     ",
"o>o8oooo9oo-7-8*o&o8o&*o&9&9oo*9*>-     ",
"o>oo888oo877*-88979**9989&*8978o>--     ",
"o>ooooooooo*ooooooo*o*oooooo--&>--      ",
"o*2oooooooooo**oo*ooooooooo*-->&*       ",
" oo>>>>>2>>>>2>>>222>><>>>><>>-&        ",
"  o*ooooooooooooooo*o$oo$oo$---         ",
"                                        ",
"                                        ",
"                                        ",
"                                        ",
"                                        ",
"                                        ",
"                                        ",
"                                        "
};
