/* XPM */
static char *result[] = {
/* columns rows colors chars-per-pixel */
"128 64 6 1 ",
"  c #040509",
". c #0E5667",
"X c #147A92",
"o c #1AA3C3",
"O c #FFDDAF",
"+ c None",
/* pixels */
"++++                                                                                                                        ++++",
"++++                                                                                                                        ++++",
"++  ..XXXXXXXXXXXXXXXXXXXXXXXXXXXXXXXXXXXXXXXXXXXXXXXXXXXXXXXXXXXXXXXXXXXXXXXXXXXXXXXXXXXXXXXXXXXXXXXXXXXXXXXXXXXXXXXXXXXX..  ++",
"++  ..XXXXXXXXXXXXXXXXXXXXXXXXXXXXXXXXXXXXXXXXXXXXXXXXXXXXXXXXXXXXXXXXXXXXXXXXXXXXXXXXXXXXXXXXXXXXXXXXXXXXXXXXXXXXXXXXXXXX..  ++",
"  ..XXooooooooooooooooooooooooooooooooooooooooooooooooooooooooooooooooooooooooooooooooooooooooooooooooooooooooooooooooooooXX..  ",
"  ..XXooooooooooooooooooooooooooooooooooooooooooooooooooooooooooooooooooooooooooooooooooooooooooooooooooooooooooooooooooooXX..  ",
"  XXooooXXooXXooooooooooooooooooooooooooooooooooooooooooooooooooooooooooooooooooooooooooooooooooooooooooooooooooooXXooXXooooXX  ",
"  XXooooXXooXXooooooooooooooooooooooooooooooooooooooooooooooooooooooooooooooooooooooooooooooooooooooooooooooooooooXXooXXooooXX  ",
"  XXooXXXXooooooooooooooooooooooooooooooooooooooooooooooooooooooooooooooooooooooooooooooooooooooooooooooooooooooooooooXXXXooXX  ",
"  XXooXXXXooooooooooooooooooooooooooooooooooooooooooooooooooooooooooooooooooooooooooooooooooooooooooooooooooooooooooooXXXXooXX  ",
"  XXooooooooooooooooooooooooooooooooooooooooooooooooooooooooooooooooooooooooooooooooooooooooooooooooooooooooooooooooooooooooXX  ",
"  XXooooooooooooooooooooooooooooooooooooooooooooooooooooooooooooooooooooooooooooooooooooooooooooooooooooooooooooooooooooooooXX  ",
"  XXooXXooooooooooooooooooooooooooooooooooooooooooooooooooooooooooooooooooooooooooooooooooooooooooooooooooooooooooooooooXXooXX  ",
"  XXooXXooooooooooooooooooooooooooooooooooooooooooooooooooooooooooooooooooooooooooooooooooooooooooooooooooooooooooooooooXXooXX  ",
"  XXooooooooooooooooooooooooooooooooooooooooooooooooooooooooooooooooooooooooooooooooooooooooooooooooooooooooooooooooooooooooXX  ",
"  XXooooooooooooooooooooooooooooooooooooooooooooooooooooooooooooooooooooooooooooooooooooooooooooooooooooooooooooooooooooooooXX  ",
"  XXooooooooooooooooooooooooooooooooooooooooooooooooooooooooooooooooooooooooooooooooooooooooooooooooooooooooooooooooooooooooXX  ",
"  XXooooooooooooooooooooooooooooooooooooooooooooooooooooooooooooooooooooooooooooooooooooooooooooooooooooooooooooooooooooooooXX  ",
"  XXooooooooOOOOOOOOOOOOooooooooooooooooooooooooooooooooooooooooooooooOOOOooooooOOOOooooooOOOOooooooooooooooooooooooooooooooXX  ",
"  XXooooooooOOOOOOOOOOOOooooooooooooooooooooooooooooooooooooooooooooooOOOOooooooOOOOooooooOOOOooooooooooooooooooooooooooooooXX  ",
"  XXooooooooOOOOOOOOOOOOooooooooooooooooooooooooooooooooooooooooooooooOOOOooooooOOOOooooooOOOOooooooooooOOOOOOOOooooooooooooXX  ",
"  XXooooooooOOOOOOOOOOOOooooooooooooooooooooooooooooooooooooooooooooooOOOOooooooOOOOooooooOOOOooooooooooOOOOOOOOooooooooooooXX  ",
"  XXooooooooOOOOooooooooooOOOOOOOOOOOOooooOOOOOOOOOOOOooooooOOOOOOOOOOOOOOooooooooooooooooOOOOOOOOooooooOOOOOOOOooooooooooooXX  ",
"  XXooooooooOOOOooooooooooOOOOOOOOOOOOooooOOOOOOOOOOOOooooooOOOOOOOOOOOOOOooooooooooooooooOOOOOOOOooooooOOOOOOOOooooooooooooXX  ",
"  XXooooooooOOOOooooooooooOOOOOOOOOOOOooooOOOOOOOOOOOOooooooOOOOOOOOOOOOOOooooooOOOOooooooOOOOOOOOooooooOOOOooooooooooooooooXX  ",
"  XXooooooooOOOOooooooooooOOOOOOOOOOOOooooOOOOOOOOOOOOooooooOOOOOOOOOOOOOOooooooOOOOooooooOOOOOOOOooooooOOOOooooooooooooooooXX  ",
"  XXooooooooOOOOooooooooooOOOOooooOOOOooooOOOOooooOOOOooooooOOOOooooooOOOOooooooOOOOooooooOOOOooooooooooOOOOOOOOOOOOooooooooXX  ",
"  XXooooooooOOOOooooooooooOOOOooooOOOOooooOOOOooooOOOOooooooOOOOooooooOOOOooooooOOOOooooooOOOOooooooooooOOOOOOOOOOOOooooooooXX  ",
"  XXooooooooOOOOooooooooooOOOOooooooooooooOOOOooooOOOOooooooOOOOooooooOOOOooooooOOOOooooooOOOOooooooooooOOOOOOOOOOOOooooooooXX  ",
"  XXooooooooOOOOooooooooooOOOOooooooooooooOOOOooooOOOOooooooOOOOooooooOOOOooooooOOOOooooooOOOOooooooooooOOOOOOOOOOOOooooooooXX  ",
"  XXooooooooOOOOooooooooooOOOOooooooooooooOOOOooooOOOOooooooOOOOooooooOOOOooooooOOOOooooooOOOOooooooooooooooooooOOOOooooooooXX  ",
"  XXooooooooOOOOooooooooooOOOOooooooooooooOOOOooooOOOOooooooOOOOooooooOOOOooooooOOOOooooooOOOOooooooooooooooooooOOOOooooooooXX  ",
"  XXooooooooOOOOOOOOOOOOooOOOOooooooooooooOOOOOOOOOOOOOOooooOOOOOOOOOOOOOOooooooOOOOooooooOOOOOOOOOOOOooOOOOOOOOOOOOooooooooXX  ",
"  XXooooooooOOOOOOOOOOOOooOOOOooooooooooooOOOOOOOOOOOOOOooooOOOOOOOOOOOOOOooooooOOOOooooooOOOOOOOOOOOOooOOOOOOOOOOOOooooooooXX  ",
"  XXooooooooOOOOOOOOOOOOooOOOOooooooooooooOOOOOOOOOOOOOOooooOOOOOOOOOOOOOOooooooOOOOooooooOOOOOOOOOOOOooOOOOOOOOOOOOooooooooXX  ",
"  XXooooooooOOOOOOOOOOOOooOOOOooooooooooooOOOOOOOOOOOOOOooooOOOOOOOOOOOOOOooooooOOOOooooooOOOOOOOOOOOOooOOOOOOOOOOOOooooooooXX  ",
"  XXooooooooooooooooooooooooooooooooooooooooooooooooooooooooooooooooooooooooooooooooooooooooooooooooooooooooooooooooooooooooXX  ",
"  XXooooooooooooooooooooooooooooooooooooooooooooooooooooooooooooooooooooooooooooooooooooooooooooooooooooooooooooooooooooooooXX  ",
"  XXooooooooooooooooooooooooooooooooooooooooooooooooooooooooooooooooooooooooooooooooooooooooooooooooooooooooooooooooooooooooXX  ",
"  XXooooooooooooooooooooooooooooooooooooooooooooooooooooooooooooooooooooooooooooooooooooooooooooooooooooooooooooooooooooooooXX  ",
"  XXooooooooooooooooooooooooooooooooooooooooooooooooooooooooooooooooooooooooooooooooooooooooooooooooooooooooooooooooooooooooXX  ",
"  XXooooooooooooooooooooooooooooooooooooooooooooooooooooooooooooooooooooooooooooooooooooooooooooooooooooooooooooooooooooooooXX  ",
"  XXooooooooooooooooooooooooooooooooooooooooooooooooooooooooooooooooooooooooooooooooooooooooooooooooooooooooooooooooooooooooXX  ",
"  XXooooooooooooooooooooooooooooooooooooooooooooooooooooooooooooooooooooooooooooooooooooooooooooooooooooooooooooooooooooooooXX  ",
"  XXooooooooooooooooooooooooooooooooooooooooooooooooooooooooooooooooooooooooooooooooooooooooooooooooooooooooooooooooooooooooXX  ",
"  XXooooooooooooooooooooooooooooooooooooooooooooooooooooooooooooooooooooooooooooooooooooooooooooooooooooooooooooooooooooooooXX  ",
"  XXooXXooooooooooooooooooooooooooooooooooooooooooooooooooooooooooooooooooooooooooooooooooooooooooooooooooooooooooooooooXXooXX  ",
"  XXooXXooooooooooooooooooooooooooooooooooooooooooooooooooooooooooooooooooooooooooooooooooooooooooooooooooooooooooooooooXXooXX  ",
"  XXooooooooooooooooooooooooooooooooooooooooooooooooooooooooooooooooooooooooooooooooooooooooooooooooooooooooooooooooooooooooXX  ",
"  XXooooooooooooooooooooooooooooooooooooooooooooooooooooooooooooooooooooooooooooooooooooooooooooooooooooooooooooooooooooooooXX  ",
"  XXooXXXXooooooooooooooooooooooooooooooooooooooooooooooooooooooooooooooooooooooooooooooooooooooooooooooooooooooooooooXXXXooXX  ",
"  XXooXXXXooooooooooooooooooooooooooooooooooooooooooooooooooooooooooooooooooooooooooooooooooooooooooooooooooooooooooooXXXXooXX  ",
"  XXooooXXooXXooooooooooooooooooooooooooooooooooooooooooooooooooooooooooooooooooooooooooooooooooooooooooooooooooooXXooXXooooXX  ",
"  XXooooXXooXXooooooooooooooooooooooooooooooooooooooooooooooooooooooooooooooooooooooooooooooooooooooooooooooooooooXXooXXooooXX  ",
"  ..XXooooooooooooooooooooooooooooooooooooooooooooooooooooooooooooooooooooooooooooooooooooooooooooooooooooooooooooooooooooXX..  ",
"  ..XXooooooooooooooooooooooooooooooooooooooooooooooooooooooooooooooooooooooooooooooooooooooooooooooooooooooooooooooooooooXX..  ",
"  ....XXXXXXXXXXXXXXXXXXXXXXXXXXXXXXXXXXXXXXXXXXXXXXXXXXXXXXXXXXXXXXXXXXXXXXXXXXXXXXXXXXXXXXXXXXXXXXXXXXXXXXXXXXXXXXXXXXXX....  ",
"  ....XXXXXXXXXXXXXXXXXXXXXXXXXXXXXXXXXXXXXXXXXXXXXXXXXXXXXXXXXXXXXXXXXXXXXXXXXXXXXXXXXXXXXXXXXXXXXXXXXXXXXXXXXXXXXXXXXXXX....  ",
"  ............................................................................................................................  ",
"  ............................................................................................................................  ",
"++  ........................................................................................................................  ++",
"++  ........................................................................................................................  ++",
"++++                                                                                                                        ++++",
"++++                                                                                                                        ++++"
};
