/* XPM */
static char *result[] = {
/* columns rows colors chars-per-pixel */
"64 64 7 1 ",
"  c #040509",
". c #0E5667",
"X c #147A92",
"o c #1AA3C3",
"O c #EBC99F",
"+ c #FFDDAF",
"@ c None",
/* pixels */
"@@@@                                                        @@@@",
"@@@@                                                        @@@@",
"@@  ..XXXXXXXXXXXXXXXXXXXXXXXXXXXXXXXXXXXXXXXXXXXXXXXXXXXX..  @@",
"@@  ..XXXXXXXXXXXXXXXXXXXXXXXXXXXXXXXXXXXXXXXXXXXXXXXXXXXX..  @@",
"  ..XXooooooooooooooooooooooooooooooooooooooooooooooooooooXX..  ",
"  ..XXooooooooooooooooooooooooooooooooooooooooooooooooooooXX..  ",
"  XXooooXXooXXooooooooooooooooooooooooooooooooooooXXooXXooooXX  ",
"  XXooooXXooXXooooooooooooooooooooooooooooooooooooXXooXXooooXX  ",
"  XXooXXXXooooooooooooooooooooooooooooooooooooooooooooXXXXooXX  ",
"  XXooXXXXooooooooooooooooooooooooooooooooooooooooooooXXXXooXX  ",
"  XXooooooooooooooooooooooooooooooooooooooooooooooooooooooooXX  ",
"  XXooooooooooooooooooooooooooooooooooooooooooooooooooooooooXX  ",
"  XXooXXoooooooooooooooooo++++ooooooooooooooooooooooooooXXooXX  ",
"  XXooXXoooooooooooooooooo++++ooooooooooooooooooooooooooXXooXX  ",
"  XXoooooooooooooooooooo++++++ooooooooooooooooooooooooooooooXX  ",
"  XXoooooooooooooooooooo++++++ooooooooooooooooooooooooooooooXX  ",
"  XXoooooooooooooooooo++++++++ooooooooooooooooooooooooooooooXX  ",
"  XXoooooooooooooooooo++++++++ooooooooooooooooooooooooooooooXX  ",
"  XXoooooooooooooooo++++++++++ooooooooooooooooooooooooooooooXX  ",
"  XXoooooooooooooooo++++++++++ooooooooooooooooooooooooooooooXX  ",
"  XXoooooooooooooo++++++++++++++++++++++++++++++ooooooooooooXX  ",
"  XXoooooooooooooo++++++++++++++++++++++++++++++ooooooooooooXX  ",
"  XXoooooooooooo++++++++++++++++++++++++++++++++ooooooooooooXX  ",
"  XXoooooooooooo++++++++++++++++++++++++++++++++ooooooooooooXX  ",
"  XXoooooooooo++++++++++++++++++++++++++++++++++ooooooooooooXX  ",
"  XXoooooooooo++++++++++++++++++++++++++++++++++ooooooooooooXX  ",
"  XXoooooooooo++++++++++++++++++++++++++++++++++ooooooooooooXX  ",
"  XXoooooooooo++++++++++++++++++++++++++++++++++ooooooooooooXX  ",
"  XXooooooooooOO++++++++++++++++++++++++++++++++ooooooooooooXX  ",
"  XXooooooooooOO++++++++++++++++++++++++++++++++ooooooooooooXX  ",
"  XXooooooooooooOO++++++++++++++++++++++++++++++ooooooooooooXX  ",
"  XXooooooooooooOO++++++++++++++++++++++++++++++ooooooooooooXX  ",
"  XXooooooooooooooOO++++++++++OOOOOOOOOOOOOOOOOOooooooooooooXX  ",
"  XXooooooooooooooOO++++++++++OOOOOOOOOOOOOOOOOOooooooooooooXX  ",
"  XXooooooooooooooooOO++++++++ooooooooooooooooooooooooooooooXX  ",
"  XXooooooooooooooooOO++++++++ooooooooooooooooooooooooooooooXX  ",
"  XXooooooooooooooooooOO++++++ooooooooooooooooooooooooooooooXX  ",
"  XXooooooooooooooooooOO++++++ooooooooooooooooooooooooooooooXX  ",
"  XXooooooooooooooooooooOO++++ooooooooooooooooooooooooooooooXX  ",
"  XXooooooooooooooooooooOO++++ooooooooooooooooooooooooooooooXX  ",
"  XXooooooooooooooooooooooOOOOooooooooooooooooooooooooooooooXX  ",
"  XXooooooooooooooooooooooOOOOooooooooooooooooooooooooooooooXX  ",
"  XXooooooooooooooooooooooooooooooooooooooooooooooooooooooooXX  ",
"  XXooooooooooooooooooooooooooooooooooooooooooooooooooooooooXX  ",
"  XXooooooooooooooooooooooooooooooooooooooooooooooooooooooooXX  ",
"  XXooooooooooooooooooooooooooooooooooooooooooooooooooooooooXX  ",
"  XXooXXooooooooooooooooooooooooooooooooooooooooooooooooXXooXX  ",
"  XXooXXooooooooooooooooooooooooooooooooooooooooooooooooXXooXX  ",
"  XXooooooooooooooooooooooooooooooooooooooooooooooooooooooooXX  ",
"  XXooooooooooooooooooooooooooooooooooooooooooooooooooooooooXX  ",
"  XXooXXXXooooooooooooooooooooooooooooooooooooooooooooXXXXooXX  ",
"  XXooXXXXooooooooooooooooooooooooooooooooooooooooooooXXXXooXX  ",
"  XXooooXXooXXooooooooooooooooooooooooooooooooooooXXooXXooooXX  ",
"  XXooooXXooXXooooooooooooooooooooooooooooooooooooXXooXXooooXX  ",
"  ..XXooooooooooooooooooooooooooooooooooooooooooooooooooooXX..  ",
"  ..XXooooooooooooooooooooooooooooooooooooooooooooooooooooXX..  ",
"  ....XXXXXXXXXXXXXXXXXXXXXXXXXXXXXXXXXXXXXXXXXXXXXXXXXXXX....  ",
"  ....XXXXXXXXXXXXXXXXXXXXXXXXXXXXXXXXXXXXXXXXXXXXXXXXXXXX....  ",
"  ............................................................  ",
"  ............................................................  ",
"@@  ........................................................  @@",
"@@  ........................................................  @@",
"@@@@                                                        @@@@",
"@@@@                                                        @@@@"
};
