/* XPM */
static char *result[] = {
/* columns rows colors chars-per-pixel */
"64 64 7 1 ",
"  c #040509",
". c #0E5667",
"X c #147A92",
"o c #1AA3C3",
"O c #EBC99F",
"+ c #FFDDAF",
"@ c None",
/* pixels */
"@@@@                                                        @@@@",
"@@@@                                                        @@@@",
"@@  ..XXXXXXXXXXXXXXXXXXXXXXXXXXXXXXXXXXXXXXXXXXXXXXXXXXXX..  @@",
"@@  ..XXXXXXXXXXXXXXXXXXXXXXXXXXXXXXXXXXXXXXXXXXXXXXXXXXXX..  @@",
"  ..XXooooooooooooooooooooooooooooooooooooooooooooooooooooXX..  ",
"  ..XXooooooooooooooooooooooooooooooooooooooooooooooooooooXX..  ",
"  XXooooXXooXXooooooooooooooooooooooooooooooooooooXXooXXooooXX  ",
"  XXooooXXooXXooooooooooooooooooooooooooooooooooooXXooXXooooXX  ",
"  XXooXXXXooooooooooooooooooooooooooooooooooooooooooooXXXXooXX  ",
"  XXooXXXXooooooooooooooooooooooooooooooooooooooooooooXXXXooXX  ",
"  XXoooooooooooooooooooo++++++++++++++++ooooooooooooooooooooXX  ",
"  XXoooooooooooooooooooo++++++++++++++++ooooooooooooooooooooXX  ",
"  XXooXXoooooooooooo++++++++++++++++++++++++ooooooooooooXXooXX  ",
"  XXooXXoooooooooooo++++++++++++++++++++++++ooooooooooooXXooXX  ",
"  XXoooooooooooooo++++++++++++++++++++++++++++ooooooooooooooXX  ",
"  XXoooooooooooooo++++++++++++++++++++++++++++ooooooooooooooXX  ",
"  XXoooooooooooooo++++++++++++++++++++++++++++ooooooooooooooXX  ",
"  XXoooooooooooooo++++++++++++++++++++++++++++ooooooooooooooXX  ",
"  XXoooooooooooo++++++++++OOOOOOOOOOOO++++++++++ooooooooooooXX  ",
"  XXoooooooooooo++++++++++OOOOOOOOOOOO++++++++++ooooooooooooXX  ",
"  XXoooooooooooo++++++++OOooooooooooooOO++++++++ooooooooooooXX  ",
"  XXoooooooooooo++++++++OOooooooooooooOO++++++++ooooooooooooXX  ",
"  XXoooooooooooo++++++OOooooooooooooooooOO++++++ooooooooooooXX  ",
"  XXoooooooooooo++++++OOooooooooooooooooOO++++++ooooooooooooXX  ",
"  XXoooooooooooo++++++oooooooooooooooooooo++++++ooooooooooooXX  ",
"  XXoooooooooooo++++++oooooooooooooooooooo++++++ooooooooooooXX  ",
"  XXoooooooooooo++++++oooooooooooooooooooo++++++ooooooooooooXX  ",
"  XXoooooooooooo++++++oooooooooooooooooooo++++++ooooooooooooXX  ",
"  XXoooooooooooo++++++++oooooooooooooooo++++++++ooooooooooooXX  ",
"  XXoooooooooooo++++++++oooooooooooooooo++++++++ooooooooooooXX  ",
"  XXoooooooooo++++++++++oooooooooooooooo++++++++++ooooooooooXX  ",
"  XXoooooooooo++++++++++oooooooooooooooo++++++++++ooooooooooXX  ",
"  XXoooooooo++++++++++++oooooooooooooooo++++++++++++ooooooooXX  ",
"  XXoooooooo++++++++++++oooooooooooooooo++++++++++++ooooooooXX  ",
"  XXoooooooo++++++++++++oooooooooooooooo++++++++++++ooooooooXX  ",
"  XXoooooooo++++++++++++oooooooooooooooo++++++++++++ooooooooXX  ",
"  XXoooooooo++++++++++++oooooooooooooooo++++++++++++ooooooooXX  ",
"  XXoooooooo++++++++++++oooooooooooooooo++++++++++++ooooooooXX  ",
"  XXoooooooo++++++++++++oooooooooooooooo++++++++++++ooooooooXX  ",
"  XXoooooooo++++++++++++oooooooooooooooo++++++++++++ooooooooXX  ",
"  XXooooooooOO++++++++++oooooooooooooooo++++++++++OOooooooooXX  ",
"  XXooooooooOO++++++++++oooooooooooooooo++++++++++OOooooooooXX  ",
"  XXooooooooooOO++++++++oooooooooooooooo++++++++OOooooooooooXX  ",
"  XXooooooooooOO++++++++oooooooooooooooo++++++++OOooooooooooXX  ",
"  XXooooooooooooOOOOOOOOooooooooooooooooOOOOOOOOooooooooooooXX  ",
"  XXooooooooooooOOOOOOOOooooooooooooooooOOOOOOOOooooooooooooXX  ",
"  XXooXXooooooooooooooooooooooooooooooooooooooooooooooooXXooXX  ",
"  XXooXXooooooooooooooooooooooooooooooooooooooooooooooooXXooXX  ",
"  XXooooooooooooooooooooooooooooooooooooooooooooooooooooooooXX  ",
"  XXooooooooooooooooooooooooooooooooooooooooooooooooooooooooXX  ",
"  XXooXXXXooooooooooooooooooooooooooooooooooooooooooooXXXXooXX  ",
"  XXooXXXXooooooooooooooooooooooooooooooooooooooooooooXXXXooXX  ",
"  XXooooXXooXXooooooooooooooooooooooooooooooooooooXXooXXooooXX  ",
"  XXooooXXooXXooooooooooooooooooooooooooooooooooooXXooXXooooXX  ",
"  ..XXooooooooooooooooooooooooooooooooooooooooooooooooooooXX..  ",
"  ..XXooooooooooooooooooooooooooooooooooooooooooooooooooooXX..  ",
"  ....XXXXXXXXXXXXXXXXXXXXXXXXXXXXXXXXXXXXXXXXXXXXXXXXXXXX....  ",
"  ....XXXXXXXXXXXXXXXXXXXXXXXXXXXXXXXXXXXXXXXXXXXXXXXXXXXX....  ",
"  ............................................................  ",
"  ............................................................  ",
"@@  ........................................................  @@",
"@@  ........................................................  @@",
"@@@@                                                        @@@@",
"@@@@                                                        @@@@"
};
