/* XPM */
static char *result[] = {
/* columns rows colors chars-per-pixel */
"64 64 7 1 ",
"  c #040509",
". c #0E5667",
"X c #147A92",
"o c #1AA3C3",
"O c #EBC99F",
"+ c #FFDDAF",
"@ c None",
/* pixels */
"@@@@                                                        @@@@",
"@@@@                                                        @@@@",
"@@  ..XXXXXXXXXXXXXXXXXXXXXXXXXXXXXXXXXXXXXXXXXXXXXXXXXXXX..  @@",
"@@  ..XXXXXXXXXXXXXXXXXXXXXXXXXXXXXXXXXXXXXXXXXXXXXXXXXXXX..  @@",
"  ..XXooooooooooooooooooooooooooooooooooooooooooooooooooooXX..  ",
"  ..XXooooooooooooooooooooooooooooooooooooooooooooooooooooXX..  ",
"  XXooooXXooXXooooooooooooooooooooooooooooooooooooXXooXXooooXX  ",
"  XXooooXXooXXooooooooooooooooooooooooooooooooooooXXooXXooooXX  ",
"  XXooXXXXooooooooooooooooooooooooooooooooooooooooooooXXXXooXX  ",
"  XXooXXXXooooooooooooooooooooooooooooooooooooooooooooXXXXooXX  ",
"  XXoooooooooooooooooooooooooooooooooooooooooooo++++ooooooooXX  ",
"  XXoooooooooooooooooooooooooooooooooooooooooooo++++ooooooooXX  ",
"  XXooXXoooooooooooooooo++++++oooo++++++++++++++++++ooooXXooXX  ",
"  XXooXXoooooooooooooooo++++++oooo++++++++++++++++++ooooXXooXX  ",
"  XXoooooooooooooooooo++++++++oooo++++++++++++++++OOooooooooXX  ",
"  XXoooooooooooooooooo++++++++oooo++++++++++++++++OOooooooooXX  ",
"  XXoooooooooooooooooo++++++++oooo++++++++++++++OOooooooooooXX  ",
"  XXoooooooooooooooooo++++++++oooo++++++++++++++OOooooooooooXX  ",
"  XXoooooooooooooooooo++++++++oooo++++++++++++++ooooooooooooXX  ",
"  XXoooooooooooooooooo++++++++oooo++++++++++++++ooooooooooooXX  ",
"  XXoooooooooooo++++++++++++++ooooOOOO++++++OOOOooooooooooooXX  ",
"  XXoooooooooooo++++++++++++++ooooOOOO++++++OOOOooooooooooooXX  ",
"  XXoooooooooo++++++++++++++++oooooo++++++OOooooooooooooooooXX  ",
"  XXoooooooooo++++++++++++++++oooooo++++++OOooooooooooooooooXX  ",
"  XXoooooooooo++++++++++++++++oooo++++++++++++++ooooooooooooXX  ",
"  XXoooooooooo++++++++++++++++oooo++++++++++++++ooooooooooooXX  ",
"  XXoooooooooo++++++++++++++++oo++++++++++++++++ooooooooooooXX  ",
"  XXoooooooooo++++++++++++++++oo++++++++++++++++ooooooooooooXX  ",
"  XXoooooooooo++++++++++++++++++++++++++++++++++ooooooooooooXX  ",
"  XXoooooooooo++++++++++++++++++++++++++++++++++ooooooooooooXX  ",
"  XXoooooooooo++++++++++++++++++++++++++++++++++ooooooooooooXX  ",
"  XXoooooooooo++++++++++++++++++++++++++++++++++ooooooooooooXX  ",
"  XXoooooooooo++++++++++++++++++OOOOOOOOOOOOOOOOooooooooooooXX  ",
"  XXoooooooooo++++++++++++++++++OOOOOOOOOOOOOOOOooooooooooooXX  ",
"  XXooooooooooOO++++++++++++++OOooooooooooooooooooooooooooooXX  ",
"  XXooooooooooOO++++++++++++++OOooooooooooooooooooooooooooooXX  ",
"  XXooooooooooooOOOOOO++++++++oooo++++++++++++++ooooooooooooXX  ",
"  XXooooooooooooOOOOOO++++++++oooo++++++++++++++ooooooooooooXX  ",
"  XXoooooooooooooooo++++++++++oooo++++++++++++++ooooooooooooXX  ",
"  XXoooooooooooooooo++++++++++oooo++++++++++++++ooooooooooooXX  ",
"  XXoooooooooooooo++++++++++++oooo++++++++++++++ooooooooooooXX  ",
"  XXoooooooooooooo++++++++++++oooo++++++++++++++ooooooooooooXX  ",
"  XXoooooooooooo++++++OO++++++oooo++++++++++++++ooooooooooooXX  ",
"  XXoooooooooooo++++++OO++++++oooo++++++++++++++ooooooooooooXX  ",
"  XXoooooooooo++++++OOooOOOOOOooooOOOOOOOOOOOOOOooooooooooooXX  ",
"  XXoooooooooo++++++OOooOOOOOOooooOOOOOOOOOOOOOOooooooooooooXX  ",
"  XXooXXoooooo++++OOooooooooooooooooooooooooooooooooooooXXooXX  ",
"  XXooXXoooooo++++OOooooooooooooooooooooooooooooooooooooXXooXX  ",
"  XXooooooooooOOOOooooooooooooooooooooooooooooooooooooooooooXX  ",
"  XXooooooooooOOOOooooooooooooooooooooooooooooooooooooooooooXX  ",
"  XXooXXXXooooooooooooooooooooooooooooooooooooooooooooXXXXooXX  ",
"  XXooXXXXooooooooooooooooooooooooooooooooooooooooooooXXXXooXX  ",
"  XXooooXXooXXooooooooooooooooooooooooooooooooooooXXooXXooooXX  ",
"  XXooooXXooXXooooooooooooooooooooooooooooooooooooXXooXXooooXX  ",
"  ..XXooooooooooooooooooooooooooooooooooooooooooooooooooooXX..  ",
"  ..XXooooooooooooooooooooooooooooooooooooooooooooooooooooXX..  ",
"  ....XXXXXXXXXXXXXXXXXXXXXXXXXXXXXXXXXXXXXXXXXXXXXXXXXXXX....  ",
"  ....XXXXXXXXXXXXXXXXXXXXXXXXXXXXXXXXXXXXXXXXXXXXXXXXXXXX....  ",
"  ............................................................  ",
"  ............................................................  ",
"@@  ........................................................  @@",
"@@  ........................................................  @@",
"@@@@                                                        @@@@",
"@@@@                                                        @@@@"
};
