/* XPM */
static char *result[] = {
/* columns rows colors chars-per-pixel */
"64 64 7 1 ",
"  c #040509",
". c #0E5667",
"X c #147A92",
"o c #1AA3C3",
"O c #EBC99F",
"+ c #FFDDAF",
"@ c None",
/* pixels */
"@@@@                                                        @@@@",
"@@@@                                                        @@@@",
"@@  ..XXXXXXXXXXXXXXXXXXXXXXXXXXXXXXXXXXXXXXXXXXXXXXXXXXXX..  @@",
"@@  ..XXXXXXXXXXXXXXXXXXXXXXXXXXXXXXXXXXXXXXXXXXXXXXXXXXXX..  @@",
"  ..XXooooooooooooooooooooooooooooooooooooooooooooooooooooXX..  ",
"  ..XXooooooooooooooooooooooooooooooooooooooooooooooooooooXX..  ",
"  XXooooXXooXXooooooooooooooooooooooooooooooooooooXXooXXooooXX  ",
"  XXooooXXooXXooooooooooooooooooooooooooooooooooooXXooXXooooXX  ",
"  XXooXXXXooooooooooooooooooooooooooooooooooooooooooooXXXXooXX  ",
"  XXooXXXXooooooooooooooooooooooooooooooooooooooooooooXXXXooXX  ",
"  XXoooooooooooooooooooo++++++++++++++++oooooooo++++ooooooooXX  ",
"  XXoooooooooooooooooooo++++++++++++++++oooooooo++++ooooooooXX  ",
"  XXooXXoooooooooooo++++++++++++++++++++++++oo++++++ooooXXooXX  ",
"  XXooXXoooooooooooo++++++++++++++++++++++++oo++++++ooooXXooXX  ",
"  XXoooooooooooooo++++++++++++++++++++++++++++++++OOooooooooXX  ",
"  XXoooooooooooooo++++++++++++++++++++++++++++++++OOooooooooXX  ",
"  XXoooooooooooooo++++++++++++++++++++++++++++++OOooooooooooXX  ",
"  XXoooooooooooooo++++++++++++++++++++++++++++++OOooooooooooXX  ",
"  XXoooooooooooo++++++++++OOOOOOOOOOOO++++++++++ooooooooooooXX  ",
"  XXoooooooooooo++++++++++OOOOOOOOOOOO++++++++++ooooooooooooXX  ",
"  XXoooooooooooo++++++++OOoooooooooooo++++++++++ooooooooooooXX  ",
"  XXoooooooooooo++++++++OOoooooooooooo++++++++++ooooooooooooXX  ",
"  XXoooooooooooo++++++OOoooooooooooo++++++++++++ooooooooooooXX  ",
"  XXoooooooooooo++++++OOoooooooooooo++++++++++++ooooooooooooXX  ",
"  XXoooooooooooo++++++oooooooooooo++++++OO++++++ooooooooooooXX  ",
"  XXoooooooooooo++++++oooooooooooo++++++OO++++++ooooooooooooXX  ",
"  XXoooooooooooo++++++oooooooooo++++++OOoo++++++ooooooooooooXX  ",
"  XXoooooooooooo++++++oooooooooo++++++OOoo++++++ooooooooooooXX  ",
"  XXoooooooooooo++++++++oooooo++++++OOoo++++++++ooooooooooooXX  ",
"  XXoooooooooooo++++++++oooooo++++++OOoo++++++++ooooooooooooXX  ",
"  XXoooooooooo++++++++++oooo++++++OOoooo++++++++++ooooooooooXX  ",
"  XXoooooooooo++++++++++oooo++++++OOoooo++++++++++ooooooooooXX  ",
"  XXoooooooo++++++++++++oo++++++OOoooooo++++++++++++ooooooooXX  ",
"  XXoooooooo++++++++++++oo++++++OOoooooo++++++++++++ooooooooXX  ",
"  XXoooooooo++++++++++++++++++OOoooooooo++++++++++++ooooooooXX  ",
"  XXoooooooo++++++++++++++++++OOoooooooo++++++++++++ooooooooXX  ",
"  XXoooooooo++++++++++++++++OOoooooooooo++++++++++++ooooooooXX  ",
"  XXoooooooo++++++++++++++++OOoooooooooo++++++++++++ooooooooXX  ",
"  XXoooooooo++++++++++++++OOoooooooooooo++++++++++++ooooooooXX  ",
"  XXoooooooo++++++++++++++OOoooooooooooo++++++++++++ooooooooXX  ",
"  XXooooooooOO++++++++++OOoooooooooooooo++++++++++OOooooooooXX  ",
"  XXooooooooOO++++++++++OOoooooooooooooo++++++++++OOooooooooXX  ",
"  XXooooooooooOO++++++++oooooooooooooooo++++++++OOooooooooooXX  ",
"  XXooooooooooOO++++++++oooooooooooooooo++++++++OOooooooooooXX  ",
"  XXoooooooooo++++++OOOOooooooooooooooooOOOOOOOOooooooooooooXX  ",
"  XXoooooooooo++++++OOOOooooooooooooooooOOOOOOOOooooooooooooXX  ",
"  XXooXXoooooo++++OOooooooooooooooooooooooooooooooooooooXXooXX  ",
"  XXooXXoooooo++++OOooooooooooooooooooooooooooooooooooooXXooXX  ",
"  XXooooooooooOOOOooooooooooooooooooooooooooooooooooooooooooXX  ",
"  XXooooooooooOOOOooooooooooooooooooooooooooooooooooooooooooXX  ",
"  XXooXXXXooooooooooooooooooooooooooooooooooooooooooooXXXXooXX  ",
"  XXooXXXXooooooooooooooooooooooooooooooooooooooooooooXXXXooXX  ",
"  XXooooXXooXXooooooooooooooooooooooooooooooooooooXXooXXooooXX  ",
"  XXooooXXooXXooooooooooooooooooooooooooooooooooooXXooXXooooXX  ",
"  ..XXooooooooooooooooooooooooooooooooooooooooooooooooooooXX..  ",
"  ..XXooooooooooooooooooooooooooooooooooooooooooooooooooooXX..  ",
"  ....XXXXXXXXXXXXXXXXXXXXXXXXXXXXXXXXXXXXXXXXXXXXXXXXXXXX....  ",
"  ....XXXXXXXXXXXXXXXXXXXXXXXXXXXXXXXXXXXXXXXXXXXXXXXXXXXX....  ",
"  ............................................................  ",
"  ............................................................  ",
"@@  ........................................................  @@",
"@@  ........................................................  @@",
"@@@@                                                        @@@@",
"@@@@                                                        @@@@"
};
