/* XPM */
static char *result[] = {
/* columns rows colors chars-per-pixel */
"64 64 6 1 ",
"  c #040509",
". c #191E21",
"X c #07323C",
"o c #0C4451",
"O c #0D5A6D",
"+ c None",
/* pixels */
"++++++++++++++++++++++++++++++++++++++++++++++++++++++++++++++++",
"++++++++++++++++++++++++++++++++++++++++++++++++++++++++++++++++",
"++++++++++++++++++++++++++++++++++++++++++++++++++++++++++++++++",
"++++++++++++++++++++++++++++++++++++++++++++++++++++++++++++++++",
"++++                                                        ++++",
"++++                                                        ++++",
"++  XXooooooooooooooooooooooooooooooooooooooooooooooooooooXX  ++",
"++  XXooooooooooooooooooooooooooooooooooooooooooooooooooooXX  ++",
"  XXooOOOOOOOOOOOOOOOOOOOOOOOOOOOOOOOOOOOOOOOOOOOOOOOOOOOOooXX  ",
"  XXooOOOOOOOOOOOOOOOOOOOOOOOOOOOOOOOOOOOOOOOOOOOOOOOOOOOOooXX  ",
"  ooOOOOooOOooOOOOOOOOOOOOOOOOOOOOOOOOOOOOOOOOOOOOooOOooOOOOoo  ",
"  ooOOOOooOOooOOOOOOOOOOOOOOOOOOOOOOOOOOOOOOOOOOOOooOOooOOOOoo  ",
"  ooOOooooOOOOOOOOOOOOOOOOOOOOOOOOOOOOOOOOOOOOOOOOOOOOooooOOoo  ",
"  ooOOooooOOOOOOOOOOOOOOOOOOOOOOOOOOOOOOOOOOOOOOOOOOOOooooOOoo  ",
"  ooOOOOOOOOOOOOOOOOOOOOOOOOOOOOOOOOOOOOOOOOOOOO....OOOOOOOOoo  ",
"  ooOOOOOOOOOOOOOOOOOOOOOOOOOOOOOOOOOOOOOOOOOOOO....OOOOOOOOoo  ",
"  ooOOooOOOOOOOOOOOOOOOO......OOOO..................OOOOooOOoo  ",
"  ooOOooOOOOOOOOOOOOOOOO......OOOO..................OOOOooOOoo  ",
"  ooOOOOOOOOOOOOOOOOOO........OOOO................OOOOOOOOOOoo  ",
"  ooOOOOOOOOOOOOOOOOOO........OOOO................OOOOOOOOOOoo  ",
"  ooOOOOOOOOOOOOOOOOOO........OOOO..............OOOOOOOOOOOOoo  ",
"  ooOOOOOOOOOOOOOOOOOO........OOOO..............OOOOOOOOOOOOoo  ",
"  ooOOOOOOOOOOOOOOOOOO........OOOO..............OOOOOOOOOOOOoo  ",
"  ooOOOOOOOOOOOOOOOOOO........OOOO..............OOOOOOOOOOOOoo  ",
"  ooOOOOOOOOOOOO..............OOOOOOOO......OOOOOOOOOOOOOOOOoo  ",
"  ooOOOOOOOOOOOO..............OOOOOOOO......OOOOOOOOOOOOOOOOoo  ",
"  ooOOOOOOOOOO................OOOOOO......OOOOOOOOOOOOOOOOOOoo  ",
"  ooOOOOOOOOOO................OOOOOO......OOOOOOOOOOOOOOOOOOoo  ",
"  ooOOOOOOOOOO................OOOO..............OOOOOOOOOOOOoo  ",
"  ooOOOOOOOOOO................OOOO..............OOOOOOOOOOOOoo  ",
"  ooOOOOOOOOOO................OO................OOOOOOOOOOOOoo  ",
"  ooOOOOOOOOOO................OO................OOOOOOOOOOOOoo  ",
"  ooOOOOOOOOOO..................................OOOOOOOOOOOOoo  ",
"  ooOOOOOOOOOO..................................OOOOOOOOOOOOoo  ",
"  ooOOOOOOOOOO..................................OOOOOOOOOOOOoo  ",
"  ooOOOOOOOOOO..................................OOOOOOOOOOOOoo  ",
"  ooOOOOOOOOOO..................OOOOOOOOOOOOOOOOOOOOOOOOOOOOoo  ",
"  ooOOOOOOOOOO..................OOOOOOOOOOOOOOOOOOOOOOOOOOOOoo  ",
"  ooOOOOOOOOOOOO..............OOOOOOOOOOOOOOOOOOOOOOOOOOOOOOoo  ",
"  ooOOOOOOOOOOOO..............OOOOOOOOOOOOOOOOOOOOOOOOOOOOOOoo  ",
"  ooOOOOOOOOOOOOOOOOOO........OOOO..............OOOOOOOOOOOOoo  ",
"  ooOOOOOOOOOOOOOOOOOO........OOOO..............OOOOOOOOOOOOoo  ",
"  ooOOOOOOOOOOOOOOOO..........OOOO..............OOOOOOOOOOOOoo  ",
"  ooOOOOOOOOOOOOOOOO..........OOOO..............OOOOOOOOOOOOoo  ",
"  ooOOOOOOOOOOOOOO............OOOO..............OOOOOOOOOOOOoo  ",
"  ooOOOOOOOOOOOOOO............OOOO..............OOOOOOOOOOOOoo  ",
"  ooOOOOOOOOOOOO......OO......OOOO..............OOOOOOOOOOOOoo  ",
"  ooOOOOOOOOOOOO......OO......OOOO..............OOOOOOOOOOOOoo  ",
"  ooOOOOOOOOOO......OOOOOOOOOOOOOOOOOOOOOOOOOOOOOOOOOOOOOOOOoo  ",
"  ooOOOOOOOOOO......OOOOOOOOOOOOOOOOOOOOOOOOOOOOOOOOOOOOOOOOoo  ",
"  ooOOooOOOOOO....OOOOOOOOOOOOOOOOOOOOOOOOOOOOOOOOOOOOOOooOOoo  ",
"  ooOOooOOOOOO....OOOOOOOOOOOOOOOOOOOOOOOOOOOOOOOOOOOOOOooOOoo  ",
"  ooOOOOOOOOOOOOOOOOOOOOOOOOOOOOOOOOOOOOOOOOOOOOOOOOOOOOOOOOoo  ",
"  ooOOOOOOOOOOOOOOOOOOOOOOOOOOOOOOOOOOOOOOOOOOOOOOOOOOOOOOOOoo  ",
"  ooOOooooOOOOOOOOOOOOOOOOOOOOOOOOOOOOOOOOOOOOOOOOOOOOooooOOoo  ",
"  ooOOooooOOOOOOOOOOOOOOOOOOOOOOOOOOOOOOOOOOOOOOOOOOOOooooOOoo  ",
"  ooOOOOooOOooOOOOOOOOOOOOOOOOOOOOOOOOOOOOOOOOOOOOooOOooOOOOoo  ",
"  ooOOOOooOOooOOOOOOOOOOOOOOOOOOOOOOOOOOOOOOOOOOOOooOOooOOOOoo  ",
"  XXooOOOOOOOOOOOOOOOOOOOOOOOOOOOOOOOOOOOOOOOOOOOOOOOOOOOOooXX  ",
"  XXooOOOOOOOOOOOOOOOOOOOOOOOOOOOOOOOOOOOOOOOOOOOOOOOOOOOOooXX  ",
"++  XXooooooooooooooooooooooooooooooooooooooooooooooooooooXX  ++",
"++  XXooooooooooooooooooooooooooooooooooooooooooooooooooooXX  ++",
"++++                                                        ++++",
"++++                                                        ++++"
};
