/* XPM */
static char *result[] = {
/* columns rows colors chars-per-pixel */
"128 64 6 1 ",
"  c #040509",
". c #0E5667",
"X c #147A92",
"o c #1AA3C3",
"O c #FFDDAF",
"+ c None",
/* pixels */
"++++                                                                                                                        ++++",
"++++                                                                                                                        ++++",
"++  ..XXXXXXXXXXXXXXXXXXXXXXXXXXXXXXXXXXXXXXXXXXXXXXXXXXXXXXXXXXXXXXXXXXXXXXXXXXXXXXXXXXXXXXXXXXXXXXXXXXXXXXXXXXXXXXXXXXXX..  ++",
"++  ..XXXXXXXXXXXXXXXXXXXXXXXXXXXXXXXXXXXXXXXXXXXXXXXXXXXXXXXXXXXXXXXXXXXXXXXXXXXXXXXXXXXXXXXXXXXXXXXXXXXXXXXXXXXXXXXXXXXX..  ++",
"  ..XXooooooooooooooooooooooooooooooooooooooooooooooooooooooooooooooooooooooooooooooooooooooooooooooooooooooooooooooooooooXX..  ",
"  ..XXooooooooooooooooooooooooooooooooooooooooooooooooooooooooooooooooooooooooooooooooooooooooooooooooooooooooooooooooooooXX..  ",
"  XXooooXXooXXooooooooooooooooooooooooooooooooooooooooooooooooooooooooooooooooooooooooooooooooooooooooooooooooooooXXooXXooooXX  ",
"  XXooooXXooXXooooooooooooooooooooooooooooooooooooooooooooooooooooooooooooooooooooooooooooooooooooooooooooooooooooXXooXXooooXX  ",
"  XXooXXXXooooooooooooooooooooooooooooooooooooooooooooooooooooooooooooooooooooooooooooooooooooooooooooooooooooooooooooXXXXooXX  ",
"  XXooXXXXooooooooooooooooooooooooooooooooooooooooooooooooooooooooooooooooooooooooooooooooooooooooooooooooooooooooooooXXXXooXX  ",
"  XXooooooooooooooooooooooooooooooooooooooooooooooooooooooooooooooooooooooooooooooooooooooooooooooooooooooooooooooooooooooooXX  ",
"  XXooooooooooooooooooooooooooooooooooooooooooooooooooooooooooooooooooooooooooooooooooooooooooooooooooooooooooooooooooooooooXX  ",
"  XXooXXooooooooooooooooooooooooooooooooooooooooooooooooooooooooooooooooooooooooooooooooooooooooooooooooooooooooooooooooXXooXX  ",
"  XXooXXooooooooooooooooooooooooooooooooooooooooooooooooooooooooooooooooooooooooooooooooooooooooooooooooooooooooooooooooXXooXX  ",
"  XXooooooooooooooooooooooooooooooooooooooooooooooooooooooooooooooooooooooooooooooooooooooooooooooooooooooooooooooooooooooooXX  ",
"  XXooooooooooooooooooooooooooooooooooooooooooooooooooooooooooooooooooooooooooooooooooooooooooooooooooooooooooooooooooooooooXX  ",
"  XXooooooooooooooooOOOOOOOOOOOOOOOOOOOOooooooOOOOOOooooooooooooooooooooooooooooooooooooooooooooooooooooooooooooooooooooooooXX  ",
"  XXooooooooooooooooOOOOOOOOOOOOOOOOOOOOooooooOOOOOOooooooooooooooooooooooooooooooooooooooooooooooooooooooooooooooooooooooooXX  ",
"  XXooooooooooooooooOOOOOOOOOOOOOOOOOOOOooooooOOOOOOooooooooooooooooooooooooooooooooooooooooooooooooooooooooooooooooooooooooXX  ",
"  XXooooooooooooooooOOOOOOOOOOOOOOOOOOOOooooooOOOOOOooooooooooooooooooooooooooooooooooooooooooooooooooooooooooooooooooooooooXX  ",
"  XXooooooooooooooooOOOOOOOOOOOOOOOOOOOOooooooOOOOOOooooooooooooooooooooooooooooooooooooooooooooooooooooooooooooooooooooooooXX  ",
"  XXooooooooooooooooOOOOOOOOOOOOOOOOOOOOooooooOOOOOOooooooooooooooooooooooooooooooooooooooooooooooooooooooooooooooooooooooooXX  ",
"  XXooooooooooooooooOOOOOOooooooooOOOOOOooooooOOOOOOooooooooooOOOOOOOOOOOOOOOOooooooooooOOOOOOooooooooOOOOOOooooooooooooooooXX  ",
"  XXooooooooooooooooOOOOOOooooooooOOOOOOooooooOOOOOOooooooooooOOOOOOOOOOOOOOOOooooooooooOOOOOOooooooooOOOOOOooooooooooooooooXX  ",
"  XXooooooooooooooooOOOOOOooooooooOOOOOOooooooOOOOOOooooooooooOOOOOOOOOOOOOOOOooooooooooOOOOOOooooooooOOOOOOooooooooooooooooXX  ",
"  XXooooooooooooooooOOOOOOooooooooOOOOOOooooooOOOOOOooooooooooOOOOOOOOOOOOOOOOooooooooooOOOOOOooooooooOOOOOOooooooooooooooooXX  ",
"  XXooooooooooooooooOOOOOOooooooooOOOOOOooooooOOOOOOooooooooooOOOOOOOOOOOOOOOOooooooooooOOOOOOooooooooOOOOOOooooooooooooooooXX  ",
"  XXooooooooooooooooOOOOOOooooooooOOOOOOooooooOOOOOOooooooooooOOOOOOOOOOOOOOOOooooooooooOOOOOOooooooooOOOOOOooooooooooooooooXX  ",
"  XXooooooooooooooooOOOOOOooooooooOOOOOOooooooOOOOOOooooooooooOOOOOOooooOOOOOOooooooooooOOOOOOooooooooOOOOOOooooooooooooooooXX  ",
"  XXooooooooooooooooOOOOOOooooooooOOOOOOooooooOOOOOOooooooooooOOOOOOooooOOOOOOooooooooooOOOOOOooooooooOOOOOOooooooooooooooooXX  ",
"  XXooooooooooooooooOOOOOOOOOOOOOOOOOOOOooooooOOOOOOooooooooooOOOOOOooooOOOOOOooooooooooOOOOOOooooooooOOOOOOooooooooooooooooXX  ",
"  XXooooooooooooooooOOOOOOOOOOOOOOOOOOOOooooooOOOOOOooooooooooOOOOOOooooOOOOOOooooooooooOOOOOOooooooooOOOOOOooooooooooooooooXX  ",
"  XXooooooooooooooooOOOOOOOOOOOOOOOOOOOOooooooOOOOOOooooooooooOOOOOOooooOOOOOOooooooooooOOOOOOOOOOOOOOOOOOOOooooooooooooooooXX  ",
"  XXooooooooooooooooOOOOOOOOOOOOOOOOOOOOooooooOOOOOOooooooooooOOOOOOooooOOOOOOooooooooooOOOOOOOOOOOOOOOOOOOOooooooooooooooooXX  ",
"  XXooooooooooooooooOOOOOOOOOOOOOOOOOOOOooooooOOOOOOooooooooooOOOOOOooooOOOOOOooooooooooOOOOOOOOOOOOOOOOOOOOooooooooooooooooXX  ",
"  XXooooooooooooooooOOOOOOOOOOOOOOOOOOOOooooooOOOOOOooooooooooOOOOOOooooOOOOOOooooooooooOOOOOOOOOOOOOOOOOOOOooooooooooooooooXX  ",
"  XXooooooooooooooooOOOOOOooooooooooooooooooooOOOOOOOOooooooooOOOOOOOOOOOOOOOOOOOOooooooOOOOOOOOOOOOOOOOOOOOooooooooooooooooXX  ",
"  XXooooooooooooooooOOOOOOooooooooooooooooooooOOOOOOOOooooooooOOOOOOOOOOOOOOOOOOOOooooooOOOOOOOOOOOOOOOOOOOOooooooooooooooooXX  ",
"  XXooooooooooooooooOOOOOOooooooooooooooooooooOOOOOOOOooooooooOOOOOOOOOOOOOOOOOOOOooooooooooooooooooooOOOOOOooooooooooooooooXX  ",
"  XXooooooooooooooooOOOOOOooooooooooooooooooooOOOOOOOOooooooooOOOOOOOOOOOOOOOOOOOOooooooooooooooooooooOOOOOOooooooooooooooooXX  ",
"  XXooooooooooooooooOOOOOOooooooooooooooooooooOOOOOOOOooooooooOOOOOOOOOOOOOOOOOOOOooooooooooooooooooooOOOOOOooooooooooooooooXX  ",
"  XXooooooooooooooooOOOOOOooooooooooooooooooooOOOOOOOOooooooooOOOOOOOOOOOOOOOOOOOOooooooooooooooooooooOOOOOOooooooooooooooooXX  ",
"  XXooooooooooooooooooooooooooooooooooooooooooooooooooooooooooooooooooooooooooooooooooooOOOOOOOOOOOOOOOOOOOOooooooooooooooooXX  ",
"  XXooooooooooooooooooooooooooooooooooooooooooooooooooooooooooooooooooooooooooooooooooooOOOOOOOOOOOOOOOOOOOOooooooooooooooooXX  ",
"  XXooooooooooooooooooooooooooooooooooooooooooooooooooooooooooooooooooooooooooooooooooooOOOOOOOOOOOOOOOOOOOOooooooooooooooooXX  ",
"  XXooooooooooooooooooooooooooooooooooooooooooooooooooooooooooooooooooooooooooooooooooooOOOOOOOOOOOOOOOOOOOOooooooooooooooooXX  ",
"  XXooXXooooooooooooooooooooooooooooooooooooooooooooooooooooooooooooooooooooooooooooooooOOOOOOOOOOOOOOOOOOOOooooooooooooXXooXX  ",
"  XXooXXooooooooooooooooooooooooooooooooooooooooooooooooooooooooooooooooooooooooooooooooOOOOOOOOOOOOOOOOOOOOooooooooooooXXooXX  ",
"  XXooooooooooooooooooooooooooooooooooooooooooooooooooooooooooooooooooooooooooooooooooooooooooooooooooooooooooooooooooooooooXX  ",
"  XXooooooooooooooooooooooooooooooooooooooooooooooooooooooooooooooooooooooooooooooooooooooooooooooooooooooooooooooooooooooooXX  ",
"  XXooXXXXooooooooooooooooooooooooooooooooooooooooooooooooooooooooooooooooooooooooooooooooooooooooooooooooooooooooooooXXXXooXX  ",
"  XXooXXXXooooooooooooooooooooooooooooooooooooooooooooooooooooooooooooooooooooooooooooooooooooooooooooooooooooooooooooXXXXooXX  ",
"  XXooooXXooXXooooooooooooooooooooooooooooooooooooooooooooooooooooooooooooooooooooooooooooooooooooooooooooooooooooXXooXXooooXX  ",
"  XXooooXXooXXooooooooooooooooooooooooooooooooooooooooooooooooooooooooooooooooooooooooooooooooooooooooooooooooooooXXooXXooooXX  ",
"  ..XXooooooooooooooooooooooooooooooooooooooooooooooooooooooooooooooooooooooooooooooooooooooooooooooooooooooooooooooooooooXX..  ",
"  ..XXooooooooooooooooooooooooooooooooooooooooooooooooooooooooooooooooooooooooooooooooooooooooooooooooooooooooooooooooooooXX..  ",
"  ....XXXXXXXXXXXXXXXXXXXXXXXXXXXXXXXXXXXXXXXXXXXXXXXXXXXXXXXXXXXXXXXXXXXXXXXXXXXXXXXXXXXXXXXXXXXXXXXXXXXXXXXXXXXXXXXXXXXX....  ",
"  ....XXXXXXXXXXXXXXXXXXXXXXXXXXXXXXXXXXXXXXXXXXXXXXXXXXXXXXXXXXXXXXXXXXXXXXXXXXXXXXXXXXXXXXXXXXXXXXXXXXXXXXXXXXXXXXXXXXXX....  ",
"  ............................................................................................................................  ",
"  ............................................................................................................................  ",
"++  ........................................................................................................................  ++",
"++  ........................................................................................................................  ++",
"++++                                                                                                                        ++++",
"++++                                                                                                                        ++++"
};
