/* XPM */
static char *result[] = {
/* columns rows colors chars-per-pixel */
"64 64 7 1 ",
"  c #040509",
". c #0E5667",
"X c #147A92",
"o c #1AA3C3",
"O c #EBC99F",
"+ c #FFDDAF",
"@ c None",
/* pixels */
"@@@@                                                        @@@@",
"@@@@                                                        @@@@",
"@@  ..XXXXXXXXXXXXXXXXXXXXXXXXXXXXXXXXXXXXXXXXXXXXXXXXXXXX..  @@",
"@@  ..XXXXXXXXXXXXXXXXXXXXXXXXXXXXXXXXXXXXXXXXXXXXXXXXXXXX..  @@",
"  ..XXooooooooooooooooooooooooooooooooooooooooooooooooooooXX..  ",
"  ..XXooooooooooooooooooooooooooooooooooooooooooooooooooooXX..  ",
"  XXooooXXooXXooooooooooooooooooooooooooooooooooooXXooXXooooXX  ",
"  XXooooXXooXXooooooooooooooooooooooooooooooooooooXXooXXooooXX  ",
"  XXooXXXXooooooooooooooooooooooooooooooooooooooooooooXXXXooXX  ",
"  XXooXXXXooooooooooooooooooooooooooooooooooooooooooooXXXXooXX  ",
"  XXoooooooooo++++++++oooooooooooooooooooo++++++++ooooooooooXX  ",
"  XXoooooooooo++++++++oooooooooooooooooooo++++++++ooooooooooXX  ",
"  XXooXXoooooo++++++++oooooooooooooooooooo++++++++ooooooXXooXX  ",
"  XXooXXoooooo++++++++oooooooooooooooooooo++++++++ooooooXXooXX  ",
"  XXoooooooooo++++++++++++oooooooooooo++++++++++++ooooooooooXX  ",
"  XXoooooooooo++++++++++++oooooooooooo++++++++++++ooooooooooXX  ",
"  XXoooooooooo++++++++++++oooooooooooo++++++++++++ooooooooooXX  ",
"  XXoooooooooo++++++++++++oooooooooooo++++++++++++ooooooooooXX  ",
"  XXooooooooooOOOO++++++++++++oooo++++++++++++OOOOooooooooooXX  ",
"  XXooooooooooOOOO++++++++++++oooo++++++++++++OOOOooooooooooXX  ",
"  XXoooooooooooooo++++++++++++++++++++++++++++ooooooooooooooXX  ",
"  XXoooooooooooooo++++++++++++++++++++++++++++ooooooooooooooXX  ",
"  XXooooooooooooooOOOO++++++++++++++++++++OOOOooooooooooooooXX  ",
"  XXooooooooooooooOOOO++++++++++++++++++++OOOOooooooooooooooXX  ",
"  XXoooooooooooooooooo++++++++++++++++++++ooooooooooooooooooXX  ",
"  XXoooooooooooooooooo++++++++++++++++++++ooooooooooooooooooXX  ",
"  XXooooooooooooooooooOO++++++++++++++++OOooooooooooooooooooXX  ",
"  XXooooooooooooooooooOO++++++++++++++++OOooooooooooooooooooXX  ",
"  XXoooooooooooooooooooo++++++++++++++++ooooooooooooooooooooXX  ",
"  XXoooooooooooooooooooo++++++++++++++++ooooooooooooooooooooXX  ",
"  XXoooooooooooooooooo++++++++++++++++++++ooooooooooooooooooXX  ",
"  XXoooooooooooooooooo++++++++++++++++++++ooooooooooooooooooXX  ",
"  XXoooooooooooooooooo++++++++++++++++++++ooooooooooooooooooXX  ",
"  XXoooooooooooooooooo++++++++++++++++++++ooooooooooooooooooXX  ",
"  XXoooooooooooooo++++++++++++++++++++++++++++ooooooooooooooXX  ",
"  XXoooooooooooooo++++++++++++++++++++++++++++ooooooooooooooXX  ",
"  XXoooooooooooooo++++++++++++OOOO++++++++++++ooooooooooooooXX  ",
"  XXoooooooooooooo++++++++++++OOOO++++++++++++ooooooooooooooXX  ",
"  XXoooooooooo++++++++++++OOOOooooOOOO++++++++++++ooooooooooXX  ",
"  XXoooooooooo++++++++++++OOOOooooOOOO++++++++++++ooooooooooXX  ",
"  XXoooooooooo++++++++++++oooooooooooo++++++++++++ooooooooooXX  ",
"  XXoooooooooo++++++++++++oooooooooooo++++++++++++ooooooooooXX  ",
"  XXoooooooooo++++++++OOOOooooooooooooOOOO++++++++ooooooooooXX  ",
"  XXoooooooooo++++++++OOOOooooooooooooOOOO++++++++ooooooooooXX  ",
"  XXoooooooooo++++++++oooooooooooooooooooo++++++++ooooooooooXX  ",
"  XXoooooooooo++++++++oooooooooooooooooooo++++++++ooooooooooXX  ",
"  XXooXXooooooOOOOOOOOooooooooooooooooooooOOOOOOOOooooooXXooXX  ",
"  XXooXXooooooOOOOOOOOooooooooooooooooooooOOOOOOOOooooooXXooXX  ",
"  XXooooooooooooooooooooooooooooooooooooooooooooooooooooooooXX  ",
"  XXooooooooooooooooooooooooooooooooooooooooooooooooooooooooXX  ",
"  XXooXXXXooooooooooooooooooooooooooooooooooooooooooooXXXXooXX  ",
"  XXooXXXXooooooooooooooooooooooooooooooooooooooooooooXXXXooXX  ",
"  XXooooXXooXXooooooooooooooooooooooooooooooooooooXXooXXooooXX  ",
"  XXooooXXooXXooooooooooooooooooooooooooooooooooooXXooXXooooXX  ",
"  ..XXooooooooooooooooooooooooooooooooooooooooooooooooooooXX..  ",
"  ..XXooooooooooooooooooooooooooooooooooooooooooooooooooooXX..  ",
"  ....XXXXXXXXXXXXXXXXXXXXXXXXXXXXXXXXXXXXXXXXXXXXXXXXXXXX....  ",
"  ....XXXXXXXXXXXXXXXXXXXXXXXXXXXXXXXXXXXXXXXXXXXXXXXXXXXX....  ",
"  ............................................................  ",
"  ............................................................  ",
"@@  ........................................................  @@",
"@@  ........................................................  @@",
"@@@@                                                        @@@@",
"@@@@                                                        @@@@"
};
