/* XPM */
static char *result[] = {
/* columns rows colors chars-per-pixel */
"64 64 7 1 ",
"  c #040509",
". c #0E5667",
"X c #147A92",
"o c #1AA3C3",
"O c #EBC99F",
"+ c #FFDDAF",
"@ c None",
/* pixels */
"@@@@                                                        @@@@",
"@@@@                                                        @@@@",
"@@  ..XXXXXXXXXXXXXXXXXXXXXXXXXXXXXXXXXXXXXXXXXXXXXXXXXXXX..  @@",
"@@  ..XXXXXXXXXXXXXXXXXXXXXXXXXXXXXXXXXXXXXXXXXXXXXXXXXXXX..  @@",
"  ..XXooooooooooooooooooooooooooooooooooooooooooooooooooooXX..  ",
"  ..XXooooooooooooooooooooooooooooooooooooooooooooooooooooXX..  ",
"  XXooooXXooXXooooooooooooooooooooooooooooooooooooXXooXXooooXX  ",
"  XXooooXXooXXooooooooooooooooooooooooooooooooooooXXooXXooooXX  ",
"  XXooXXXXooooooooooooooooooooooooooooooooooooooooooooXXXXooXX  ",
"  XXooXXXXooooooooooooooooooooooooooooooooooooooooooooXXXXooXX  ",
"  XXooooooooooooooooooooooooooooooooooooooooooooooooooooooooXX  ",
"  XXooooooooooooooooooooooooooooooooooooooooooooooooooooooooXX  ",
"  XXooXXoooooooooooooooooooooooo++++ooooooooooooooooooooXXooXX  ",
"  XXooXXoooooooooooooooooooooooo++++ooooooooooooooooooooXXooXX  ",
"  XXoooooooooooooooooooooooooooo++++++ooooooooooooooooooooooXX  ",
"  XXoooooooooooooooooooooooooooo++++++ooooooooooooooooooooooXX  ",
"  XXoooooooooooooooooooooooooooo++++++++ooooooooooooooooooooXX  ",
"  XXoooooooooooooooooooooooooooo++++++++ooooooooooooooooooooXX  ",
"  XXoooooooooooooooooooooooooooo++++++++++ooooooooooooooooooXX  ",
"  XXoooooooooooooooooooooooooooo++++++++++ooooooooooooooooooXX  ",
"  XXoooooooooo++++++++++++++++++++++++++++++ooooooooooooooooXX  ",
"  XXoooooooooo++++++++++++++++++++++++++++++ooooooooooooooooXX  ",
"  XXoooooooooo++++++++++++++++++++++++++++++++ooooooooooooooXX  ",
"  XXoooooooooo++++++++++++++++++++++++++++++++ooooooooooooooXX  ",
"  XXoooooooooo++++++++++++++++++++++++++++++++++ooooooooooooXX  ",
"  XXoooooooooo++++++++++++++++++++++++++++++++++ooooooooooooXX  ",
"  XXoooooooooo++++++++++++++++++++++++++++++++++ooooooooooooXX  ",
"  XXoooooooooo++++++++++++++++++++++++++++++++++ooooooooooooXX  ",
"  XXoooooooooo++++++++++++++++++++++++++++++++OOooooooooooooXX  ",
"  XXoooooooooo++++++++++++++++++++++++++++++++OOooooooooooooXX  ",
"  XXoooooooooo++++++++++++++++++++++++++++++OOooooooooooooooXX  ",
"  XXoooooooooo++++++++++++++++++++++++++++++OOooooooooooooooXX  ",
"  XXooooooooooOOOOOOOOOOOOOOOOOO++++++++++OOooooooooooooooooXX  ",
"  XXooooooooooOOOOOOOOOOOOOOOOOO++++++++++OOooooooooooooooooXX  ",
"  XXoooooooooooooooooooooooooooo++++++++OOooooooooooooooooooXX  ",
"  XXoooooooooooooooooooooooooooo++++++++OOooooooooooooooooooXX  ",
"  XXoooooooooooooooooooooooooooo++++++OOooooooooooooooooooooXX  ",
"  XXoooooooooooooooooooooooooooo++++++OOooooooooooooooooooooXX  ",
"  XXoooooooooooooooooooooooooooo++++OOooooooooooooooooooooooXX  ",
"  XXoooooooooooooooooooooooooooo++++OOooooooooooooooooooooooXX  ",
"  XXooooooooooooooooooooooooooooOOOOooooooooooooooooooooooooXX  ",
"  XXooooooooooooooooooooooooooooOOOOooooooooooooooooooooooooXX  ",
"  XXooooooooooooooooooooooooooooooooooooooooooooooooooooooooXX  ",
"  XXooooooooooooooooooooooooooooooooooooooooooooooooooooooooXX  ",
"  XXooooooooooooooooooooooooooooooooooooooooooooooooooooooooXX  ",
"  XXooooooooooooooooooooooooooooooooooooooooooooooooooooooooXX  ",
"  XXooXXooooooooooooooooooooooooooooooooooooooooooooooooXXooXX  ",
"  XXooXXooooooooooooooooooooooooooooooooooooooooooooooooXXooXX  ",
"  XXooooooooooooooooooooooooooooooooooooooooooooooooooooooooXX  ",
"  XXooooooooooooooooooooooooooooooooooooooooooooooooooooooooXX  ",
"  XXooXXXXooooooooooooooooooooooooooooooooooooooooooooXXXXooXX  ",
"  XXooXXXXooooooooooooooooooooooooooooooooooooooooooooXXXXooXX  ",
"  XXooooXXooXXooooooooooooooooooooooooooooooooooooXXooXXooooXX  ",
"  XXooooXXooXXooooooooooooooooooooooooooooooooooooXXooXXooooXX  ",
"  ..XXooooooooooooooooooooooooooooooooooooooooooooooooooooXX..  ",
"  ..XXooooooooooooooooooooooooooooooooooooooooooooooooooooXX..  ",
"  ....XXXXXXXXXXXXXXXXXXXXXXXXXXXXXXXXXXXXXXXXXXXXXXXXXXXX....  ",
"  ....XXXXXXXXXXXXXXXXXXXXXXXXXXXXXXXXXXXXXXXXXXXXXXXXXXXX....  ",
"  ............................................................  ",
"  ............................................................  ",
"@@  ........................................................  @@",
"@@  ........................................................  @@",
"@@@@                                                        @@@@",
"@@@@                                                        @@@@"
};
