/* XPM */
static char *result[] = {
/* columns rows colors chars-per-pixel */
"64 64 7 1 ",
"  c #040509",
". c #0E5667",
"X c #147A92",
"o c #1AA3C3",
"O c #EBC99F",
"+ c #FFDDAF",
"@ c None",
/* pixels */
"@@@@                                                        @@@@",
"@@@@                                                        @@@@",
"@@  ..XXXXXXXXXXXXXXXXXXXXXXXXXXXXXXXXXXXXXXXXXXXXXXXXXXXX..  @@",
"@@  ..XXXXXXXXXXXXXXXXXXXXXXXXXXXXXXXXXXXXXXXXXXXXXXXXXXXX..  @@",
"  ..XXooooooooooooooooooooooooooooooooooooooooooooooooooooXX..  ",
"  ..XXooooooooooooooooooooooooooooooooooooooooooooooooooooXX..  ",
"  XXooooXXooXXooooooooooooooooooooooooooooooooooooXXooXXooooXX  ",
"  XXooooXXooXXooooooooooooooooooooooooooooooooooooXXooXXooooXX  ",
"  XXooXXXXooooooooooooooooooooooooooooooooooooooooooooXXXXooXX  ",
"  XXooXXXXooooooooooooooooooooooooooooooooooooooooooooXXXXooXX  ",
"  XXooooooooooooooooooooooooooooooooooooooooooooooooooooooooXX  ",
"  XXooooooooooooooooooooooooooooooooooooooooooooooooooooooooXX  ",
"  XXooXXoooooooooooooooo++++++oooo++++++++++++++ooooooooXXooXX  ",
"  XXooXXoooooooooooooooo++++++oooo++++++++++++++ooooooooXXooXX  ",
"  XXoooooooooooooooooo++++++++oooo++++++++++++++ooooooooooooXX  ",
"  XXoooooooooooooooooo++++++++oooo++++++++++++++ooooooooooooXX  ",
"  XXoooooooooooooooooo++++++++oooo++++++++++++++ooooooooooooXX  ",
"  XXoooooooooooooooooo++++++++oooo++++++++++++++ooooooooooooXX  ",
"  XXoooooooooooooooooo++++++++oooo++++++++++++++ooooooooooooXX  ",
"  XXoooooooooooooooooo++++++++oooo++++++++++++++ooooooooooooXX  ",
"  XXoooooooooooo++++++++++++++ooooOOOOOOOOOOOOOOooooooooooooXX  ",
"  XXoooooooooooo++++++++++++++ooooOOOOOOOOOOOOOOooooooooooooXX  ",
"  XXoooooooooo++++++++++++++++ooooooooooooooooooooooooooooooXX  ",
"  XXoooooooooo++++++++++++++++ooooooooooooooooooooooooooooooXX  ",
"  XXoooooooooo++++++++++++++++oooo++++++++++++++ooooooooooooXX  ",
"  XXoooooooooo++++++++++++++++oooo++++++++++++++ooooooooooooXX  ",
"  XXoooooooooo++++++++++++++++oooo++++++++++++++ooooooooooooXX  ",
"  XXoooooooooo++++++++++++++++oooo++++++++++++++ooooooooooooXX  ",
"  XXoooooooooo++++++++++++++++oooo++++++++++++++ooooooooooooXX  ",
"  XXoooooooooo++++++++++++++++oooo++++++++++++++ooooooooooooXX  ",
"  XXoooooooooo++++++++++++++++oooo++++++++++++++ooooooooooooXX  ",
"  XXoooooooooo++++++++++++++++oooo++++++++++++++ooooooooooooXX  ",
"  XXoooooooooo++++++++++++++++ooooOOOOOOOOOOOOOOooooooooooooXX  ",
"  XXoooooooooo++++++++++++++++ooooOOOOOOOOOOOOOOooooooooooooXX  ",
"  XXooooooooooOO++++++++++++++ooooooooooooooooooooooooooooooXX  ",
"  XXooooooooooOO++++++++++++++ooooooooooooooooooooooooooooooXX  ",
"  XXooooooooooooOOOOOO++++++++oooo++++++++++++++ooooooooooooXX  ",
"  XXooooooooooooOOOOOO++++++++oooo++++++++++++++ooooooooooooXX  ",
"  XXoooooooooooooooooo++++++++oooo++++++++++++++ooooooooooooXX  ",
"  XXoooooooooooooooooo++++++++oooo++++++++++++++ooooooooooooXX  ",
"  XXoooooooooooooooooo++++++++oooo++++++++++++++ooooooooooooXX  ",
"  XXoooooooooooooooooo++++++++oooo++++++++++++++ooooooooooooXX  ",
"  XXooooooooooooooooooOO++++++oooo++++++++++++++ooooooooooooXX  ",
"  XXooooooooooooooooooOO++++++oooo++++++++++++++ooooooooooooXX  ",
"  XXooooooooooooooooooooOOOOOOooooOOOOOOOOOOOOOOooooooooooooXX  ",
"  XXooooooooooooooooooooOOOOOOooooOOOOOOOOOOOOOOooooooooooooXX  ",
"  XXooXXooooooooooooooooooooooooooooooooooooooooooooooooXXooXX  ",
"  XXooXXooooooooooooooooooooooooooooooooooooooooooooooooXXooXX  ",
"  XXooooooooooooooooooooooooooooooooooooooooooooooooooooooooXX  ",
"  XXooooooooooooooooooooooooooooooooooooooooooooooooooooooooXX  ",
"  XXooXXXXooooooooooooooooooooooooooooooooooooooooooooXXXXooXX  ",
"  XXooXXXXooooooooooooooooooooooooooooooooooooooooooooXXXXooXX  ",
"  XXooooXXooXXooooooooooooooooooooooooooooooooooooXXooXXooooXX  ",
"  XXooooXXooXXooooooooooooooooooooooooooooooooooooXXooXXooooXX  ",
"  ..XXooooooooooooooooooooooooooooooooooooooooooooooooooooXX..  ",
"  ..XXooooooooooooooooooooooooooooooooooooooooooooooooooooXX..  ",
"  ....XXXXXXXXXXXXXXXXXXXXXXXXXXXXXXXXXXXXXXXXXXXXXXXXXXXX....  ",
"  ....XXXXXXXXXXXXXXXXXXXXXXXXXXXXXXXXXXXXXXXXXXXXXXXXXXXX....  ",
"  ............................................................  ",
"  ............................................................  ",
"@@  ........................................................  @@",
"@@  ........................................................  @@",
"@@@@                                                        @@@@",
"@@@@                                                        @@@@"
};
