/* XPM */
static char *_25683aa0ac3429dfe07a56f7c9eccc8F4UG2qJDNELyuMMd[] = {
/* columns rows colors chars-per-pixel */
"128 128 84 1 ",
"  c black",
". c #010101",
"X c #020202",
"o c gray2",
"O c gray3",
"+ c #090909",
"@ c gray4",
"# c #0B0B0B",
"$ c #0C0C0C",
"% c gray5",
"& c #0E0E0E",
"* c gray6",
"= c #101010",
"- c #111111",
"; c gray7",
": c #131313",
"> c gray8",
", c #151515",
"< c #161616",
"1 c gray9",
"2 c #181818",
"3 c gray10",
"4 c #1B1B1B",
"5 c gray11",
"6 c #1D1D1D",
"7 c #1E1E1E",
"8 c gray12",
"9 c #202020",
"0 c gray13",
"q c #222222",
"w c #232323",
"e c gray14",
"r c #252525",
"t c gray15",
"y c #272727",
"u c #282828",
"i c gray16",
"p c #2A2A2A",
"a c gray17",
"s c #2C2C2C",
"d c #2D2D2D",
"f c gray18",
"g c #2F2F2F",
"h c gray19",
"j c #313131",
"k c #323232",
"l c gray20",
"z c #343434",
"x c #353535",
"c c gray21",
"v c #373737",
"b c gray22",
"n c #393939",
"m c #3A3A3A",
"M c gray23",
"N c #3C3C3C",
"B c gray24",
"V c #3E3E3E",
"C c #3F3F3F",
"Z c gray25",
"A c #414141",
"S c gray26",
"D c #434343",
"F c #444444",
"G c gray27",
"H c #464646",
"J c gray28",
"K c #484848",
"L c #494949",
"P c gray29",
"I c #4B4B4B",
"U c #4C4C4C",
"Y c gray30",
"T c #505050",
"R c gray32",
"E c #555555",
"W c #565656",
"Q c gray35",
"! c #5D5D5D",
"~ c gray37",
"^ c #5F5F5F",
"/ c #606060",
"( c #6A6A6A",
") c #BCBCBC",
/* pixels */
"tpmGGDGDGGDGDGGGDGDGGGDGDGGGDGDGGGDGDGGGDGDGGGDGDGGGDGDGGDGDGDGDGDGDGDGDGDGDGDGDGGDGDGGGDGDGGGDGDGGGDGDGGGDGDGGGDGDGGDGDGDGDGPW!",
"qtfmmmmmmmmmmmmmmmmmmmmmmmmmmmmmmmmmmmmmmmmmmmmmmmmmmmmmmmmmmmmmmmmmmmmmmmmmmmmmmmmmmmmmmmmmmmmmmmmmmmmmmmmmmmmmmmmmmmmmmmmmmDT!",
"7tphhfhhfhhhffhfhhfhhhhhffhfhhfhhhhhffhfhhfhhhhhffhfhhfhhhhhhhhhhfhhhhhfhhhhhfhhfhhhffhfhhfhhhhhffhfhhfhfhhhffhfhhfhhhhhhhhhhmY/",
"7qtpfpfpfppppfpfppfpppfppfpfppfpppfppfpfppfpppfppfpfppfppfppppfppfpppfpfppfppfppfppppfpfppfpppfppfpfppfpfppppfpfppfppfppppfppzP!",
"7qtfpfpppfpfpppppfpppfpppfpfpppfpppppfpfpfpppfpppfpfpppffpppfpfpfpppfpppppppfpfppfpfpppppfpppfpppfpfpppfpfpfpppppfpppffpppfppzP!",
"7qppppqq3pppfpfpppfpppfpppppfpppfpfpppppppfpppfpppppfppppppfpppppppfpppfpfpfppppppppfpfpppfpppfpppppfpppppppfpfpppfppppqq3ppfzP!",
"7qppp(3  3pppppfpppppppppfpppfpfpppfpfpppppppppppfpppfpffpfpppfpfpfpfpfpfpppppfppfpppppfpppppppppfpppfpfpfpppppfpppppp(3  3ffzP!",
"7qtpf)   Ofpfpppfpfpfpfpppfpppppfpppppfpfpfpfpfpppfppppppppppfpppppppppppppfpfppppfpfpppfpfpfpfpppfpppppppfpfpppfpfpfp)   OpphP!",
"7ttpp(3  3pfpfpfpppppppppfpppppfppfpfppppppppppppppffpppppppfppppfpfpfpffpppfpfppfpfpppffpfppfpfpppfpfpfpfpppfpfppppfp(3  3pfzP!",
"3qtfppqO3pppppppfpfpfpfpppppfpppppppppfppfpfpfpffppppppfpfpfpppfpppppppppppfppppppppfpppppppppppfpppppppppfpppppfpfppppqO3pppzP!",
"7qpppfpppfpfpfpfpptppptpppppppppppppppppfpppfppppfpffpfpfpppfpfppfpppfppfpfpppfppfpppfpfppfppfpppppfpppppppppppppppfppppffpfpzP!",
"7qppppfpppppppfpptttttttttttttttttqtpppppppfpppfpppppppppppfppppppfpppfppppppfppppfppppppfppppppptpppppppppppppppppppfpfpppppzP!",
"7qtfpppfpfpppfhhptqqqqqqqqqqqqqqqq7qqtppfpfpppfppffpppfpppfpppfppppfppppppppfpfppfpfppppppfpppptttttttttttttttttttppppfpppppfzP!",
"7qppfpppppfpphmVth   3h*  *h<  oft  qtpppppppfpppppppfpppfpppfppfpppfpfppfpfppppppppfpfppffhfptqqqqqqqqqqqqqqqqqqqtppfpppfpfpzP!",
"7ttppfpfppppfhDYhfo *ff: ofh7  thp  7qppppfpppppppfpppfpppfpppfppppfppppfpppppfpppfppppfpphmV php  3hfo *ff:  fh77tpppppfppppzP!",
"3qppppppfpfppzGQ:qftf<3ftf3:ttpq:tpt7qtfpfpppPDf7<::::::::::::::::::::<:::::::::**OOfpppfphDYpq:tppt:qftf<3ftf3:p7qtpfpfpppfpzP!",
"7qppppppppppfzP!  7h7  :ft  Off   ph7qtpfpfppfPDt<::::::::::::::::::::::::::::::OO*OpfppfphPQh   ph*  7f7  :fp  o7qpppfpfpppfzP!",
"7ttppfpfpfpfphP!   t3   7p   :h   of7tppppppp:zYh3<<<<:<<:<<:<<<<<<<:<:<<<:<:<<:O*OOppfpppzP!h   of*   p3   7t   7qtpfpppppfpzP!",
"3qppfpppfpppfzP!   Opo   t:   q7   :3qppppfppO7GDq3<<<33<3<3<33<<<3333<3<3<3<<3:*OOOppppfphP!77   :t   Opo   p:  7ttppppfpfppzP!",
"7ttfpppfpppfpzP!q   :p   OpO   t:   7qtfpfppfOOhPf77q77777q7777q7q777777q7777q7<***OfpfppfzP! p:   7q   :p   opO 7qppfpfpppppzP!",
"3qppppfpfpfpfzP!p:   q7   <p   Ofo  7qppfpppfoOtPmttttttttttttttttttttttttttttt7:OO*pfppfpzP! OfO   p:   77   <t 7qpppppppppfzP!",
"7qpppfpppppppzPQ<fO  *f<   h7   tt  7ttppppffOotPmtttttttttttttthDhtttttttttttt3:**OppfpppzP!  qt   3fo  *f<   h77qppppfpfpfpzP!",
"7qtfppppppfpfzP!tfp  <ffO Ohf<  ffq 3qppfpfppOOqPzttttttttttttpVGGGmptttttttttt3***OppppfpzG!  ffq  qhp  <hho *hf7qtfpfpfppppzP!",
"7ttppfpfpfpppzP!t*qptf:3ftf3:fqfq*tt7ttfpppppOOtPmttttttttttthDGGGGGDhttttttttt3:OOOfpfppfzP!tpq*tppt*qptf:3ftp3:7qppppppppfpzP!",
"3qtpfpfpppfpfzPQ   hf*  qf3  <ht  *h7qtpppppfOotPmtttttttttpVGGGGGGGGGVpttttttt7:*OOppfpfpzP!ht  *ff   hh*  tf3  7qtppppfpppfzP!",
"7tpppppppfpppzP!   f<   qt   3f   Oh7tpppfpfpOOqGmtttttttthGGGGGVfVGGGGDhpttttt3:OO*pfppppzP!p   Of*   h3   qt   7qppfpfpppfpzP!",
"3qppppfpppppfzP!  3t   *f    fO   t33qppfppppOOtPmttttttttGGGGDhtttzDGGGGtttttt3:O*OppppppzP!*   q3   3q   Of    7qpfpppfpfppzP!",
"7qtfpfpppfpfpzP! *f    f*   t3   3q 7qtfpppfpOotPmttttttttGGGVptttttpVGGGtttttt3:**OpfpfpfzP!   3t   *f    fO   t7qppppfpppppzP!",
"7qppfpfpppfpfzP!ofO   p<   3q   Of  7qppfpfppOOqPmttttttttGDhttttttttthDGtttttt7**O*ppppfpzP!  *f   of*   p<   3q3qpppfpppppfzP!",
"7ttppppppfppphP!th   3f*  *h3  oft  7qppppppfOOtPzttttttttmptttttttttttpmtttttt3:O*OpppfppzP! oft   th   3f*  *h37qtpfpppfpfpzP!",
"3qppppfpppppfzP!hfo *hh: off7  tfp  7qppppfpfoOqPmttttttttttttttttttttttttttttt3:*OOfpfpfpzP! pfp  7hho *hh: off77ttppppfppppzP!",
"7ttfpfpppfpfpzPQ:qftp:3hqf<:ptpq*qpt7qtfpfpppOOtPzttttttttttttttttttttttttttttt3:O*OppppppzP!pq*qptt*7ftp:3hqf<:t7qppfpfpppfpzP!",
"3qppppfpfpppfzP!  7f7  :hp  Off   ph7qpfpppfpOOtPmttttttttttttttttttttttttttttt3:OO*fpfpfpzP!h   th*  7h7  :ft  O7qtppfpfpppfzP!",
"7qpppfpppppfpzP!   p3   7t   :h   Of7qtpfppppOOqPmttttttttttttttttttttttttttttt7:**OpppppfzP!h   Of*   t3   7p   7qppfpppppfpzP!",
"7qtfppppfpfpfzP!   OpO   t:   77   :7qpppfpfpOOtPzttttttttttttttttttttttttttttt3:OOOppfpppzP!77   :t   Opo   t:  3qpppppfpfpfzP!",
"7ttppfpfppppphP!7   :t   OpO   p:   7qtpppppfOOqPmttttttttttttttttttttttttttttt3:**OpfpppfzP! t:   7q   :p   OpO 7ttpfpfppppphP!",
"3qtpfpppppppfzP!p:   77   <t   Ofo  7ttfpppppOOtGmttttttttttttttttttttttttttttt3**OOfpppppzP! OfO   p:   q7   <t 7qtfpppppppfzP!",
"7tpppppfpfpfpzP!<fO  *h<   hq   qp  7qppfpfppOOqPmttttttttttttttttttttttttttttt7:OO*pppfpfzP!  tp   <fO  Oh<   hq7ttpppfpfpfpzP!",
"3qppfpfpfpppfzP!tfp  3ffO *fh<  ffq 7ttppppfpOOtPmttttttttttttttttttttttttttttt3:O*OfpfpfpzP!  fhq  thp  3hhO Ohf7qpfpfpfpppfzP!",
"7qtfpppppppfphP!t*qpqf:3ftp3:fqpq*tt3qppfpppfOOqGmttttttttttttttttttttttttttttt3:**OppppppzP!tpq*tttt*qpqf:<ftf3:7qtpppppppfphP!",
"7qppppppfpppfzP!   hh*  tf3  <ft  *h7qtfpppfpOOtPmttttttttttttttttttttttttttttt3:OO*pfppfpzP!ht  Ohf   hh*  tf3  7qpppppfpppfzP!",
"7ttppfpfpppfpzP!   h<   qt   3f   Oh7qppfppppOOqPmttttttttttttttttttttttttttttt7:**OppfpppzP!f   *f*   h3   qt   7qtpfpfpppfpzP!",
"3qppfpppfpfpfzP!  3t   *f    f*   t<7qpppfpfpOOtPztttttttttttfmmmmmmmhttttttttt3**OOppppfpzP!*   q3   <t   *p    7qpfpppfpfpfzP!",
"7ttfpppfppppphP! Of    f*   q3   3q 7qtpppppfOOqPmtttttttttttmYPPPPPPDttttttttt3:O*OfpfpppzP!   3t   Of    p*   t7qppppfppppphP!",
"3qppppfpppppfzP!of*   t3   3q   *f  7qpfpppppOOtGmtttttttttttphhfhfhhfttttttttt3:OO*pfppfpzP!  *f   of*   p3   3q3qpppfpppppfzP!",
"7qpppfpppfpfpzP!th   7hO  *f3  opt  7qtpfpfppOOqPmtttttttttttfmzhfhpttttttttttt7:**OppfpppzP! oft   tf   7hO  *h37qtpfpppfpfpzP!",
"7qtfppppfpppfzP!hho *hf:  ff7  php  7qpppppfpOOtPmtttttttttttmPYPYPPPDttttttttt3***OppppfpzP! thp  7hfo *fh:  ff77ttppppfpppfzP!",
"7ttppfpfpppfphP!*3fqf:3htf3:ttpq*qpt7qtpfpppfOOqGmtttttttttttpfffzDPPDttttttttt3:OOOfpfpppzP!pq:qptt:3ftf:3ftf3:t7qppfpfpppfphP!",
"3qtpfpfpfppppzP!  7h3  :ht  Ofh   pf7qppppfpfoOtPmttttttttttttfzGPPPVfttttttttt3:O**pppfpfzP!h   ph*  7h3  :fp  o7qpppfpfpppfzP!",
"7tpppppppppffzP!   p7   7t   :h   of7qpppfppfOotGmtttttttttttmYPGmhtttttttttttt3:OOOfppppphP!h   of*   t7   7t   7qtpfpppppfpzP!",
"3qppppfpfpfppzP!   Opo   p:   77   :7qtfpppppOOqPmtttttttttttfGPGDzpttttttttttt3***OpfpfppzP!77   :to  Opo   p:  7ttppppfpfppzP!",
"7qtfpfpppppppzP!7   :p   OpO   p:   7ttppfpfpOOtPmtttttttttttttpzGPPDhttttttttt3:*O*ppppffzP! t:   77   :p   OpO 7qppfpfpppppzP!",
"7qppfpfpfpppfzP!p:   q7   <t   OfO  3qppppfpfOotPmtttttttttttpzmmmVPPDttttttttt7:O*OpfpfppzP! OfO   p:   q7   <t 7qpppppppppfzP!",
"7ttppppppppfpzP!<fO  Oh<   hq   tt  7qpppfpppOOqPztttttttttttmPPPPPYPVttttttttt3:*OOppppfphP!  tp   <fO  Oh<   hq7qppppfpfpfpzP!",
"3qppppfpfpfppzG!tfp  <hho Ofh<  ffq 7qtfpppppOOtPmtttttttttttpffhfttttttttttttt3:O*OpfpppfzP!  fhq  tfp  <hho Off7qtfpfpfppppzP!",
"7ttfpfppppppfzP!t*qptf:3ftf3:ftpq*tt7ttppfpfpOotPztttttttttttfmmmmmzmzttttttttt3:*OOppfpppzP!tpq*ttpt*qptf:3ftf3:7qppppppppfpzP!",
"3qppppfpfpfpfzP!   hh*  tf3  3ft  *f7qppfpfppOOqPmtttttttttttmPYPYPPPVttttttttt7**OOpfppppzP!ft  *hf   hfO  th3  7qpppppfpppfzP!",
"7qpppfppppppfzP!   h3   qt   <f   *f7qtpppppfOOtPmtttttttttttpffVPhfVDttttttttt3:*O*ppfppfzP!f   Of*   h3   qt   7qtpfpfpppfpzP!",
"7qtfppppppfpphP!  3t   Of    fO   q3qtppppfppOOqPmttttttttttttttmPttmDttttttttt3:O*OppppfpzP!*   t<   3q   *f    7qpfpppfpfppzP!",
"7ttppfpfpfppfhDW *f    f*   t3   3q qtpfpfpppOOtPztttttttttttttthPVmPVttttttttt3:*OOfpfpppzG!   3q   *f    f*   tqtppppfpppppzP!",
"3qtpfpppfpppfhVPTYGGGGGDDDGDGDGDGVhpppppfpppfoOtPmtttttttttttttttmYPGfttttttttt7:*O*ppppfpzDW  *f   ofO   t<   3qttpppfpppppfzP!",
"7tpppppfpppfpfhmVVmmmmmmmmmmmmmmmzhfpppppppffOotPzttttttttttttttttpfttttttttttt3:OOOfpfppphVPYYPGDGGGDGGGGGGGGVzptpppfpppfpfpzP!",
"3qppfpfpfpfpppfhhhhhhhhhhfhfhfhfhffppfpffpfppOOqPmttttttttttttpmDDDVDmttttttttt3***OpppfppfhmVVVmmmmmmmmmmmmmmzhfpppppppfppppzP!",
"7qtfpppppppppfppppfpppfppfpfpfpffppfpppppppppOOtPmtttttttttttpGPPYPPPDttttttttt3:*OOfpppfpffhhfhhfhhhhhhhhhhhffffppppfpfpppfpzP!",
"7qpppppppppppppppppppppptppptppppptpppfpppppfOotPmtttttttttttzYzttttttttttttttt3:*O*pppfpfppppppppppptpptppptpptpppppppppfpppzP!",
"7qpppfpfpfpfpfffpttttttttttttttttttttpppfpfppOOqGmtttttttttttDGtttttttttttttttt3:OOOfppppppffpttttttttttttttttttttppfpfpppfpfzP!",
"7qppfpppfppppfhhptqqqqqqqqqqqqtqqqqqqtpppppfpOOtPmtttttttttttmPhttttttttttttttt3***OpfpfpffhhptqqqqqqqqqqqqqqqqqqqtppppfppppfzP!",
"7qtfpppfpppfphzV7   :t   OpO   t:   7tppfpppfOotPmtttttttttttfPPGVDDDmttttttttt3:*O*ppppppfmV t:   77   :p   OpO 7tpfpppfpfpphP!",
"7qppppfpfpfpphDYp:   q7   <t   OfO  7qpfpfpppOOqGmttttttttttttfDDDVDDmttttttttt3:O*OpfpfpfzDY OfO   p:   q7   <t 7ttpfpppfpfpzP!",
"3qpppfppppppfzPQ3fO  Oh:   h7   qt  7qtpppfpfOOtPmttttttttttttttttttttttttttttt3:OOOppppppzGQ  qp   3fO  Oh:   h77qtppfpppppfzP!",
"7qppppppppfppzP!thp  3hhO *ff<  ffq 7qpppppppootPztttttttttttzVDVDDDVmttttttttt7:**OpfppppzP!  fhq  thp  3hhO Ohh7qppppppfppfzP!",
"7qpppfpfpfpppzP!t*qpqf:<ftf<:ftpq*pt7qtpfpfpfOOqPmtttttttttttmPYPPPPPDttttttttt3:*OOppfpfpzP!tpq:tttt*qpqf:<ftf3:7qtfpfpppfpphP!",
"7qtpfpfppppppzPQ   hh*  tf3  3ht  Oh7qppfppppOOtPmtttttttttttmPtttttttttttttttt3:O*OffppfpzP!ht  Ohf   hh*  tf3  7qppfpfpfpppzP!",
"7qppppppfpfpfzP!   f3   qt   <f   *f7qpppppfpOOqGmtttttttttttmPtttttttttttttttt3:OOOppfpppzP!f   *hO   h3   qt   7qtppppppfpfzP!",
"7qppppfppppfpzP!  <t   *p    f*   q37ttpfpfpfOOtPmtttttttttttmPtttttttttttttttt7**OOppppppzP!*   q3   <t   *p    7qppfppppppfzP!",
"3qpppfppfpppfzP! *f    p*   t<   3t 7qtfpppppoOtPmtttttttttttpftttttttttttttttt3:***fpfppfzP!   3t   Of    p*   q7qpppfpfpfpphP!",
"7qppfpfpppppfzP! f*   t3   3t   Of  3qppfppppOOqPmtttttttttttfPftpDPDpttttttttt3:OOOfpfpppzP!  Of    f*   p3   3t7qppppppfpfpzP!",
"7qppppppfpfppzG!th   7hO  *h<  oft  7qpppppffOOtPztttttttttttmPptmPGPDttttttttt3:**OpppppfzP! oft   th   7hO  *h<7qtfpfpppppfzP!",
"7qppppfppppfpzP!hh  *fh: off7  php  7ttpfpfppoOtPmtttttttttttDPppPDpGPttttttttt7:O*OppfpfpzP! php  7hho *fh:  fh77qppppfpfppfzP!",
"7qtfpfppfpppfzP!:qftf<3hqf3:ptpq:tpt7qtfppppfOotPztttttttttttzPGGYhtDGttttttttt3:*OOpfppppzP!pq:tptt:qfqf<3ftf3:t7qpfpppppfpphP!",
"7qppppfpfpppfzP!  7h3  :ht  Off   ph7qtpppfppOOtPmtttttttttttpGYPGttDVttttttttt3:*OOfppffpzP!f   ph*  7f7  :fp  o7qpppfpfpppfzP!",
"3qpppfpppppfpzP!   p7   7p   :h   of7qpppfpppOotGmttttttttttttphftttttttttttttt3:O*OfpppppzP!h   of*   p3   7t   7qtpfpppppfpzP!",
"7qppppppfpfppzP!   Opo   t:   77   :7qpppppppOOtPmtttttttttttfmmmmmmmhttttttttt7:*OOpfpffphP!77   :t   Opo   p:  7qpppppfpfppzP!",
"7qpppfpfpppppzP!7   :t   OpO   p:   7qpppfpffOOqPmtttttttttttmPPPPPPYDttttttttt3:O*OpppppfzP! p:   7q   :p   opO 7qppfpfpppppzP!",
"7qtpfpppppppfzP!p:   77   <t   Ofo  7tpppppppOOtPztttttttttttmPfhPVfGDttttttttt3**OOpppffpzP! OfO   p:   77   <t 7qpppppppppfzP!",
"7qpppppfpfpfpzP!<fO  *h<   h7   qp  7qtffpfppOOqPmtttttttttttmPttPmtDVttttttttt3:***fpppppzP!  qt   3fo  *f<   h77qppppfpfpfpzP!",
"7qppfpfpfppppzP!tfp  3ffO *fh<  ffq 7qpppppfpOOtGmtttttttttttmPttPmtDDttttttttt7**OOpfpffpzG!  ffq  qhp  <hho *hf7qtfpfpfppppzP!",
"3qpppppppppfpzP!t*qpqf:3ftp3:fqpq*tt7qtpfpppfOOqPmtttttttttttfmtthpthhttttttttt3:O*OpppppfzP!tpq*tppt*qptf:3ftp3:7qppppppppfpzP!",
"7qppppppfpppfzP!   hh*  tf3  3ft  *h7qtfpppfpOOtPmttttttttttttttttttttttttttttt3:O*OppppppzP!ht  *ff   hh*  tf3  7qtppppfpppfzP!",
"7qpppfpfpppfpzP!   h3   qt   <f   Of7qppfppppOOqGmttttttttttttttttttttttttttttt3***OfpfpfpzP!p   Of*   h3   qt   7qppfpfpppfpzP!",
"7qppfpppfpfppzP!  3t   *f    f*   q37qtppfpfpOOtPmttttttttttttttttttttttttttttt7**OOpppfpfzP!*   q3   3q   Of    7qpfpppfpfppzP!",
"7qtfpppfpppppzP! Of    f*   q3   3t 7qppppppfOOqPmttttttttttttttttttttttttttttt3:**OfpppppzP!   3t   *f    fO   t7qppppfpppppzP!",
"7qppppfpppppfzP!of*   t3   3q   *f  7qpfpppppOOtPzttttttttttttttttttttttttttttt3**OOffpppfzP!  *f   of*   p<   3q3qpppfpppppfzP!",
"3qpppfpppfpfpzP!th   7hO  *f3  opt  7qtpfpfppOOqPmttttttttttttttttttttttttttttt3:O*OppfpppzP! oft   th   3f*  *h37qtpfpppfpfpzP!",
"7qppppppfppppzP!fho *hf:  ff7  thp  7qpppppfpOOtGmttttttttttttttttttttttttttttt7:*OOppppppzP! thp  7hho *hh: off77ttppppfppppzP!",
"7qpppfpfpppfpzP!*qfqf:3htf3:ptpq*qpt7qtpfpppfOOqPmttttttttttttttttttttttttttttt3:O*OfpfpfpzP!pq*qptt*7ftp:3hqf<:t7qppfpfpppfpzP!",
"7qtpfpfppfpfpzP!  7h7  :ft  Off   ph7qpppppffoOqPmttttttttttttttttttttttttttttt3:OO*fpfpfpzP!h   th*  7h7  :ft  O7qtppfpfpppfzP!",
"7qppppppppppfzP!   t3   7p   :h   of7qtpfppppOOtPmttttttttttttttttttttttttttttt3:**OpppppfzP!h   Of*   t3   7p   7qppfpppppfpzP!",
"7qppppfppfpppzP!   Opo   t:   q7   :7qpfpfpfpOotGmttttttttttttttttttttttttttttt3:OOOppfpppzP!77   :t   Opo   t:  3qpppppfpfpfzP!",
"3qpppfppppfppzP!q   :p   OpO   t:   7qtpppppfOOqPmttttttttttttttttttttttttttttt7:**OpfpppfzP! t:   7q   :p   OpO 7ttpfpfppppphP!",
"7qppfpfppfpfpzP!p:   q7   <p   Ofo  7qpppfpppOOtPzttttttttttttttttttttttttttttt3**OOfpppppzP! OfO   p:   q7   <t 7qtfpppppppfzP!",
"7qppppppppppfzP!<fO  Oh<   hq   tt  7ttpppfpfOotPmttttttttttttttttttttttttttttt3:OO*pppfpfzP!  tp   <fO  Oh<   hq7ttpppfpfpfpzP!",
"7qppppfppfpppzPQqfp  3fhO Ohf<  ffq 3qpppppppOOqPmttttttttttttttttttttttttttttt3:O*OfpfpfpzP!  fhq  thp  3hhO Ohf7qpfpfpfpppfzP!",
"7qtfpfppppfpfzP!t:qptf:<ftf3:fqfq*tt7ttffpfppOOtGmttttttttttttttttttttttttttttt7:**OppppppzP!tpq*tttt*qpqf:<ftf3:7qtpppppppfphP!",
"7qppppfpfpfppzP!   hf*  qf3  <ht  *h7qtpppppfOotPmttttttttttttttttttttttttttttt3:OO*pfppppzP!ht  Ohf   hh*  tf3  7qpppppfpppfzP!",
"3qpppfppppppfzP!   f<   qt   3f   Oh7tpppfpfpOOqPmttttttttttttttttttttttttttttt3:**OppfpfpzP!f   *f*   h3   qt   7qtpfpfpppfpzP!",
"7qppppppppfppzP!  3t   *f    fO   t33qppfppppOOtPmttttttttttttttttttttttttttttt3**OOppppppzP!*   q3   <t   *p    7qpfpppfpfpfzP!",
"7qpppfpfpfppfhP! *f    f*   t3   3q 7qtfpppfpOOqPzttttttttttttttttttttttttttttt7:O*OfpfpfpzP!   3t   Of    p*   t7qppppfppppphP!",
"7qtpfpppfpppfzP!ofO   p<   3q   Of  7qppfpfpfoOtPmttttptttptttpttttttttttttttpt3:**OpfppppzP!  *f   of*   p3   3q3qpppfpppppfzP!",
"7qpppppfpppfpzP!th   3f*  *h3  oft  7ttppppppOO7DDzhzhhzhhhhhhhhhzhhhzzhzhhzhhhq:*OOppfpfpzP! oft   tf   7hO  *h37qtpfpppfpfpzP!",
"7qppfpfpfpfpfzP!hho *hh: off7  tfp  3qppppfppOo:hYGGGGGGPGGGPGGGPGGGGGGGGGGGGPGm7:**ppppppzP! tfp  7hfo *fh:  ff77ttppppfpppfzP!",
"3qpppppppppppzP!*3ftp:3hqf<:ptpq*qpt7ttfpfppfOOO7VPGPPPGGPPPGPPPPPPGPPPPPGPPGPGPm7:*fpfpfpzP!pq:qptt:3ftf:3ftf3:t7qppfpfpppfphP!",
"7qtfppppppppfzP!  7h3  :ht  Off   phqtpppfpppoOO:tzzzzzzzzzzzzzzzhzzzzzzzzzzzzzDPmq<ppppfpzP!h   tf*  7h3  :fp  OqqpfpppppfppzP!",
"7qppfpfppfpfphDW   t3   7p   :h   ofttppppfpfoOOO<77777777777777777777777777777tVPV7pppfpphDWh   Of*   t3   7t   ttppppfpfpppzP!",
"7qtppppffpppphVPTYPGDGGGDGDGGGGGDVhptppfpppppfppfppppfpppfpppfppppfpppppfpfppfpfpfppfpfppphVPYYPGGGGGGGDGGDGGGDhptppfpfpppppfzP!",
"7qppfppppppfpfhmVVmmmmmmmmmmmmmmmmhfppppfpfpppfpppfpppfpppfpppfppfpppfpfppppppppppfpppppfffhmVVmmmmmmmmmmmmmmmzhfppppppppfpfpzP!",
"7qtppfpffpfppfffhhhhhhhhhfhhffhhhffppppppppfpppffpfppppppppfppppfpppfppppfpfpppfpfpfppppppfffhhhhfhhhhhhhhhhhhhfpppfppfppppppzP!",
"7qtfpppppppppfppfpppfppppfppfppfpfpfpfpffpppfpppppppfpfpfpppfpfppppfpppfppppfpppppppfpfpfppppppfpffpppfppppfpppffpppfpppfpfppzP!",
"7qpppfqq3ffppppppfpfpfpffpfpfpppppppfppppfpfpfpfppfppppfpfpfpppffpfpfpfppfpppfpfpfpppppfpfpffpfpppppfpfpfpppfpfppfpfpfpqq3pffzP!",
"7qppp(3  3pppfpfpppppppppppppppfpfpfpppfpppppppppfppfpppppppfpppppppppppppfpppppppfpfpppppppppppfpfppppppppfpppppppppp(3  3ppzP!",
"7qppp)   Ofpfpppppppppppfpppfpfpppfpfpppppppppppfpppfpfppppppfpppfpfpfpfpfpppppfpfpfpppfpppppppppppfpfppfpppppfpfpfpfp)   OfpzP!",
"7qppp(<  3pppppfpfpfpfpfpppfpppppfpppppfpfpfpfpfpppfppppfpfpppfpppppppppppfpfpppppppfpppfpfpfpfpfpppppfppppfpfpppppppp(<  3ppzP!",
"7qtppfqO3pppfpfpfpppfpppfpfpppfpppppfpfpfpppfpppfpfpppfppppfpppppfpppfpppppppfpfpfpppfpfpppfpppfpfpfppppfpfpppppppfpppfqO3pppzP!",
"7qpppppfpfpfpppppppfpppfpppppfpppfpppppppppfpppppppppfppfpppfpfpppfpppfpfpfpppppppfpppppfpppfpppppppfpfppppppfpfpfpppfppfppffzP!",
"7qtppppfppfpfpfpfpfpppfpfpfpfpfpppfpppppfpppppfpppppfppppppppppppppfpppppppppppfpppppppppppppppppppppppppppppppppppppppppppppzP!",
"7qtpppppptptptptptppptptptptptpptppppppppppptpppppppppppppppppptppppppppppptppppppppppppppppppppppppppppppppppppppppppppppppppDW",
"77tttttttttttttttttttttttttttttttttttttttttttttttttttttttttttttttttttttttttttttttttttttttttttttttttttttttttttttttttttttttttttpfG",
"777qqqqqqqqqqqqqqqqqqqqqqqqqqqqqqqqqqqqqqqqqqqqqqqqqqqqqqqqqqqqqqqqqqqqqqqqqqqqqqqqqqqqqqqqqqqqqqqqqqqqqqqqqqqqqqqqqqqqqqqqqqqph"
};
