/* XPM */
static char *b7fc8fb9f1964879b037637c3206d33fAII7TkQEM4IysDWu[] = {
/* columns rows colors chars-per-pixel */
"128 128 58 1 ",
"  c black",
". c #010101",
"X c #020202",
"o c gray1",
"O c gray2",
"+ c #060606",
"@ c #090909",
"# c gray4",
"$ c #0C0C0C",
"% c gray6",
"& c #101010",
"* c #111111",
"= c #131313",
"- c gray8",
"; c #151515",
": c #161616",
"> c gray9",
", c #181818",
"< c #191919",
"1 c gray10",
"2 c #1B1B1B",
"3 c gray11",
"4 c #1E1E1E",
"5 c gray12",
"6 c #202020",
"7 c gray13",
"8 c #222222",
"9 c gray14",
"0 c #252525",
"q c gray15",
"w c #272727",
"e c #282626",
"r c #262826",
"t c #282826",
"y c #262628",
"u c #282628",
"i c #262828",
"p c #282828",
"a c gray16",
"s c #2A2A2A",
"d c gray17",
"f c #2D2D2D",
"g c #2F2F2F",
"h c gray19",
"j c #313131",
"k c #323232",
"l c gray20",
"z c #343434",
"x c #353535",
"c c #373737",
"v c gray22",
"b c #393939",
"n c gray23",
"m c #3C3C3C",
"M c gray25",
"N c gray35",
"B c #5D5D5D",
"V c #626262",
/* pixels */
"Mk:,488wppMkvccccccccccccccccccccccccccccccccccccccccccccccccccccccccccccccccccccccccccccccccccccccccccccccccccccccpMk8444,::*Mk",
"c4:,,8wpfpv4fwwwwwwwwwwwwwwwwwwwwwwwwwwwwwwwwwwwwwwwwwwwwwwwwwwwwwwwwwwwwwwwwwwwwwwwwwwwwwwwwwwwwwwwwwwwwwwwwwwwwwp,c4w8844,::v4",
"c4:,,8wwppv4kwwwwwwwwwwwwwwwwwwwwwwwwwwwwwwwwwwwwwwwwwwwwwwwwwwwwwwwwwwwwwwwwwwwwwwwwwwwwwwwwwwwwwwwwwwwwwwwwwwwwwp,c4ppw44,:*c4",
"c4:,44wwppc44*%**%*%%*%%*%*%%*%*%*%**%*%%*%**%*%%*%**%*%%*%**%*%%*%**%*%%*%**%*%%*%**%*%%*%**%*%%*%**%*%%*%**%*%*%**c8ppw4,,::c4",
"v4:,48wwppv4%%%%%%*%%%%%%%%%%%%%%%%%%%%%%%*%%%%%%%%%%%%%%%%%%%%%%%*%%%%%%%%%%%%%%%%%%%%%%%*%%%%%%%%%%%%%%%%%%%%%%%%%c4ppw84,::c4",
"c4:,...Ofpv4###%#######%###%#####%#####%#######%###%#####%#############%###%#####%#####%#######%###%#####%#########*c4pp.O.O::c4",
"c4:,.##pppc4%Bf,,,,,,,,,,,,,,,,,,,,,,,,,,,,,,,,,,,,,,,,,,,,,,,,4,,,,,,,,,,,,,,,,,,,,,,,,,,,,,,,,,,,,,,,,,,,,,,,4,Bf8c4ppO##p::c4",
"c4:,O##fppc4*8w,,....,,....,,....,,....,,....,,....,,....,,....,,....,,....,,....,,....,,....,,....,,....,,....,,ww4c4ppOO#p:*c4",
"c4:,:NNVppv4*,,,,,,,,4,,,,,,,,4,,,,,,,,,,,,,,4,,,,,,,,,,,4,,,,,,,,,,,4,,,,,,,,,,,,,,,,,,,,,,4,,,,,,,,,,,,4,,,,,,,,,4v4pp*NNV::c4",
"c4:,,8wwppv4*Nk,,....,,....,,....,4....,,....,,....,,....,,....,,....,,....,4....,4....,,....,,....,,....,,....,,Bk8c4fpw84,:*c4",
"c4:,48wpppc4*ww,,4,,,,,,,,,,,,,,,,,,,,,,,4,,,,,,,,,,,,,,,,,,,,,,,4,,,,,,,,,,,,,,,,,,,,,,,4,,,,,,,,,,,,,,,,,,,,,,,ww4c4ppw84,:*c4",
"c4:,..OOppc4,wwpwwwwppwwwwpppwwpwwwwpwppwwwwppwpppppwpppppppwppwwwwwppwwwwpwpwwpwwwwpwppwwwwwpwwppppwpppppppwppwwwppc4pp...O::c4",
"c4:,O##ppfc4########%######%#%#####%###%####%#############%###%#####%########%#####%###%#######%##########%###%####:c4ppO##p:*v4",
"c4:,O##pppc4*Bk,,,,,,,,,,,,,,,,,,4,,,,,,,,,,,,,,,,,4,,,,,,,,,,,,,,,,,,,,,,,4,,,,,4,,,,,,,,,,,,,,,,,4,,,,,,,,,,,,,Bk4c4ppO##p::c4",
"c4:,*NNVppv4%w8,,....,,....,,....,,....,,....,,....,,....4,....,,....,,....,,....,,....,,....,,....,,....4,....,,w88c4pp*NNV:*c4",
"c4:,488ppfv4*,,,4,,,,4,,,,,,,,,,,,,,,,,,4,,,,,4,,,,,,4,,,,,,,,,,4,,,,4,,,,,,,,,,,,,,,,,,4,,,4,,,,,,,,4,,,,,,,,,,,,,4v4pww84,::c4",
"c4:,,6wwppc4*Bk,,....,,....,,....,,....,,....,,....,,....,,....,,....,,....,,....,,....,,....,,....,,....,,....,,Bk4c4ppw84::*c4",
"c4:,489wppc4&8w,,,,,,,,,,,,,,,,,,,,,,,,,,,,,,,,,,,,,,,,,,,,,,,,,,,,,,,,,,,,,,,,,,,,,,,,,,,,,,,,,,,,,,,,,,,,,,,,,,w88c4ppw84,::c4",
"c4:,48wwdpc4,pppwwppwwppppwwppppwwwppppppppppwppppwwpppwpppwppppppwwppppwwwpppppppwwppppwwppppppppwwppppppwwppwwwwwpc4pp844,:*c4",
"c4>,,6wpdpc4mmvv%%****4***********************************************************************************%*%**4vvc8v4fpw8,,::c4",
"c4:,48wyppv5kppe,wwwwwf,,,,,,,4,,,4,,,,,,,,,4,,,,,4,,,4,,,,4,4,,4,,,,,4,,,,,,,,,,,,,,,,4,,4,,,,,,,4,,,4,,,wwwwwfww8,v4pp884,::c4",
"c4:,,89wpdv4d844:w.u.wf4848444444444848448444444444444448444444444444444448484848484844444448484444444444,w.u.wp44,:c4ppw84,::c4",
"c4:,38rpppc4d8Bf,w.w.wp444#*:,,,::*#444#*::,,,:%%444#*::,,,:%#444%%:,,,,:%%444#*:,,,::%%444#*:,,,::*#4444,w.w.wf4Nk:c4ppw4,,::c4",
"c4:,38wpppc4p8ww,w.w.wf444..........444..........444..........444..........444..........444..........4444:w.w.wf4w8:c4ppw84::*c4",
"c4:,489wdpv4d844:w.w.wf4444444444444444444444444444444444444444444444444444444444444444444444444444444444,w.w.wd44,:v4pp88,,::c4",
"c4:,38weppv4d844>w.w.wf444%%*,,,::*#444%%:,,,::%#444%%::,,,:%%444#%:,,,,:*#444#*::,,::%%444#%::,,,:%#4444,w.r.wf444:c8pp884,::c4",
"c4:,,8wwpdc4d844,w.w.wf444..........444..........444..........444..........444..........444..........4444:w.e.wf444:c4ppw8,,::c4",
"c4:,44wwppc4d844:w.w.wf4444444444444444444444444444444444444444444444444444444444444444444444444444444444:w.i.wd44,:c4ppw44,:*c4",
"c4:,48wwpdv4d844,w.w.wp444#%::,,::*#444#%::,,,:%%444#%::,,,:*#444#%::,,,:%%444#*::,,,:%%444%%::,,::%%4444,w.t.wf44,,c4pp884,::c4",
"c4:,,8wipdc4d844,w.r.wf444..........444..........444..........444..........444..........444..........4444,w.t.wf444:c4ppw84,:*c4",
"c4:,,8wwppc4d844:w.e.wf4444444444444444444444444444444444444444444444444444444444444444444444444444444444,w.u.wp44,:c4pww4,,:*c4",
"c4:,44wwppc4d844,w.p.wf444%*:,,,::%%444%%:,,,::*#444#*::,,::*#444%%::,,,:%#444#%::,,::*#444#%::,,,:*#4444:w.p.wf444:c4pww84,::c4",
"c4:,48wpppc4d844,w.e.wf444..........444..........444..........444..........444..........444..........4444,w.w.wd44,>c4ppw8,,::c4",
"c4:,,88ippc4d844:w.i.wf4444444444444444444444444444444444444444444444444444444444444444444444444444444444,w.w.wf444:c4ppw84,::c4",
"c4:,48wwddv4d844,w.p.wp444$&::,,::%%444%%::,,::%%444#%::,,::%%444#%::,,,:%#444#*::,,::%#444#%:,,,::%#4444:w.w.wf44,:c4pp88,,::c4",
"c4:,,89wppc4d844:w.y.wf444..........444..........444..........444..........444..........444..........4444:w.i.wd444:c8ppw64,:*c4",
"c4:,48wwppc4d844>w.y.wf4444444444444444444444444444444444444444444444444444444444444444444444444444444444,w.w.wf444:c4ppw64,::c4",
"c4:,,6wpdpc4d844>w.w.wf444%%::,,::*#444#%:,,,,:*#444#*::,,::%%444%**,,,,:%#444#*::,,::%%444%%::,,::%%4444,w.w.wf44,:c4pp884,:*c4",
"c4:,46wpppc4d844>w.w.wf444..........444..........444..........444..........444..........444..........4444>w.w.wd44,:c4ppw6,,:*c4",
"c4:,488epdc4d844:w.w.wf4444444444444444444444444444444444444444444444444444444444444444444444444444444444:w.w.wf444:c4pp984,::c4",
"v4:,,6wwpdc4d844,w.e.wf444#*:,,,::*#444#%:,,,,:%#444%%::,,::*#444#%::,,,:%#444#*::,,,:%%444#*::,,::*#4444,w.e.wf44,:c4dpw4,,::c4",
"c4:,489wppc4d844:w.w.wf444..........444..........444..........444..........444..........444..........4444,w.t.wd444:c8ppw84,::c4",
"c4:,48wwddv4d844,w.t.wp4444444444444444444444444444444444444444444444444444444444444444444444444444444444:w.t.wf444:c4pp88,,::c4",
"c4>,,6wpppc4d844,w.t.wf444#*::,,::%%444%%::,,::%%444#*::,,::*#444%%:,,,::*#444%%::,,::*#444%%::,,::%%4444:w.w.wf44,:c4ppw64,:*c4",
"c4:,48weppc4d844,w.p.wf444..........444..........444..........444..........444..........444..........4444,w.w.wp44,>c4ppw64,::c4",
"c4:,,89wdpc4d844:w.e.wf4444444444444444444444444444444444444444444444444444444444444444444444444444444444,w.w.wf444:c4pp884,:*c4",
"c4:,48wpppc4d844>w.w.wf444#*::,,::%%444#%::,,::%#444#*::,,::%#444#%:,,,,:%#444#*::,,::%%444#%:,,,::%#4444,w.u.wf44,:c4ppw6,,:*c4",
"c4:,,8wppdc4d844:w.w.wf444..........444..........444..........444..........444..........444..........4444,w.t.wf444:v4pw984,::c4",
"c4:,48wwpdv4pw44,w.u.wd4444444444444444444444444444444444444444444444444444444444444444444444444444444444:w.w.wf44,:c4ppw8,,::c4",
"c4:,,8wipdv4p844:w.i.wf444#*:,,,::*#444%%::,,,:%#444%%::,,,:%%444%**,,,,:*#444%*::,,,:*#444%%::,,::%%4444:w.w.wf444:c4ppw84,::c4",
"c4:,,8wwppv4f844,w.r.wf444..........444..........444..........444..........444..........444..........4444,w.y.wf44,:c4pp88,,::c4",
"c4:,44wwppc4p944,w.w.wf4444444444444444444444444444444444444444444444444444444444444444444444444444444444,w.r.wf444:c8ppw64,:*c4",
"c4:,48wwdpv4p8Bf:w.w.wp444#%:,,,::*#444#%::,,::*#444#%::,,,:*#444#%::,,,:%#444#*::,,::%%444#*::,,::*#4444,w.w.wf4Bk:c4ppw64,::c4",
"c4:,,8weppv4f8ww:w.w.wf444..........444..........444..........444..........444..........444..........4444,w.w.wp488:c4pp884,:*c4",
"c4:,,8wwppc4p944,w.w.wf4444444444444444444444444444444444444444444444444444444444444444444444444444444444:w.w.wf444:c4ppw6,,:*c4",
"c4:,44wwppc4842,:wwwwwfpwwwwwwppwwwwwwwwwwwwwwwwwwwwwwwwwwwwwwwwwwwwwwwwwwwwwwwwwwwwwwppwwwwwwwwwwwwwwwww:wwwwwp,2::c4pp984,::c4",
"c4:,48wpppv8,***pckkkcccvvvvvvvvvvvvvvvvvvvvvvvvvvvvvvvvvvvvvvvvvvvvvvvvvvvvvvvvvvvvvvvvvvvvvvvvvvvvvvvvvpckckcc**%%c4dpw4,,::c4",
"c4:,,88eppc4##$######%#######%########%####%##%####%#%##%#####%####%##%#####%##%#%###%#####%##%#####%##%#%#########:c8ppw84,::c4",
"c4:,48wwppc4&Bk,,,,,,,,,,,,,,,,,,4,,,,,4,,,,,,,,,,,,,,,,,4,,,,4,,,,,,,,,,,,,,,,,,,,,,,,,,,,,,,,,,,,,,,,,,,,,,,,,,Bk4c4pp88,,::c4",
"c4:,,89wppc4&9w,,....2,....,,....,,....,,....4,....,,....,,....,,....,,....,,....,,....,,....,,....,,....,2....,,w88c4ppw64,:*c4",
"c4:,48wwpdc4*,,,,,,,,,,2,2,,,3,,,,,,,4,,,,,,,,,,,,,,,4,,,,,,,4,,,,,,,,,,,,4,,,,,,,,,,,,,,,,,,,,,,,4,,,,,,,2,,,,,,,,8c4ppw64,::c4",
"c4:,,6wpppc4*Bk,,....,,....,,....,,....,,....4,....,,....,,....,4....,4....,,....,4....,4....,4....,,....,,....,,Bf8c4pp884,:*c4",
"c4:,46wpddv4&w8,2,,,,,,,,,,,,,,,,,,,,,,,,,,,,,,,,,,,,,,,,,,,,,,,,,,,,,,,,,,,,,,,,,,,,4,,,,,,,,,,,,,,,,,,,,,,,2,,,ww4c4ppw6,,:*c4",
"c4:,488ippv4,pwwppppppppprppppppppppwwpwppppwwpppwppwwppppppwwpwpwppwppwwpppppppwppwwwwppwppwppwwppppppptppytpwwwyppv4pw984,::c4",
"c4:,,8wwppc4#############%#####%#######%#%###%###%#############%#%###########%###########%##%########%##$##$##$####:c4ppw8,,>:c4",
"c4:,488wppc4*Bk,,,,,,,,,,,,,,,,,,,,,,,,,,,,,,,,,,,,,,,,,,,,,,,,,,,,,4,,,,,,,,,,,4,,,,,,,,,,,,,,,,,,,,,,,,3,,,,,3,Bh6c4ppw84,::c4",
"c4:,48wwpfc4*8w,,....,4....,,....,4....,,....,,....,,....,4....,,....,,....4,....,,....4,....,,....4,....,,....,,w96c4pp88,,::c4",
"c4::44wwppc4*,,,,,,4,,,,,,4,,,,,,,,,,,,,,,,,,,4,,,,,4,,,,,,,,,,,,,,,,,,,,,,,,,,,,,,,,,,,,,,,,,,,,,,,,,,,,,,,,,,,,,,6c8ppw44,:*c4",
"c4:,,8wwppv4%Bk,4....,,....,,....,,....,,....,,....,4....,,....,,....,,....,,....,,....,,....,4....,,....,,....,,Bf8c4pp884,::c4",
"c4:,48wwpfv4%w8,,,,,,,,,,,,,,,,,,4,,,,,,,,,,,,,,,,,,,,,,,4,,,,,,,,,,,,4,,,,,,4,,,,4,,,,,,,,,,,,,,,,,,4,,,,,3,,,,,ww8c4ppw84,:*c4",
"c4:,,8wpppc44wwwwwpwwwppppppppwwppppppppppppppwwpppppppppppppwwwppwpppppppppppwwpppppwwwppppppppppppppwwurwwprwwwpupc4ppw4,,:*c4",
"c4:,48wpppc4mvvv%%****4vvvvvvvvvvvvvmvvvvvvvvvvvvvvvvvvvvvvvvvvvvmvvvvvvvvvvvvvvvvvvvvvvvmvvvvvvvvvvvvvvv%&&&**4vvl8c4ppw84,::c4",
"c4:,48wwppv4kpww,wwwwwpwwwwwwwwwppwwwwwwwwwwwwwwppwwwwwwwwwwwwwwwwwwwwwwppwwwwwwwwwwwwwwwwwwwwwwpwwwwwwww,wwwwwfrp8,v4pp88,,::c4",
"c4:,,8wwfpv4f844:w.u.wf4444444444444444444444444444444444444444444444444444444444444444444444444844444444:w.u.wp44,:c5dp884,::c4",
"c4:,,8wwppv4p8Bk,w.w.wf444..........444..........444..........444..........444..........444..........4444:w.w.wf4Bf:c4ppw8,,::c4",
"c4:,44wwppc4f8w8,w.w.wf444#%::,,,:%%444#*::,,,:%%444#%::,,::%%444#%:,,,::*#444%%:,,,::%%444#%:,,,::%%4444:w.w.wf4ww:c4ppw44,:*c4",
"c4:,48wwppv4p844:w.r.wp4444444444444444444444444444444444444444444444444444444444444444444444444444444444,w.w.wd44,:c4pp884,::c4",
"c4:,,8wwfpv4f844,w.t.wf444..........444..........444..........444..........444..........444..........4444,w.w.wf443:c4ppw84,:*c4",
"c4:,,8wwppv4pw44,w.u.wf444#*::,,::*%444#*:,,,,**%444#*::,,,*%%444#%:,,,::%#444#*:,,,::*%444#*:,,,,:%#4444,w.w.wf44,,c4pww4,,:*c4",
"c4:,44wwppc4p844:w.i.wf4444444444444444444444444444444444444444444444444444444444444444444444444444444444,w.w.wd443:c4pww84,::c4",
"c4:,48wwppc4p844,w.r.wf444..........444..........444..........444..........444..........444..........4444:w.w.wf44,,c4ppw83,:=c4",
"c4:,,8wwppc4f844:w.w.wf444$&::,,::*#444#%:,,,,:%%444#%::,,::*#444%%::,,::%#444%%::,,::*#444#%:,,,::%#4444:w.e.wf443:c4ppw83,:=c4",
"c4:,48wwppv4p844,w.u.wp4444444444444444444444444444444444444444444444444444444444444444444444444444444444,w.e.wf44,,c4pp963,:=c4",
"c4:,,88wppv8f844,w.e.wf444..........444..........444..........444..........444..........444..........4444,w.t.wf443:c6dp983,::c4",
"c4:,48wwppc4f844,w.w.wf444#*::,,::%#444#%:,,,,:%#444#*::,,::*#444#%::,,,:%#444#%:,,,::*#444%%:,,,,:%#4444,w.w.wf444:c4ppw63,::c4",
"c4:,44wpppc4p844:w.i.wf4444444444444444444444444444444444444444444444444444444444444444444444444444444444,w.i.wp44,:c4pp983,:=c4",
"c4:,,8wpppc4f844,w.w.wf444..........444..........444..........444..........444..........444..........4444>w.w.wf44,:c4pp983,:=c4",
"c4:,488wpfc8p844:w.w.wf444#*::,,::%%444%%:,,,::%#444%%::,,,:*#444%*:,,,,:%%444%%:,,,::*#444#%:,,,::%%4444:w.w.wf444:c4ppw64,:=c4",
"c4:,,8wwppc4p844,w.y.wf4444444444444444444444444444444444444444444444444444444444444444444444444444444444,w.w.wd44,:c4dp963,::c4",
"c4:,488wfpc4f844:w.w.wf444..........444..........444..........444..........444..........444..........4444,w.y.wf444:c8pp983,:=c4",
"c4:,48wwppv4p844,w.e.wp444%%::,,::%#444%%::,,::%%444#*::,,::%%444#%:,,,,:*#444#%:,,,,:*#444#*:,,,,:%#4444:w.w.wf444:c4ppw8,,:=c4",
"c4::44wpppv8f844:w.t.wf4444444444444444444444444444444444444444444444444444444444444444444444444444444444:w.w.wd44,:c4pp964,:=c4",
"c4:,48wpppc4f844,w.e.wf444..........444..........444..........444..........444..........444..........4444,w.w.wf44,,c4ppw63,:=c4",
"c4:,,88pppc4p844:w.w.wf444%%::,,::*#444#%::,,,:%#444#%::,,::*#444#%:,,,::%#444%%::,,::*#444%%:,,,::%%4444,w.e.wf443:c4pp983,::c4",
"c4:,48wpppc4f844,w.w.wf4444444444444444444444444444444444444444444444444444444444444444444444444444444444,w.e.wd44,,c4pw983,::c4",
"c4:,,8wppfc8p844:w.w.wf444..........444..........444..........444..........444..........444..........4444:w.t.wf443:c4pww63,:=c4",
"c4:,48wwppv4f844:w.w.wp444#*::,,::*#444#*::,,,:%%444%%::,,,:*%444#%:,,,,:*#444#%:,,,::*#444%%:,,,,:%#4444,w.w.wf44,,c4ppw84::*c4",
"c4:,,8wwfpv4p844,w.p.wf4444444444444444444444444444444444444444444444444444444444444444444444444444444444,w.p.wf444:c4ppw84,::c4",
"c4:,,8wwppc4f844:w.u.wf444..........444..........444..........444..........444..........444..........4444:w.u.wf44,:c4pp884,:*c4",
"c4:,44wwppc4pw44,w.t.wf444%%:,,,::%#444%%:,,,::%#444#*::,,::%#444%*:,,,::%%444%%::,,::*#444#%:,,,,:%%4444:w.t.wp444:c8ppw4,,::c4",
"c4:,48wwfpv4f844,w.y.wf4444444444444444444444444444444444444444444444444444444444444444444444444444444444,w.w.wf444:c4ppw44,::c4",
"c4:,,8wwppv4p844:w.r.wf444..........444..........444..........444..........444..........444..........4444,w.w.wf44,:c4ppw84,::c4",
"c4:,,8wwppc4f844,w.w.wp444%%:,,,,:*#444#%::,,,:%%444#*::,,,*%%444#%:,,,::*#444#%:,,,::%%444#*:,,,,:%#4444,w.y.wf44,:c4pp88,,::c4",
"c4:,44wwppc8p844,w.w.wf4444444444444444444444444444444444444444444444444444444444444444444444444444444444:w.r.wf444:c4pp884::*c4",
"c4:,48wwppv4f8Bf:w.w.wf444..........444..........444..........444..........444..........444..........4444,w.w.wf4Bk:v4ppw8,,::c4",
"c4:,,8wwppc4p8w8:w.r.wf444#*::,,,:%%444%%:,,,::%#444%*::,,::%%444#%::,,::*#444%*::,,::*#444%%:,,,,:%%4444:w.w.wp48w:c4fpw44,::c4",
"c4:,48wwppc4pw48,w.w.wf4444444444444444444444484444444444444444844484444444448484848444444484444484444484:w.w.wf44,,c4ppw8,,::c4",
"c4:,,88wppc484,,:w8wwwf,,,,4,4,,4,,,,,,4,,,4,,,,,4,,,4,,,4,,4,,,,4,,,,4,,4,,,,,,,,,,,4,,4,,,,,,4,,,,4,,,,:wwwwwp,,::c4pp884,:*c4",
"c4:,48wwpfc4,:**pckcckc%*********************************************************************************pckckcc****c4ppw44,::c4",
"c4:,44wpppc4#########%###########%#####%%####%#####%#######%########%##############%###############%#######%#######:c4ppw84,:*c4",
"c4:,,8wpppv4%Bk,,,:,,,,,,,,4,,,,,,,,,,,,,,,,,,,,,,,,,,,,,,,,,,,,,,,,,,,,,,,4,,,,,,,,,,,,,,,,,,,,,,,,,,,,,,,,,,,,,Nf8v4pp88,,:*c4",
"c4:,488wpfv4*88,,....,,....,,....,,....,,....,,....,,....,,....,,....,,....,,....,,....,,....4,....,,....,,....,,w88v4pp884,::c4",
"v4:,,8wpppc4*,,,,,,,,,,,,,,,,,4,,,4,,,,,,,,,,,,,,,,,,,,,,4,,,,,,,,,,,,4,,,,,,,,,,,,,,,,,,,4,,,4,,,,,,,,,,4,,,,,,,,48c4ppw84,:*c4",
"c4:,.O.Oppc4*Bk,,....,4....,,....,,....,4....,4....,,....,,....,4....,,....,4....,4....,,....,,....,,....,,....,,Bk4c4pp..OO::c4",
"c4:,O##pfpc4*w8,,,,,,,,,,,,,,,,,,,,,,,,,,,,,,,,,,4,,,4,,,,,,,4,,,,,,,,,,,,,,,,,,,,,,,,,,,,,,,,,,,4,,,4,,,,,,,4,,:w88c4ppO##p:*c4",
"c4:,O##pppc4,wwwppppwppppwpppwwpwwpwpwpppwwpwwpwwwwwwwppppwwwwpppwppwwwwpwpppwwpwppwpwpppwwpwwwwwwwwwwppppwwwwppwwwpv8ppO##p::c4",
"c4:,*NNVppv4####%#%########%#%##%#############%#############%#########%######%##%######%######%####################:c4pp*NNV::c4",
"c4:,48wwfpv4*Nk,,,,,,,,,,,,,,,,,,,,,,,,4,,,,,,,,,,,,4,,,,,,,,,,,,,,,,,,,,,,4,,,,,,,,,,,,,,,,,,,,,,,,4,,,,,,,,,,,,Bf8c4ppw44,::c4",
"c4:,48wpppc4*ww,,....,,....,,....,,....,,....4,....,,....,,....,,....4,....,,....,,....,,....4,....,,....,,....,,ww4c4ppw84,::c4",
"c4:,...#ppc4*,,,,,,,,,,4,,,,,,,,,4,,,,,,4,,,,,,,,,4,,,,,,,4,,,,,,4,,,,,,,,,,,,,,,4,,,,,,,4,,,,,,,,4,,,,,,,4,4,,,,,:8c4pp...O:*c4",
"c4:,O##pppv4*Bf,,....,,....,,....,,....,,....,,....,,....,,....,,....,,....,,....,,....,,....,,....,,....,,....,,Nk4v4ppO##p,:c4",
"c4:,O##ppfv4%ww,,,,,,,,,,,,,,,,,,,,,,,,,,,,,,,,,,,,,,,,,,,,,,,,,,,,,,,,,,,,,,,,,,,,,,,,,,,,,,,,,,,,,,4,,,,,,,,,,,w88c4fpO##p::c4",
"c4:,*NNVppc4%%%%*%%%**%%*%%%%%**%%%%*%%%*%%%*%%%%%%%%%**%%%%*%%%*%%%**%%*%%%%%**%%%%*%%%*%%%*%%%%%%%%%%%%%%%*%%%**%%c4pp*NNV::c4",
"c4:,48wpppc4%%%%%%%%%%%%*%%%%%%%%%%%%%%%%%%%%%%%%%%%%%%%%%%%*%%%%%%%%%%%*%%%%%%%%%%%%%%%%%%%%%%%%%%%%%%%%%%%%%%%%%%%c4ppw8,,:*c4",
"v4:,,88pppv4vccccccccccccccccccccccccccccccccccccccccccccccccccccccccccccccccccccccccccccccccccccccccccccccccccccccpc4ppw84,::c4",
"c4:,488wppc4fwwwwwwwwwwwwwwwwwwwwwwwwwwwwwwwwwwwwwwwwwwwwwwwwwwwwwwwwwwwwwwwwwwwwwwwwwwwwwwwwwwwwwwwwwwwwwwwwwwwwwp,c4pp88,,:*c4",
"c4:,,48ww8v4kwwwwwwwwwwwwwwwwwwwwwwwwwwwwwwwwwwwwwwwwwwwwwwwwwwwwwwwwwwwwwwwwwwwwwwwwwwwwwwwwwwwwwwwwwwwwwwwwwwwwwp,c4www84::*c4",
"w*:,,44488w*4%%*%*%*%*%*%*%*%*%**%*%*%*%*%***%*%*%*%*%**%*%*%*%*%*%**%*%*%*%*%*%*%*%*%*%*%***%*%*%*%*%***%*%*%*%*%**w*www44,::w*"
};
