/* XPM */
static char *result[] = {
/* columns rows colors chars-per-pixel */
"80 111 54 1 ",
"  c #070707",
". c #0B0B0B",
"X c #170F07",
"o c #0B1707",
"O c #1F170B",
"+ c #131313",
"@ c #1B1B1B",
"# c #2B230F",
"$ c #232B0F",
"% c #332B13",
"& c #3F2F17",
"* c #3F2B1B",
"= c #2F371F",
"- c #2F2F2F",
"; c #373737",
": c #43331B",
"> c #4B371B",
", c #533F1F",
"< c #473323",
"1 c #533F2F",
"2 c #5F4323",
"3 c #5B472B",
"4 c #474F33",
"5 c #5F4B37",
"6 c #6B4727",
"7 c #774F2B",
"8 c #7F532F",
"9 c #775F3F",
"0 c #434343",
"q c #4B4B4B",
"w c #6F5743",
"e c #875733",
"r c #8F5F37",
"t c #9B633B",
"y c #A36B3F",
"u c #836B4B",
"i c #8F7753",
"p c #AB6F43",
"a c #B37347",
"s c #BF7B4B",
"d c #937B63",
"f c #CB7F4F",
"g c #9F876F",
"h c #CF8353",
"j c #D78B5B",
"k c #DF9363",
"l c #E79B6B",
"z c #EFA373",
"x c #F7AB7B",
"c c #FFB383",
"v c #FFBB93",
"b c #FFBF9B",
"n c #FFC79B",
"m c None",
/* pixels */
"mmmmmm  @@+ mmmmmmmmmmmmmmmmmmmmmmmmmmmmmmmmmmmmmmmmmmmmmmmmmmmmmmmmmmmmmmmmmmmm",
"mmmmm---+.   mmmmmmmmmmmmmmmmmmmmmmmmmmmmmmmmmmmmmmmmmmmmmmmmmmmmmmmmmmmmmmmmmmm",
"mmmm+0;@@@.   mmmmmmmmmmmmmmmmmmmmmmmmmmmmmmmmmmmmmmmmmmmmmmmmmmmmmmmmmmmmmmmmmm",
"mmm+@0q-%www<==%%mmmmmmmmmmmmmmmmmmmmmmmmmmmmmmmmmmmmmmmmmmmmmmmmmmmmmmmmmmmmmmm",
"mmm+@-;w9w<%=+++  mmmmmmmmmmmmmmmmmmmmmmmmmmmmmmmmmmmmmmmmmmmmmmmmmmmmmmmmmmmmmm",
"mmm @@5dw=%%=%=+++ mmmmmmmmmmmmmmmmmmmmmmmmmmmmmmmmmmmmmmmmmmmmmmmmmmmmmmmmmmmmm",
"mmm  1ud5======%+++ mmmmmmmmmmmmmmmmmmmmmmmmmmmmmmmmmmmmmmmmmmmmmmmmmmmmmmmmmmmm",
"mmm $515dw4%%%=%%%%%+mmmmmmmmmmmmmmmmmmmmmmmmmmmmmmmmmmmmmmmmmmmmmmmmmmmmmmmmmmm",
"mmm %1==55<4==wwww111%mmmmmmmmmmmmmmmmmmmmmmmmmmmmmmmmmmmmmmmmmmmmmmmmmmmmmmmmmm",
"mmm$5%%%==w<<w=%++++%==mmmmmmmmmmmmmmmmmmmmmmmmmmmmmmmmmmmmmmmmmmmmmmmmmmmmmmmmm",
"mmm%==+%%<<=w%....++++=mmmmmmmmmmmmmmmmmmmmmmmmmmmmmmmmmmmmmmmmmmmmmmmmmmmmmmmmm",
"mm%5=%+%%==w%.. ++++ .+mmmmmmmmmmmmmmmmmmmmmmmmmmmmmmmmmmmmmmmmmmmmmmmmmmmmmmmmm",
"mm%5=++%+==5.. +@@+    mmmmmmmmmmmmmmmmmmmmmmmmmmmmmmmmmmmmmmmmmmmmmmmmmmmmmmmmm",
"mm%w=++%+=w%. @-;---   mmmmmmmmmmmmmmmmmmmmmmmmmmmmmmmmmmmmmmmmmmmmmmmmmmmmmmmmm",
"m%%w=+++.=w. @;@-0-+-   mmmmmmmmmmmmmmmmmmmmmmmmmmmmmmmmmmmmmmmmmmmmmmmmmmmmmmmm",
"m%%==%++.=d. @;-+;-@+-  mmmmmmmmmmmmmmmmmmmmmmmmmmmmmmmmmmmmmmmmmmmmmmmmmmmmmmmm",
"m%%%%=+=+wd +@-;-+0      mmmmmmmmmmmmmmmmmmmmmmmmmmmmmmmmmmmmmmmmmmmmmmmmmmmmmmm",
"m%%%%%+%=dw  @--         mmmmmmmmmmmmmmmmmmmmmmmmmmmmmmmmmmmmmmmmmmmmmmmmmmmmmmm",
"mO%<%%+%=d1++-0@          mmmmmmmmmmmmmmmmmmmmmmmmmmmmmmmmmmmmmmmmmmmmmmmmmmmmmm",
"mO%=%%+%=g ++@;-  @$55====%mmmmmmmmmmmmmmmmmmmmmmmmmmmmmmmmmmmmmmmmmmmmmmmmmmmmm",
"m+%%%%%%<d   +@0@%1w%====4=%%mmmmmmmmmmmmmmmmmmmmmmmmmmmmmmmmmmmmmmmmmmmmmmmmmmm",
"mm+$%%%%=d     $%u5%%%=%%4==%%mmmmmmmmmmmmmmmmmmmmmmmmmmmmmmmmmmmmmmmmmmmmmmmmmm",
"mm+$%%%%=9     %iiu1%===%+%=w%%.mmmmmmmmmmmmmmmmmmmmmmmmmmmmmmmmmmmmmmmmmmmmmmmm",
"mm++%%$$=w   +@5wwuw5=====+%=w%%$ mmmmmmmmmmmmmmmmmmmmmmmmmmmmmmmmmmmmmmmmmmmmmm",
"mmm+%%%%$5   @<i55wiw55==<%O%=5%$$ mmmmmmmmmmmmmmmmmmmmmmmmmmmmmmmmmmmmmmmmmmmmm",
"mmm+%$%$$1%   5w=5wdd9wwwww4+=%11%$ mmmmmmmmmmmmmmmmmmmmmmmmmmmmmmmmmmmmmmmmmmmm",
"mmm++%O$O1%   w5==5wd9wd9= ..=%5$    mmmmmmmmmmmmmmmmmmmmmmmmmmmmmmmmmmmmmmmmmmm",
"mmmm+%$$$%5   i%%%<5wwd9%.....=%      mmmmmmmmmmmmmmmmmmmmmmmmmmmmmmmmmmmmmmmmmm",
"mmmm+ O$O$5O  9$$%%5wi9=+......        mmmmmmmmmmmmmmmmmmmmmmmmmmmmmmmmmmmmmmmmm",
"mmmm++%$$$<$  1 $%%<wi<% ..... .       mmmmmmmmmmmmmmmmmmmmmmmmmmmmmmmmmmmmmmmmm",
"mmmmm++%OO$*  < O$%%95%  .O$%====%O++  mmmmmmmmmmmmmmmmmmmmmmmmmmmmmmmmmmmmmmmmm",
"mmmmm+ +%O+*  < OOO%u5. +%=========%++ mmmmmmmmmmmmmmmmmmmmmmmmmmmmmmmmmmmmmmmmm",
"mmmmm++%+%+#  $  OO%9< +=4444=======%.. mmmmmmmmmmmmmmmmmmmmmmmmmmmmmmmmmmmmmmmm",
"mmmmmm+ %+.#  +  OO<9. %<94444=======O+. mmmmmmmmmmmmmmmmmmmmmmmmmmmmmmmmmmmmmmm",
"mmmmmm+ .+++. +  O$<9..=w994444======%+++ mmmmmmmmmmmmmmmmmmmmmmmmmmmmmmmmmmmmmm",
"mmmmmmm+.%+.+ +   $5u .=w9994411ww9u99ww11+mmmmmmmmmmmmmmmmmmmmmmmmmmmmmmmmmmmmm",
"mmmmmmm+ +++# +   $5u $==ww9999uuuuu99wwwwwwmmmmmmmmmmmmmmmmmmmmmmmmmmmmmmmmmmmm",
"mmmmmmm+ .+.#.+    5u $==5w9999uu9uu99www9wwwmmmmmmmmmmmmmmmmmmmmmmmmmmmmmmmmmmm",
"mmmmmmmm+ ..#+. +  95 %===59ww9=O    .oo.+=999mmmmmmmmmmmmmmmmmmmmmmmmmmmmmmmmmm",
"mmmmmmmm+ +++*+ +  95 %===59w9=         ...=u9mmmmmmmmmmmmmmmmmmmmmmmmmmmmmmmmmm",
"mmmmmmmm+ ..*.++   9< $$%=559=          ...O=99mmmmmmmmmmmmmmmmmmmmmmmmmmmmmmmmm",
"mmmmmmmmm+++O+OO   9  $$%=55w+          ....Ouummmmmmmmmmmmmmmmmmmmmmmmmmmmmmmmm",
"mmmmmmmmm++++O++ + w  $O%15w%      %%=%O ....=99mmmmmmmmmmmmmmmmmmmmmmmmmmmmmmmm",
"mmmmmmmmm++++++++O<w  $ %155+     %==4=%O....Ouummmmmmmmmmmmmmmmmmmmmmmmmmmmmmmm",
"mmmmmmmmmm++++++OO<9  $ 1115.    %==4uuu4%....=uummmmmmmmmmmmmmmmmmmmmmmmmmmmmmm",
"mmmmmmmmmm++++++OO<u    <11$     %==w4O$44=...Ouimmmmmmmmmmmmmmmmmmmmmmmmmmmmmmm",
"mmmmmmmmmm+.++++OO95     11$     $%w4O=<O44....=iimmmmmmmmmmmmmmmmmmmmmmmmmmmmmm",
"mmmmmmmmm3 ++O+O$$i5$ .. 11.     $$w+===4i4....Oiimmmmmmmmmmmmmmmmmmmmmmmmmmmmmm",
"mmmmmmm337 + OO$$$i5$ .. 55.     .%w+===<u4+.+..uimmmmmmmmmmmmmmmmmmmmmmmmmmmmmm",
"mmmmmm3777   OO$$$u $ $. 15       Ou4O==u44++...4immmmmmmmmmmmmmmmmmmmmmmmmmmmmm",
"mmmmm337rry  +OO$$u $$$. 55        %949944=...++$iimmmmmmmmmmmmmmmmmmmmmmmmmmmmm",
"mmmm377yyyyy +++O$9 $$$ *15         %4444%......$iummmmmmmmmmmmmmmmmmmmmmmmmmmmm",
"mmm3rrshhksh ++OOO9 $$$.*15.              .......iimmmmmmmmmmmmmmmmmmmmmmmmmmmmm",
"mm3rshlcnblh OOOOO< $$$ *5w+              .......uuemmmmmmmmmmmmmmmmmmmmmmmmmmmm",
"m3tkbvvxcxhh +OOOO< $$$%*55+             . .. ...9ueemmmmmmmmmmmmmmmmmmmmmmmmmmm",
"m,knnnvxxkky +OOOO< $$$%*5w.                  ...99yyymmmmmmmmmmmmmmmmmmmmmmmmmm",
"mekvbcxkkhy;y++OOO<  $$$*55+                    299ayyymmmmmmmmmmmmmmmmmmmmmmmmm",
"mekkckhh>>6## ++OOO  $$$*55$                    2w9ayyyprmmmmmmmmmmmmmmmmmmmmmmm",
"metjh,66yaatt, +OOO  $$$*15$         +...++-.   299ayyyhsrmmmmmmmmmmmmmmmmmmmmmm",
"m7ttX8rsjjjaat3O+OOO  $O111$      ..+...+++..  %299yyyypsrmmmmmmmmmmmmmmmmmmmmmm",
"m,eX>paahjjhfaa3 OOO  $$<1<$      ..........+  %w99yyytyp6mmmmmmmmmmmmmmmmmmmmmm",
"mm3X>ptaahhhjjjat  +O O$<<<        ......+.++. +w9wyyyrtp6mmmmmmmmmmmmmmmmmmmmmm",
"mmmX7trtashhjjjja, O+ OO<<*         ..O.$+$+$+ +w9tyyytrt6mmmmmmmmmmmmmmmmmmmmmm",
"mmmX7trtashjjjkkka,OO$OO<**     . . O.......++ +2uttyytt76mmmmmmmmmmmmmmmmmmmmmm",
"mmmX7rtashhhhklzzkt OOOO<**          .O.O.O.$$+ 29pyyytt7>smmmmmmmmmmmmmmmmmmmmm",
"mmmXe6tpasshlzccczf6OO%O<**    . . +OOOOO$$$$++ 9rpyyttt8>ssmmmmmmmmmmmmmmmmmmmm",
"mmmXe2tpaajjlccbbbzf,+$O***     ..++O$O%$%$%$$++9pyysttt8,psmmmmmmmmmmmmmmmmmmmm",
"mm >22ryaashxbbbbcxkaO$ ***     .O+O+OOOO$$$$$ +pyyssptt8,tpsmmmmmmmmmmmmmmmmmmm",
"mm >%6etaaajxbbccxzkfs< ***     ++$+$O$O%$%$%$ pyyjssatt8,8tsmmmmmmmmmmmmmmmmmmm",
"mm >%6etaaajxbbccxzlkht*O##     .O+$+$$$====%%pyyjxsaatt7,8tymmmmmmmmmmmmmmmmmmm",
"mm >@,etaaajlxbbcxzllkht*##     +OO$%%%=====6pyyjxjsaayt6>8eymmmmmmmmmmmmmmmmmmm",
"mm >@X68tppfjlbbcxzlllkje $...+$$%%%%%%%%6ppyyjcxjssaatt2&6etmmmmmmmmmmmmmmmmmmm",
"mm > X68tppafjxbclkkkkkjje<#...$$$$%%66ypfyylzxzxjssayt86>6emmmmmmmmmmmmmmmmmmmm",
"mm >@X,38ryypjlczlkjhhjjjffee66666yssjyyjjhkkjhhsaaaatt82&6emmmmmmmmmmmmmmmmmmmm",
"mmm> XX38ryyyfjzljjjhhhhsfffaasppasskzlkjhkkjhhsaaaaata2>%,emmmmmmmmmmmmmmmmmmmm",
"mmmm& &338rtyafzljhfhfhssaaaaaaaapssskjjjjjhfspaaaaystt72&,mmmmmmmmmmmmmmmmmmmmm",
"mmmmmmm338rttyakkhshhsshhkhsasaaaaaasasssfssaaaaaasytt82>%>mmmmmmmmmmmmmmmmmmmmm",
"mmmmmmmX:7ettyajjhhssphfjkkkhazsayayaaaaaaaaaaaaytyttt62>%%mmmmmmmmmmmmmmmmmmmmm",
"mmmmmmmX:3erttpjjjhsshjkllllkzzxkaaaayyayaaayaayytttst2>%##mmmmmmmmmmmmmmmmmmmmm",
"mmmmmmmX:3788ryffhsphhkkllllkklklfyyttyyaayyppytttyypp8OXX.mmmmmmmmmmmmmmmmmmmmm",
"mmmmmmmX#3388etaaasahhllzxzzljjjjfftttttttttttrrtaasfr2&#X#mmmmmmmmmmmmmmmmmmmmm",
"mmmmmmm#:>266eeerrrypjljhsaatttppfpptttrreeeertpahsstp7:%##mmmmmmmmmmmmmmmmmmmmm",
"mmmmmmmX#:>,,277eeerraaprrssshhhtttaappttreerrtpaaapppe:&%#mmmmmmmmmmmmmmmmmmmmm",
"mmmmmmm#X#&>>,666776>2,66phhhpppaahklhsstttrrrypaayppst,>&#mmmmmmmmmmmmmmmmmmmmm",
"mmmmmmm# X#&&&&,226,,&&6ahpprrrtjjhhytttpsttrrypaappasp,,&#mmmmmmmmmmmmmmmmmmmmm",
"mmmmmmmm  #%%&&>,2,&&>eyr8e6thhsaattetypapppptettraaasp,,&#mmmmmmmmmmmmmmmmmmmmm",
"mmmmmmmm  #%%%%&:>>&>>eyr66phhhsaattahxlzlkjjarrryaatya6>&#mmmmmmmmmmmmmmmmmmmmm",
"mmmmmmmm  X##%%%&::6>2re66aahaataahxkhpt8tphlkhaertttty6>&#mmmmmmmmmmmmmmmmmmmmm",
"mmmmmmmm;O   XX##&>&6,%6rtpppttpp8eeeetttppteerphfyer726,##mmmmmmmmmmmmmmmmmmmmm",
"mmmmmmm@X    XXX#&>&O>88ttee7p8rrtkxkhhhlcclhperypyyprr2,##mmmmmmmmmmmmmmmmmmmmm",
"mmmmmmm   O   X##>&O&8re626p86pkxkteeeeyyhlcckkhsspprtat,>#mmmmmmmmmmmmmmmmmmmmm",
"mmmmmmm   X++  #% &682:2tt86ppptte626akklcckhprtttrr6etaate2#mmmmmmmmmmmmmmmmmmm",
"mmmmmmm      +   #,62#266rpteee,,6eflkhyyr662222etaaajjate62&2#mmmmmmmmmmmmmmmmm",
"mmmmmmm@@     X ##,,&>66rtt866,rpfhpyy7668rahlxxkjhfssate662&22#mmmmmmmmmmmmmmmm",
"mmmmmmmm      X ##,,&>6tpt866pfffhy768668rahlxxkhapyreeee77>&%%#mmmmmmmmmmmmmmmm",
"mmmmmmmmmm     XX&&&%2rat86epfyppr76>etajkzxlhpteeee2,,,,&&&&####mmmmmmmmmmmmmmm",
"mmmmmmmmmmOOO+   ## >6psy6yffyr66>>etahxxlhae62222eeeerppee66,>##mmmmmmmmmmmmmmm",
"mmmmmmmmmm         #,7fjypjfyr6>>etpfhhpr2&2yaaparttathlhppapr6##mmmmmmmmmmmmmmm",
"mmmmmmmmmm         #,7pjjjt66>6eafjhhp7&&2typsjkjaaaaefkjpptpse6>mmmmmmmmmmmmmmm",
"mmmmmmmmmm         #,7ysat,>>8affjhpe2&26yypfskzkkaaaefkfpprfftf68mmmmmmmmmmmmmm",
"mmmmmmmmmmm        #,7eyr,>68akfsye2%&,67tappfljkhhfpykaapppzpyzp6,mmmmmmmmmmmmm",
"mmmmmmmmmmmmmmmX   #,7et7&8aakarre2%&,67rahtphljzksspfztattakhjppr62mmmmmmmmmmmm",
"mmmmmmmmmmmmmmm+   #,7e2&2askar882%@,67ryhspyhklzlfpffjetkkakpfjja886mmmmmmmmmmm",
"mmmmmmmmmmmmmmmm    >22&&7haar22>%@>267ryysrpskklkjjhzkyazzkzxzkhlfar6mmmmmmmmmm",
"mmmmmmmmmmmmmmmm    #&%&>aptt22%%@@,666rryyrrpzklhzhkzzahvvkkzlhllljkp76mmmmmmmm",
"mmmmmmmmmmmmmmmmm    ###2tr77>&  @%>766rerspphlzzkkkjklaknnkllsjzkjkjjyr6mmmmmmm",
"mmmmmmmmmmmmmmmmmm   ###7r866>%  @%>67678rsyphkkxjsslckzzzskljlkjxlasjhat66mmmmm",
"mmmmmmmmmmmmmmmmmmmmm ##26622>O %O%277877eaytjkklasszzzkkapshzskxkllkhshstr6mmmm",
"mmmmmmmmmmmmmmmmmmmmmm #>,2>>%O %OO>7e777rarpskzkhpalzxkhrhhhxklzzkklhhjasty6mmm",
"mmmmmmmmmmmmmmmmmmmmmmm%&>,>>#O%%#OO2ee77ryppsfklhyaklksjyrajlzllllxzllklalppt6m",
"mmmmmmmmmmmmmmmmmmmmmmm %&,>>#OO%##O#2772repaphklarpklakhntslzlhlzzkjszjjjlasrt6"
};
