/* XPM */
static char *result[] = {
/* columns rows colors chars-per-pixel */
"102 142 53 1 ",
"  c #070707",
". c #0B0B0B",
"X c #170F07",
"o c #1F170B",
"O c #131313",
"+ c #1B1B1B",
"@ c #2B230F",
"# c #232B0F",
"$ c #332B13",
"% c #3F2F17",
"& c #3F2B1B",
"* c #2F371F",
"= c #2F2F2F",
"- c #43331B",
"; c #4B371B",
": c #533F1F",
"> c #473323",
", c #533F2F",
"< c #5F4323",
"1 c #5B472B",
"2 c #474F33",
"3 c #5F4B37",
"4 c #6B4727",
"5 c #774F2B",
"6 c #7F532F",
"7 c #775F3F",
"8 c #434343",
"9 c gray34",
"0 c #6F5743",
"q c gray42",
"w c #875733",
"e c #8F5F37",
"r c #9B633B",
"t c #A36B3F",
"y c #836B4B",
"u c #8F7753",
"i c #AB6F43",
"p c #B37347",
"a c #BF7B4B",
"s c #CB7F4F",
"d c #9F876F",
"f c #CF8353",
"g c #D78B5B",
"h c #DF9363",
"j c #E79B6B",
"k c #EFA373",
"l c #F7AB7B",
"z c #939393",
"x c #FFB383",
"c c #FFBB93",
"v c #FFBF9B",
"b c #FFC79B",
"n c None",
/* pixels */
"nnnnnnnnnnnnnnnnnnnnnn       nnnnnnnnnnnnnnnnnnnnnnnnnnnnnnnnnnnnnnnnnnnnnnnnnnnnnnnnnnnnnnnnnnnnnnnnn",
"nnnnnnnnnnnnnnnnnnnnn =9=9==  nnnnnnnnnnnnnnnnnnnnnnnnnnnnnnnnnnnnnnnnnnnnnnnnnnnnnnnnnnnnnnnnnnnnnnnn",
"nnnnnnnnnnnnnnnnnnnn 99= ==    nnnnnnnnnnnnnnnnnnnnnnnnnnnnnnnnnnnnnnnnnnnnnnnnnnnnnnnnnnnnnnnnnnnnnnn",
"nnnnnnnnnnnnnnnnnnn 9=9=  =    nnnnnnnnnnnnnnnnnnnnnnnnnnnnnnnnnnnnnnnnnnnnnnnnnnnnnnnnnnnnnnnnnnnnnnn",
"nnnnnnnnnnnnnnnnnnn = ==        nnnnnnnnnnnnnnnnnnnnnnnnnnnnnnnnnnnnnnnnnnnnnnnnnnnnnnnnnnnnnnnnnnnnnn",
"nnnnnnnnnnnnnnnnnn =  = **$$oooonnnnnnnnnnnnnnnnnnnnnnnnnnnnnnnnnnnnnnnnnnnnnnnnnnnnnnnnnnnnnnnnnnnnnn",
"nnnnnnnnnnnnnnnnnn =   *******$ooonnnnnnnnnnnnnnnnnnnnnnnnnnnnnnnnnnnnnnnnnnnnnnnnnnnnnnnnnnnnnnnnnnnn",
"nnnnnnnnnnnnnnnnnn   o*7*******$ooonnnnnnnnnnnnnnnnnnnnnnnnnnnnnnnnnnnnnnnnnnnnnnnnnnnnnnnnnnnnnnnnnnn",
"nnnnnnnnnnnnnnnnnn  oo*u********oooonnnnnnnnnnnnnnnnnnnnnnnnnnnnnnnnnnnnnnnnnnnnnnnnnnnnnnnnnnnnnnnnnn",
"nnnnnnnnnnnnnnnnnn ooo*u7*$*****oooonnnnnnnnnnnnnnnnnnnnnnnnnnnnnnnnnnnnnnnnnnnnnnnnnnnnnnnnnnnnnnnnnn",
"nnnnnnnnnnnnnnnnnnooooouu*$$***$$oooonnnnnnnnnnnnnnnnnnnnnnnnnnnnnnnnnnnnnnnnnnnnnnnnnnnnnnnnnnnnnnnnn",
"nnnnnnnnnnnnnnnnnoo$$oo7d7*$$$$$$oooonnnnnnnnnnnnnnnnnnnnnnnnnnnnnnnnnnnnnnnnnnnnnnnnnnnnnnnnnnnnnnnnn",
"nnnnnnnnnnnnnnnnno$**$o*yd7*$$$ooooooonnnnnnnnnnnnnnnnnnnnnnnnnnnnnnnnnnnnnnnnnnnnnnnnnnnnnnnnnnnnnnnn",
"nnnnnnnnnnnnnnnno$****o*7ddduuyyy770*onnnnnnnnnnnnnnnnnnnnnnnnnnnnnnnnnnnnnnnnnnnnnnnnnnnnnnnnnnnnnnnn",
"nnnnnnnnnnnnnnnno****$o*7dy0&OOOOOO&7*onnnnnnnnnnnnnnnnnnnnnnnnnnnnnnnnnnnnnnnnnnnnnnnnnnnnnnnnnnnnnnn",
"nnnnnnnnnnnnnnno$****$o*7y&OOOOOOOOOO0*nnnnnnnnnnnnnnnnnnnnnnnnnnnnnnnnnnnnnnnnnnnnnnnnnnnnnnnnnnnnnnn",
"nnnnnnnnnnnnnnno*****oo0yOOOOO.....OOO0nnnnnnnnnnnnnnnnnnnnnnnnnnnnnnnnnnnnnnnnnnnnnnnnnnnnnnnnnnnnnnn",
"nnnnnnnnnnnnnnn$****$o*y&OOO.=88888=OO&&nnnnnnnnnnnnnnnnnnnnnnnnnnnnnnnnnnnnnnnnnnnnnnnnnnnnnnnnnnnnnn",
"nnnnnnnnnnnnnno*****$o0yOOO.8qqqzqq8.OO&nnnnnnnnnnnnnnnnnnnnnnnnnnnnnnnnnnnnnnnnnnnnnnnnnnnnnnnnnnnnnn",
"nnnnnnnnnnnnnn#*****o*u7OO.8qqq8qq==8.OO&nnnnnnnnnnnnnnnnnnnnnnnnnnnnnnnnnnnnnnnnnnnnnnnnnnnnnnnnnnnnn",
"nnnnnnnnnnnnnn$*****o*u&OO=qqzq88q=+=.OO&nnnnnnnnnnnnnnnnnnnnnnnnnnnnnnnnnnnnnnnnnnnnnnnnnnnnnnnnnnnnn",
"nnnnnnnnnnnnnn$$$***o0uOO.8q8z88888+O+.O.nnnnnnnnnnnnnnnnnnnnnnnnnnnnnnnnnnnnnnnnnnnnnnnnnnnnnnnnnnnnn",
"nnnnnnnnnnnnnn$$$***ou7OO.q=8z8=O=8+.+.O.nnnnnnnnnnnnnnnnnnnnnnnnnnnnnnnnnnnnnnnnnnnnnnnnnnnnnnnnnnnnn",
"nnnnnnnnnnnnnoO$****ou7OO.q+=z8=OO8=.O...nnnnnnnnnnnnnnnnnnnnnnnnnnnnnnnnnnnnnnnnnnnnnnnnnnnnnnnnnnnnn",
"nnnnnnnnnnnnnoO$*$**od3OO.8++8qOOOO=..O..nnnnnnnnnnnnnnnnnnnnnnnnnnnnnnnnnnnnnnnnnnnnnnnnnnnnnnnnnnnnn",
"nnnnnnnnnnnnnOO$****$d3OO.=+O=zOO..+..O=.nnnnnnnnnnnnnnnnnnnnnnnnnnnnnnnnnnnnnnnnnnnnnnnnnnnnnnnnnnnnn",
"nnnnnnnnnnnnnOO$****$d3OO.=+O+q8O..+O.=8.nnnnnnnnnnnnnnnnnnnnnnnnnnnnnnnnnnnnnnnnnnnnnnnnnnnnnnnnnnnnn",
"nnnnnnnnnnnnnOO#$****d3OO.=+O.8qO...OO=q..nnnnnnnnnnnnnnnnnnnnnnnnnnnnnnnnnnnnnnnnnnnnnnnnnnnnnnnnnnnn",
"nnnnnnnnnnnnnOO#*$***d3OO.+=O.=z=...O=8z8=nnnnnnnnnnnnnnnnnnnnnnnnnnnnnnnnnnnnnnnnnnnnnnnnnnnnnnnnnnnn",
"nnnnnnnnnnnnnnO#$$***d7&OO.=O.+q=....OOq=.nnnnnnnnnnnnnnnnnnnnnnnnnnnnnnnnnnnnnnnnnnnnnnnnnnnnnnnnnnnn",
"nnnnnnnnnnnnnnOO#$$**d73OO.=+..88O...O.8=..nnnnnnnnnnnnnnnnnnnnnnnnnnnnnnnnnnnnnnnnnnnnnnnnnnnnnnnnnnn",
"nnnnnnnnnnnnnnOO#$$**7d3OO.+=..=8+...O.=...nnnnnnnnnnnnnnnnnnnnnnnnnnnnnnnnnnnnnnnnnnnnnnnnnnnnnnnnnnn",
"nnnnnnnnnnnnnnnO##***,d3&OO.=...8+..........nnnnnnnnnnnnnnnnnnnnnnnnnnnnnnnnnnnnnnnnnnnnnnnnnnnnnnnnnn",
"nnnnnnnnnnnnnnnO##$$**d73OO.++..=+....3yyyy,,nnnnnnnnnnnnnnnnnnnnnnnnnnnnnnnnnnnnnnnnnnnnnnnnnnnnnnnnn",
"nnnnnnnnnnnnnnnOO#$$**7d3OO..+..++..3uu7>>>>>,,nnnnnnnnnnnnnnnnnnnnnnnnnnnnnnnnnnnnnnnnnnnnnnnnnnnnnnn",
"nnnnnnnnnnnnnnnnO##$**,d3&OO.+...+.3uu7,*******,nnnnnnnnnnnnnnnnnnnnnnnnnnnnnnnnnnnnnnnnnnnnnnnnnnnnnn",
"nnnnnnnnnnnnnnnnOO#$***d73OO..+...0dd7,*********$nnnnnnnnnnnnnnnnnnnnnnnnnnnnnnnnnnnnnnnnnnnnnnnnnnnnn",
"nnnnnnnnnnnnnnnnnO##***7d3&OO.+..0udu7****$******$nnnnnnnnnnnnnnnnnnnnnnnnnnnnnnnnnnnnnnnnnnnnnnnnnnnn",
"nnnnnnnnnnnnnnnnnO##$**,d33OO...>udd7,****o**,***$nnnnnnnnnnnnnnnnnnnnnnnnnnnnnnnnnnnnnnnnnnnnnnnnnnnn",
"nnnnnnnnnnnnnnnnnOO#$***uu3OOO..3ddd7,****o#*3,***onnnnnnnnnnnnnnnnnnnnnnnnnnnnnnnnnnnnnnnnnnnnnnnnnnn",
"nnnnnnnnnnnnnnnnnnO##$**0u3&OO.>uudd73****$o*>3***$nnnnnnnnnnnnnnnnnnnnnnnnnnnnnnnnnnnnnnnnnnnnnnnnnnn",
"nnnnnnnnnnnnnnnnnnO#$$**,u33OO.3u7ud70*****o$*3,***onnnnnnnnnnnnnnnnnnnnnnnnnnnnnnnnnnnnnnnnnnnnnnnnnn",
"nnnnnnnnnnnnnnnnnnOO##$**u33>OO7733du0*****#o*>3***onnnnnnnnnnnnnnnnnnnnnnnnnnnnnnnnnnnnnnnnnnnnnnnnnn",
"nnnnnnnnnnnnnnnnnnnO##$**0y3&O>73337u0>*****o$*3,**$nnnnnnnnnnnnnnnnnnnnnnnnnnnnnnnnnnnnnnnnnnnnnnnnnn",
"nnnnnnnnnnnnnnnnnnnO##***,y33>33>,33uy3*****oo*>0***onnnnnnnnnnnnnnnnnnnnnnnnnnnnnnnnnnnnnnnnnnnnnnnnn",
"nnnnnnnnnnnnnnnnnnnO##$***y33>03>>,37y0>****#o$*03**onnnnnnnnnnnnnnnnnnnnnnnnnnnnnnnnnnnnnnnnnnnnnnnnn",
"nnnnnnnnnnnnnnnnnnnnO##***,7330,>*>33y73****$oo*>7**$onnnnnnnnnnnnnnnnnnnnnnnnnnnnnnnnnnnnnnnnnnnnnnnn",
"nnnnnnnnnnnnnnnnnnnnOO#$$**733,>*>*,3y703****#o$*73*$onnnnnnnnnnnnnnnnnnnnnnnnnnnnnnnnnnnnnnnnnnnnnnnn",
"nnnnnnnnnnnnnnnnnnnnOO#$$**,33,*>*>>37u703***$oo*37*$oonnnnnnnnnnnnnnnnnnnnnnnnnnnnnnnnnnnnnnnnnnnnnnn",
"nnnnnnnnnnnnnnnnnnnnnO###***03>>*>*>,7du77700$oo*,7$$$onnnnnnnnnnnnnnnnnnnnnnnnnnnnnnnnnnnnnnnnnnnnnnn",
"nnnnnnnnnnnnnnnnnnnnnOO##***,3>*****,7duuu0,&..o$,o..#oonnnnnnnnnnnnnnnnnnnnnnnnnnnnnnnnnnnnnnnnnnnnnn",
"nnnnnnnnnnnnnnnnnnnnnOOO#$***3***>*>>7ddd,......oo....oonnnnnnnnnnnnnnnnnnnnnnnnnnnnnnnnnnnnnnnnnnnnnn",
"nnnnnnnnnnnnnnnnnnnnnnOO#****,******>7dd,..............onnnnnnnnnnnnnnnnnnnnnnnnnnnnnnnnnnnnnnnnnnnnnn",
"nnnnnnnnnnnnnnnnnnnnnnOO##$********>>ud,...............oonnnnnnnnnnnnnnnnnnnnnnnnnnnnnnnnnnnnnnnnnnnnn",
"nnnnnnnnnnnnnnnnnnnnnnnOO#$$$*****$*3d7.................onnnnnnnnnnnnnnnnnnnnnnnnnnnnnnnnnnnnnnnnnnnnn",
"nnnnnnnnnnnnnnnnnnnnnnnOO#$$$$****#>7d,.....#$******#...onnnnnnnnnnnnnnnnnnnnnnnnnnnnnnnnnnnnnnnnnnnnn",
"nnnnnnnnnnnnnnnnnnnnnnnOO###$$***$#*u7....#*,333333,,*...nnnnnnnnnnnnnnnnnnnnnnnnnnnnnnnnnnnnnnnnnnnnn",
"nnnnnnnnnnnnnnnnnnnnnnnnOO###$***#$,u,....*,33,,,****,$..nnnnnnnnnnnnnnnnnnnnnnnnnnnnnnnnnnnnnnnnnnnnn",
"nnnnnnnnnnnnnnnnnnnnnnn1OOO##****#$3u&...#,3,,,***$$$$,O.nnnnnnnnnnnnnnnnnnnnnnnnnnnnnnnnnnnnnnnnnnnnn",
"nnnnnnnnnnnnnnnnnnnnn161OOO#$$**$#*0u....*,0,,*******$$$Onnnnnnnnnnnnnnnnnnnnnnnnnnnnnnnnnnnnnnnnnnnnn",
"nnnnnnnnnnnnnnnnnnnn1151eOO##$**$#*u,...#,303*********$$#nnnnnnnnnnnnnnnnnnnnnnnnnnnnnnnnnnnnnnnnnnnnn",
"nnnnnnnnnnnnnnnnnnn15551tOOo$$$*#$,u&...$,,03********$$##Onnnnnnnnnnnnnnnnnnnnnnnnnnnnnnnnnnnnnnnnnnnn",
"nnnnnnnnnnnnnnnnnn1eeafftOOo#$$*#$37...#*,,00,*********$#Onnnnnnnnnnnnnnnnnnnnnnnnnnnnnnnnnnnnnnnnnnnn",
"nnnnnnnnnnnnnnnnn1eafjxbt.OO##$$#*37...#**,003*********$$#Onnnnnnnnnnnnnnnnnnnnnnnnnnnnnnnnnnnnnnnnnnn",
"nnnnnnnnnnnnnnnn1rhvcclxt.OOO####*7,...$**,3y3,********$##Onnnnnnnnnnnnnnnnnnnnnnnnnnnnnnnnnnnnnnnnnnn",
"nnnnnnnnnnnnnnnn:hbbbclle.OOO####,7&..#***,3y03*******$$###Onnnnnnnnnnnnnnnnnnnnnnnnnnnnnnnnnnnnnnnnnn",
"nnnnnnnnnnnnnnnnwhcvxlhhe..OO####,7...#****3y03,*******$$$#Onnnnnnnnnnnnnnnnnnnnnnnnnnnnnnnnnnnnnnnnnn",
"nnnnnnnnnnnnnnnnwhhxhfffe..OO####,7...$****30y03,********$#Onnnnnnnnnnnnnnnnnnnnnnnnnnnnnnnnnnnnnnnnnn",
"nnnnnnnnnnnnnnnnwrgffffi1..OOO##*0,...$****,0y0333,****$$$$#Onnnnnnnnnnnnnnnnnnnnnnnnnnnnnnnnnnnnnnnnn",
"nnnnnnnnnnnnnnnn5rraaatt1...OOO#*0&..#*****,0yy03333,,****$$O4nnnnnnnnnnnnnnnnnnnnnnnnnnnnnnnnnnnnnnnn",
"nnnnnnnnnnnnnnnn:wrtttte-...OOO#*0&..#*****,0yyy00yyyyyyy**$O44nnnnnnnnnnnnnnnnnnnnnnnnnnnnnnnnnnnnnnn",
"nnnnnnnnnnnnnnnnn15w5eee.....OO##,...$*****,0yyyyyyyyyyyyy,*OO45nnnnnnnnnnnnnnnnnnnnnnnnnnnnnnnnnnnnnn",
"nnnnnnnnnnnnnnnnnnn-1111....oOO##,...$*****,0yyyyyy,....>yy,#Ow55nnnnnnnnnnnnnnnnnnnnnnnnnnnnnnnnnnnnn",
"nnnnnnnnnnnnnnnnnnnnnnn....ooOOOO,..#******,0yyyy,....  .>y0$O5rw5nnnnnnnnnnnnnnnnnnnnnnnnnnnnnnnnnnnn",
"nnnnnnnnnnnnnnnnnnnnnnooooooooOOO&..#*$****,0yyy,......  .0y,O4iir6nnnnnnnnnnnnnnnnnnnnnnnnnnnnnnnnnnn",
"nnnnnnnnnnnnnnnnnnnnnoooooooooOOO&..$$*$**,0yyy,.......   >00#Otirarennnnnnnnnnnnnnnnnnnnnnnnnnnnnnnnn",
"nnnnnnnnnnnnnnnnnnnnooooooooooOOO&..$*$$*$,0yyy........   .00$Oitrsgswnnnnnnnnnnnnnnnnnnnnnnnnnnnnnnnn",
"nnnnnnnnnnnnnnnnnnnooooooooooooOO..#$$$$*$,yyy,...###oo.  .00,Otitiafaennnnnnnnnnnnnnnnnnnnnnnnnnnnnnn",
"nnnnnnnnnnnnnnnnnnoooooo<<iit4;OO..#$$$$$*3yyy...o###ooo   >33Otitpggt4nnnnnnnnnnnnnnnnnnnnnnnnnnnnnnn",
"nnnnnnnnnnnnnnnnnoo@@@<rtpffgfi4O..#$$$$$,yyy>..o#*222*o   .33#wttpgpt4nnnnnnnnnnnnnnnnnnnnnnnnnnnnnnn",
"nnnnnnnnnnnnnnnno@@@@<tfgglvbbfw4..#$$$$$,y0y...o*2*****#  .33$wtttpaie4nnnnnnnnnnnnnnnnnnnnnnnnnnnnnn",
"nnnnnnnnnnnnnnno@%%@<epjlkvbbbgt5;.###$$*00y,...o**$OO#**   >,>wiitppt44nnnnnnnnnnnnnnnnnnnnnnnnnnnnnn",
"nnnnnnnnnnnnnnno%%%@ethkljvbbbcpw5.####$*000>...o**OOO***   >,,wttrttr444nnnnnnnnnnnnnnnnnnnnnnnnnnnnn",
"nnnnnnnnnnnnnnno%%%<rgjhjfhjbbckew;#####>000.....**O$*2**   .,,wttrrre444nnnnnnnnnnnnnnnnnnnnnnnnnnnnn",
"nnnnnnnnnnnnnnno%%@etaghptfhkvchae4#####300,.....#**22**#   .,,wattteee44nnnnnnnnnnnnnnnnnnnnnnnnnnnnn",
"nnnnnnnnnnnnnnno%%@etpapttfhkbhgfi5####*300>......#****#.    ,>phattteww44nnnnnnnnnnnnnnnnnnnnnnnnnnnn",
"nnnnnnnnnnnnnnno@@oeiipprtfjkhhagpe4###*333>.............    ,>agptttrwwe4nnnnnnnnnnnnnnnnnnnnnnnnnnnn",
"nnnnnnnnnnnnnnnoo@oraaatrtpfgfgaaape###>333..............    >>fgptttrewe;nnnnnnnnnnnnnnnnnnnnnnnnnnnn",
"nnnnnnnnnnnnnnnnoooriprw5eiaafppaaar5##>,33..............    >pjkfittttewe;nnnnnnnnnnnnnnnnnnnnnnnnnnn",
"nnnnnnnnnnnnnnnnnootre4;;5tpgfffsafpw;#,,,>..............    tflkaittttewr;nnnnnnnnnnnnnnnnnnnnnnnnnnn",
"nnnnnnnnnnnnnnnnnno<w4;o;rffhsssjsifpt#>,,>..............   6pjkhptttttewr;nnnnnnnnnnnnnnnnnnnnnnnnnnn",
"nnnnnnnnnnnnnnnnnoo@;;@o;afsfsfhhgafft4>>,...............   pakkgptttttewr;nnnnnnnnnnnnnnnnnnnnnnnnnnn",
"nnnnnnnnnnnnnnnnnooo@@oo4pafjkhhjhjkgit4>>............... 6ilcjkfapiittrw4;nnnnnnnnnnnnnnnnnnnnnnnnnnn",
"nnnnnnnnnnnnnnnnoooooo%%5ipaghghjkxchhir>>..............o4ijbclgaiptttir44;nnnnnnnnnnnnnnnnnnnnnnnnnnn",
"nnnnnnnnnnnnnnnnoooooo;;5ipphjklxxcccjapi%.............4rigcckgfsasitipi54:nnnnnnnnnnnnnnnnnnnnnnnnnnn",
"nnnnnnnnnnnnnnnnoo@@oo%<4tppagkcxvvbbbjgat4..........<ergxxckapapsiaptat65:nnnnnnnnnnnnnnnnnnnnnnnnnnn",
"nnnnnnnnnnnnnnnnoo%@@oX%4epppglvvvvccbljggt44$$;4446tisjklklgaaaaipajfhpe5:nnnnnnnnnnnnnnnnnnnnnnnnnnn",
"nnnnnnnnnnnnnnnnoo%%@oX;4wpppglvvxxllkxkhgagatrtaagggfhhgffarppspaggjghpe5:nnnnnnnnnnnnnnnnnnnnnnnnnnn",
"nnnnnnnnnnnnnnnnno%%@ o<5wpppgjlvxxlkkkkagiipaahkjhgfhhgffatrpaipagghhsp54;nnnnnnnnnnnnnnnnnnnnnnnnnnn",
"nnnnnnnnnnnnnnnnnoo@@  4;4riisgjvvxlkjkkkaaaippahgggggfsaitrttiippfhhjsi5<%nnnnnnnnnnnnnnnnnnnnnnnnnnn",
"nnnnnnnnnnnnnnnnnnoo%X X%4riipsglvxlkjjkklhptrrriaaasaaaittrrpaiipfhkjgi54;nnnnnnnnnnnnnnnnnnnnnnnnnnn",
"nnnnnnnnnnnnnnnnnnnooX o@;5ettigjxkjhhhhjhjsttrrtttpiiiitrrrttiiiifhhfft5<%nnnnnnnnnnnnnnnnnnnnnnnnnnn",
"nnnnnnnnnnnnnnnnnnnnno  o:5etttsgkjgggffgggssrrrrrrrrrrreerppasapppfatre<;$nn$;%;nnnnnnnnnnnnnnnnnnnnn",
"nnnnnnnnnnnnnnnnnnnnnX  @;:6ertpkjgfsfsffassiirrreewwwweripfaatiiiitte55<%4;:%;%;<:nnnnnnnnnnnnnnnnnnn",
"nnnnnnnnnnnnnnnnnnnnn.X $%:5errthhfaffaasapppspiirrewweeripppitrrrrrw55::4<;:<;<<<;$nnnnnnnnnnnnnnnnnn",
"nnnnnnnnnnnnnnnnnnnnn.o   %4wrrtggfaaifsghhfappaaarrreeetipptreeee<%$;<:<<<%;::;:;%@nnnnnnnnnnnnnnnnnn",
"nnnnnnnnnnnnnnnnnnnnn.oo  @:werrggfaafghjjjjhppaaaaarreetipptr:;;<<%%;44<4<44<<;%;%@$nnnnnnnnnnnnnnnnn",
"nnnnnnnnnnnnnnnnnnnn..oo  @:466esaiffhhjjjjhppiiipppiiirwrr;<4:;:<:<44566554455<;;:%@nnnnnnnnnnnnnnnnn",
"nnnnnnnnnnnnnnnnnnnn...o oo::66wpapffjjklkkjgfiiffaiippre;<;<4<;444566wwrew555<<;::%o@$%nnnnnnnnnnnnnn",
"nnnnnnnnnnnnnnnnnnnn....   %:<4weetigjgfapprriiiiirttit%<:<:4<4;44455wrerre554<<;;;%o%%;::;onnnnnnnnnn",
"nnnnnnnnnnnnnnnnnnnn.....   %;:<wweeppieeaafffrrrpghj@;;<444546464566ertrrr5555<%%%%;;;::;$;%nnnnnnnnn",
"nnnnnnnnnnnnnnnnnnnn.....    ;;:454;<:44iffiiippfhj;%$;455ww6665ww6w66rtetr6565;%;<<4<;;;;;%$@nnnnnnnn",
"nnnnnnnnnnnnnnnnnnnn......   %%%<4::%%4pfieeerggf%%%-;456wweeeeewtw6455wwrw4::444<<4454<;;%%@$nnnnnnnn",
"nnnnnnnnnnnnnnnnnnnnn......  $$%::%%;wte64rffap%%%%;;<6weeerrerewr6554:45545566555655554:%;;%$nnnnnnnn",
"nnnnnnnnnnnnnnnnnnnnn......  $$$-;%;;wte4ifffa%%%%;<45wrrrrtrwww6655555eeerewwww665655544;%%$onnnnnnnn",
"nnnnnnnnnnnnnnnnnnnnn....... X@$%-4;<ew4ppfp%%%;-;<5wrrttttw66666556wrrrtrttrrrrr6556644<:;;@onnnnnnnn",
"nnnnnnnnnnnnnnnnnnnnnn......  X@%%4:$eriii@%%%%%;<6wtiiittw555556wrertttttrtttitrew56654<:;%@nnnnnnnnn",
"nnnnnnnnnnnnnnnnnnnnnn......  X@%%o;6rrw%@@$%%%:46etpaittw554wwwrapiitttttetiititre56644<;;;:nnnnnnnnn",
"nnnnnnnnnnnnnnnnnnnnnn......   @;o6ew4$%%@$%-:<5rtipaptrw6556rrppsapppiiitttiiitree55554:$@;%%@$$nnnnn",
"nnnnnnnnnnnnnnnnnnnnnnn.....   @$46<;@@%%%%;<56ripaapiww55weripassaasaaipiiiitttree6664;;$%;%%$%%$@nnn",
"nnnnnnnnnnnnnnnnnnnnnnn......   @4@%%$@%;;:<6ertipsiteew66eiipasggaagasapppttrrrw6w6<4<:444<;%%%%$$:nn",
"nnnnnnnnnnnnnnnnnnnnnnnn.....  @:$$$$%@%;;4wetitpiptrewwweiapaasgsafgssaapiteee64455<4545544<;%%%%%%nn",
"nnnnnnnnnnnnnnnnnnnnnnnnn....X @@%$%%%$-:56rrtpiirrreewwriafaaaasfagssapairew6554<45555654444;;%%%;4nn",
"nnnnnnnnnnnnnnnnnnnnnnnnn.... @@@$$%-%$;6ttrrptrrrrewrweiasgfaffasaappiiprw65444<<5666www5444<:;;;::nn",
"nnnnnnnnnnnnnnnnnnnnnnnnnn...o@@@@%%;%;4rpititrererwetrrsaafsaappppaiitrrw5544444556wwwee6554<:;;:;%nn",
"nnnnnnnnnnnnnnnnnnnnnnnnnnn.@@o@%$%;;:4epppprreerewwriipsappittittiptreee6w555666w656wweee6444:;%%%%nn",
"nnnnnnnnnnnnnnnnnnnnnnnnnnn;;%;%%$;4445rpsaprrereewripapspiptrttipiteereeew66errreeww6eeee65<4;%@%%%nn",
"nnnnnnnnnnnnnnnnnnnnnnnn%$@4<<<;:%;<44wrtppriteewettiasppiaptittiirttreererrtipiitteeeere64;;;%$@$$nnn",
"nnnnnnnnnnnnnnnnnnnnnnn$$@@-44;45<4445ewtpittreewetiippitippiitrrertrerttipaaffaapitewew64;%$%$$X nnnn",
"nnnnnnnnnnnnnnnnnnnnn<<%@Xo$<464w55546retippreweertaipitaiiiptttrwrrettpafafghhgaapteww55<%%%$o@XXonnn",
"nnnnnnnnnnnnnnnnnnnn144:%$@$;5r4ew6<4ww6rppirwwettiippiapitaittieerrtiaafhfgggggfatw5554<;%%@o@$@@$%nn",
"nnnnnnnnnnnnnnnnnn:$;;:446::<4wwtre55eweiritrrwewetiiiiiispirrereettafghhghhgfhffat5<554<;@@@%%$$%%%nn",
"nnnnnnnnnnnnnnnnn%;<;<<5rrw<556erie466wwrerreerrrerippipairreewertifshhjhhgghggfprw5554<:;%$%:;%$$%;;n",
"nnnnnnnnnnnnnnnn::<;4446epiw6tttiaiwe656reettttrerttppaspteeteertfghhhhhsghgggatew655454;%::;<;%%$$;;n",
"nnnnnnnnnnnnn$1:1-:;%;;;5ajateateppttw56werririptrpipspppieeretagghsgghgfhgfairee5555w554<45<<<;%%%;;n",
"nnnnnnnnnnnweee61546;oo@<pklaeerwrrrirwweeetiitiariaaaapiirttphskhgsaghgfaperree665ww56655564<<<;%;:<n",
"nnnnnnnnn%%1eeeeeew<<%%@;wtcgga55werap6eprriiitpprtpippiiaasfhjhgffgpgaapiere6eeeewew6eeeew65<<<;%%<<n",
"nnnnnn@%;44%656eepeaw555:<6fkjfr:4rtair6errpaptiiiaiiippafahhghhfaagpape5wreeeeeeeeetrerreee5<:<;%%%-n",
"nnnnn@o@$;%$<44<ettateew546tphht4:<wpsterttipsptippaasaffghfggfhgggaitre5ererrrrrttiittttrew54<<:%@<4n",
"nnn X%@@$@@$$@%454iaattiwwetiagfw54wrfaretriipitpaaaasgsaaaaghgggfsrrwwewewtetrttittttttttrw654:;%$$nn",
"nn$$::4:;<<;;%;%;:eiappgittepspag544epsterripitippasapfhhsaggsghaaar55wwreiiipspaappaapittee5<<:;$%%nn",
"nnnnnnnnnnnnnnnnnnnnnnnnnnnnnnnnnnnnnnnnnnnnnnnnnnnnnnnnnnnnnnnnnnnnnnnnnnnnnnnnnnnnnnnnnnnnnnnnnnnnnn"
};
