/* XPM */
static char *result[] = {
/* columns rows colors chars-per-pixel */
"80 97 54 1 ",
"  c #070707",
". c #0B0B0B",
"X c #170F07",
"o c #0B1707",
"O c #1F170B",
"+ c #131313",
"@ c #1B1B1B",
"# c #2B230F",
"$ c #232B0F",
"% c #332B13",
"& c #3F2F17",
"* c #3F2B1B",
"= c #2F371F",
"- c #2F2F2F",
"; c #373737",
": c #43331B",
"> c #4B371B",
", c #533F1F",
"< c #473323",
"1 c #533F2F",
"2 c #5F4323",
"3 c #5B472B",
"4 c #474F33",
"5 c #5F4B37",
"6 c #6B4727",
"7 c #774F2B",
"8 c #7F532F",
"9 c #775F3F",
"0 c #434343",
"q c #4B4B4B",
"w c #6F5743",
"e c #875733",
"r c #8F5F37",
"t c #9B633B",
"y c #A36B3F",
"u c #836B4B",
"i c #8F7753",
"p c #AB6F43",
"a c #B37347",
"s c #BF7B4B",
"d c #937B63",
"f c #CB7F4F",
"g c #9F876F",
"h c #CF8353",
"j c #D78B5B",
"k c #DF9363",
"l c #E79B6B",
"z c #EFA373",
"x c #F7AB7B",
"c c #FFB383",
"v c #FFBB93",
"b c #FFBF9B",
"n c #FFC79B",
"m c None",
/* pixels */
"mmmm@@+  mmmmmmmmmmmmmmmmmmmmmmmmmmmmmmmmmmmmmmmmmmmmmmmmmmmmmmmmmmmmmmmmmmmmmmm",
"mmm---+.   mmmmmmmmmmmmmmmmmmmmmmmmmmmmmmmmmmmmmmmmmmmmmmmmmmmmmmmmmmmmmmmmmmmmm",
"mm+0;@@@.   mmmmmmmmmmmmmmmmmmmmmmmmmmmmmmmmmmmmmmmmmmmmmmmmmmmmmmmmmmmmmmmmmmmm",
"m+@0q-%www<==%%mmmmmmmmmmmmmmmmmmmmmmmmmmmmmmmmmmmmmmmmmmmmmmmmmmmmmmmmmmmmmmmmm",
"m+@-;w9w<%=+++  mmmmmmmmmmmmmmmmmmmmmmmmmmmmmmmmmmmmmmmmmmmmmmmmmmmmmmmmmmmmmmmm",
"m @@5dw======%+++ mmmmmmmmmmmmmmmmmmmmmmmmmmmmmmmmmmmmmmmmmmmmmmmmmmmmmmmmmmmmmm",
"m  1ud5w4%%%=%%%%%+mmmmmmmmmmmmmmmmmmmmmmmmmmmmmmmmmmmmmmmmmmmmmmmmmmmmmmmmmmmmm",
"m $515d5<4==wwww==<%mmmmmmmmmmmmmmmmmmmmmmmmmmmmmmmmmmmmmmmmmmmmmmmmmmmmmmmmmmmm",
"m %1====w<<w=%++++%==mmmmmmmmmmmmmmmmmmmmmmmmmmmmmmmmmmmmmmmmmmmmmmmmmmmmmmmmmmm",
"m$5%%%%<<=w%....++++=mmmmmmmmmmmmmmmmmmmmmmmmmmmmmmmmmmmmmmmmmmmmmmmmmmmmmmmmmmm",
"m%==+%+==w%@;@-0-++   mmmmmmmmmmmmmmmmmmmmmmmmmmmmmmmmmmmmmmmmmmmmmmmmmmmmmmmmmm",
"mw=++%.==%.@;-+;-@++    mmmmmmmmmmmmmmmmmmmmmmmmmmmmmmmmmmmmmmmmmmmmmmmmmmmmmmmm",
"mw=+++.=w. @-;-+0<555====%mmmmmmmmmmmmmmmmmmmmmmmmmmmmmmmmmmmmmmmmmmmmmmmmmmmmmm",
"m=4=+=+=d ++-00@5w1%====4=%%mmmmmmmmmmmmmmmmmmmmmmmmmmmmmmmmmmmmmmmmmmmmmmmmmmmm",
"m%<%%%+=d ++@;$9i11%===%+%=w%%.mmmmmmmmmmmmmmmmmmmmmmmmmmmmmmmmmmmmmmmmmmmmmmmmm",
"m%=%%%+=g   +@5wwuw5=====+%=w%%$ mmmmmmmmmmmmmmmmmmmmmmmmmmmmmmmmmmmmmmmmmmmmmmm",
"m+%%%%+<d   +@i55wiw55==<%O%=5%$$ mmmmmmmmmmmmmmmmmmmmmmmmmmmmmmmmmmmmmmmmmmmmmm",
"m+$%%%%=d   @<i=5wdd9wwwww4+=%11%$ mmmmmmmmmmmmmmmmmmmmmmmmmmmmmmmmmmmmmmmmmmmmm",
"m+$$%%%=9    5w==5wd9wd9= ..=%5$    mmmmmmmmmmmmmmmmmmmmmmmmmmmmmmmmmmmmmmmmmmmm",
"m +%$%$=w    w5%%55wwd9%.....=%      mmmmmmmmmmmmmmmmmmmmmmmmmmmmmmmmmmmmmmmmmmm",
"m  O%$%$5%   i%$%%5wi9=+......        mmmmmmmmmmmmmmmmmmmmmmmmmmmmmmmmmmmmmmmmmm",
"m  O$%$$1%   9$$%%5wi=% ..... .       mmmmmmmmmmmmmmmmmmmmmmmmmmmmmmmmmmmmmmmmmm",
"m   O$$$15   1 O$%%55%  .O$%====%O++  mmmmmmmmmmmmmmmmmmmmmmmmmmmmmmmmmmmmmmmmmm",
"mm  ++$$%5O  < OOO%u%. +%=========%++ mmmmmmmmmmmmmmmmmmmmmmmmmmmmmmmmmmmmmmmmmm",
"mm  +$+$$<$  <  OO%9$ +<94444=======O+. mmmmmmmmmmmmmmmmmmmmmmmmmmmmmmmmmmmmmmmm",
"mmm  +$+$$*  $  OOO9..=w994444======%+++ mmmmmmmmmmmmmmmmmmmmmmmmmmmmmmmmmmmmmmm",
"mmm   +OO.#+ +  O$$9..=w9994444u9u99www%+mmmmmmmmmmmmmmmmmmmmmmmmmmmmmmmmmmmmmmm",
"mmmm  +++++# +   $$u $==ww999uuuuu99wwwwwwmmmmmmmmmmmmmmmmmmmmmmmmmmmmmmmmmmmmmm",
"mmmm   ++++#++   $ u $==5ww99uu9uu99www9wwwmmmmmmmmmmmmmmmmmmmmmmmmmmmmmmmmmmmmm",
"mmmmm  .++..*+     u %===5ww9=O    .oo.+=999mmmmmmmmmmmmmmmmmmmmmmmmmmmmmmmmmmmm",
"mmmmm  .++++*+ +   u %===5w9=         ...=u9mmmmmmmmmmmmmmmmmmmmmmmmmmmmmmmmmmmm",
"mmmmmm   +++%. +   9 $$%=59=          ...O=99mmmmmmmmmmmmmmmmmmmmmmmmmmmmmmmmmmm",
"mmmmmm    +++.++   w $$%55w+          ....Ouummmmmmmmmmmmmmmmmmmmmmmmmmmmmmmmmmm",
"mmmmmmm  + ++++O   w $O%5w%      %%=%O ....=uummmmmmmmmmmmmmmmmmmmmmmmmmmmmmmmmm",
"mmmmmmm   + ++++ + w $ %55+     %==4=%O....Ouimmmmmmmmmmmmmmmmmmmmmmmmmmmmmmmmmm",
"mmmmmmmm . ++++++O w $ 115.    %==4uuu4%....=iimmmmmmmmmmmmmmmmmmmmmmmmmmmmmmmmm",
"mmmmmmmm    + ++OO u   <1$     %==w4O$44=...Oiimmmmmmmmmmmmmmmmmmmmmmmmmmmmmmmmm",
"mmmmmmmmm .+++++OO$u   11$     $%w4O=<O44....uimmmmmmmmmmmmmmmmmmmmmmmmmmmmmmmmm",
"mmmmmmmmm  .+ O+$O$i ..11.     $$w+===4i4....4immmmmmmmmmmmmmmmmmmmmmmmmmmmmmmmm",
"mmmmmmmmmm   + OO$$i ..55.     .%w+===<u4+.++$immmmmmmmmmmmmmmmmmmmmmmmmmmmmmmmm",
"mmmmmmmmmm    OO$O$u $.15       Ou4O==u44++..$immmmmmmmmmmmmmmmmmmmmmmmmmmmmmmmm",
"mmmmmmmmmmm  + OO$$u $.55        %949944=.....iimmmmmmmmmmmmmmmmmmmmmmmmmmmmmmmm",
"mmmmmmmmmmm  .+ +O$9 $ 15         %4444%......uummmmmmmmmmmmmmmmmmmmmmmmmmmmmmmm",
"mmmmmm>>>666##++OOO9 $.15.              ......9ummmmmmmmmmmmmmmmmmmmmmmmmmmmmmmm",
"mmmm,66yahhat66 O O< $ 5w+              ......99mmmmmmmmmmmmmmmmmmmmmmmmmmmmmmmm",
"mmm>6rsjjjjjjat,OOO< $%55+             . ..   99mmmmmmmmmmmmmmmmmmmmmmmmmmmmmmmm",
"mmm>paahjjjjjjat,OO< $%5w.                    w9mmmmmmmmmmmmmmmmmmmmmmmmmmmmmmmm",
"mmm>ptaahhjhhhfaa,O< $$55+                   %99mmmmmmmmmmmmmmmmmmmmmmmmmmmmmmmm",
"mmm7trtashhhhjjjat$1 $$55$                   %99wmmmmmmmmmmmmmmmmmmmmmmmmmmmmmmm",
"mm>7trtashhhhjjjja,1 $$15$         ++...++.  %w9wmmmmmmmmmmmmmmmmmmmmmmmmmmmmmmm",
"mm>7r62tashhjjjkkka, $O11$       ..+...+++.. +w9wmmmmmmmmmmmmmmmmmmmmmmmmmmmmmmm",
"mm>7726tpasshhklzzkt,$$<<$       ..........+ +w99mmmmmmmmmmmmmmmmmmmmmmmmmmmmmmm",
"mm>7666tpaajjlzccczf6O$<<<        ......+.++ +2w9&mmmmmmmmmmmmmmmmmmmmmmmmmmmmmm",
"m&>7762ryaashlccbbbzf,O<<*         ..O.$+$+$+ 2w9&&mmmmmmmmmmmmmmmmmmmmmmmmmmmmm",
"m>77636etaaajxbbbbcxkaO<**     . . O.......++ %wu&&&mmmmmmmmmmmmmmmmmmmmmmmmmmmm",
"m>76636etaaajxbbccxzkfs<**          .O.O.O.$+ %w9&22mmmmmmmmmmmmmmmmmmmmmmmmmmmm",
"m>7723,etaaajlxbccxzlkht**    . . +OOOOO$$$$% %92&22&mmmmmmmmmmmmmmmmmmmmmmmmmmm",
"m>7662%68tppfjlbbcxzllkht*     ..++O$O%$%$%$% +99&22&mmmmmmmmmmmmmmmmmmmmmmmmmmm",
"mO>76>>68tppafjxbcxzlllkjs     .O+O+OOOO$$$$$ +92&222&mmmmmmmmmmmmmmmmmmmmmmmmmm",
"mO>>%>%,38ryypjlczlkkkkkjjs#   ++$+$O$O%$%$%$  92&222&mmmmmmmmmmmmmmmmmmmmmmmmmm",
"mmO>>%>%38ryyyfjzljjjhhjjjff6  .O+$+$$$%%%%%%  2&&222&&mmmmmmmmmmmmmmmmmmmmmmmmm",
"mmm >>>&338rtyafzljhfhfhhsffft6+OO$O$$$%%%%%%  &&22222&mmmmmmmmmmmmmmmmmmmmmmmmm",
"mmmmmmm,338rttyakkhshhssfsaaafft6+$%%%%====== &&222272&&mmmmmmmmmmmmmmmmmmmmmmmm",
"mmmmmOOOX:7ettyajjhssphfjkkhsaaastt66%%====%%&222227722&mmmmmmmmmmmmmmmmmmmmmmmm",
"mmm>OO##X:3erttpjjhsshjkllllkhaasssssttrrypaaytrr7772222mmmmmmmmmmmmmmmmmmmmmmmm",
"mm>,>&&#X:3788ryfhsphhkkllllkhaapppaaappptettrreeee22222&mmmmmmmmmmmmmmmmmmmmmmm",
"mm>,,,&#O#3388etaasahhllzxzzljjhpphhsppaatrrree772222822&mmmmmmmmmmmmmmmmmmmmmmm",
"mm>,,>&#O:>266eerrrypjljhsaatttppppptyypyryarr6677888882:mmmmmmmmmmmmmmmmmmmmmmm",
"mm&,>&##O#:>,,27eeerraaprrssshhhtttajklhhaaryaye88ettt882&mmmmmmmmmmmmmmmmmmmmmm",
"mm&&&###OO#&>>,66776>2,66phhhpppaahklhhssssaarrayttpptt8,>&mmmmmmmmmmmmmmmmmmmmm",
"mmm&OX#OO X#&&&,226,,&&6ahpprrrtjjhhytttppppaaaerppppatt,,&mmmmmmmmmmmmmmmmmmmmm",
"mmmm #XOO  #%%&>,2,&&>eyr8e6thhsaattetyypapyyyateryaaast,,&mmmmmmmmmmmmmmmmmmmmm",
"mmmm #OOO  #%%%&:>>&>>eyr66phhhsaattahxxlzlkjjateryaatya6>&mmmmmmmmmmmmmmmmmmmmm",
"mmmmmOOOO  X##%%&::6>2re66aahaataahxxkhpt8tphlkhaertttty6>&#mmmmmmmmmmmmmmmmmmmm",
"mmmmmmOOO     X##&>&6,%6rtpppttppp8eeeetttppteerphfyer726,##mmmmmmmmmmmmmmmmmmmm",
"mmmmmmmm      XX#&>&O>88ttee7pp8rrtkxkhhhlcclhperypyyprr2,##mmmmmmmmmmmmmmmmmmmm",
"mmmmmmmm       X#>&O&8re626pp86pkxkteeeeyyhlcckkhsspprtat,>##mmmmmmmmmmmmmmmmmmm",
"mmmmmmmm        #% &682:2tt86ppptte626akklcckhprtttrr6etaate2#mmmmmmmmmmmmmmmmmm",
"mmmmmmmm          #,62#266rpteee,,6eflkhyyr662222etaaajjate62&2#mmmmmmmmmmmmmmmm",
"mmmmmmmm         ##,,&>66rtt866,rpfhpyy7668rahlxxkjhfssate662&22#mmmmmmmmmmmmmmm",
"mmmmmmmmm        ##,,&>6tpt866pfffhy768668rahlxxkhapyreeee77>&%%#mmmmmmmmmmmmmmm",
"mmmmmmmmmmm      X&&&%2rat86epfyppr76>etajkzxlhpteeee2,,,,&&&&####mmmmmmmmmmmmmm",
"mmmmmmmmmmm       ## >6psy6yffyr66>>etahxxlhae62222eeeerppee66,>##mmmmmmmmmmmmmm",
"mmmmmmmmmmm         #,7fjypjfyr6>>etpfhhpr2&2yaaparttathlhppapr6##mmmmmmmmmmmmmm",
"mmmmmmmmmmm         #,7pjjjt66>6eafjhhp7&&2typsjkjaaaaefkjpptpse6>mmmmmmmmmmmmmm",
"mmmmmmmmmmmm        #,7ysat,>>8affjhpe2&26yypfskzkkaaaefkfpprfftf6mmmmmmmmmmmmmm",
"mmmmmmmmmmmmmm      #,7eyr,>68akfsye2%&,67tappfljkhhfpykaapppzpyzp6,mmmmmmmmmmmm",
"mmmmmmmmmmmmmmmmX   #,7et7&8aakarre2%&,67rahtphljzksspfztattakhjppr62mmmmmmmmmmm",
"mmmmmmmmmmmmmmmm+   #,7e2&2askar882%@,67ryhspyhklzlfpffjetkkakpfjja886mmmmmmmmmm",
"mmmmmmmmmmmmmmmmm    >22&&7haar22>%@>267ryysrpskklkjjhzkyazzkzxzkhlfar6mmmmmmmmm",
"mmmmmmmmmmmmmmmmm    #&%&>aptt22%%@@,666rryyrrpzklhzhkzzahvvkkzlhllljkp76mmmmmmm",
"mmmmmmmmmmmmmmmmmm    ###2tr77>&  @%>766rerspphlzzkkkjklaknnkllsjzkjkjjyr6mmmmmm",
"mmmmmmmmmmmmmmmmmmm   ###7r866>%  @%>67678rsyphkkxjsslckzzzskljlkjxlasjhat66mmmm",
"mmmmmmmmmmmmmmmmmmmmmm ##26622>O %O%277877eaytjkklasszzzkkapshzskxkllkhshstr6mmm",
"mmmmmmmmmmmmmmmmmmmmmmm #>,2>>%O %OO>7e777rarpskzkhpalzxkhrhhhxklzzkklhhjasty6mm",
"mmmmmmmmmmmmmmmmmmmmmmmm%&>,>>#O%%#OO2ee77ryppsfklhyaklksjyrajlzllllxzllklalpptm",
"mmmmmmmmmmmmmmmmmmmmmmmm %&,>>#OO%##O#2772repaphklarpklakhntslzlhlzzkjszjjjlasrt"
};
