/* XPM */
static char *result[] = {
/* columns rows colors chars-per-pixel */
"138 99 74 1 ",
"  c #070707",
". c #0B0B0B",
"X c #170F07",
"o c #0B1707",
"O c #1F170B",
"+ c #131313",
"@ c #1B1B1B",
"# c #2B230F",
"$ c #232B0F",
"% c #332B13",
"& c #3F2F17",
"* c #3F2B1B",
"= c #2F371F",
"- c #232323",
"; c #2F2F2F",
": c #373737",
"> c #43331B",
", c #4B371B",
"< c #533F1F",
"1 c #732B00",
"2 c #473323",
"3 c #533F2F",
"4 c #5F4323",
"5 c #5B472B",
"6 c #474F33",
"7 c #574333",
"8 c #5F4B37",
"9 c #6B4727",
"0 c #774F2B",
"q c #7F532F",
"w c #675333",
"e c #775F3F",
"r c #434343",
"t c #4B4B4B",
"y c #6F5743",
"u c #9F3700",
"i c #9B5B13",
"p c #AF7B1F",
"a c #875733",
"s c #8F5F37",
"d c #9B633B",
"f c #A36B3F",
"g c #836B4B",
"h c #8F7753",
"j c #AB6F43",
"k c #B37347",
"l c #BF7B4B",
"z c #937B63",
"x c #A76B6B",
"c c #CB7F4F",
"v c #C39B2F",
"b c #FFFF23",
"n c #9F8363",
"m c #9F876F",
"M c #CF8353",
"N c #D78B5B",
"B c #D7BB43",
"V c #DF9363",
"C c #E79B6B",
"Z c #EFA373",
"A c #F7AB7B",
"S c #EBDB57",
"D c #FFFF6B",
"F c #EB9797",
"G c #FFB383",
"H c #FFBB93",
"J c #FFBF9B",
"K c #FFC79B",
"L c #FFCFB3",
"P c #CBCBCB",
"I c LightGray",
"U c gray86",
"Y c #E7E7E7",
"T c None",
/* pixels */
"TTTTTTTTTTTTTTTTTTTTTTTTTTTTTTTTTTTTTTTTTTTTTTTTTTTTTTTTTTTTTTTTTTTTTTTTTTTTTTTTTTTTTTTTTTTTTTTTTTTTTTTTTTTTTTTTTTTTTTTTTTTTTTTTTTTTTTTTTT",
"TTTT@@+  TTTTTTTTTTTTTTTTTTTTTTTTTTTTTTTTTTTTTTTTTTTTTTTTTTTTTTTTTTTTTTTTTTTTTTTTTTTTTTTTTTTTTTTTTTTTTTTTTTTTTTTTTTTTTTTTTTTTTTTTTTTTTTTTT",
"TTT;;;+.   TTTTTTTTTTTTTTTTTTTTTTTTTTTTTTTTTTTTTTTTTTTTTTTTTTTTTTTTTTTTTTTTTTTTTTTTTTTTTTTTTTTTTTTTTTTTTTTTTTTTTTTTTTTTTTTTTTTTTTTTTTTTTTT",
"TT+r:@@@.   TTTTTTTTTTTTTTTTTTTTTTTTTTTTTTTTTTTTTTTTTTTTTTTTTTTTTTTTTTTTTTTTTTTTTTTTTTTTTTTTTTTTTTTTTTTTTTTTTTTTTTTTTTTTTTTTTTTTTTTTTTTTTT",
"T+@rt;%yyy2==%%TTTTTTTTTTTTTTTTTTTTTTTTTTTTTTTTTTTTTTTTTTTTTTTTTTTTTTTTTTTTTTTTTTTTTTTTTTTTTTTTTTTTTTTTTTTTTTTTTTTTTTTTTTTTTTTTTTTTTTTTTTT",
"T+@;:yey2%=+++  TTTTTTTTTTTTTTTTTTTTTTTTTTTTTTTTTTTTTTTTTTTTTTTTTTTTTTTTTTTTTTTTTTTTTTTTTTTTTTTTTTTTTTTTTTTTTTTTTTTTTTTTTTTTTTTTTTTTTTTTTT",
"T @@8zy======%+++ TTTTTTTTTTTTTTTTTTTTTTTTTTTTTTTTTTTTTTTTTTTTTTTTTTTTTTTTTTTTTTTTTTTTTTTTTTTTTTTTTTTTTTTTTTTTTTTTTTTTTTTTTTTTTTTTTTiiiiTT",
"T  3gz8y6%%%=%%%%%+TTTTTTTTTTTTTTTTTTTTTTTTTTTTTTTTTTTTTTTTTTTTTTTTTTTTTTTTTTTTTTTTTTTTTTTTTTTTTTTTTTTTTTTTTTTTTTTTTTTTTTTTTTTTTTTTipxwwiT",
"T $838z826==yyyy==2%TTTTTTTTTTTTTTTTTTTTTTTTTTTTTTTTTTTTTTTTTTTTTTTTTTTTTTTTTTTTTTTTTTTTTTTTTTTTTTTTTTTTTTTTTTTTTTTTTTTTTTTTTTTTTTppnnw77i",
"T %3====y22y=%++++%==TTTTTTTTTTTTTTTTTTTTTTTTTTTTTTTTTTTTTTTTTTTTTTTTTTTTTTTTTTTTTTTTTTTTTTTTTTTTTTTTTTTTTTTTTTTTTTTTTTTTTTTTTTTTpvvLP7:7i",
"T$8%%%%22=y%....++++=TTTTTTTTTTTTTTTTTTTTTTTTTTTTTTTTTTTTTTTTTTTTTTTTTTTTTTTTTTTTTTTTTTTTTTTTTTTTTTTTTTTTTTTTTTTTTTTTTTTTTTTTTTTpvBSIn7:7i",
"T%==+%+==y%@:@;r;++   TTTTTTTTTTTTTTTTTTTTTTTTTTTTTTTTTTTTTTTTTTTTTTTTTTTTTTTTTTTTTTTTTTTTTTTTTTTTTTTTTTTTTTTTTTTTTTTTTTTTTTTTTpvBbLUw:7iw",
"Ty=++%.==%.@:;+:;@++    TTTTTTTTTTTTTTTTTTTTTTTTTTTTTTTTTTTTTTTTTTTTTTTTTTTTTTTTTTTTTTTTTTTTTTTTTTTTTTTTTTTTTTTTTTTTTTTTTTTTTTppvDYUn77piT",
"Ty=+++.=y. @;:;+r2888====%TTTTTTTTTTTTTTTTTTTTTTTTTTTTTTTTTTTTTTTTTTTTTTTTTTTTTTTTTTTTTTTTTTTTTTTTTTTTTTTTTTTTTTTTTTTTTTTTTTTpvvvBYUw:7iwT",
"T=6=+=+=z ++;rr@8y3%====6=%%TTTTTTTTTTTTTTTTTTTTTTTTTTTTTTTTTTTTTTTTTTTTTTTTTTTTTTTTTTTTTTTTTTTTTTTTTTTTTTTTTTTTTTTTTTTTTTTTiwddivSFw7pwTT",
"T%2%%%+=z ++@:$eh33%===%+%=y%%.TTTTTTTTTTTTTTTTTTTTTTTTTTTTTTTTTTTTTTTTTTTTTTTTTTTTTTTTTTTTTTTTTTTTTTTTTTTTTTTTTTTTTTTTTTTTd77::1ivp77iTTT",
"T%=%%%+=m   +@8yygy8=====+%=y%%$ TTTTTTTTTTTTTTTTTTTTTTTTTTTTTTTTTTTTTTTTTTTTTTTTTTTTTTTTTTTTTTTTTTTTTTTTTTTTTTTTTTTTTTTTTTu7:---:iv7pwTTT",
"T+%%%%+2z   +@h88yhy88==2%O%=8%$$ TTTTTTTTTTTTTTTTTTTTTTTTTTTTTTTTTTTTTTTTTTTTTTTTTTTTTTTTTTTTTTTTTTTTTTTTTTTTTTTTTTTTTTTTTdu:wY--1pviTTTT",
"T+$%%%%=z   @2h=8yzzeyyyyy6+=%33%$ TTTTTTTTTTTTTTTTTTTTTTTTTTTTTTTTTTTTTTTTTTTTTTTTTTTTTTTTTTTTTTTTTTTTTTTTTTTTTTTTTTTTTTTTdp77d--1ipwTTTT",
"T+$$%%%=e    8y==8yzeyze= ..=%8$    TTTTTTTTTTTTTTTTTTTTTTTTTTTTTTTTTTTTTTTTTTTTTTTTTTTTTTTTTTTTTTTTTTTTTTTTTTTTTTTTTTTTTTTivd77--7iiTTTTT",
"T +%$%$=y    y8%%88yyze%.....=%      TTTTTTTTTTTTTTTTTTTTTTTTTTTTTTTTTTTTTTTTTTTTTTTTTTTTTTTTTTTTTTTTTTTTTTTTTTTTTTTTTTTTTTTivd::7upwTTTTT",
"T  O%$%$8%   h%$%%8yhe=+......        TTTTTTTTTTTTTTTTTTTTTTTTTTTTTTTTTTTTTTTTTTTTTTTTTTTTTTTTTTTTTTTTTTTTTTTTTTTTTTTTTTTTTTdippiiiwTTTTTT",
"T  O$%$$3%   e$$%%8yh=% ..... .       TTTTTTTTTTTTTTTTTTTTTTTTTTTTTTTTTTTTTTTTTTTTTTTTTTTTTTTTTTTTTTTTTTTTTTTTTTTTTTTTTTTTTTTwwddwwTTTTTTT",
"T   O$$$38   3 O$%%88%  .O$%====%O++  TTTTTTTTTTTTTTTTTTTTTTTTTTTTTTTTTTTTTTTTTTTTTTTTTTTTTTTTTTTTTTTTTTTTTTTTTTTTTTTTTTTTTTTTTTTTTTTTTTTT",
"TT  ++$$%8O  2 OOO%g%. +%=========%++ TTTTTTTTTTTTTTTTTTTTTTTTTTTTTTTTTTTTTTTTTTTTTTTTTTTTTTTTTTTTTTTTTTTTTTTTTTTTTTTTTTTTTTTTTTTTTTTTTTTT",
"TT  +$+$$2$  2  OO%e$ +2e6666=======O+. TTTTTTTTTTTTTTTTTTTTTTTTTTTTTTTTTTTTTTTTTTTTTTTTTTTTTTTTTTTTTTTTTTTTTTTTTTTTTTTTTTTTTTTTTTTTTTTTTT",
"TTT  +$+$$*  $  OOOe..=yee6666======%+++ TTTTTTTTTTTTTTTTTTTTTTTTTTTTTTTTTTTTTTTTTTTTTTTTTTTTTTTTTTTTTTTTTTTTTTTTTTTTTTTTTTTTTTTTTTTTTTTTT",
"TTT   +OO.#+ +  O$$e..=yeee6666gegeeyyy%+TTTTTTTTTTTTTTTTTTTTTTTTTTTTTTTTTTTTTTTTTTTTTTTTTTTTTTTTTTTTTTTTTTTTTTTTTTTTTTTTTTTTTTTTTTTTTTTTT",
"TTTT  +++++# +   $$g $==yyeeegggggeeyyyyyyTTTTTTTTTTTTTTTTTTTTTTTTTTTTTTTTTTTTTTTTTTTTTTTTTTTTTTTTTTTTTTTTTTTTTTTTTTTTTTTTTTTTTTTTTTTTTTTT",
"TTTT   ++++#++   $ g $==8yyeeggeggeeyyyeyyyTTTTTTTTTTTTTTTTTTTTTTTTTTTTTTTTTTTTTTTTTTTTTTTTTTTTTTTTTTTTTTTTTTTTTTTTTTTTTTTTTTTTTTTTTTTTTTT",
"TTTTT  .++..*+     g %===8yye=O    .oo.+=eeeTTTTTTTTTTTTTTTTTTTTTTTTTTTTTTTTTTTTTTTTTTTTTTTTTTTTTTTTTTTTTTTTTTTTTTTTTTTTTTTTTTTTTTTTTTTTTT",
"TTTTT  .++++*+ +   g %===8ye=         ...=geTTTTTTTTTTTTTTTTTTTTTTTTTTTTTTTTTTTTTTTTTTTTTTTTTTTTTTTTTTTTTTTTTTTTTTTTTTTTTTTTTTTTTTTTTTTTTT",
"TTTTTT   +++%. +   e $$%=8e=          ...O=eeTTTTTTTTTTTTTTTTTTTTTTTTTTTTTTTTTTTTTTTTTTTTTTTTTTTTTTTTTTTTTTTTTTTTTTTTTTTTTTTTTTTTTTTTTTTTT",
"TTTTTT    +++.++   y $$%88y+          ....OggTTTTTTTTTTTTTTTTTTTTTTTTTTTTTTTTTTTTTTTTTTTTTTTTTTTTTTTTTTTTTTTTTTTTTTTTTTTTTTTTTTTTTTTTTTTTT",
"TTTTTTT  + ++++O   y $O%8y%      %%=%O ....=ggTTTTTTTTTTTTTTTTTTTTTTTTTTTTTTTTTTTTTTTTTTTTTTTTTTTTTTTTTTTTTTTTTTTTTTTTTTTTTTTTTTTTTTTTTTTT",
"TTTTTTT   + ++++ + y $ %88+     %==6=%O....OghTTTTTTTTTTTTTTTTTTTTTTTTTTTTTTTTTTTTTTTTTTTTTTTTTTTTTTTTTTTTTTTTTTTTTTTTTTTTTTTTTTTTTTTTTTTT",
"TTTTTTTT . ++++++O y $ 338.    %==6ggg6%....=hhTTTTTTTTTTTTTTTTTTTTTTTTTTTTTTTTTTTTTTTTTTTTTTTTTTTTTTTTTTTTTTTTTTTTTTTTTTTTTTTTTTTTTTTTTTT",
"TTTTTTTT    + ++OO g   23$     %==y6O$66=...OhhTTTTTTTTTTTTTTTTTTTTTTTTTTTTTTTTTTTTTTTTTTTTTTTTTTTTTTTTTTTTTTTTTTTTTTTTTTTTTTTTTTTTTTTTTTT",
"TTTTTTTTT .+++++OO$g   33$     $%y6O=2O66....ghTTTTTTTTTTTTTTTTTTTTTTTTTTTTTTTTTTTTTTTTTTTTTTTTTTTTTTTTTTTTTTTTTTTTTTTTTTTTTTTTTTTTTTTTTTT",
"TTTTTTTTT  .+ O+$O$h ..33.     $$y+===6h6....6hTTTTTTTTTTTTTTTTTTTTTTTTTTTTTTTTTTTTTTTTTTTTTTTTTTTTTTTTTTTTTTTTTTTTTTTTTTTTTTTTTTTTTTTTTTT",
"TTTTTTTTTT   + OO$$h ..88.     .%y+===2g6+.++$hTTTTTTTTTTTTTTTTTTTTTTTTTTTTTTTTTTTTTTTTTTTTTTTTTTTTTTTTTTTTTTTTTTTTTTTTTTTTTTTTTTTTTTTTTTT",
"TTTTTTTTTT    OO$O$g $.38       Og6O==g66++..$hTTTTTTTTTTTTTTTTTTTTTTTTTTTTTTTTTTTTTTTTTTTTTTTTTTTTTTTTTTTTTTTTTTTTTTTTTTTTTTTTTTTTTTTTTTT",
"TTTTTTTTTTT  + OO$$g $.88        %e6ee66=.....hhTTTTTTTTTTTTTTTTTTTTTTTTTTTTTTTTTTTTTTTTTTTTTTTTTTTTTTTTTTTTTTTTTTTTTTTTTTTTTTTTTTTTTTTTTT",
"TTTTTTTTTTT  .+ +O$e $ 38         %6666%......ggTTTTTTTTTTTTTTTTTTTTTTTTTTTTTTTTTTTTTTTTTTTTTTTTTTTTTTTTTTTTTTTTTTTTTTTTTTTTTTTTTTTTTTTTTT",
"TTTTTT ,,999##++OOOe $.38.              ......egTTTTTTTTTTTTTTTTTTTTTTTTTTTTTTTTTTTTTTTTTTTTTTTTTTTTTTTTTTTTTTTTTTTTTTTTTTTTTTTTTTTTTTTTTT",
"TTTT<99fkMMkd99 O O2 $ 8y+              ......eeTTTTTTTTTTTTTTTTTTTTTTTTTTTTTTTTTTTTTTTTTTTTTTTTTTTTTTTTTTTTTTTTTTTTTTTTTTTTTTTTTTTTTTTTTT",
"TTT,9slNNNNNNkd<OOO2 $%88+             . ..   eeTTTTTTTTTTTTTTTTTTTTTTTTTTTTTTTTTTTTTTTTTTTTTTTTTTTTTTTTTTTTTTTTTTTTTTTTTTTTTTTTTTTTTTTTTT",
"TTT,jkkMNNNNNNkd<OO2 $%8y.                    yeTTTTTTTTTTTTTTTTTTTTTTTTTTTTTTTTTTTTTTTTTTTTTTTTTTTTTTTTTTTTTTTTTTTTTTTTTTTTTTTTTTTTTTTTTT",
"TTT,jdkkMMNMMMckk<O2 $$88+                   %eeTTTTTTTTTTTTTTTTTTTTTTTTTTTTTTTTTTTTTTTTTTTTTTTTTTTTTTTTTTTTTTTTTTTTTTTTTTTTTTTTTTTTTTTTTT",
"TTT0dsdklMMMMNNNkd$3 $$88$                   %eeyTTTTTTTTTTTTTTTTTTTTTTTTTTTTTTTTTTTTTTTTTTTTTTTTTTTTTTTTTTTTTTTTTTTTTTTTTTTTTTTTTTTTTTTTT",
"TT,0dsdklMMMMNNNNk<3 $$38$         ++...++.  %yeyTTTTTTTTTTTTTTTTTTTTTTTTTTTTTTTTTTTTTTTTTTTTTTTTTTTTTTTTTTTTTTTTTTTTTTTTTTTTTTTTTTTTTTTTT",
"TT,0s94dklMMNNNVVVk< $O33$       ..+...+++.. +yeyTTTTTTTTTTTTTTTTTTTTTTTTTTTTTTTTTTTTTTTTTTTTTTTTTTTTTTTTTTTTTTTTTTTTTTTTTTTTTTTTTTTTTTTTT",
"TT,0049djkllMMVCZZVd<$$22$       ..........+ +yeeTTTTTTTTTTTTTTTTTTTTTTTTTTTTTTTTTTTTTTTTTTTTTTTTTTTTTTTTTTTTTTTTTTTTTTTTTTTTTTTTTTTTTTTTT",
"TT,0999djkkNNCZGGGZc9O$222        ......+.++ +4ye&TTTTTTTTTTTTTTTTTTTTTTTTTTTTTTTTTTTTTTTTTTTTTTTTTTTTTTTTTTTTTTTTTTTTTTTTTTTTTTTTTTTTTTTT",
"T&,0094sfkklMCGGJJJZc<O22*         ..O.$+$+$+ 4ye&&TTTTTTTTTTTTTTTTTTTTTTTTTTTTTTTTTTTTTTTTTTTTTTTTTTTTTTTTTTTTTTTTTTTTTTTTTTTTTTTTTTTTTTT",
"T,00959adkkkNAJJJJGAVkO2**     . . O.......++ %yg&&&TTTTTTTTTTTTTTTTTTTTTTTTTTTTTTTTTTTTTTTTTTTTTTTTTTTTTTTTTTTTTTTTTTTTTTTTTTTTTTTTTTTTTT",
"T,09959adkkkNAJJGGAZVcl2**          .O.O.O.$+ %ye&44TTTTTTTTTTTTTTTTTTTTTTTTTTTTTTTTTTTTTTTTTTTTTTTTTTTTTTTTTTTTTTTTTTTTTTTTTTTTTTTTTTTTTT",
"T,0045<adkkkNCAJGGAZCVMd**    . . +OOOOO$$$$% %e4&44&TTTTTTTTTTTTTTTTTTTTTTTTTTTTTTTTTTTTTTTTTTTTTTTTTTTTTTTTTTTTTTTTTTTTTTTTTTTTTTTTTTTTT",
"T,0994%9qdjjcNCJJGAZCCVMd*     ..++O$O%$%$%$% +ee&44&TTTTTTTTTTTTTTTTTTTTTTTTTTTTTTTTTTTTTTTTTTTTTTTTTTTTTTTTTTTTTTTTTTTTTTTTTTTTTTTTTTTTT",
"TO,09,,9qdjjkcNAJGAZCCCVNl     .O+O+OOOO$$$$$ +e4&444&TTTTTTTTTTTTTTTTTTTTTTTTTTTTTTTTTTTTTTTTTTTTTTTTTTTTTTTTTTTTTTTTTTTTTTTTTTTTTTTTTTTT",
"TO,,%,%<5qsffjNCGZCVVVVVNNl#   ++$+$O$O%$%$%$  e4&444&TTTTTTTTTTTTTTTTTTTTTTTTTTTTTTTTTTTTTTTTTTTTTTTTTTTTTTTTTTTTTTTTTTTTTTTTTTTTTTTTTTTT",
"TTO,,%,%5qsfffcNZCNNNMMNNNcc9  .O+$+$$$%%%%%%  4&&444&&TTTTTTTTTTTTTTTTTTTTTTTTTTTTTTTTTTTTTTTTTTTTTTTTTTTTTTTTTTTTTTTTTTTTTTTTTTTTTTTTTTT",
"TTT ,,,&55qsdfkcZCNMcMcMMlcccd9+OO$O$$$%%%%%%  &&44444&TTTTTTTTTTTTTTTTTTTTTTTTTTTTTTTTTTTTTTTTTTTTTTTTTTTTTTTTTTTTTTTTTTTTTTTTTTTTTTTTTTT",
"TTTTTTT<55qsddfkVVMlMMllclkkkccd9+$%%%%====== &&444404&&TTTTTTTTTTTTTTTTTTTTTTTTTTTTTTTTTTTTTTTTTTTTTTTTTTTTTTTTTTTTTTTTTTTTTTTTTTTTTTTTTT",
"TTTTTOOOX>0addfkNNMlljMcNVVMlkkkldd99%%====%%&444440044&TTTTTTTTTTTTTTTTTTTTTTTTTTTTTTTTTTTTTTTTTTTTTTTTTTTTTTTTTTTTTTTTTTTTTTTTTTTTTTTTTT",
"TTT,OO##X>5asddjNNMllMNVCCCCVMkklllllddssfjkkfdss0004444TTTTTTTTTTTTTTTTTTTTTTTTTTTTTTTTTTTTTTTTTTTTTTTTTTTTTTTTTTTTTTTTTTTTTTTTTTTTTTTTTT",
"TT,<,&&#X>50qqsfcMljMMVVCCCCVMkkjjjkkkjjjdaddssaaaa44444&TTTTTTTTTTTTTTTTTTTTTTTTTTTTTTTTTTTTTTTTTTTTTTTTTTTTTTTTTTTTTTTTTTTTTTTTTTTTTTTTT",
"TT,<<<&#O#55qqadkklkMMCCZAZZCNNMjjMMljjkkdsssaa004444q44&TTTTTTTTTTTTTTTTTTTTTTTTTTTTTTTTTTTTTTTTTTTTTTTTTTTTTTTTTTTTTTTTTTTTTTTTTTTTTTTTT",
"TT,<<,&#O>,499aasssfjNCNMlkkdddjjjjjdffjfsfkss9900qqqqq4>TTTTTTTTTTTTTTTTTTTTTTTTTTTTTTTTTTTTTTTTTTTTTTTTTTTTTTTTTTTTTTTTTTTTTTTTTTTTTTTTT",
"TT&<,&##O#>,<<40aaasskkjsslllMMMdddkNVCMMkksfkfaqqadddqq4&TTTTTTTTTTTTTTTTTTTTTTTTTTTTTTTTTTTTTTTTTTTTTTTTTTTTTTTTTTTTTTTTTTTTTTTTTTTTTTTT",
"TT&&&###OO#&,,<99009,4<99jMMMjjjkkMVCMMllllkksskfddjjddq<,&TTTTTTTTTTTTTTTTTTTTTTTTTTTTTTTTTTTTTTTTTTTTTTTTTTTTTTTTTTTTTTTTTTTTTTTTTTTTTTT",
"TTT&OX#OO X#&&&<449<<&&9kMjjsssdNNMMfdddjjjjkkkasjjjjkdd<<&TTTTTTTTTTTTTTTTTTTTTTTTTTTTTTTTTTTTTTTTTTTTTTTTTTTTTTTTTTTTTTTTTTTTTTTTTTTTTTT",
"TTTT #XOO  #%%&,<4<&&,afsqa9dMMlkkddadffjkjfffkdasfkkkld<<&TTTTTTTTTTTTTTTTTTTTTTTTTTTTTTTTTTTTTTTTTTTTTTTTTTTTTTTTTTTTTTTTTTTTTTTTTTTTTTT",
"TTTT #OOO  #%%%&>,,&,,afs99jMMMlkkddkMAACZCVNNkdasfkkdfk9,&TTTTTTTTTTTTTTTTTTTTTTTTTTTTTTTTTTTTTTTTTTTTTTTTTTTTTTTTTTTTTTTTTTTTTTTTTTTTTTT",
"TTTTTOOOO  X##%%&>>9,4sa99kkMkkdkkMAAVMjdqdjMCVMkasddddf9,&#TTTTTTTTTTTTTTTTTTTTTTTTTTTTTTTTTTTTTTTTTTTTTTTTTTTTTTTTTTTTTTTTTTTTTTTTTTTTTT",
"TTTTTTOOO     X##&,&9<%9sdjjjddjjjqaaaadddjjdaasjMcfas049<##TTTTTTTTTTTTTTTTTTTTTTTTTTTTTTTTTTTTTTTTTTTTTTTTTTTTTTTTTTTTTTTTTTTTTTTTTTTTTT",
"TTTTTTTT      XX#&,&O,qqddaa0jjqssdVAVMMMCGGCMjasfjffjss4<##TTTTTTTTTTTTTTTTTTTTTTTTTTTTTTTTTTTTTTTTTTTTTTTTTTTTTTTTTTTTTTTTTTTTTTTTTTTTTT",
"TTTTTTTT       X#,&O&qsa949jjq9jVAVdaaaaffMCGGVVMlljjsdkd<,##TTTTTTTTTTTTTTTTTTTTTTTTTTTTTTTTTTTTTTTTTTTTTTTTTTTTTTTTTTTTTTTTTTTTTTTTTTTTT",
"TTTTTTTT        #% &9q4>4ddq9jjjdda949kVVCGGVMjsdddss9adkkda4#TTTTTTTTTTTTTTTTTTTTTTTTTTTTTTTTTTTTTTTTTTTTTTTTTTTTTTTTTTTTTTTTTTTTTTTTTTTT",
"TTTTTTTT          #<94#499sjdaaa<<9acCVMffs994444adkkkNNkda94&4#TTTTTTTTTTTTTTTTTTTTTTTTTTTTTTTTTTTTTTTTTTTTTTTTTTTTTTTTTTTTTTTTTTTTTTTTTT",
"TTTTTTTT         ##<<&,99sddq99<sjcMjff099qskMCAAVNMcllkda994&44#TTTTTTTTTTTTTTTTTTTTTTTTTTTTTTTTTTTTTTTTTTTTTTTTTTTTTTTTTTTTTTTTTTTTTTTTT",
"TTTTTTTTT        ##<<&,9djdq99jcccMf09q99qskMCAAVMkjfsaaaa00,&%%#TTTTTTTTTTTTTTTTTTTTTTTTTTTTTTTTTTTTTTTTTTTTTTTTTTTTTTTTTTTTTTTTTTTTTTTTT",
"TTTTTTTTTTT      X&&&%4skdq9ajcfjjs09,adkNVZACMjdaaaa4<<<<&&&&####TTTTTTTTTTTTTTTTTTTTTTTTTTTTTTTTTTTTTTTTTTTTTTTTTTTTTTTTTTTTTTTTTTTTTTTT",
"TTTTTTTTTTT       ## ,9jlf9fccfs99,,adkMAACMka94444aaaasjjaa99<,##TTTTTTTTTTTTTTTTTTTTTTTTTTTTTTTTTTTTTTTTTTTTTTTTTTTTTTTTTTTTTTTTTTTTTTTT",
"TTTTTTTTTTT         #<0cNfjNcfs9,,adjcMMjs4&4fkkjksddkdMCMjjkjs9##TTTTTTTTTTTTTTTTTTTTTTTTTTTTTTTTTTTTTTTTTTTTTTTTTTTTTTTTTTTTTTTTTTTTTTTT",
"TTTTTTTTTTT         #<0jNNNd99,9akcNMMj0&&4dfjlNVNkkkkacVNjjdjla9,TTTTTTTTTTTTTTTTTTTTTTTTTTTTTTTTTTTTTTTTTTTTTTTTTTTTTTTTTTTTTTTTTTTTTTTT",
"TTTTTTTTTTTT        #<0flkd<,,qkccNMja4&49ffjclVZVVkkkacVcjjsccdc9TTTTTTTTTTTTTTTTTTTTTTTTTTTTTTTTTTTTTTTTTTTTTTTTTTTTTTTTTTTTTTTTTTTTTTTT",
"TTTTTTTTTTTTTT      #<0afs<,9qkVclfa4%&<90dkjjcCNVMMcjfVkkjjjZjfZj9<TTTTTTTTTTTTTTTTTTTTTTTTTTTTTTTTTTTTTTTTTTTTTTTTTTTTTTTTTTTTTTTTTTTTTT",
"TTTTTTTTTTTTTTTTX   #<0ad0&qkkVkssa4%&<90skMdjMCNZVlljcZdkddkVMNjjs94TTTTTTTTTTTTTTTTTTTTTTTTTTTTTTTTTTTTTTTTTTTTTTTTTTTTTTTTTTTTTTTTTTTTT",
"TTTTTTTTTTTTTTTT+   #<0a4&4klVksqq4%@<90sfMljfMVCZCcjccNadVVkVjcNNkqq9TTTTTTTTTTTTTTTTTTTTTTTTTTTTTTTTTTTTTTTTTTTTTTTTTTTTTTTTTTTTTTTTTTTT",
"TTTTTTTTTTTTTTTTT    ,44&&0Mkks44,%@,490sfflsjlVVCVNNMZVfkZZVZAZVMCcks9TTTTTTTTTTTTTTTTTTTTTTTTTTTTTTTTTTTTTTTTTTTTTTTTTTTTTTTTTTTTTTTTTTT",
"TTTTTTTTTTTTTTTTT    #&%&,kjdd44%%@@<999ssffssjZVCMZMVZZkMHHVVZCMCCCNVj09TTTTTTTTTTTTTTTTTTTTTTTTTTTTTTTTTTTTTTTTTTTTTTTTTTTTTTTTTTTTTTTTT",
"TTTTTTTTTTTTTTTTTT    ###4ds00,&  @%,099sasljjMCZZVVVNVCkVKKVCClNZVNVNNfs9TTTTTTTTTTTTTTTTTTTTTTTTTTTTTTTTTTTTTTTTTTTTTTTTTTTTTTTTTTTTTTTT",
"TTTTTTTTTTTTTTTTTTT   ###0sq99,%  @%,9090qslfjMVVANllCGVZZZlVCNCVNACklNMkd99TTTTTTTTTTTTTTTTTTTTTTTTTTTTTTTTTTTTTTTTTTTTTTTTTTTTTTTTTTTTTT",
"TTTTTTTTTTTTTTTTTTTTTT ##49944,O %O%400q00akfdNVVCkllZZZVVkjlMZlVAVCCVMlMlds9TTTTTTTTTTTTTTTTTTTTTTTTTTTTTTTTTTTTTTTTTTTTTTTTTTTTTTTTTTTTT",
"TTTTTTTTTTTTTTTTTTTTTTT #,<4,,%O %OO,0a000sksjlVZVMjkCZAVMsMMMAVCZZVVCMMNkldf9TTTTTTTTTTTTTTTTTTTTTTTTTTTTTTTTTTTTTTTTTTTTTTTTTTTTTTTTTTTT",
"TTTTTTTTTTTTTTTTTTTTTTTT%&,<,,#O%%#OO4aa00sfjjlcVCMfkVCVlNfskNCZCCCCAZCCVCkCjjdTTTTTTTTTTTTTTTTTTTTTTTTTTTTTTTTTTTTTTTTTTTTTTTTTTTTTTTTTTT",
"TTTTTTTTTTTTTTTTTTTTTTTT %&<,,#OO%##O#4004sajkjMVCksjVCkVMKdlCZCMCZZVNlZNNNCklsdTTTTTTTTTTTTTTTTTTTTTTTTTTTTTTTTTTTTTTTTTTTTTTTTTTTTTTTTTT",
"TTTTTTTTTTTTTTTTTTTTTTTTTTTTTTTTTTTTTTTTTTTTTTTTTTTTTTTTTTTTTTTTTTTTTTTTTTTTTTTTTTTTTTTTTTTTTTTTTTTTTTTTTTTTTTTTTTTTTTTTTTTTTTTTTTTTTTTTTT"
};
