/* XPM */
static char *result[] = {
/* columns rows colors chars-per-pixel */
"64 64 7 1 ",
"  c #040509",
". c #191E21",
"X c #31383C",
"o c #0E5667",
"O c #147A92",
"+ c #1AA3C3",
"@ c None",
/* pixels */
"@@@@                                                        @@@@",
"@@@@                                                        @@@@",
"@@  ooOOOOOOOOOOOOOOOOOOOOOOOOOOOOOOOOOOOOOOOOOOOOOOOOOOOOoo  @@",
"@@  ooOOOOOOOOOOOOOOOOOOOOOOOOOOOOOOOOOOOOOOOOOOOOOOOOOOOOoo  @@",
"  ooOO++++++++++++++++++++++++++++++++++++++++++++++++++++OOoo  ",
"  ooOO++++++++++++++++++++++++++++++++++++++++++++++++++++OOoo  ",
"  OO++++OO++OO++++++++++++++++++++++++++++++++++++OO++OO++++OO  ",
"  OO++++OO++OO++++++++++++++++++++++++++++++++++++OO++OO++++OO  ",
"  OO++OOOO++++++++++++++++++++++++++++++++++++++++++++OOOO++OO  ",
"  OO++OOOO++++++++++++++++++++++++++++++++++++++++++++OOOO++OO  ",
"  OO++++++++++++++++++++++++++++++++++++++++++++XXXX++++++++OO  ",
"  OO++++++++++++++++++++++++++++++++++++++++++++XXXX++++++++OO  ",
"  OO++OO++++++++++++++++XXXXXX++++XXXXXXXXXXXXXXXXXX++++OO++OO  ",
"  OO++OO++++++++++++++++XXXXXX++++XXXXXXXXXXXXXXXXXX++++OO++OO  ",
"  OO++++++++++++++++++XXXXXXXX++++XXXXXXXXXXXXXXXX..++++++++OO  ",
"  OO++++++++++++++++++XXXXXXXX++++XXXXXXXXXXXXXXXX..++++++++OO  ",
"  OO++++++++++++++++++XXXXXXXX++++XXXXXXXXXXXXXX..++++++++++OO  ",
"  OO++++++++++++++++++XXXXXXXX++++XXXXXXXXXXXXXX..++++++++++OO  ",
"  OO++++++++++++++++++XXXXXXXX++++XXXXXXXXXXXXXX++++++++++++OO  ",
"  OO++++++++++++++++++XXXXXXXX++++XXXXXXXXXXXXXX++++++++++++OO  ",
"  OO++++++++++++XXXXXXXXXXXXXX++++....XXXXXX....++++++++++++OO  ",
"  OO++++++++++++XXXXXXXXXXXXXX++++....XXXXXX....++++++++++++OO  ",
"  OO++++++++++XXXXXXXXXXXXXXXX++++++XXXXXX..++++++++++++++++OO  ",
"  OO++++++++++XXXXXXXXXXXXXXXX++++++XXXXXX..++++++++++++++++OO  ",
"  OO++++++++++XXXXXXXXXXXXXXXX++++XXXXXXXXXXXXXX++++++++++++OO  ",
"  OO++++++++++XXXXXXXXXXXXXXXX++++XXXXXXXXXXXXXX++++++++++++OO  ",
"  OO++++++++++XXXXXXXXXXXXXXXX++XXXXXXXXXXXXXXXX++++++++++++OO  ",
"  OO++++++++++XXXXXXXXXXXXXXXX++XXXXXXXXXXXXXXXX++++++++++++OO  ",
"  OO++++++++++XXXXXXXXXXXXXXXXXXXXXXXXXXXXXXXXXX++++++++++++OO  ",
"  OO++++++++++XXXXXXXXXXXXXXXXXXXXXXXXXXXXXXXXXX++++++++++++OO  ",
"  OO++++++++++XXXXXXXXXXXXXXXXXXXXXXXXXXXXXXXXXX++++++++++++OO  ",
"  OO++++++++++XXXXXXXXXXXXXXXXXXXXXXXXXXXXXXXXXX++++++++++++OO  ",
"  OO++++++++++XXXXXXXXXXXXXXXXXX................++++++++++++OO  ",
"  OO++++++++++XXXXXXXXXXXXXXXXXX................++++++++++++OO  ",
"  OO++++++++++..XXXXXXXXXXXXXX..++++++++++++++++++++++++++++OO  ",
"  OO++++++++++..XXXXXXXXXXXXXX..++++++++++++++++++++++++++++OO  ",
"  OO++++++++++++......XXXXXXXX++++XXXXXXXXXXXXXX++++++++++++OO  ",
"  OO++++++++++++......XXXXXXXX++++XXXXXXXXXXXXXX++++++++++++OO  ",
"  OO++++++++++++++++XXXXXXXXXX++++XXXXXXXXXXXXXX++++++++++++OO  ",
"  OO++++++++++++++++XXXXXXXXXX++++XXXXXXXXXXXXXX++++++++++++OO  ",
"  OO++++++++++++++XXXXXXXXXXXX++++XXXXXXXXXXXXXX++++++++++++OO  ",
"  OO++++++++++++++XXXXXXXXXXXX++++XXXXXXXXXXXXXX++++++++++++OO  ",
"  OO++++++++++++XXXXXX..XXXXXX++++XXXXXXXXXXXXXX++++++++++++OO  ",
"  OO++++++++++++XXXXXX..XXXXXX++++XXXXXXXXXXXXXX++++++++++++OO  ",
"  OO++++++++++XXXXXX..++......++++..............++++++++++++OO  ",
"  OO++++++++++XXXXXX..++......++++..............++++++++++++OO  ",
"  OO++OO++++++XXXX..++++++++++++++++++++++++++++++++++++OO++OO  ",
"  OO++OO++++++XXXX..++++++++++++++++++++++++++++++++++++OO++OO  ",
"  OO++++++++++....++++++++++++++++++++++++++++++++++++++++++OO  ",
"  OO++++++++++....++++++++++++++++++++++++++++++++++++++++++OO  ",
"  OO++OOOO++++++++++++++++++++++++++++++++++++++++++++OOOO++OO  ",
"  OO++OOOO++++++++++++++++++++++++++++++++++++++++++++OOOO++OO  ",
"  OO++++OO++OO++++++++++++++++++++++++++++++++++++OO++OO++++OO  ",
"  OO++++OO++OO++++++++++++++++++++++++++++++++++++OO++OO++++OO  ",
"  ooOO++++++++++++++++++++++++++++++++++++++++++++++++++++OOoo  ",
"  ooOO++++++++++++++++++++++++++++++++++++++++++++++++++++OOoo  ",
"  ooooOOOOOOOOOOOOOOOOOOOOOOOOOOOOOOOOOOOOOOOOOOOOOOOOOOOOoooo  ",
"  ooooOOOOOOOOOOOOOOOOOOOOOOOOOOOOOOOOOOOOOOOOOOOOOOOOOOOOoooo  ",
"  oooooooooooooooooooooooooooooooooooooooooooooooooooooooooooo  ",
"  oooooooooooooooooooooooooooooooooooooooooooooooooooooooooooo  ",
"@@  oooooooooooooooooooooooooooooooooooooooooooooooooooooooo  @@",
"@@  oooooooooooooooooooooooooooooooooooooooooooooooooooooooo  @@",
"@@@@                                                        @@@@",
"@@@@                                                        @@@@"
};
