/* XPM */
static char *result[] = {
/* columns rows colors chars-per-pixel */
"64 64 7 1 ",
"  c #040509",
". c #191E21",
"X c #31383C",
"o c #0E5667",
"O c #147A92",
"+ c #1AA3C3",
"@ c None",
/* pixels */
"@@@@                                                        @@@@",
"@@@@                                                        @@@@",
"@@  ooOOOOOOOOOOOOOOOOOOOOOOOOOOOOOOOOOOOOOOOOOOOOOOOOOOOOoo  @@",
"@@  ooOOOOOOOOOOOOOOOOOOOOOOOOOOOOOOOOOOOOOOOOOOOOOOOOOOOOoo  @@",
"  ooOO++++++++++++++++++++++++++++++++++++++++++++++++++++OOoo  ",
"  ooOO++++++++++++++++++++++++++++++++++++++++++++++++++++OOoo  ",
"  OO++++OO++OO++++++++++++++++++++++++++++++++++++OO++OO++++OO  ",
"  OO++++OO++OO++++++++++++++++++++++++++++++++++++OO++OO++++OO  ",
"  OO++OOOO++++++++++++++++++++++++++++++++++++++++++++OOOO++OO  ",
"  OO++OOOO++++++++++++++++++++++++++++++++++++++++++++OOOO++OO  ",
"  OO++++++++++++++++++++XXXXXXXXXXXXXXXX++++++++XXXX++++++++OO  ",
"  OO++++++++++++++++++++XXXXXXXXXXXXXXXX++++++++XXXX++++++++OO  ",
"  OO++OO++++++++++++XXXXXXXXXXXXXXXXXXXXXXXX++XXXXXX++++OO++OO  ",
"  OO++OO++++++++++++XXXXXXXXXXXXXXXXXXXXXXXX++XXXXXX++++OO++OO  ",
"  OO++++++++++++++XXXXXXXXXXXXXXXXXXXXXXXXXXXXXXXX..++++++++OO  ",
"  OO++++++++++++++XXXXXXXXXXXXXXXXXXXXXXXXXXXXXXXX..++++++++OO  ",
"  OO++++++++++++++XXXXXXXXXXXXXXXXXXXXXXXXXXXXXX..++++++++++OO  ",
"  OO++++++++++++++XXXXXXXXXXXXXXXXXXXXXXXXXXXXXX..++++++++++OO  ",
"  OO++++++++++++XXXXXXXXXX............XXXXXXXXXX++++++++++++OO  ",
"  OO++++++++++++XXXXXXXXXX............XXXXXXXXXX++++++++++++OO  ",
"  OO++++++++++++XXXXXXXX..++++++++++++XXXXXXXXXX++++++++++++OO  ",
"  OO++++++++++++XXXXXXXX..++++++++++++XXXXXXXXXX++++++++++++OO  ",
"  OO++++++++++++XXXXXX..++++++++++++XXXXXXXXXXXX++++++++++++OO  ",
"  OO++++++++++++XXXXXX..++++++++++++XXXXXXXXXXXX++++++++++++OO  ",
"  OO++++++++++++XXXXXX++++++++++++XXXXXX..XXXXXX++++++++++++OO  ",
"  OO++++++++++++XXXXXX++++++++++++XXXXXX..XXXXXX++++++++++++OO  ",
"  OO++++++++++++XXXXXX++++++++++XXXXXX..++XXXXXX++++++++++++OO  ",
"  OO++++++++++++XXXXXX++++++++++XXXXXX..++XXXXXX++++++++++++OO  ",
"  OO++++++++++++XXXXXXXX++++++XXXXXX..++XXXXXXXX++++++++++++OO  ",
"  OO++++++++++++XXXXXXXX++++++XXXXXX..++XXXXXXXX++++++++++++OO  ",
"  OO++++++++++XXXXXXXXXX++++XXXXXX..++++XXXXXXXXXX++++++++++OO  ",
"  OO++++++++++XXXXXXXXXX++++XXXXXX..++++XXXXXXXXXX++++++++++OO  ",
"  OO++++++++XXXXXXXXXXXX++XXXXXX..++++++XXXXXXXXXXXX++++++++OO  ",
"  OO++++++++XXXXXXXXXXXX++XXXXXX..++++++XXXXXXXXXXXX++++++++OO  ",
"  OO++++++++XXXXXXXXXXXXXXXXXX..++++++++XXXXXXXXXXXX++++++++OO  ",
"  OO++++++++XXXXXXXXXXXXXXXXXX..++++++++XXXXXXXXXXXX++++++++OO  ",
"  OO++++++++XXXXXXXXXXXXXXXX..++++++++++XXXXXXXXXXXX++++++++OO  ",
"  OO++++++++XXXXXXXXXXXXXXXX..++++++++++XXXXXXXXXXXX++++++++OO  ",
"  OO++++++++XXXXXXXXXXXXXX..++++++++++++XXXXXXXXXXXX++++++++OO  ",
"  OO++++++++XXXXXXXXXXXXXX..++++++++++++XXXXXXXXXXXX++++++++OO  ",
"  OO++++++++..XXXXXXXXXX..++++++++++++++XXXXXXXXXX..++++++++OO  ",
"  OO++++++++..XXXXXXXXXX..++++++++++++++XXXXXXXXXX..++++++++OO  ",
"  OO++++++++++..XXXXXXXX++++++++++++++++XXXXXXXX..++++++++++OO  ",
"  OO++++++++++..XXXXXXXX++++++++++++++++XXXXXXXX..++++++++++OO  ",
"  OO++++++++++XXXXXX....++++++++++++++++........++++++++++++OO  ",
"  OO++++++++++XXXXXX....++++++++++++++++........++++++++++++OO  ",
"  OO++OO++++++XXXX..++++++++++++++++++++++++++++++++++++OO++OO  ",
"  OO++OO++++++XXXX..++++++++++++++++++++++++++++++++++++OO++OO  ",
"  OO++++++++++....++++++++++++++++++++++++++++++++++++++++++OO  ",
"  OO++++++++++....++++++++++++++++++++++++++++++++++++++++++OO  ",
"  OO++OOOO++++++++++++++++++++++++++++++++++++++++++++OOOO++OO  ",
"  OO++OOOO++++++++++++++++++++++++++++++++++++++++++++OOOO++OO  ",
"  OO++++OO++OO++++++++++++++++++++++++++++++++++++OO++OO++++OO  ",
"  OO++++OO++OO++++++++++++++++++++++++++++++++++++OO++OO++++OO  ",
"  ooOO++++++++++++++++++++++++++++++++++++++++++++++++++++OOoo  ",
"  ooOO++++++++++++++++++++++++++++++++++++++++++++++++++++OOoo  ",
"  ooooOOOOOOOOOOOOOOOOOOOOOOOOOOOOOOOOOOOOOOOOOOOOOOOOOOOOoooo  ",
"  ooooOOOOOOOOOOOOOOOOOOOOOOOOOOOOOOOOOOOOOOOOOOOOOOOOOOOOoooo  ",
"  oooooooooooooooooooooooooooooooooooooooooooooooooooooooooooo  ",
"  oooooooooooooooooooooooooooooooooooooooooooooooooooooooooooo  ",
"@@  oooooooooooooooooooooooooooooooooooooooooooooooooooooooo  @@",
"@@  oooooooooooooooooooooooooooooooooooooooooooooooooooooooo  @@",
"@@@@                                                        @@@@",
"@@@@                                                        @@@@"
};
