/* XPM */
static char *result[] = {
/* columns rows colors chars-per-pixel */
"64 64 7 1 ",
"  c #040509",
". c #191E21",
"X c #31383C",
"o c #0E5667",
"O c #147A92",
"+ c #1AA3C3",
"@ c None",
/* pixels */
"@@@@                                                        @@@@",
"@@@@                                                        @@@@",
"@@  ooOOOOOOOOOOOOOOOOOOOOOOOOOOOOOOOOOOOOOOOOOOOOOOOOOOOOoo  @@",
"@@  ooOOOOOOOOOOOOOOOOOOOOOOOOOOOOOOOOOOOOOOOOOOOOOOOOOOOOoo  @@",
"  ooOO++++++++++++++++++++++++++++++++++++++++++++++++++++OOoo  ",
"  ooOO++++++++++++++++++++++++++++++++++++++++++++++++++++OOoo  ",
"  OO++++OO++OO++++++++++++++++++++++++++++++++++++OO++OO++++OO  ",
"  OO++++OO++OO++++++++++++++++++++++++++++++++++++OO++OO++++OO  ",
"  OO++OOOO++++++++++++++++++++++++++++++++++++++++++++OOOO++OO  ",
"  OO++OOOO++++++++++++++++++++++++++++++++++++++++++++OOOO++OO  ",
"  OO++++++++++++++++++++++++++++++++++++++++++++++++++++++++OO  ",
"  OO++++++++++++++++++++++++++++++++++++++++++++++++++++++++OO  ",
"  OO++OO++++++++++++++++XXXXXX++++XXXXXXXXXXXXXX++++++++OO++OO  ",
"  OO++OO++++++++++++++++XXXXXX++++XXXXXXXXXXXXXX++++++++OO++OO  ",
"  OO++++++++++++++++++XXXXXXXX++++XXXXXXXXXXXXXX++++++++++++OO  ",
"  OO++++++++++++++++++XXXXXXXX++++XXXXXXXXXXXXXX++++++++++++OO  ",
"  OO++++++++++++++++++XXXXXXXX++++XXXXXXXXXXXXXX++++++++++++OO  ",
"  OO++++++++++++++++++XXXXXXXX++++XXXXXXXXXXXXXX++++++++++++OO  ",
"  OO++++++++++++++++++XXXXXXXX++++XXXXXXXXXXXXXX++++++++++++OO  ",
"  OO++++++++++++++++++XXXXXXXX++++XXXXXXXXXXXXXX++++++++++++OO  ",
"  OO++++++++++++XXXXXXXXXXXXXX++++..............++++++++++++OO  ",
"  OO++++++++++++XXXXXXXXXXXXXX++++..............++++++++++++OO  ",
"  OO++++++++++XXXXXXXXXXXXXXXX++++++++++++++++++++++++++++++OO  ",
"  OO++++++++++XXXXXXXXXXXXXXXX++++++++++++++++++++++++++++++OO  ",
"  OO++++++++++XXXXXXXXXXXXXXXX++++XXXXXXXXXXXXXX++++++++++++OO  ",
"  OO++++++++++XXXXXXXXXXXXXXXX++++XXXXXXXXXXXXXX++++++++++++OO  ",
"  OO++++++++++XXXXXXXXXXXXXXXX++++XXXXXXXXXXXXXX++++++++++++OO  ",
"  OO++++++++++XXXXXXXXXXXXXXXX++++XXXXXXXXXXXXXX++++++++++++OO  ",
"  OO++++++++++XXXXXXXXXXXXXXXX++++XXXXXXXXXXXXXX++++++++++++OO  ",
"  OO++++++++++XXXXXXXXXXXXXXXX++++XXXXXXXXXXXXXX++++++++++++OO  ",
"  OO++++++++++XXXXXXXXXXXXXXXX++++XXXXXXXXXXXXXX++++++++++++OO  ",
"  OO++++++++++XXXXXXXXXXXXXXXX++++XXXXXXXXXXXXXX++++++++++++OO  ",
"  OO++++++++++XXXXXXXXXXXXXXXX++++..............++++++++++++OO  ",
"  OO++++++++++XXXXXXXXXXXXXXXX++++..............++++++++++++OO  ",
"  OO++++++++++..XXXXXXXXXXXXXX++++++++++++++++++++++++++++++OO  ",
"  OO++++++++++..XXXXXXXXXXXXXX++++++++++++++++++++++++++++++OO  ",
"  OO++++++++++++......XXXXXXXX++++XXXXXXXXXXXXXX++++++++++++OO  ",
"  OO++++++++++++......XXXXXXXX++++XXXXXXXXXXXXXX++++++++++++OO  ",
"  OO++++++++++++++++++XXXXXXXX++++XXXXXXXXXXXXXX++++++++++++OO  ",
"  OO++++++++++++++++++XXXXXXXX++++XXXXXXXXXXXXXX++++++++++++OO  ",
"  OO++++++++++++++++++XXXXXXXX++++XXXXXXXXXXXXXX++++++++++++OO  ",
"  OO++++++++++++++++++XXXXXXXX++++XXXXXXXXXXXXXX++++++++++++OO  ",
"  OO++++++++++++++++++..XXXXXX++++XXXXXXXXXXXXXX++++++++++++OO  ",
"  OO++++++++++++++++++..XXXXXX++++XXXXXXXXXXXXXX++++++++++++OO  ",
"  OO++++++++++++++++++++......++++..............++++++++++++OO  ",
"  OO++++++++++++++++++++......++++..............++++++++++++OO  ",
"  OO++OO++++++++++++++++++++++++++++++++++++++++++++++++OO++OO  ",
"  OO++OO++++++++++++++++++++++++++++++++++++++++++++++++OO++OO  ",
"  OO++++++++++++++++++++++++++++++++++++++++++++++++++++++++OO  ",
"  OO++++++++++++++++++++++++++++++++++++++++++++++++++++++++OO  ",
"  OO++OOOO++++++++++++++++++++++++++++++++++++++++++++OOOO++OO  ",
"  OO++OOOO++++++++++++++++++++++++++++++++++++++++++++OOOO++OO  ",
"  OO++++OO++OO++++++++++++++++++++++++++++++++++++OO++OO++++OO  ",
"  OO++++OO++OO++++++++++++++++++++++++++++++++++++OO++OO++++OO  ",
"  ooOO++++++++++++++++++++++++++++++++++++++++++++++++++++OOoo  ",
"  ooOO++++++++++++++++++++++++++++++++++++++++++++++++++++OOoo  ",
"  ooooOOOOOOOOOOOOOOOOOOOOOOOOOOOOOOOOOOOOOOOOOOOOOOOOOOOOoooo  ",
"  ooooOOOOOOOOOOOOOOOOOOOOOOOOOOOOOOOOOOOOOOOOOOOOOOOOOOOOoooo  ",
"  oooooooooooooooooooooooooooooooooooooooooooooooooooooooooooo  ",
"  oooooooooooooooooooooooooooooooooooooooooooooooooooooooooooo  ",
"@@  oooooooooooooooooooooooooooooooooooooooooooooooooooooooo  @@",
"@@  oooooooooooooooooooooooooooooooooooooooooooooooooooooooo  @@",
"@@@@                                                        @@@@",
"@@@@                                                        @@@@"
};
