/* XPM */
static char *result[] = {
/* columns rows colors chars-per-pixel */
"33 45 16 1 ",
"  c gray22",
". c #62026F",
"X c #006877",
"o c gray42",
"O c #947E00",
"+ c #56915C",
"@ c #B6B200",
"# c #AFE600",
"$ c #C4F35A",
"% c #5352B6",
"& c #7969CE",
"* c #7F8EFB",
"= c #E8A682",
"- c #ACB2FF",
"; c #D8FFDB",
": c None",
/* pixels */
"::::::::::::::::::::%&&&&&&::::::",
":::::::::::::::::::%&***&&&%:::::",
":::::::::::::::::::&******&&&::::",
"::::::::::::::::::%&********&&:::",
":::::::::::::::::&%&***--***&&:::",
":::::::::::::::::&&&&**---**&%.::",
":::::::::::::::::*&&&***-**&&%.::",
":::::::::::::::::.&&&*****&&&%.::",
":::::::::::::::::.*&******&&&%.::",
"o++::o+o:::::::::&&&&*****&&&%%::",
"+;;+o+=++o:::oo:::&&&*****&&&%%::",
" o==+++=;+ooo=o++o &&*****&&&%%::",
":  ooo++==o .oo==++ .&****&&&&.::",
":::oooo++o+o%-&o=;++.*&**&&%.%:::",
":::: ooo++++;oo*oo;=++......&%:::",
":::::  oo++++o++ooo=;o**&&%.&%%::",
"::::::::O@+++o=+;ooo=;o&%&.*&%%::",
"::::::::O@@*oo+==+ooooo&*&&&%&%::",
"::::::::O@$$ oo++=+ +o%& XXXX &::",
":::::::::O$$**ooo+==+o;*XXO#OXX::",
":::::::::.*@@- XXooo++o&Xo#;#X ::",
"::::::::::%*-* XXXooo+ooXoO#Oo ::",
":::::::::::%&%.XX  &*o.o oo++o++o",
"::::::::::::::: X ++***- Xo++o+  ",
"::::::::::::::: o o+&*-&*Xoo+o+o ",
"::::::::::::::  o   &*&* --*&o+o ",
"::::::::::::::ooo  %&-&*X*--**+o ",
"::::::::::::::ooo o+&*&XX**-**+oo",
"::::::::::::::o+  o .&. X&**&*+oo",
":::::::::::::::oo  oo.%.   X %o  ",
":::::::::::::::: Xoo++. **   ::::",
":::::::::::::::: XXoo o&**&.:::::",
":::::::::::::::&* ++   &*-*& ::::",
":::::::::::::::&- ooo+X&**&%  :::",
":::::::::::::::%&* ++XX --&&  :::",
":::::::::::::::%%- oooo &**&  :::",
"::::::::::::::  .* Xo++       :::",
":::::::::::::    &- ****&%    :::",
"::::::::::::: &%&&******&&   ::::",
"::::::::::::.&&***&**-**&%   ::::",
"::::::::::::&*****---**&*&   ::::",
"::::::::::::%&*--***&&&*&%  :::::",
"::::::::::::%%&&&&&&.&**&& ::::::",
":::::::::::::%*&&&&&%**&&::::::::",
"::::::::::::::.........::::::::::"
};
