/* XPM */
static char *result[] = {
/* columns rows colors chars-per-pixel */
"27 45 17 1 ",
"  c gray22",
". c #62026F",
"X c #006877",
"o c #5A5A5A",
"O c gray42",
"+ c #947E00",
"@ c #56915C",
"# c #B6B200",
"$ c #AFE600",
"% c #C4F35A",
"& c #5352B6",
"* c #7969CE",
"= c #7F8EFB",
"- c #E8A682",
"; c #ACB2FF",
": c #D8FFDB",
"> c None",
/* pixels */
">>>>>>>***&>>>>>>>>>>>>>>>>",
">>>>>*******&>>>>>>>>>>>>>>",
">>>>***=====*.>>>>>>>>>>>>>",
">>>&**======**>>>>>>>>>>>>>",
">>>&*=======***>>>>>>>>>>>>",
">>>**=;;;;;=**.>>>>>>>>>oo>",
">>>&*=;;;;;=**&>>>>>>>X@:Oo",
">>&&**=;;;=***&>>>>>XO@O@oo",
">>&****====***=&>>>XO@- O >",
">>&****=====***.   O@-@O >>",
">>****======***OOO @-@@O >>",
">>&***======**OOO@@-@@O >>>",
">>&***======*&O@:@-@@O >>>>",
"> X&&*&====*&&OO -@@O >>>>>",
"$ X**&&&&&&;;::O @@O &>>>>>",
"  ***.*=;===*@@   O %+>>>>>",
"  X***.*****@@O   O %+>>>>>",
"> &***==&****@@  O #%+>>>>>",
">.&***=**==*.OO O  ##+>>>>>",
">>.&**=*XXXXX- O   #+>>>>>>",
">>.&**=XX+$+X-O    =*>>>>>>",
">>..&*=XX$:$X O   &*>>>>>>>",
">>..&** X+$+X. *  >>>>>>>>>",
">>...**.OO X ==** >>>>>>>>>",
">>...&*O;;XXX*==* >>>>>>>>>",
">>>O..&OO@ XX =*&  >>>>>>>>",
">>  X..@@:;;==X&&O >>>>>>>>",
">> XOOX@@:;;;=&.&O >>>>>>>>",
">> XOOX@@-;;=*.=:O>>>>>>>>>",
">&.  XO@@-****..O>>>>>>>>>>",
">&   O  XXXOO..  >>>>>>>>>>",
">.*    O   XXOOO >>>>>>>>>>",
"..*;;*&.>>  O XOO**>>>>>>>>",
".&*;=*&&   XXOOX =&>>>>>>>>",
"&&=:=*.    @OOO  *.>>>>>>>>",
"*.***&&   XX@@X =&>>>>>>>>>",
".&=&;*    @OOOX =.>>>>>>>>>",
" &==*     .@@O *=>>>>>>>>>>",
">        **;;=**=****>>>>>>",
">       &*==;=*=*==***>>>>>",
">>      **===;;;;====*>>>>>",
">>>     **=*=**=====*&>>>>>",
">>>>    ..*=********=&>>>>>",
">>>>>>   *******=&*=&>>>>>>",
">>>>>>>>>..**....>>>>>>>>>>"
};
