/* XPM */
static char *result[] = {
/* columns rows colors chars-per-pixel */
"41 46 17 1 ",
"  c gray22",
". c #62026F",
"X c #006877",
"o c gray42",
"O c #947E00",
"+ c #56915C",
"@ c #B6B200",
"# c #AFE600",
"$ c #C4F35A",
"% c #5352B6",
"& c #7969CE",
"* c #7F8EFB",
"= c cyan",
"- c #E8A682",
"; c #ACB2FF",
": c #D8FFDB",
"> c None",
/* pixels */
">>>>>>>>>>>>>>>>>>>>>>>>&&&&&&>>>>>>>>>>>",
">>>>>>>>>>>>>>>>>>>>>>>&&**&&&&&&>>>>>>>>",
">>>>>>>>>>>>>>>>>>>>>>&&******&&&>>>>>>>>",
">>>>>>>>>>>>>>>>>>>>>%&**;;;****&%>>>>>>>",
">>>>>>>>>>>>>>>>>>>>%&&***;;;;**&%>>>>>>>",
">>>>>>>>>>>>>>>>>>>>*&&****;;;*&&%>>>>>>>",
">>>>>>>>>>>>>>>>>>>>:&&********&&%>>>>>>>",
">>>>>>>>>>>>>>>>>>>>:o&********&&.>>>>>>>",
">>>>>>>>>>>>>>>>>>>>#o*;*******&&%.>>>>>>",
">>>>>>>>>>>>>>>>>>>>%%&%*******&&%.>>>>>>",
">>>>>>>>>>>>>>>>>>>>> .&*******&&%.>>>>>>",
">>>>>>>>>>>>>>>>>>>>>   ******&&&%>>>>>>>",
">>>>>>ooo>>>>>>oooooo=    ****&&&&>>>>>>>",
"+oooo+++++oooooo+::-+oo *&&****&.>>>>>>>>",
"+-:-+:::---o++&&%--:::::ooo*.&&.&.>>>>>>>",
"  ++o---:::++ooo*&&*&++-::: &&%&&&.>>>>>>",
"> o o+++----::::ooooo++++-: %*%*&&% >>>>>",
">>>>o  +++----:::oo+::++++  *&&*Xo++X>>>>",
">>>>>   oo  @@---::::++o+: oo&*XooO#OX>>>",
">>>>>>>>>> .$$@@+++----::::++:* oo#:#X>>>",
">>>>>>>>>>>>&$$$Oo+++++---:: ++ ooO#OXoo>",
">>>>>>>>>>>>.&$$@Ooo++++++++ + % o++o+ooo",
">>>>>>>>>>>>>.&@@O&o++ooo**o***+ X++ ++o ",
">>>>>>>>>>>>>>&&*&%o++ o%o**;**& XoX+++o ",
">>>>>>>>>>>>>>>>%%%.o+ o&+:*;;** *;&&&+o ",
">>>>>>>>>>>>>>>>>>>ooo +%o+**&*XX*;**&+o ",
">>>>>>>>>>>>>>>>>>>o+   %:&*;&*XX&***&oo ",
">>>>>>>>>>>>>>>>>>+++   .+&&&%&XX%&*.&%o ",
">>>>>>>>>>>>>>>>>>+-+     &%&&%      %%>>",
">>>>>>>>>>>>>>>>>%o:+%   .o%%...     >>>>",
">>>>>>>>>>>>>>>>>%*oo.&Xo o++o.>>>>>>>>>>",
">>>>>>>>>>>>>>>>>.&****o+o++o  >>>>>>>>>>",
">>>>>>>>>>>>>>>>>&.&&&&Xoo++  >>>>>>>>>>>",
">>>>>>>>>>>>>>>>> &&&*% o+Xoo+ >>>>>>>>>>",
">>>>>>>>>>>>>>>>>   &&&;oXo++o  >>>>>>>>>",
">>>>>>>>>>>>>>>>>     &*;X++Xoo >>>>>>>>>",
">>>>>>>>>>>>>>>>>     .%&; oo+ .%>>>>>>>>",
">>>>>>>>>>>>>>>>>>      %&;X+**&&%>>>>>>>",
">>>>>>>>>>>>>>>>>>      %%&****&&.>>>>>>>",
">>>>>>>>>>>>>>>>>>     &&&%&&;;&&.>>>>>>>",
">>>>>>>>>>>>>>>>>>>  %&&****;*&&*.>>>>>>>",
">>>>>>>>>>>>>>>>>>>  &*****;*&&%%.>>>>>>>",
">>>>>>>>>>>>>>>>>>>> %**;;*&&&*&&.>>>>>>>",
">>>>>>>>>>>>>>>>>>>>>.&&&&&.&%...>>>>>>>>",
">>>>>>>>>>>>>>>>>>>>>..&&&....>>>>>>>>>>>",
">>>>>>>>>>>>>>>>>>>>>>.....>>>>>>>>>>>>>>"
};
