/* XPM */
static char *result[] = {
/* columns rows colors chars-per-pixel */
"28 44 16 1 ",
"  c gray22",
". c #62026F",
"X c #006877",
"o c gray42",
"O c #947E00",
"+ c #56915C",
"@ c #B6B200",
"# c #AFE600",
"$ c #C4F35A",
"% c #5352B6",
"& c #7969CE",
"* c #7F8EFB",
"= c #E8A682",
"- c #ACB2FF",
"; c #D8FFDB",
": c None",
/* pixels */
":::::::::::%&&%:::::::::::::",
":::::::::&&&&&&&%:::::::::::",
"::::::::.&&*****&.::::::::::",
"::::::::&&******&&: ::::::::",
":::::::%&&******&&.; :::::::",
":::::::%&&*----**&.o :::::::",
":::::::%&&*----**&.o :::::::",
"::::::&%&&**---*&&%  :::::::",
"::::::%%&&&****&&&%o :::::::",
"::::::.%&&&*****&&&o :::::::",
"::::::.%&&******&&&o :::::::",
"::::::%%&&******&&%+ O::::::",
"::::::%&&&******&%.oo@O:::::",
":::: X+%%%&****&% == $O:::::",
":::OXX&&&%%%%%%%..== $@:::::",
":::OXX&&%*%&*--&&.== $@:::::",
":::OXX&%****&&&&&&;; $@:::::",
":::  X%.&****%*&&&&o @::::::",
"::::  %.&&**%-&**XooX@::::::",
":::: .%.%&&*%-&*XoO#O:::::::",
":::::...&%&&%-& oo#;# ::::::",
":::::...&&%%%*& ooO#O& :::::",
":::::...%&&&%%%% oooo ;:::::",
":::::....%&&%&*..oooX .:::::",
"::::::....%&%&&&& ++XX&:::::",
"::::::   ..%%&&&%o;;;&&%::::",
":::::   X  ..%%%.o;;;*&%::::",
":::::   XXo  ....o;;;*&.::::",
"::::    XXoooo   X;;;&%.::::",
"::::o Xo XXooooooX;;;..:::::",
"::&% XoXo  XoooooXo  o&:::::",
"&&.- Xoo       XXXX   &:::::",
"&&&%&      ::::  XXooX&:::::",
"..%&&--%      :  oooo &:::::",
"%&.&&--&         XXXXX&:::::",
"...%***&         Xooo &:::::",
":%..&*&&          XX &&&&&&:",
":.%%*%%%        &*--*&*&&&&.",
"::.%**&&        &*-*&***&**.",
":::            %&***&&&*&&&&",
"::::           &&--&&&&&&%&:",
":::::          %%&&&&.&&&&&:",
":::::::        %&*;-&&&%::::",
":::::::::::     &&&&::::::::"
};
