/* XPM */
static char *result[] = {
/* columns rows colors chars-per-pixel */
"41 46 17 1 ",
"  c gray22",
". c #62026F",
"X c #006877",
"o c gray42",
"O c #947E00",
"+ c #56915C",
"@ c #B6B200",
"# c #AFE600",
"$ c #C4F35A",
"% c #5352B6",
"& c #7969CE",
"* c #7F8EFB",
"= c cyan",
"- c #E8A682",
"; c #ACB2FF",
": c #D8FFDB",
"> c None",
/* pixels */
">>>>>>>>>>>&&&&&&>>>>>>>>>>>>>>>>>>>>>>>>",
">>>>>>>>&&&&&&**&&>>>>>>>>>>>>>>>>>>>>>>>",
">>>>>>>>&&&******&&>>>>>>>>>>>>>>>>>>>>>>",
">>>>>>>%&****;;;**&%>>>>>>>>>>>>>>>>>>>>>",
">>>>>>>%&**;;;;***&&%>>>>>>>>>>>>>>>>>>>>",
">>>>>>>%&&*;;;****&&*>>>>>>>>>>>>>>>>>>>>",
">>>>>>>%&&********&&:>>>>>>>>>>>>>>>>>>>>",
">>>>>>>.&&********&o:>>>>>>>>>>>>>>>>>>>>",
">>>>>>.%&&*******;*o#>>>>>>>>>>>>>>>>>>>>",
">>>>>>.%&&*******%&%%>>>>>>>>>>>>>>>>>>>>",
">>>>>>.%&&*******&. >>>>>>>>>>>>>>>>>>>>>",
">>>>>>>%&&&******   >>>>>>>>>>>>>>>>>>>>>",
">>>>>>>&&&&****    =oooooo>>>>>>ooo>>>>>>",
">>>>>>>>.&****&&* oo+-::+oooooo+++++oooo+",
">>>>>>>.&.&&.*ooo:::::--%&&++o---:::+-:-+",
">>>>>>.&&&%&& :::-++&*&&*ooo++:::---o++  ",
">>>>> %&&*%*% :-++++ooooo::::----+++o o >",
">>>>X++oX*&&*  ++++::+oo:::----+++  o>>>>",
">>>XO#OooX*&oo :+o++::::---@@  oo   >>>>>",
">>>X#:#oo *:++::::----+++@@$$. >>>>>>>>>>",
">ooXO#Ooo ++ ::---+++++oO$$$&>>>>>>>>>>>>",
"ooo+o++o % + ++++++++ooO@$$&.>>>>>>>>>>>>",
" o++ ++X +***o**ooo++o&O@@&.>>>>>>>>>>>>>",
" o+++XoX &**;**o%o ++o%&*&&>>>>>>>>>>>>>>",
" o+&&&;* **;;*:+&o +o.%%%>>>>>>>>>>>>>>>>",
" o+&**;*XX*&**+o%+ ooo>>>>>>>>>>>>>>>>>>>",
" oo&***&XX*&;*&:%   +o>>>>>>>>>>>>>>>>>>>",
" o%&.*&%XX&%&&&+.   +++>>>>>>>>>>>>>>>>>>",
">>%%      %&&%&     +-+>>>>>>>>>>>>>>>>>>",
">>>>     ...%%o.   %+:o%>>>>>>>>>>>>>>>>>",
">>>>>>>>>>.o++o oX&.oo*%>>>>>>>>>>>>>>>>>",
">>>>>>>>>>  o++o+o****&.>>>>>>>>>>>>>>>>>",
">>>>>>>>>>>  ++ooX&&&&.&>>>>>>>>>>>>>>>>>",
">>>>>>>>>> +ooX+o %*&&& >>>>>>>>>>>>>>>>>",
">>>>>>>>>  o++oXo;&&&   >>>>>>>>>>>>>>>>>",
">>>>>>>>> ooX++X;*&     >>>>>>>>>>>>>>>>>",
">>>>>>>>%. +oo ;&%.     >>>>>>>>>>>>>>>>>",
">>>>>>>%&&**+X;&%      >>>>>>>>>>>>>>>>>>",
">>>>>>>.&&****&%%      >>>>>>>>>>>>>>>>>>",
">>>>>>>.&&;;&&%&&&     >>>>>>>>>>>>>>>>>>",
">>>>>>>.*&&*;****&&%  >>>>>>>>>>>>>>>>>>>",
">>>>>>>.%%&&*;*****&  >>>>>>>>>>>>>>>>>>>",
">>>>>>>.&&*&&&*;;**% >>>>>>>>>>>>>>>>>>>>",
">>>>>>>>...%&.&&&&&.>>>>>>>>>>>>>>>>>>>>>",
">>>>>>>>>>>....&&&..>>>>>>>>>>>>>>>>>>>>>",
">>>>>>>>>>>>>>.....>>>>>>>>>>>>>>>>>>>>>>"
};
