/* XPM */
static char *result[] = {
/* columns rows colors chars-per-pixel */
"43 46 17 1 ",
"  c gray22",
". c #62026F",
"X c #006877",
"o c gray42",
"O c #947E00",
"+ c #56915C",
"@ c #B6B200",
"# c #AFE600",
"$ c #C4F35A",
"% c #5352B6",
"& c #7969CE",
"* c #7F8EFB",
"= c #B6B6B6",
"- c #E8A682",
"; c #ACB2FF",
": c #D8FFDB",
"> c None",
/* pixels */
">>>>>>>>>>>>>&&&&&&&>>>>>>>>>>>>>>>>>>>>>>>",
">>>>>>>>>>>&&&&&&**&&>>>>>>>>>>>>>>>>>>>>>>",
">>>>>>>>>>.&&*******&%>>>>>>>>>>>>>>>>>>>>>",
">>>>>>>>>>%&****;;;*&&%>>>>>>>>>>>>>>>>>>>>",
">>>>>>>>>.%&**;;;;***&&&>>>>>>>>>>>>>>>>>>>",
">>>>>>>>>.%&*********&*&>>>>>>>>>>>>>>>>>>>",
">>>>>>>>>.%&&**********%>>>>>>>>>>>>>>>>>>>",
">>>>>>>>>.%&&*********.:>>>>>>>>>>>>>>>>>>>",
">>>>>>>>>.%&&********+::>>>>>>>>>>>>>>>>>>>",
">>>>>>>>>.%&*****;**-+&#>>>>>>>>>>>>>>>>>>>",
">>>>>>>>>.%&&***&*&* &%%>>>>>>>>>>>>>>>>>>>",
">>>>>>>>>.%&&****&*   .>>>>>>>>>>>>>>>>>>>>",
">>>>>>>>>>%&%&*       >>>>>>>>>>>>>>>>>>>>>",
">>>>>>>>>>>%&****&   %X>>>>>>>>>>>>>>>>>>>>",
">>>>>>>>>&&&%&*ooooooooooooo>>>>>>>>>>>>>>>",
">>>>>XX %*&&&&+:::::::::---oo>>>>>>>>>>>>>>",
">>>>O#++o***&*:-----+%o %&&+oo++++++o >>>>>",
"+---O:#+o ;*&*o+++++oooooooo*++------+>>==+",
"+---O#+oX**+-:::++++----------:::::::--+::+",
"+::: +oX+::+::::::::::::::::----::::--+o=:o",
" +o X+oX+%++:-+-:::::::::----++++++++++o   ",
" ++&XooX.&**:+++---------O@$$@oooooooooo>>>",
" +&&**XX&&*****++++++++*O@$$$*%         >>>",
" +&&*;  ****;;+*&..o+++&O@$$*&&>>>>>>>>>>>>",
" +&&**oo*;***o:o&%o+++ &O**&&>>>>>>>>>>>>>>",
"  %%&*oo**&** o &o+ oo .*&%. >>>>>>>>>>>>>>",
">>%%  XX&&****:o&.&%+++X*%>>>>>>>>>>>>>>>>>",
">>>     %%&&&o+ .X.%++- ;*>>>>>>>>>>>>>>>>>",
">>>>>>  .%.%.: %. &.++- *%>>>>>>>>>>>>>>>>>",
">>>>>>>>>>..   oo   o+:-%.>>>>>>>>>>>>>>>>>",
">>>>>>>>>>>  +o  X   +-+%&&&&&>>>>>>>>>>>>>",
">>>>>>>>>>>  ++ ooX. +  %&&**&&>>>>>>>>>>>>",
">>>>>>>>>>> X +oXX ..&&&&&****%>>>>>>>>>>>>",
">>>>>>>>>>X +X +oX ..&&******&%>>>>>>>>>>>>",
">>>>>>>>>> o+oo **&...%&&&&&.&%>>>>>>>>>>>>",
">>>>>>>>>. Xo+X**&&..&&.&&&%*. >>>>>>>>>>>>",
">>>>>>>>%&&+XX*&&%..... ..... >>>>>>>>>>>>>",
">>>>>>>>%&*&**&&%.           >>>>>>>>>>>>>>",
">>>>>>>%.**&**&%             >>>>>>>>>>>>>>",
">>>>>>>%.&*%*%&&%           >>>>>>>>>>>>>>>",
">>>>>>>&&%&*****&%         >>>>>>>>>>>>>>>>",
">>>>>>>.%&%&*****&       >>>>>>>>>>>>>>>>>>",
">>>>>>>>&%%%&*;;*&      >>>>>>>>>>>>>>>>>>>",
">>>>>>>>>>%%%&%%%%    >>>>>>>>>>>>>>>>>>>>>",
">>>>>>>>>>>&.&**&%  >>>>>>>>>>>>>>>>>>>>>>>",
">>>>>>>>>>>>>%%%%>>>>>>>>>>>>>>>>>>>>>>>>>>"
};
