/* XPM */
static char *result[] = {
/* columns rows colors chars-per-pixel */
"40 45 16 1 ",
"  c gray22",
". c #62026F",
"X c #006877",
"o c gray42",
"O c #947E00",
"+ c #56915C",
"@ c #B6B200",
"# c #AFE600",
"$ c #C4F35A",
"% c #5352B6",
"& c #7969CE",
"* c #7F8EFB",
"= c #E8A682",
"- c #ACB2FF",
"; c #D8FFDB",
": c None",
/* pixels */
"::::::::::::::&&&&&&&:::::::::::::::::::",
"::::::::::::%&&&&&**&%::::::::::::::::::",
":::::::::::%&&*******&%:::::::::::::::::",
":::::::::::&&****--**&&%::::::::::::::::",
":::::::::::%&****--***&%::::::::::::::::",
":::::::::::%&*****-***&&%:::::::::::::::",
"::::::::::.%&&**********%:::::::::::::::",
"::::::::::.%&&******--*;#:::::::::::::::",
"::::::::::%%&********%;;#:::::::::::::::",
"::::::::::%%&&*****&+;;#%:::::::::::::::",
"::::::::::%%&&**&*&++##%.:::::::::::::::",
"::::::::::%&&&&&*    %.  :::::::::::::::",
":::::::::::%%%&        * :::::::::::::::",
":::: XX &&&&.&&***    ** :::::::::::::::",
":::O#ooX*&&&&;++++++++**X ::::::::::::::",
"oooO#ooX--**;oo;=======++ ::::::::::::::",
"oooO ooX*-** ooooooooooo=+&&::::::::::::",
"+oo ooX &*+;;ooooo %&&&Xo=+**:::::::::::",
"o+o oo  %oo;++o+oooooo% &o=o%:::::::::::",
"o+&%ooXo o=;;;;;;==+++ooooo=ooooo:::::::",
"+%**XX &&*++++==;;;;;;;;;;;;;;;;+oo:::::",
"%&&-  &*****oo++++++==+===;;;;;;;;  ::::",
":%&&XX*--**-;;oooo++++++===+++====;oo++o",
":%% XX*****;;**&oooo *O@$@O ++++++ o+=;o",
"::.  X&&&**oo &&oooo O@$$$@O%o  o+ o  oo",
"::    %%.&&**&&ooooo O@**&&% :     :  oo",
"::::: .%%&&+; %%X o+ &&&%..:::::::::::::",
":::::::.%%&  &%.X o+  XXX &&::::::::::::",
"::::::::.. +%%+ .Xoo oXXX -&::::::::::::",
":::::::::: ++++   o+;oo  *-%::::::::::::",
":::::::::: o+ +oo o+;o   %%&&:::::::::::",
"::::::::::  ooooo  +;    &%%&&::::::::::",
"::::::::: o+ooooX o++&&   %%-&&&&:::::::",
"::::::::   ++oX  :::&&&&---*&***&&::::::",
"::::::::. +XX&-*&:  &%*&***--****&::::::",
":::::::%& X&**&&&   .%&&********&&::::::",
":::::::&&*&&&&%%     &.&&&&-%***&&::::::",
":::::::%***&%%.       .%%%%&&%&&..::::::",
":::::::.**%%%&             ..... :::::::",
":::::::%&***&&&                  :::::::",
":::::::%&*****&                 ::::::::",
":::::::.%&---*&               ::::::::::",
":::::::.&%&**&%            :::::::::::::",
"::::::::%&****%        :::::::::::::::::",
":::::::::%&*&%      ::::::::::::::::::::"
};
