/* XPM */
static char *result[] = {
/* columns rows colors chars-per-pixel */
"31 45 16 1 ",
"  c gray22",
". c #62026F",
"X c #006877",
"o c gray42",
"O c #947E00",
"+ c #56915C",
"@ c #B6B200",
"# c #AFE600",
"$ c #C4F35A",
"% c #5352B6",
"& c #7969CE",
"* c #7F8EFB",
"= c #E8A682",
"- c #ACB2FF",
"; c #D8FFDB",
": c None",
/* pixels */
"::::::::::::::%%%%:::::::::::::",
"::::::::::::%%&&&&%%:::::::::::",
":::::::::::&&***&&&&%::::::::::",
"::::::::::%&******&&&%:::::::::",
"::::::::::%&**---**&%%:::::::::",
"::::::::::%&**---**&%%:::::::::",
":::::::::.%&**--***&%%:::::::::",
":::::::::&&**---***&&%%::::::::",
":::::::::%&****-**&&&%%::::::::",
":::::::::.%#&****&&&&%.  ::::::",
"::::::::::#;;;;#&o &%% ooX+ :::",
"::::::::::#;#;;;#o  ***ooo o+::",
"::::::::::%#&#;#&  %&*&*oo oo::",
"::::::::::&       %o+oo*&X oo::",
":::::::XX *      &o+=o *&  &o::",
":::::: XX**&    &&+=   . oX %&:",
":::::: XX--***.&*+=o     oX &%:",
":::::: XX--*;&&&+=;    o&&o  &&",
"::::::oXXX*&-***+; oX o &*&  %&",
"::::::: XXX***&+;ooX oXo&&*%  :",
":::::::ooo ****=++X oX *&&*%. :",
"::::::%&XX &*&&++=ooX  *+ %..::",
"::::::%-oX&*&*X+;oXO  *&o%%%:::",
"::::::%& X&%*X+;+XO@O *&& .::::",
":::::::%  &. =;;  @@@ *&;..::::",
":::::::%.   =;;+ @$$@ && o ::::",
":::::::: oo; o+  $$@*&%% o ::::",
":::::::  oo.o+; &&&%.oo .::::::",
":::::::  X+;; ; ..%+ oo  ::::::",
"::::::: XX+ ; o&&;;+ XX  ::::::",
"::::::: XX +oo%&&;;+ XX  ::::::",
":::::: o*&XX  :&%==+ XX   :::::",
":::::: &**&  ::::   XX  & :::::",
"::::: %&&*&% ::::::   *-&%.::::",
":::::.&*&&%.:::::::: *&&%%%.:::",
"::::%&*&&%. :::::::.....%&&%:::",
":::%*&&*%% :::    ...&.%%&&%.::",
"::%&**&%%%.        ..%&**&&&%.:",
":%&&****&%.         .%&****&&%.",
"%&*****&%%.          .%&&***&%.",
"&*****&%%.            .%&**&&%.",
"%*-*&&%&.              .%&&&&%.",
"%&&&%%&.                ..%%%.:",
".%...%.                     :::",
":%&&%                   :::::::"
};
