/* XPM */
static char *result[] = {
/* columns rows colors chars-per-pixel */
"101 153 69 1 ",
"  c black",
". c #070707",
"X c #0B0B0B",
"o c #170F07",
"O c #0B1707",
"+ c #1F170B",
"@ c #131313",
"# c #1B1B1B",
"$ c #2F1B0B",
"% c #13230B",
"& c #17330F",
"* c #2B230F",
"= c #372313",
"- c #332B13",
"; c #3F2F17",
": c #3F2B1B",
"> c #232323",
", c #272727",
"< c #2F2F2F",
"1 c #373737",
"2 c gray23",
"3 c #432F1B",
"4 c #43331B",
"5 c #4B371B",
"6 c #533F1F",
"7 c #473323",
"8 c #4F3B23",
"9 c #4F3B27",
"0 c #4F3B2B",
"q c #533F2F",
"w c #1F4317",
"e c #27531B",
"r c #37732B",
"t c #5F4323",
"y c #5B472B",
"u c #574333",
"i c #5F4B37",
"p c #675333",
"a c #67533F",
"s c #775F3F",
"d c #434343",
"f c gray28",
"g c #4B4B4B",
"h c gray31",
"j c gray34",
"k c #5B5B5B",
"l c #6F5743",
"z c #775F4B",
"x c #7B634F",
"c c gray39",
"v c gray42",
"b c #6F6F6F",
"n c #777777",
"m c gray50",
"M c #836B4B",
"N c #836B57",
"B c #8B735B",
"V c #937B63",
"C c #439337",
"Z c #838383",
"A c #8B8B8B",
"S c #939393",
"D c #979797",
"F c #9F9F9F",
"G c gray67",
"H c gray70",
"J c #B7B7B7",
"K c gray75",
"L c None",
/* pixels */
"LLLLLLLLLLLLLLLLLLLLLLLLLLLLLLLLLLLLLLLLLLLLLLLLLLLLLLLLLLLLLLLLLLLLLLLLLLLLLLLLLLLLLLLLLLLLLLLLLLLLL",
"LLLLLLLLLLLLLL@####LLLLLLLLLLLLLLLLLLLLLLLLLLLLLLLLLLLLLLLLLLLLLLLLLLLLLLLLLLLLLLLLLLLLLLLLLLLLLLLLLL",
"LLLLLLLLLLLL@@,,<<>##LLLLLLLLLLLLLLLLLLLLLLLLLLLLLLLLLLLLLLLLLLLLLLLLLLLLLLLLLLLLLLLLLLLLLLLLLLLLLLLL",
"LLLLLLLLLLL#2ccddcd<>#LLLLLLLLLLLLLLLLLLLLLLLLLLLLLLLLLLLLLLLLLLLLLLLLLLLLLLLLLLLLLLLLLLLLLLLLLLLLLLL",
"LLLLLLLLLL#2c2d,,2><,#.LLLLLLLLLLLLLLLLLLLLLLLLLLLLLLLLLLLLLLLLLLLLLLLLLLLLLLLLLLLLLLLLLLLLLLLLLLLLLL",
"LLLLLLLLL@2ccd,,#,##>,@.LLLLLLLLLLLLLLLLLLLLLLLLLLLLLLLLLLLLLLLLLLLLLLLLLLLLLLLLLLLLLLLLLLLLLLLLLLLLL",
"LLLLLLLLL#cdcd,#@,#X###XLLLLLLLLLLLLLLLLLLLLLLLLLLLLLLLLLLLLLLLLLLLLLLLLLLLLLLLLLLLLLLLLLLLLLLLLLLLLL",
"LLLLLLLL@,2,dc,@.#@..@##.LLLLLLLLvccjLLLLLLLLLLLLLLLLLLLLLLLLLLLLLLLLLLLLLLLLLLLLLLLLLLLLLLLLLLLLLLLL",
"LLLLLLLL@,,,dc,@.@#...@#.XLLLLLjFFFnvjgLLLLLLLLLLLLLLLLLLLLLLLLLLLLLLLLLLLLLLLLLLLLLLLLLLLLLLLLLLLLLL",
"LLLLLLLL@,##,cd@. #@.  @@.LLLLjvAFFAnjkfLLLLLLLLLLLLLLLLLLLLLLLLLLLLLLLLLLLLLLLLLLLLLLLLLLLLLLLLLLLLL",
"LLLLLLLL@,##,2c#  @@   .@..LLgjcnFFFAvkhfLLLLLLLLLLLLLLLLLLLLLLLLLLLLLLLLLLLLLLLLLLLLLLLLLLLLLLLLLLLL",
"LLLLLLLL@####2c#   X  ,ff11,dghjvAFFFmjjd1LLLLLLLLLLLLLLLLLLLLLLLLLLLLLLLLLLLLLLLLLLLLLLLLLLLLLLLLLLL",
"LLLLLLLL@##X@>2@X    >dddd1>1ggjvnFFFAvjgdLLLLLLLLLLLLLLLLLLLLLLLLLLLLLLLLLLLLLLLLLLLLLLLLLLLLLLLLLLL",
"LLLLLLLLLX@XX>1#X   >dddddd<>dgjjvFFFFAvgd1LLLLLLLLLLLLLLLLLLLLLLLLLLLLLLLLLLLLLLLLLLLLLLLLLLLLLLLLLL",
"LLLLLLLLLX@XX@##@  #2222hddd>dfhjvAFFFFAnvdLLLLLLLLLLLLLLLLLLLLLLLLLLLLLLLLLLLLLLLLLLLLLLLLLLLLLLLLLL",
"LLLLLLLLLX@X @##@.#222222h2d<<ffhvnF111111j1LLLLLLLLLLLLLLLLLLLLLLLLLLLLLLLLLLLLLLLLLLLLLLLLLLLLLLLLL",
"LLLLLLLLL @# @#>#Xd221122c222<2fhhA<1#### #f2LLLLLLLLLLLLLLLLLLLLLLLLLLLLLLLLLLLLLLLLLLLLLLLLLLLLLLLL",
"LLLLLLLLL @@ @##@fdd111122h2222fhn<##@,,#@.#2LLLLLLLLLLLLLLLLLLLLLLLLLLLLLLLLLLLLLLLLLLLLLLLLLLLLLLLL",
"LLLLLLLLLL @ @#@,fdd211122v2122fv<#@##,f,#@.2LLLLLLLLLLLLLLLLLLLLLLLLLLLLLLLLLLLLLLLLLLLLLLLLLLLLLLLL",
"LLLLLLLLLL.  @@,gfd22112222nAFFnd@@@@#,22#@.#LLLLLLLLLLLLLLLLLLLLLLLLLLLLLLLLLLLLLLLLLLLLLLLLLLLLLLLL",
"LLLLLLLLLL  @@,,1dd22 ..#dd####@@ @  @#<g<#@.LLLLLLLLLLLLLLLLLLLLLLLLLLLLLLLLLLLLLLLLLLLLLLLLLLLLLLLL",
"LLLLLLL=556665$><22#.   fdd>##>@# @  @@<22#@..LLLLLLLLLLLLLLLLLLLLLLLLLLLLLLLLLLLLLLLLLLLLLLLLLLLLLLL",
"LLLLL=5yalaaa6$#<2#.    nddd#>>@#     @#<g,#@.LLLLLLLLLLLLLLLLLLLLLLLLLLLLLLLLLLLLLLLLLLLLLLLLLLLLLLL",
"LLLL=ylxxaa666;$#2.    fnddd,>>@@@    @@<22,#@ LLLLLLLLLLLLLLLLLLLLLLLLLLLLLLLLLLLLLLLLLLLLLLLLLLLLLL",
"LLL=yxayyya666;+#.     Kfddddf>,@@     @#,g,#@ LLLLLLLLLLLLLLLLLLLLLLLLLLLLLLLLLLLLLLLLLLLLLLLLLLLLLL",
"LL=yx655yya6668+#@   dJf2ddddd<>@@     @@,2g,#@ LLLLLLLLLLLLLLLLLLLLLLLLLLLLLLLLLLLLLLLLLLLLLLLLLLLLL",
"LL5x5$5666xsi68;#d##dJd22ddddff>>@X     @#,g2#X  LLLLLLLLLLLLLLLLLLLLLLLLLLLLLLLLLLLLLLLLLLLLLLLLLLLL",
"L$a5$5666zl7=-:;$#fnnf2ddddddfc>>@@     @X,2g,#@ LLLLLLLLLLLLLLLLLLLLLLLLLLLLLLLLLLLLLLLLLLLLLLLLLLLL",
"L53*5666z-0q6666$#222ddddddddfc1>>@X     @@>f1#@  LLLLLLLLLLLLLLLLLLLLLLLLLLLLLLLLLLLLLLLLLLLLLLLLLLL",
"$a5$666x=6zBp6yy3#<22ddddfddddhc>>@@     XX>1d>@X LLLLLLLLLLLLLLLLLLLLLLLLLLLLLLLLLLLLLLLLLLLLLLLLLLL",
"$5$*66z=-8sBp6yy5>#2ddd>@@@>ddhn1>>@X     X@>d1>@X LLLLLLLLLLLLLLLLLLLLLLLLLLLLLLLLLLLLLLLLLLLLLLLLLL",
"$5$36z*=88iBz6yy5$><2dXX    >ddnd>>@@     X.><d#@X LLLLLLLLLLLLLLLLLLLLLLLLLLLLLLLLLLLLLLLLLLLLLLLLLL",
"$3$3y9*55yaBNzapy$><2.      1ddcn1>@@      .@#2<#@X LLLLLLLLLLLLLLLLLLLLLLLLLLLLLLLLLLLLLLLLLLLLLLLLL",
"$$$3i=8yli9uu:=:35,>#       gddgnd>>@X     . #<2#X.  LLLLLLLLLLLLLLLLLLLLLLLLLLLLLLLLLLLLLLLLLLLLLLLL",
"$$$y=-py**:uu9=yy5$>X      gnd22cn1>@@       .#<2#X. LLLLLLLLLLLLLLLLLLLLLLLLLLLLLLLLLLLLLLLLLLLLLLLL",
"+$$*=p=*5y$8iz6yyy$>g     fmc222gnd#>@X       X#2<2cnn2LLLLLLLLLLLLLLLLLLLLLLLLLLLLLLLLLLLLLLLLLLLLLL",
"++$*9=-5i$5sVV6yy6$>gm  dJKc22222nc<#XX       X#<@c  >c@LLLLLLLLLLLLLLLLLLLLLLLLLLLLLLLLLLLLLLLLLLLLL",
"L+o$*88s$55iVVayy63><fnKKk1222222kH2##X.       X#@n >dn@LLLLLLLLLLLLLLLLLLLLLLLLLLLLLLLLLLLLLLLLLLLLL",
"L+o+=6z*555iVVBlp6;$#2221111112222Hj@@XX       X# dvnvd#LLLLLLLLLLLLLLLLLLLLLLLLLLLLLLLLLLLLLLLLLLLLL",
"L.o+5a**56laiu0===;$#<211111112111bH,@@.       .X @>,2,,LLLLLLLLLLLLLLLLLLLLLLLLLLLLLLLLLLLLLLLLLLLLL",
"L.o+6==ysi$=uui7666$#<221111111111dHj@@..      .@ >11d,# LLLLLLLLLLLLLLLLLLLLLLLLLLLLLLLLLLLLLLLLLLLL",
"Loo;y*8s$$$57iVp666;##222222@..#222Hb,@..      XX ,11d,# LLLLLLLLLLLLLLLLLLLLLLLLLLLLLLLLLLLLLLLLLLLL",
"Loo;*=p$$5s$sBVz666;$#2d22#.X   Xd2bH2#@..      X@ #@  #@ LLLLLLLLLLLLLLLLLLLLLLLLLLLLLLLLLLLLLLLLLLL",
"Loo3*9$55s$5sVVz6665$#<2d#X      >dgHk<#XX      @@#>@@@dvnb2LLLLLLLLLLLLLLLLLLLLLLLLLLLLLLLLLLLLLLLLL",
"LLoo$$55s$$5iVVVp666;##d2X       @ddnH2##X.      @#><<@c  >c@LLLLLLLLLLLLLLLLLLLLLLLLLLLLLLLLLLLLLLLL",
"LLo.o$4s$$55iBVVp666;$#2#         cdgHk<#@@     .@X@>2@n >dn@LLLLLLLLLLLLLLLLLLLLLLLLLLLLLLLLLLLLLLLL",
"LL..o;5$$554yBBVs6663$><1         mfdnH2#>@X   .  X@#< dcncd@LLLLLLLLLLLLLLLLLLLLLLLLLLLLLLLLLLLLLLLL",
"LL  o;+$$5;56sBBNpy66$>>g        gmffhHc,>@@      ..X> @>,1,>LLLLLLLLLLLLLLLLLLLLLLLLLLLLLLLLLLLLLLLL",
"LL  $;++;;8llMy0q:*=63>>g       gmffffHn1>>#@      . X ><1d,# LLLLLLLLLLLLLLLLLLLLLLLLLLLLLLLLLLLLLLL",
"LL  $+++8y+++30yii5663$>m      hKvffffnHd>,#@        X ><1d,# LLLLLLLLLLLLLLLLLLLLLLLLLLLLLLLLLLLLLLL",
"LL  oo+5+++8+=yBBs5566$>gmg   hJvfgfffhHc1,@@        .X @@@... LLLLLLLLLLLLLLLLLLLLLLLLLLLLLLLLLLLLLL",
"LLL.oo+++;t+;yBBBs5555;>1gKJJJJvfffddddnGf>>X.       .X@@>,##@.LLLLLLLLLLLLLLLLLLLLLLLLLLLLLLLLLLLLLL",
"LLL..o+;;po;;yBBBsi565;$>dfffffddfdddddhGc,#.        ..@><<>@X@ LLLLLLLLLLLLLLLLLLLLLLLLLLLLLLLLLLLLL",
"LLLo.o$;yo+;;ylBBVp6653$>1fffdddddddddddnb<#@         .X#<2<#@X  LLLLLLLLLLLLLLLLLLLLLLLLLLLLLLLLLLLL",
"LLL..o;6++;;;6MBBBsy566$,1ffdddddd2dddddgb2@@         ..X#22#XX. LLLLLLLLLLLLLLLLLLLLLLLLLLLLLLLLLLLL",
"LLL..o$++;;6yl9qqu7$*=63,,fdddd222222d222vj#@X          X#<2,#X   LLLLLLLLLLLLLLLLLLLLLLLLLLLLLLLLLLL",
"LLL..o=++6y4++=qui9i6663$><dd22222222dd21dv,@X          .X#11,@.  LLLLLLLLLLLLLLLLLLLLLLLLLLLLLLLLLLL",
"LLL...o+;++;4$:iBBBp6665$><dd22111222d2211v1#X          .X#,11@.   LLLLLLLLLLLLLLLLLLLLLLLLLLLLLLLLLL",
"LLLL.oo++$;l+$yBBBBz6666$#<dd21112222d2211dv>XX           .@<<>@    LLLLLLLLLLLLLLLLLLLLLLLLLLLLLLLLL",
"LLLL..o++;p+;;ylBBBz6655;##d221111222221111c<XX            @><,X    LLLLLLLLLLLLLLLLLLLLLLLLLLLLLLLLL",
"LLLL..o+;l++;;4lBVVzi555;$#<22111122222111<ch@@@            X,<>@.   LLLLLLLLLLLLLLLLLLLLLLLLLLLLLLLL",
"LLLL..o;po+;;;4lBBVVly555$#<22111111111111<2c>@X            X><1#XX  LLLLLLLLLLLLLLLLLLLLLLLLLLLLLLLL",
"LLLL  o$oo;56ylliuuu7$$*5;##22211111111111<<c<XX@            @,1,#X.  LLLLLLLLLLLLLLLLLLLLLLLLLLLLLLL",
"LLLL  o$o+5;+$$=uuiil5555=+#<2211111111111<<2c>@@            .@11#XX.  LLLLLLLLLLLLLLLLLLLLLLLLLLLLLL",
"LLLL..ooo5++$5$:iBBBly;44=+#<d221111<11<<<<<<c<@@X           .@,<,#X.  LLLLLLLLLLLLLLLLLLLLLLLLLLLLLL",
"LLLL..oo++$4s$$ilBBBBy;;45+#<d22111<<<<<<<<<<1c#@@            .@11<#X   LLLLLLLLLLLLLLLLLLLLLLLLLLLLL",
"LLLLL..oo;;l+555sBBBBy;;45=##222111<<<<<<<<<<<c>@@            .@,12#X.  LLLLLLLLLLLLLLLLLLLLLLLLLLLLL",
"LLLLL..o$;p+;455lBBNNl;445=+#<1111<<<<<<<<<<<<c<@@@.           .@12<#X   LLLLLLLLLLLLLLLLLLLLLLLLLLLL",
"LLLLL..o$po+;;6ixBBNNly554=+#,11<<<<<<<<<<<<<<1h>X@..          X#,12#XX   LLLLLLLLLLLLLLLLLLLLLLLLLLL",
"LLLLL...$oo;8yl8:uiNNNy4554+@@1<<<<<<<<<<<<<<<<h<X@@..          X#22<#X   LLLLLLLLLLLLLLLLLLLLLLLLLLL",
"LLLLL..o$oo5p+$*iBBNNBy;454+@@<<<<<<<<<<<<<<<<<1gX@@..          X#,11#XX   LLLLLLLLLLLLLLLLLLLLLLLLLL",
"LLLLL  ooo;t+$$5iBBBBNly;;;=@@<<<<<<<<<<<<<<<<<<g>X@#XX          X#11,#X   LLLLLLLLLLLLLLLLLLLLLLLLLL",
"LLLLL. ooo5o;;55iBBBBNNayy;=@@1<<<<<<<<<<<<<<<<<g2@@@XX          .@><<@..   LLLLLLLLLLLLLLLLLLLLLLLLL",
"LLLLLL  ooo;;;=5iBBBli54==+o@,111<<<<<<<<<<<<<<<1h,@##..           @<<>@..  LLLLLLLLLLLLLLLLLLLLLLLLL",
"LLLLLL   o$5$=4yBBzi8;;$+++##111<<<<<<<<<11<<<<<<g2@##..           @<<<>@.   LLLLLLLLLLLLLLLLLLLLLLLL",
"LLLLLL   $6o$;NNi833$$$$+++#,211<<<<<<<<1111<<<<<1h###.             @<<2ddffg11LLLLLLLLLLLLLLLLLLLLLL",
"LLLLLL   3o$;xa4;$$$$$$$$$##2211<<1<<<<<<<11<<<<<<h,#@@             >djjjjkkkggg1LLLLLLLLLLLLLLLLLLLL",
"LLLLLL  oo$;Mq=+$$$$$$$$$X#,111111<<<1<<<<1<1<<<<<<2#@@            1cccccvvkkkkff<>LLLLLLLLLLLLLLLLLL",
"LLLLLL  oo;p;=+$$$$$$$$$@@#2212111<<<<<<<<<<1<<<<<<2>@@@          <AAnnnmvvvvkkkfg<>LLLLLLLLLLLLLLLLL",
"LLLLLL  o=9;=+$$$$$$$$$$@#<222111111<<<<<<<111<<<<1<>XXX         <bZAAnnvvcjkkfff11<#LLLLLLLLLLLLLLLL",
"LLLLLLL $9;=++$$$$$$$$$#@>22221111111<<<<<<<111<<<<<>XXXX       <bbbZAAAmmccjjkkfff<<>LLLLLLLLLLLLLLL",
"LLLLLLL $8$o++$$$$$$$$##@<22222111<<1<<<<<<<11111<<<<@XXX      <bbbZZZnnnnnvvcjfff11<>.LLLLLLLLLLLLLL",
"LLLLLLLo$=ooo++$$$$$$$#@>22221111<<<<<<<<<<<<11111<<<@@@XX    <kkbbbbZAAnnccjjjjkkff<>>LLLLLLLLLLLLLL",
"LLLLLLLoo$ooo++$$$$$$@@@>22211<<<<<<<<<<<<1<<1111111<#@@XX   <ckkbbbZZAnnmnnnccjdd<<>>#.LLLLLLLLLLLLL",
"LLLLLLLoo$oooo+$$$$$@@#@<21111<<<<<<<<<<<<<1111111111<<<,,,<#2hkkccnnZAASAncccjjjddd<>##LLLLLLLLLLLLL",
"LLLLLLLooooooo++$$$$@@#@<2111111<<<<<<<<<<111111<1111111<2hh#2kkccnnnnnAAnnnmnccjjjdd<># LLLLLLLLLLLL",
"LLLLLLLL+ooooo+++$$$@@@>22111111<<<,,<<<<<<1111111111121112h2>hhcccnnAAAAAmmmcchhhdd<<<>>LLLLLLLLLLLL",
"LLLLLLLL++ooooo+++$$$@@>221111<<<<,,,<<<<<<111111<111<<1111hj>dccjcnmnmAASSSSnnkkhjjdd<>>.LLLLLLLLLLL",
"LLLLLLLL++ooooo+++$$$@@<211111<<<<<<,,<<<<<11111<<<1<<<1221djd<jjjvvcmmnASSmmcckgh22d<<<,XLLLLLLLLLLL",
"LLLLLLLL++ooooo+++$$$@@<211111<<<<<<<,<<<<<111111<<1<<<<22ddjj<djvjvvvmvSSSSSAnbbkkchjkf,,XLLLLLLLLLL",
"LLLLLLLL++oooooo+++$$@@<211111<<<<,,,,<<<<<111111<<<<<<<2222fjd<kkkvvvvvSSSSc1>      @@,f>XLLLLLLLLLL",
"LLLLLLLLL++ooooo+++$$$@#1111111<<<,,,,<<<<<1111111<<<<<<222ffkk1kkvvkvvmSS2>   O&&&OO   @,>.LLLLLLLLL",
"LLLLLLLLL+ooooooo+++$$@#1<1111<<<<,,,,,,<<<<11111111<<<<12222fkggfkkbbZDk,  OO&&&&&&&OOO  >.LLLLLLLLL",
"LLLLLLLLLL+oooooo+++$$@#,<<<<<<<<<,,,,,<<<<<<<<1111<<<11122dddgkfkkkbkDc  O&&&&&&&&&&&OOO .#LLLLLLLLL",
"LLLLLLLLLLooooooo+++$$@X,<<<<<<<<<,,,,,,,,,<<<<11111111111dddggkffkkcZd  &&&&&&&&&&&&&&OO  #LLLLLLLLL",
"LLLLLLLLLLLooooooo++$$$X@<<<<<<<<,,,,,,,,,<<<<111111<<1111d2d2ffjffgbd  &&&&&&&&&&&&&&&OOO #.LLLLLLLL",
"LLLLLLLLLLLLooooooo+$$$X#><<<<<<,,,,,,,,,,<<<1121111<<1112d2222dddfv2  &&&&&&&&&&&&&&&w&OO #.LLLLLLLL",
"LLLLLLLLLLLLLoooooo++$$XX><<<<<,,,,,,,,,,<<<<<11111<<11111122221ddj2  &&&&&rr&&&&&&&&&w&OO ##LLLLLLLL",
"LLLLLLLLLLLLLLooooo++++X.@<<<<<,,,,,,,,,,<<<<<11111111111112222ddj2  &&&&&&CCe&&&&&&&&w&OO .#LLLLLLLL",
"LLLLLLLLLLLLLLLLLoo++++o.@><,,,,,,,>,,,<<<<<<<11111<111222112ffdd2  &&&&&&eeeee&&&&&&&e&OO .#LLLLLLLL",
"LLLLLLLLLLLLLLLLLLLLLLLL. >,,,,,,,,>>,,<<<<<<<<<<<<<112222211      O&&&&&&eeeee&&&&&&&e&OO .#LLLLLLLL",
"LLLLLLLLLLLLLLLLLLLLLLLL. @,,>>,,,,,,>,,,<<<<<<<<<<<112222g2       &&&&&&&eewww%&&&&&&e&OO  #LLLLLLLL",
"LLLLLLLLLLLLLLLLLLLLLLLL. @,,,,>,>,,,,,,<,<<<<<<<<<<11222hb2      O&&&&&&&&www%%%&&&&we&O    LLLLLLLL",
"LLLLLLLLLLLLLLLLLLLLLLLLL X#,,,>>>>>>>,,,,,,<,,,,<<112222bh..     &&&&&&&&%%%%%%%%&&&weOO    LLLLLLLL",
"LLLLLLLLLLLLLLLLLLLLLLLLL  #,,,>>,>>>>>>,,,,,,,,,<<11222gv2       &&&&&&&&%%%%%%%%&&&ewOO    LLLLLLLL",
"LLLLLLLLLLLLLLLLLLLLLLLLL..X,,,,,,,,>>>>>,>,>,>>,<111222vf       O&&&&&&&&%%%%%%%%&&&e&O     LLLLLLLL",
"LLLLLLLLLLLLLLLLLLLLLLLLL..@#,<,,,,,,,,,,>>>>>,,<<111111A1       O&&&&&&&&&%%%%%%&&&wwOO     LLLLLLLL",
"LLLLLLLLLLLLLLLLLLLLLLLLLL.@#<<<<,,,,,,,,>>>>,,<<<11111fA        &&&&&&&&&&&%OO%&&&&e&O      LLLLLLLL",
"LLLLLLLLLLLLLLLLLLLLLLLLLL  @,,,,,,>>>>>>>>>,,<<<<11111cd        &&&&&&&&&&&&OO&&&&e&OO      LLLLLLLL",
"LLLLLLLLLLLLLLLLLLLLLLLLLL. X#,,,,,>>,,,>>>>,,<<<<<<111Zd        &&&&&&&&&&&&&&&&&e&OO      LLLLLLLLL",
"LLLLLLLLLLLLLLLLLLLLLLLLLL. @#,,,,,,,,,,>>>>,<<<<<<<<<dZ<        O&&&&&&&&&&&&&&&e&OO       LLLLLLLLL",
"LLLLLLLLLLLLLLLLLLLLLLLLLL   X,,>>>,,,,,,>>>,<<<<<<<<<ch<        O&&&&&&&&&&&&&we&OO        LLLLLLLLL",
"LLLLLLLLLLLLLLLLLLLLLLLLLLL  .#>>>,,,,,,,,,,,<<<<<<<<<md          O&&&&&&&&wweew&OO         LLLLLLLLL",
"LLLLLLLLLLLLLLLLLLLLLLLLLLL  .#,,,,,,,,,,,,,,,<<<<<<<<Zd          OO&&wwweeeew&OOO          LLLLLLLLL",
"LLLLLLLLLLLLLLLLLLLLLLLLLLL   X,,,<,,<,,,,,,,,<<<<<<<hm<           OOOOOOOOOOOOO            LLLLLLLLL",
"LLLLLLLLLLLLLLLLLLLLLLLLLLL   X#,<<,<<<<,<,<,<<<<<<<<mh<            OOOOOOOOOOO            LLLLLLLLLL",
"LLLLLLLLLLLLLLLLLLLLLLLLLLL   XX<<,<<<<,,<<<<<<<<1<<<Zh               OOOOOO               LLLLLLLLLL",
"LLLLLLLLLLLLLLLLLLLLLLLLLLLL   X#,,<<,,,<<<<<<<<<1<<<Zd                                    LLLLLLLLLL",
"LLLLLLLLLLLLLLLLLLLLLLLLLLLL   XX,<<<<,,<<<<1111<<<<<Af                                    LLLLLLLLLL",
"LLLLLLLLLLLLLLLLLLLLLLLLLLLL   X@><<<<<<<<<<1111111<jA1..                                  LLLLLLLLLL",
"LLLLLLLLLLLLLLLLLLLLLLLLLLLL    X@<<<<<<<<<111111111jv2..                                  LLLLLLLLLL",
"LLLLLLLLLLLLLLLLLLLLLLLLLLLLL   XX#<<<<<<<1111111111Ak2XX.                                 LLLLLLLLLL",
"LLLLLLLLLLLLLLLLLLLLLLLLLLLLL   XXX<<<<<<<1111211111AcXXX.                                LLLLLLLLLLL",
"LLLLLLLLLLLLLLLLLLLLLLLLLLLLL    XX<,<<<111111111122ShX@XX.                               LLLLLLLLLLL",
"LLLLLLLLLLLLLLLLLLLLLLLLLLLLL    XX#<<<111<111111222Sh@@XX..              o=-+.           LLLLLLLLLLL",
"LLLLLLLLLLLLLLLLLLLLLLLLLLLLL    XXX<,<1<<1111222222Dd@XXXX..            o+;=$+++         LLLLLLLLLLL",
"LLLLLLLLLLLLLLLLLLLLLLLLLLLLLL    XX#<<11<111222222dDdXXXXXX.           oo$3*+=+;o        LLLLLLLLLLL",
"LLLLLLLLLLLLLLLLLLLLLLLLLLLLLL    XX><<<1111122d2dddDdXXXXX...         ooo=3$+==;=o       LLLLLLLLLLL",
"LLLLLLLLLLLLLLLLLLLLLLLLLLLLLL     @@<<<<1<1122dddddDdXXXXXXX.        oooo=;$+$:7=$.      LLLLLLLLLLL",
"LLLLLLLLLLLLLLLLLLLLLLLLLLLLLL     @@<<<<<<1122dddddSdXXXXXXX.       +$ooo$3$oo$9$$$.     LLLLLLLLLLL",
"LLLLLLLLLLLLLLLLLLLLLLLLLLLLLLL     @><<<<<<122d2dddSd.XXXXXXX.      =$$oo$;$+o+93$$o     LLLLLLLLLLL",
"LLLLLLLLLLLLLLLLLLLLLLLLLLLLLLL     @><<<<<<112222d2S2.XXXXXX..     +=$$++;=$$oo=i$$+o    LLLLLLLLLLL",
"LLLLLLLLLLLLLLLLLLLLLLLLLLLLLLL     @X<<<<<<<1122222A2..XXXXX..    +==;+++7;$$$$$qq$+oo   LLLLLLLLLLL",
"LLLLLLLLLLLLLLLLLLLLLLLLLLLLLLLL     X<<<<<<<1111112A2...XXX....   +$$=+++;;o$$$+$iq$ooo  LLLLLLLLLLL",
"LLLLLLLLLLLLLLLLLLLLLLLLLLLLLLLL     X><<<<<<1111111A2....X.....  +*$--$++;=o$=$$$7a3oo;oLLLLLLLLLLLL",
"LLLLLLLLLLLLLLLLLLLLLLLLLLLLLLLL     X#<<<<<<1111111v1.........  .$=$3;$++;=+o=$$$$ua$+;$LLLLLLLLLLLL",
"LLLLLLLLLLLLLLLLLLLLLLLLLLLLLLLL     @X<,<<<<<111111c1  ..  ..   .-=$4;$++;;+o+;$$$7iq+$=$LLLLLLLLLLL",
"LLLLLLLLLLLLLLLLLLLLLLLLLLLLLLLL   .  X<,<,,<<<<1111cf          .+*=$-4*++$4+oo=$$$=ua:$$$LLLLLLLLLLL",
"LLLLLLLLLLLLLLLLLLLLLLLLLLLLLLLLL  .  @,,,<,,<<<<<1<cd         ..+:=$:4-+o+-*oo+;$$=3al+$=+LLLLLLLLLL",
"LLLLLLLLLLLLLLLLLLLLLLLLLLLLLLLLL     X#,,<<<<<<<<<<cj<         .+7=$+4-$oo$;+oo$;$$=0l9$=$.LLLLLLLLL",
"LLLLLLLLLLLLLLLLLLLLLLLLLLLLLLLLL .   X#,,,<<<<<<<<<dh<         .+*:$+$-*ooo;=ooo=$$=30a7$$o.LLLLLLLL",
"LLLLLLLLLLLLLLLLLLLLLLLLLLLLLLLLL .    #,,,<<<,,,,<<2k<          +*:$+$;*$oo+;$oo+$$o=:qa$$$o.LLLLLLL",
"LLLLLLLLLLLLLLLLLLLLLLLLLLLLLLLLL ..   X,,<<<<,,<<<<<k<          o+=$+$===$++$=+o+-+++::aa$$+.LLLLLLL",
"LLLLLLLLLLLLLLLLLLLLLLLLLLLLLLLLL      X,<<<<,,<<,<,<k2         o+o$=++-;-*+++-=$o$$oo$::77=$o.LLLLLL",
"LLLLLLLLLLLLLLLLLLLLLLLLLLLLLLLLLL     X,,<,<<<<<<<,,g1         ooo$=$++4--$++*;-$$$$o+::793=$..LLLLL",
"LLLLLLLLLLLLLLLLLLLLLLLLLLLLLLLLLL     X,,,,<<<<<<<,,g2         .$o$$$++$4--*++=7;$$$oo=347q=$+.LLLLL",
"LLLLLLLLLLLLLLLLLLLLLLLLLLLLLLLLLL     X#,,,,<<<,<<<<2h<        .+$o$$+oo:;--=$++==$$oo$8777q=$o.LLLL",
"LLLLLLLLLLLLLLLLLLLLLLLLLLLLLLLLLL      #,,,,,,<,,,<<<g,        oo++$$ooo$;;--*$++$$$oo+4uq708$o.LLLL",
"LLLLLLLLLLLLLLLLLLLLLLLLLLLLLLLLLL      #,,,,,,,,,<,,,h,        oooo$$++oo-===**$+$=$+oo=ii77i=$o.LLL",
"LLLLLLLLLLLLLLLLLLLLLLLLLLLLLLLLLLL.    #,,,>,,,,,,,,,2,        oooo$$$$$$$$;=$$$$o=$+oo$4i0:9u$+o.LL",
"LLLLLLLLLLLLLLLLLLLLLLLLLLLLLLLLLLL.    #,>>>>>,,>,,,,2,        ooooo$$$$$===$$$$$++=$oo+=3l3:u7$o.LL",
"LLLLLLLLLLLLLLLLLLLLLLLLLLLLLLLLLLL.    #,,,,,,,,,>>>,,,        ooooo$$+$**==$$$$$$o$$$o+$=7u:3l*$o.L",
"LLLLLLLLLLLLLLLLLLLLLLLLLLLLLLLLLLL..   #,,,,,,,,,,>>>,,        ooooo++++$$$$**$$$$$$$$+o+=:q7:0q;$oL"
};
