/* XPM */
static char *cdb3430b41894a1e8ad230733baa66ceZ3MsFFT61D6lHTdi[] = {
/* columns rows colors chars-per-pixel */
"48 83 155 2 ",
"   c None",
".  c #3F3404",
"X  c #3C361F",
"o  c #2E2E2D",
"O  c #302F2F",
"+  c #3D3820",
"@  c #30302F",
"#  c #2E2E30",
"$  c #2F3031",
"%  c #323232",
"&  c #383837",
"*  c #3C3C3A",
"=  c #423502",
"-  c #473A03",
";  c #4B3D03",
":  c #4F4106",
">  c #514204",
",  c #584703",
"<  c #514308",
"1  c #554B1D",
"2  c #614E05",
"3  c #665304",
"4  c #7F6907",
"5  c #7F6708",
"6  c #47422B",
"7  c #40403F",
"8  c #444443",
"9  c #484847",
"0  c #4A4A49",
"q  c #50504F",
"w  c #515150",
"e  c #585857",
"r  c #5D5D5D",
"t  c #656048",
"y  c #6A644E",
"u  c #6B6650",
"i  c #6D6853",
"p  c #716C55",
"a  c #676767",
"s  c #6D6D6D",
"d  c #726F61",
"f  c #757575",
"g  c #7D7D7D",
"h  c #836B07",
"j  c #836B08",
"k  c #997C06",
"l  c #927709",
"z  c #957909",
"x  c #997D09",
"c  c #9A7F12",
"v  c #A68609",
"b  c #AB8B0A",
"n  c #B39106",
"m  c #BB9501",
"M  c #BE9800",
"N  c #B4920B",
"B  c #BE9A0B",
"V  c #B49516",
"C  c #9B893A",
"Z  c #C19D0C",
"A  c #C29E10",
"S  c #C5A00C",
"D  c #CBA50C",
"F  c #CEA90C",
"G  c #D6AE0C",
"H  c #DFB60E",
"J  c #C7A212",
"K  c #C7A419",
"L  c #D7B016",
"P  c #E1B70E",
"I  c #E6BB0E",
"U  c #E8BE0E",
"Y  c #C7A627",
"T  c #C8A727",
"R  c #C7A728",
"E  c #C8A828",
"W  c #D9BA3B",
"Q  c #EEC007",
"!  c #EFC20E",
"~  c #F0C207",
"^  c #F1C40E",
"/  c #F7C90F",
"(  c #FCCD0F",
")  c #FCCC07",
"_  c #FFD007",
"`  c #FFD00C",
"'  c #EFC210",
"]  c #F1C410",
"[  c #F7C910",
"{  c #FDCE10",
"}  c #F2C81F",
"|  c #F0C61D",
" . c #FFD210",
".. c #F0C723",
"X. c #F2C821",
"o. c #F8CE23",
"O. c #FFD523",
"+. c #9C8E4B",
"@. c #B7A24B",
"#. c #918C76",
"$. c #9A957F",
"%. c #B9A963",
"&. c #B9AA69",
"*. c #DBBF4D",
"=. c #DBC051",
"-. c #F6DD77",
";. c #F7DE7A",
":. c #F8DF78",
">. c #FBE27A",
",. c #7E7F82",
"<. c #7F8084",
"1. c #838383",
"2. c #87888A",
"3. c #8D8D8D",
"4. c #9C9781",
"5. c #9F9A84",
"6. c #ADADAC",
"7. c #A4A4A4",
"8. c #B5B5B5",
"9. c #BCBCBC",
"0. c #FFEC83",
"q. c #F7E597",
"w. c #F7E69B",
"e. c #F9E79B",
"r. c #FAE89D",
"t. c #F7E7A5",
"y. c #FBEAA5",
"u. c #FBECAA",
"i. c #FFF4A6",
"p. c #FFF4AA",
"a. c #FFFAAC",
"s. c #FFF7B3",
"d. c #FFFCB7",
"f. c #BEBEC1",
"g. c gray77",
"h. c #CBCBCB",
"j. c #CECFD0",
"k. c #D1D2D3",
"l. c #D3D3D3",
"z. c #D0D1D1",
"x. c #D4D4D4",
"c. c #D7D8DA",
"v. c gray86",
"b. c #E5E5E5",
"n. c #EEEEEE",
"m. c #E9E9E9",
"M. c #F3F3F3",
"N. c #F1F1F1",
"B. c #F7F7F7",
"V. c #F5F5F5",
"C. c gray98",
"Z. c gray99",
"A. c #FDFDFD",
"S. c #FEFEFE",
"D. c white",
/* pixels */
"                                f #.g ,.g g g g g g g ,.g g g g                                 ",
"                                g g g g g g g g g g g g g g g g                                 ",
"                                g g g ,.g g g g g g g g g #.g g                                 ",
"                                g g g g g g g ,.g g g g g g g g                                 ",
"                        s f f g g g g g g g g g ,.g g ,.g g g g g f f f                         ",
"                        g g g g g g g g g g g g g g g g g ,.g g g g g f                         ",
"                        f 1.g g g g g g g g g g g g g g g g g g g g g g                         ",
"                        g g g g g g f g g g g g g ,.g g g g ,.g g g g g                         ",
"                f f g g g g g g h.v.v.c.9.8.8.6.0 8 9 8 8 8 8 q ,.g g g g f g f                 ",
"                g g g g g g g g n.S.S.S.x.h.l.9.% o # % % o o * g g g g g g g g                 ",
"                f g g g g g g 1.b.S.C.C.h.h.h.9.* @ % % % % % 8 g g g g g g g g                 ",
"                g g g g g g g 1.m.S.A.A.l.g.z.9.* @ % % % % % 8 g g g g g g g g                 ",
"        s ,.f g g g g g 6.g.9.9.V.S.A.A.x.g.z.9.* O @ % % % % % * 8 * q 1.g g g g g g f         ",
"        f ,.,.,.g g g g 9.c.h.z.V.S.S.A.z.h.h.9.* o % % % % % % % o o 8 1.g g g g g g g         ",
"        f #.g g g g g g 9.l.h.z.C.A.S.A.z.h.z.9.& @ @ @ % % % % % % O 8 g g g g g g g f         ",
"        f g g g g g g g 8.h.g.g.N.C.C.C.h.9.g.8.7 % & * % % % % % % % 8 1.g g g g g g f         ",
"        f g g g g g g g 1.2.1.2.g.x.z.z.3.,.1.1.f f f d % o % % % % # 8 1.g g g g g g g         ",
"        f g g g g g g g g g g ,.9.z.h.g.#.f g g g g g f % % % % % % $ 8 #.g g g g g g f         ",
"        f g g g g g g g f g f g 9.z.h.h.1.g g g g g ,.s % o o % % % # 9 ,.,.,.g g g g f         ",
"        g ,.g g 1.2.1.2.3.3.3.3.g.z.h.g.1.f g g g g g f * * * * % % # 8 f s f f g g g g         ",
"g g g g g g g g 8.h.g.g.n.C.V.V.l.h.h.h.1.g g g ,.g g g f g g a o % % % % % % 0 1.g g g g f ,.f ",
"g g g g g g g g 8.l.h.h.M.S.S.S.l.h.h.g.1.g g g g g g g g g g f % % % % % % % 9 1.g g g g g g f ",
"g g g g g g g g 8.l.h.h.N.S.C.Z.l.h.h.h.1.g g g g g g g g g g s o % % % % % % 0 ,.g g g g g ,.f ",
"g g g g g g g g 8.h.h.h.V.S.S.Z.l.h.h.h.1.f g g g g g g g g g s % % % % % % @ 8 1.g g g g g ,.f ",
"g ,.g g g g ,.f 8.z.h.h.M.S.S.S.x.h.h.h.1.g g g g g g g g g g f @ % % % % % % 9 1.g g g g g ,.f ",
"g g g ,.g g ,.g 8.z.h.h.M.S.S.Z.l.h.j.g.1.g g g g g g g g g g s o % % % % % @ 9 g g g g g g #.f ",
"g ,.g g g g ,.f 8.x.z.h.M.S.S.S.l.h.h.h.1.g g g g g g g ,.,.1.s % @ % % % o o 8 1.g g g g ,.g f ",
"g g g g g g g g 7.8.8.8.b.N.n.n.j.h.h.h.1.f g ,.g g g g a a a r @ % % & 9 0 8 e 1.g g g g g g f ",
"g g g g g g g g g g g g 8.j.h.h.h.h.h.h.1.g g g g g g f % o % $ % % o 8 1.g g ,.g g g g g g g f ",
"#.g g g ,.g g ,.g g g g 9.l.h.h.h.h.h.h.1.f g g g g g f % $ % % % % # 8 ,.g g g g g g g g g g f ",
"g ,.g ,.,.,.,.,.,.1.,.g f.c.j.l.l.l.l.j.2.g ,.,.,.,.,.f % # % % % % # 8 1.1.,.,.,.,.,.,.g g g f ",
"f f f ,.d t u u y u y y #.4.4.4.4.4.4.4.p u u u u y u t + + + + + + X 6 u i y y u u y d <.g f f ",
"        1 ; ; ; ; ; ; ; - - - - - - - - ; ; ; ; ; ; ; ; > , > > > > > > ; ; ; ; ; ; ; 1         ",
"        = < < ; < ; < ; ; < > ; ; < ; < > > ; > > ; > > ; ; ; > ; ; : ; : : : > ; ; ; -         ",
"        = - - ; ; ; - - - - - - ; - - - - - - - - - - - ; - - - ; - - ; ; - ; ; - - - 2         ",
"        h h h h l k x x C +.+.+.+.+.+.+.x k x x x x x x x x x x x x x z j h h h h h h k         ",
"Z A A S S D D Z U ( ( ) 0.s.p.p.p.p.p.i. .( { { ( ( ( ( { { { { ( ( ( ^ S S D D Z Z D Z m Z Z Z ",
"Z Z Z Z Z B Z B I ^ U ~ ;.t.w.w.e.w.w.q.| U ^ ! ^ ^ ^ ^ U [ ^ U U ^ ^ I B B B B Z Z Z Z Z Z Z Z ",
"Z Z Z Z Z Z Z Z P [ [ ^ ;.u.e.r.r.r.r.e.} ~ ] ^ ] ^ ^ ^ [ U U [ ^ ^ ^ U B Z Z Z Z Z Z Z Z Z Z m ",
"Z Z Z Z Z Z Z B P [ U ^ ;.t.e.r.r.r.r.q.} ~ ] ] ^ ^ ] ^ U [ [ U ^ ^ ^ I B Z Z Z Z Z Z Z Z Z Z Z ",
"Z Z Z Z Z Z Z Z P ^ ] ^ ;.y.w.r.r.r.e.e.} ~ ^ ^ U [ U U [ U U [ ^ ^ ^ I B Z Z Z Z Z Z Z Z Z Z m ",
"Z Z Z Z Z Z Z B P [ ] ~ ;.u.r.r.r.r.e.e.} ~ [ ^ [ U [ [ [ [ [ [ ^ ^ ^ I Z B Z Z Z Z Z Z Z Z Z Z ",
"Z Z Z Z Z Z Z B P ^ ! ^ ;.y.r.r.r.r.r.e.X.~ ] ^ [ [ [ [ U [ [ U ^ U ^ I Z Z Z Z Z Z Z Z Z Z Z Z ",
"Z Z Z Z Z Z Z B P ] ] ~ ;.u.e.r.r.r.r.e.} ~ ] ^ U [ U U [ U U [ [ ^ [ I B Z Z Z Z Z Z Z Z Z Z m ",
"Z Z Z Z Z Z Z B P [ ' ! ;.y.e.r.r.r.e.e.} ~ ] ^ [ U [ [ U [ [ U ^ ^ ^ I Z Z Z Z Z Z Z Z Z Z Z Z ",
"Z Z Z Z Z Z Z B P ] ] ~ ;.y.e.r.r.r.e.e.} ~ ] ] U [ [ U [ U [ [ [ U ^ I Z Z Z Z Z Z Z Z Z Z Z m ",
"Z Z Z Z Z Z Z B P [ ] ~ ;.u.e.r.r.r.r.e.X.~ ] ^ U [ U [ [ U [ U ^ ^ ^ I Z B Z Z Z Z Z Z Z Z Z Z ",
"Z Z Z Z Z Z Z Z P ] ' ~ ;.u.e.r.r.r.e.e.X.~ ] ] [ U [ [ U [ [ U [ U [ I Z Z Z Z Z Z Z Z Z Z Z m ",
"Z Z Z Z Z Z Z B P ^ ] Q ;.y.r.r.r.r.r.e.} U U [ [ U [ [ [ [ U [ [ [ U U Z Z Z Z Z Z Z Z Z Z Z Z ",
"Z Z Z Z Z Z Z B I ^ ] ^ ;.u.e.r.r.r.r.e.} ~ [ ^ U [ [ U U [ [ U U U [ U Z m Z Z Z Z Z Z Z Z Z m ",
"Z Z Z Z Z Z Z B P ^ ^ ~ ;.y.e.r.r.r.r.e.} ~ ^ ^ [ U U [ [ U U [ [ U U U N Z Z Z Z Z Z Z Z Z Z Z ",
"Z Z Z Z Z Z Z B P ^ ^ ~ ;.y.w.r.r.r.r.e.} ~ ^ ^ [ [ U [ [ U [ [ U [ U P Z Z Z Z Z Z Z Z Z Z Z m ",
"Z Z Z Z Z Z Z B P [ ] ~ ;.u.e.r.r.r.r.e.} U [ U U [ U [ [ U [ U [ U [ U Z Z Z Z Z Z Z Z Z Z Z Z ",
"Z Z Z Z Z Z Z Z P ] ' ! ;.t.e.r.r.r.r.e.} ^ U [ [ U [ U U [ U [ U [ [ U Z Z Z Z Z Z Z Z Z Z Z m ",
"Z Z Z Z Z Z Z B P ^ ] ~ ;.y.e.r.r.r.e.e.o.U U [ U U [ [ [ [ U [ U [ U U m Z Z Z Z Z Z Z Z Z Z Z ",
"Z Z Z Z Z Z Z B P ] ] ~ ;.t.e.r.r.e.e.q.} ) [ U [ [ U [ [ U [ U [ U [ U Z Z Z Z Z Z Z Z Z Z Z Z ",
"Z Z Z Z Z Z S B P ^ ] ! ;.y.r.r.r.r.r.e.X.~ [ [ [ U U [ U [ [ U U [ [ U Z Z Z Z Z Z Z Z Z Z Z m ",
"Z Z Z Z Z Z Z B P [ ] ~ ;.y.e.r.r.r.r.e.X.~ U [ U [ [ U [ U [ [ [ U U U Z Z Z Z Z Z Z Z Z Z Z Z ",
"Z Z Z Z Z Z Z B P [ ' Q ;.y.e.r.r.r.r.e.X.U [ ^ [ [ U [ [ U [ U [ U [ U Z Z Z Z Z Z Z Z Z Z Z Z ",
"Z Z Z Z Z Z Z B P ^ ] ~ ;.y.w.r.r.r.r.e.X.~ ^ ^ [ U [ [ U [ [ U U [ [ U Z Z Z Z Z Z Z Z Z Z Z Z ",
"Z Z Z Z Z Z Z B P [ ] Q ;.y.w.r.r.r.r.e.o./ U [ U U [ U [ [ U [ [ [ U U Z Z Z Z Z Z Z Z Z Z Z Z ",
"Z Z Z Z Z Z Z Z P ] ] ~ ;.y.e.r.r.r.r.e.X.U [ U [ [ [ [ U [ [ U U U [ U Z Z Z Z Z Z Z Z Z Z Z Z ",
"Z Z Z Z Z Z Z B P ] ' ~ ;.y.r.r.r.r.e.e.X.U [ [ [ [ U [ [ U U [ [ U U U Z Z Z Z Z Z Z Z Z Z Z Z ",
"Z Z Z Z Z Z Z B P ^ ] Q ;.y.w.r.r.e.e.e.} U U [ U U [ U [ U [ [ U [ U P m Z Z Z Z Z Z Z Z Z Z Z ",
"Z Z Z Z Z Z Z B P [ ] ~ ;.y.e.r.r.r.r.e.X.~ ] ^ ] / ] ^ ] ] ^ ] ! ! [ I Z B Z Z Z Z Z Z Z Z Z M ",
"Z Z Z Z Z Z Z B P ^ ] Q ;.y.e.r.r.r.r.r...~ ] ] ] ^ ^ ] ^ ^ ^ ^ [ ^ ' I B Z Z Z Z Z S Z Z Z Z M ",
"Z Z Z Z Z Z Z B P ] ] ~ ;.y.w.r.r.r.r.e...~ ] ^ ^ ] ^ ^ ] ] ] ^ ' ! ^ I Z Z S Z Z B B B Z Z Z M ",
"Z Z Z Z Z Z Z B H ^ ' Q -.y.w.r.w.r.r.e...~ ] ^ ] ! ] ^ ^ ! ^ ] ! ! [ I Z B B Z Z S B S Z Z Z M ",
"Z Z B Z Z Z Z Z P ^ ^ Q :.y.e.r.r.r.r.r.o.~ ] ^ ^ ^ [ [ ^ ^ ^ ^ ^ ^ ^ I B B S B S Z Z Z Z B Z M ",
"B Z Z Z S S S Z I [ [ ) >.p.i.r.i.y.y.r.o.) [ [ / ^ [ [ / / / ( [ [ ( ! S S S S S S S S Z Z Z m ",
"Z Z Z S v l k z b N N n @.&.%.%.%.%.%.%.V n N N N N N N N N N N N N N N z z x z z x z v S B Z B ",
"T Y Y J 3 . - - - = = = = = . = = = = = = = = = - = = = = = = = = = = = = - - = = - . 2 J R E K ",
"        = > ; ; : : ; : : ; : : : > : : : : : . : : : : : : : : : : ; : : : : ; : : : -         ",
"        = ; ; ; ; - ; - - - - - - - . . - ; . . - - - - - - : . - - - - ; - ; : ; ; - >         ",
"        h h h h l x x x C +.+.+.+.+.+.+.v v v v v v l z l v z v x x x z j h h h 4 h 4 v         ",
"        D D F S ^  .{ _ 0.d.p.a.a.a.a.a.o.^  . ./  . . .{  . ./  .`  ./ D D D F F D F D         ",
"Z Z Z Z B B B B H ^ ! U -.t.e.r.w.w.w.w...~ ] ] ] ] ] ^ ! ! ! ! ! ! ! I B B Z B B B Z B Z Z Z M ",
"Z Z Z Z Z Z Z B P ^ ' Q >.u.r.t.r.y.y.y.X.~ ] ^ ^ ^ ^ ^ ' ^ ] ^ ^ Q ] ! Z B Z Z B Z B S Z Z A M ",
"Z Z Z Z Z Z Z Z F G G G W *.*.*.=.=.=.=.L G G G G G G G G G G G G G G G Z Z Z Z Z Z Z Z Z Z Z M ",
"Z Z Z Z Z Z Z Z B B B B m m m m m m m m B N B B N B N B B N B B B B N B Z Z Z Z Z Z Z Z Z Z Z M ",
"Z Z Z Z Z Z Z B Z Z Z Z A Z A Z B Z Z Z Z Z Z Z Z Z Z Z Z Z Z Z Z Z Z Z Z Z Z Z Z Z Z Z Z Z Z M ",
"Z Z Z Z Z Z Z Z Z Z Z Z Z Z Z Z Z Z Z Z Z Z Z Z Z Z Z Z Z Z Z Z Z Z Z Z Z Z Z Z Z Z Z Z Z Z Z M ",
"Z Z Z Z Z Z Z Z Z Z Z Z Z Z Z Z Z Z Z Z Z Z Z Z Z Z Z Z Z Z Z Z Z Z Z Z Z Z Z Z Z Z Z Z Z Z Z M "
};
