/* XPM */
static char *a6fdf0f66dc24dd499d74e44798bdfb08Yx29YIIQGp9Ys2D[] = {
/* columns rows colors chars-per-pixel */
"16 16 2 1 ",
"  c None",
". c #FFDDAF",
/* pixels */
"     ......     ",
"   ..........   ",
"  ............  ",
" .............. ",
" .............. ",
"................",
"................",
"................",
"................",
"................",
"................",
" ...............",
" ...............",
"  ............  ",
"   ..........   ",
"     ......     "
};
