/* XPM */
static char *result[] = {
/* columns rows colors chars-per-pixel */
"64 128 36 1 ",
"  c #371515",
". c #381515",
"X c #391515",
"o c #381616",
"O c #391616",
"+ c #3A1616",
"@ c #3D1717",
"# c #3E1717",
"$ c #3F1818",
"% c #2D2E2F",
"& c #401717",
"* c #411717",
"= c #401818",
"- c #441B1A",
"; c #491919",
": c #4E1B1B",
"> c #491E1D",
", c #571D1D",
"< c #622020",
"1 c #632121",
"2 c #662121",
"3 c #6D2424",
"4 c #712525",
"5 c #722626",
"6 c #752626",
"7 c #762727",
"8 c #DA5353",
"9 c #DA5454",
"0 c #44C966",
"q c #E49696",
"w c #F9AAAA",
"e c #FCACAC",
"r c #FDACAC",
"t c #FEADAD",
"y c #FFAEAE",
"u c None",
/* pixels */
"uuuuuuuuuuuuuuuuuuuuuuuuuuuuuuuuuuuuuuuuuuuuuuuuuuuuuuuuuuuuuuuu",
"uuuuuuuuuuuuuuuuuuuuuuuuuuuuuuuuuuuuuuuuuuuuuuuuuuuuuuuuuuuuuuuu",
"uuuuuuuuuuuuuuuu  uuuuuuuuuuuuuuuuuu  uuuuuuuuuuuuuuuuuuuuuuuuuu",
"uuuuuuuuuuuuuuuu  uuuuuuuuuuuuuuuuuu  uuuuuuuuuuuuuuuuuuuuuuuuuu",
"uuuuuuuuuuuuuuuu  uuuuuuuuuuuuuuuuuu  uuuuuuuuuuuuuuuuuuuuuuuuuu",
"uuuuuuuuuuuuuuuu  uuuuuuuuuuuuuuuuuu  uuuuuuuuuuuuuuuuuuuuuuuuuu",
"uuuuuuuuuuuuuu                          uuuuuuuuuuuuuuuuuuuuuuuu",
"uuuuuuuuuuuuuu                          uuuuuuuuuuuuuuuuuuuuuuuu",
"uuuuuuuuuuuuuu                          uuuuuuuuuuuuuuuuuuuuuuuu",
"uuuuuuuuuuuuuu                          uuuuuuuuuuuuuuuuuuuuuuuu",
"uuuuuuuuuuuuuu                          uuuuuuuuuuuuuuuuuuuuuuuu",
"uuuuuuuuuuuuuu                          uuuuuuuuuuuuuuuuuuuuuuuu",
"uuuuuuuuuuuuuu  ======================  uuuuuuuuuuuuuuuuuuuuuuuu",
"uuuuuuuuuuuuuu  ======================  uuuuuuuuuuuuuuuuuuuuuuuu",
"uuuuuuuuuuuuuu  ======================  uuuuuuuuuuuuuuuuuuuuuuuu",
"uuuuuuuuuuuuuu  ======================  uuuuuuuuuuuuuuuuuuuuuuuu",
"uuuuuuuuuuuuuu  ====yy==========yy====  uuuuuuuuuuuuuuuuuuuuuuuu",
"uuuuuuuuuuuuuu  ====yy==========yy====  uuuuuuuuuuuuuuuuuuuuuuuu",
"uuuuuuuuuuuuuu  ====yy==========yy====  uuuuuuuuuuuuuuuuuuuuuuuu",
"uuuuuuuuuuuuuu  ====yy==========yy====  uuuuuuuuuuuuuuuuuuuuuuuu",
"uuuuuuuuuuuuuu  ====yy==========yy====  uuuuuuuuuuuuuuuuuuuuuuuu",
"uuuuuuuuuuuuuu  ====yy==========yy====  uuuuuuuuuuuuuuuuuuuuuuuu",
"uuuuuuuuuuuuuu  ====yy==========yy====  uuuuuuuuuuuuuuuuuuuuuuuu",
"uuuuuuuuuuuuuu  ====yy==========yy====  uuuuuuuuuuuuuuuuuuuuuuuu",
"uuuuuuuuuuuuuu  ====yy==========yy====  uuuuuuuuuuuuuuuuuuuuuuuu",
"uuuuuuuuuuuuuu  ====yy==========yy====  uuuuuuuuuuuuuuuuuuuuuuuu",
"uuuuuuuuuuuuuu  ====yy==========yy====  uuuuuuuuuuuuuuuuuuuuuuuu",
"uuuuuuuuuuuuuu  ====yy==========yy====  uuuuuuuuuuuuuuuuuuuuuuuu",
"uuuuuuuuuuuuuu  ====yy==========yy====  uuuuuuuuuuuuuuuuuuuuuuuu",
"uuuuuuuuuuuuuu  ====yy==========yy====  uuuuuuuuuuuuuuuuuuuuuuuu",
"uuuuuuuuuuuuuu  ======================  uuuuuuuuuuuuuuuuuuuuuuuu",
"uuuuuuuuuuuuuu  ======================  uuuuuuuuuuuuuuuuuuuuuuuu",
"uuuuuuuuuuuuuu  ======================  uuuuuuuuuuuuuuuuuuuuuuuu",
"uuuuuuuuuuuuuu  ======================  uuuuuuuuuuuuuuuuuuuuuuuu",
"uuuuuuuuuuuu77  ======================  77uuuuuuuuuuuuuuuuuuuuuu",
"uuuuuuuuuuuu77  ======================  77uuuuuuuuuuuuuuuuuuuuuu",
"uuuuuuuuuuuu77                          77uuuuuuuuuuuuuuuuuuuuuu",
"uuuuuuuuuuuu77                          77uuuuuuuuuuuuuuuuuuuuuu",
"uuuuuuuuuu7777<<<<                <<<<7777uuuuuuuuuuuuuuuuuuuuuu",
"uuuuuuuuuu7777<<<<                <<<<7777uuuuuuuuuuuuuuuuuuuuuu",
"uuuuuuuu777777<<<<                <<<<7777uuuuuuuuuuuuuuuuuuuuuu",
"uuuuuuuu777777<<<<                <<<<7777uuuuuuuuuuuuuuuuuuuuuu",
"uuuuuuuu777777<<<<                <<<<7777uuuuuuuuuuuuuuuuuuuuuu",
"uuuuuuuu777777<<<<                <<<<7777uuuuuuuuuuuuuuuuuuuuuu",
"uuuuuu77777777777777<<<<      <<227755777777uuuuuuuuuuuuuuuuuuuu",
"uuuuuu77777777777777<<<<      <<227755777777uuuuuuuuuuuuuuuuuuuu",
"uuuu7777777777777777<<<<      <<<<7755777777uuuuuuuuuuuuuuuuuuuu",
"uuuu7777777777777777<<<<      <<<<7755777777uuuuuuuuuuuuuuuuuuuu",
"uuuu77777777777777777777<<<<<<7777777777777777uuuuuuuuuuuuuuuuuu",
"uuuu77777777777777777777<<<<<<7777777777777777uuuuuuuuuuuuuuuuuu",
"uu7777777777777777777777<<<<<<7777777777777777uuuuuuuuuuuuuuuuuu",
"uu7777777777777777777777<<<<<<7777777777777777uuuuuuuuuuuuuuuuuu",
"7777777733;;,,**777777777777777777777777777777uuuuuuuuuuuuuuuuuu",
"7777777733;;,,**777777777777777777777777777777uuuuuuuuuuuuuuuuuu",
"77777777XX        ::77777777777777777777777777uuuuuuuuuuuuuuuuuu",
"77777777XX        ::77777777777777777777777777uuuuuuuuuuuuuuuuuu",
"77777777oo$$$$00##OO11777777777777777777777777uuuuuuuuuuuuuuuuuu",
"77777777oo$$$$00##OO11777777777777777777777777uuuuuuuuuuuuuuuuuu",
"77777777..====qq====@@&&7777777777777777777777uuuuuuuuuuuuuuuuuu",
"77777777..====qq====@@&&7777777777777777777777uuuuuuuuuuuuuuuuuu",
"77777744++==qqqqqq==    7777777777777777777777uuuuuuuuuuuuuuuuuu",
"77777744++==qqqqqq==    7777777777777777777777uuuuuuuuuuuuuuuuuu",
"uu777777OOttyyyyyyrr==                77777777uuuuuuuuuuuuuuuuuu",
"uu777777OOttyyyyyyrr==                77777777uuuuuuuuuuuuuuuuuu",
"uu777766  yy998888yy==                77777777uuuuuuuuuuuuuuuuuu",
"uu777766  yy998888yy==                77777777uuuuuuuuuuuuuuuuuu",
"uu777777  yy998888ww-->>>>>>>>>>      77777777uuuuuuuuuuuuuuuuuu",
"uu777777  yy998888ww-->>>>>>>>>>      77777777uuuuuuuuuuuuuuuuuu",
"uu777777  yy888888yy>>>>>>>>>>>>      77777777uuuuuuuuuuuuuuuuuu",
"uu777777  yy888888yy>>>>>>>>>>>>      77777777uuuuuuuuuuuuuuuuuu",
"uuuu7777  yyyyyyyyee>>>>>>>>>>>>>>    77777777uuuuuuuuuuuuuuuuuu",
"uuuu7777  yyyyyyyyee>>>>>>>>>>>>>>    77777777uuuuuuuuuuuuuuuuuu",
"uuuu7777  ooOO    >>>>>>>>>>>>>>>>    77777777uuuuuuuuuuuuuuuuuu",
"uuuu7777  ooOO    >>>>>>>>>>>>>>>>    77777777uuuuuuuuuuuuuuuuuu",
"uuuu7777  oooo    >>>>>>>>>>>>>>>>    77777777uuuuuuuuuuuuuuuuuu",
"uuuu7777  oooo    >>>>>>>>>>>>>>>>    77777777uuuuuuuuuuuuuuuuuu",
"uuuu77777777      >>>>>>>>>>>>>>>>    77777777uuuuuuuuuuuuuuuuuu",
"uuuu77777777      >>>>>>>>>>>>>>>>    77777777uuuuuuuuuuuuuuuuuu",
"uuuu77777777<<    >>>>>>>>>>>>>>>>    77777777uuuuuuuuuuuuuuuuuu",
"uuuu77777777<<    >>>>>>>>>>>>>>>>    77777777uuuuuuuuuuuuuuuuuu",
"uuuu77777777<<      >>>>>>>>>>>>      77777777uuuuuuuuuuuuuuuuuu",
"uuuu77777777<<      >>>>>>>>>>>>      77777777uuuuuuuuuuuuuuuuuu",
"uuuu77777777<<      >>>>>>>>>>>>      77777777uuuuuuuuuuuuuuuuuu",
"uuuu77777777<<      >>>>>>>>>>>>      77777777uuuuuuuuuuuuuuuuuu",
"uuuuuu77777777                        77777777uuuuuuuuuuuuuuuuuu",
"uuuuuu77777777                        77777777uuuuuuuuuuuuuuuuuu",
"uuuuuu77777777                        77777777uuuuuuuuuuuuuuuuuu",
"uuuuuu77777777                        77777777uuuuuuuuuuuuuuuuuu",
"uuuuuu77777777                        77777777uuuuuuuuuuuuuuuuuu",
"uuuuuu77777777                        77777777uuuuuuuuuuuuuuuuuu",
"uuuuuu77777777                        77777777uuuuuuuuuuuuuuuuuu",
"uuuuuu77777777                        77777777uuuuuuuuuuuuuuuuuu",
"uuuuuu77777777                        77777777uuuuuuuuuuuuuuuuuu",
"uuuuuu77777777                        77777777uuuuuuuuuuuuuuuuuu",
"uuuuuu77777777                        777777uuuuuuuuuuuuuuuuuuuu",
"uuuuuu77777777                        777777uuuuuuuuuuuuuuuuuuuu",
"uuuuuu77777777                        777777uuuuuuuuuuuuuuuuuuuu",
"uuuuuu77777777                        777777uuuuuuuuuuuuuuuuuuuu",
"uuuuuuuuuu7777      uuuuuuuuuuuu      7777uuuuuuuuuuuuuuuuuuuuuu",
"uuuuuuuuuu7777      uuuuuuuuuuuu      7777uuuuuuuuuuuuuuuuuuuuuu",
"uuuuuuuuuu7777      uuuuuuuuuuuu      7777uuuuuuuuuuuuuuuuuuuuuu",
"uuuuuuuuuu7777      uuuuuuuuuuuu      7777uuuuuuuuuuuuuuuuuuuuuu",
"uuuuuuuu%%%%77    %%%%%%%%%%%%%%%%    7777%%%%uuuuuuuuuuuuuuuuuu",
"uuuuuuuu%%%%77    %%%%%%%%%%%%%%%%    7777%%%%uuuuuuuuuuuuuuuuuu",
"uuuuuuuu%%%%77    %%%%%%%%%%%%%%%%    77%%%%%%uuuuuuuuuuuuuuuuuu",
"uuuuuuuu%%%%77    %%%%%%%%%%%%%%%%    77%%%%%%uuuuuuuuuuuuuuuuuu",
"uuuuuu%%%%%%77    %%%%%%%%%%%%%%%%    77%%%%%%uuuuuuuuuuuuuuuuuu",
"uuuuuu%%%%%%77    %%%%%%%%%%%%%%%%    77%%%%%%uuuuuuuuuuuuuuuuuu",
"uuuu%%%%%%%%%%    %%%%%%%%%%%%%%%%    77%%%%%%%%%%%%%%uuuuuuuuuu",
"uuuu%%%%%%%%%%    %%%%%%%%%%%%%%%%    77%%%%%%%%%%%%%%uuuuuuuuuu",
"uuuu%%%%%%%%%%    %%%%%%%%%%%%%%%%    %%%%%%%%%%%%%%%%uuuuuuuuuu",
"uuuu%%%%%%%%%%    %%%%%%%%%%%%%%%%    %%%%%%%%%%%%%%%%uuuuuuuuuu",
"%%%%%%%%%%%%%%    %%%%%%%%%%%%%%%%    %%%%%%%%%%%%%%%%%%%%uuuuuu",
"%%%%%%%%%%%%%%    %%%%%%%%%%%%%%%%    %%%%%%%%%%%%%%%%%%%%uuuuuu",
"%%%%%%%%%%%%%%    %%%%%%%%%%%%%%%%    %%%%%%%%%%%%%%%%%%%%uuuuuu",
"%%%%%%%%%%%%%%    %%%%%%%%%%%%%%%%    %%%%%%%%%%%%%%%%%%%%uuuuuu",
"uuuu%%%%%%%%%%%%%%%%%%%%%%%%%%%%%%%%%%%%%%%%%%%%%%%%%%uuuuuuuuuu",
"uuuu%%%%%%%%%%%%%%%%%%%%%%%%%%%%%%%%%%%%%%%%%%%%%%%%%%uuuuuuuuuu",
"uuuu%%%%%%%%%%%%%%%%%%%%%%%%%%%%%%%%%%%%%%%%%%%%%%%%%%uuuuuuuuuu",
"uuuu%%%%%%%%%%%%%%%%%%%%%%%%%%%%%%%%%%%%%%%%%%%%%%%%%%uuuuuuuuuu",
"uuuu%%%%%%%%%%%%%%%%%%%%%%%%%%%%%%%%%%%%%%%%%%%%%%%%%%uuuuuuuuuu",
"uuuu%%%%%%%%%%%%%%%%%%%%%%%%%%%%%%%%%%%%%%%%%%%%%%%%%%uuuuuuuuuu",
"uuuuuuuuuuuu%%%%%%%%%%%%%%%%%%%%%%%%%%%%%%%%%%uuuuuuuuuuuuuuuuuu",
"uuuuuuuuuuuu%%%%%%%%%%%%%%%%%%%%%%%%%%%%%%%%%%uuuuuuuuuuuuuuuuuu",
"uuuuuuuuuuuu%%%%%%%%%%%%%%%%%%%%%%%%%%%%%%%%%%uuuuuuuuuuuuuuuuuu",
"uuuuuuuuuuuu%%%%%%%%%%%%%%%%%%%%%%%%%%%%%%%%%%uuuuuuuuuuuuuuuuuu",
"uuuuuuuuuuuuuuuuuuuuuuuuuuuuuuuuuuuuuuuuuuuuuuuuuuuuuuuuuuuuuuuu",
"uuuuuuuuuuuuuuuuuuuuuuuuuuuuuuuuuuuuuuuuuuuuuuuuuuuuuuuuuuuuuuuu"
};
