/* XPM */
static char *result[] = {
/* columns rows colors chars-per-pixel */
"32 64 36 1 ",
"  c #371515",
". c #381515",
"X c #391515",
"o c #381616",
"O c #391616",
"+ c #3A1616",
"@ c #3D1717",
"# c #3E1717",
"$ c #3F1818",
"% c #2D2E2F",
"& c #401717",
"* c #411717",
"= c #401818",
"- c #441B1A",
"; c #491919",
": c #4E1B1B",
"> c #491E1D",
", c #571D1D",
"< c #622020",
"1 c #632121",
"2 c #662121",
"3 c #6D2424",
"4 c #712525",
"5 c #722626",
"6 c #752626",
"7 c #762727",
"8 c #DA5353",
"9 c #DA5454",
"0 c #44C966",
"q c #E49696",
"w c #F9AAAA",
"e c #FCACAC",
"r c #FDACAC",
"t c #FEADAD",
"y c #FFAEAE",
"u c None",
/* pixels */
"uuuuuuuuuuuuuuuuuuuuuuuuuuuuuuuu",
"uuuuuuuuu uuuuuuuuu uuuuuuuuuuuu",
"uuuuuuuuu uuuuuuuuu uuuuuuuuuuuu",
"uuuuuuuu             uuuuuuuuuuu",
"uuuuuuuu             uuuuuuuuuuu",
"uuuuuuuu             uuuuuuuuuuu",
"uuuuuuuu =========== uuuuuuuuuuu",
"uuuuuuuu =========== uuuuuuuuuuu",
"uuuuuuuu ==y=====y== uuuuuuuuuuu",
"uuuuuuuu ==y=====y== uuuuuuuuuuu",
"uuuuuuuu ==y=====y== uuuuuuuuuuu",
"uuuuuuuu ==y=====y== uuuuuuuuuuu",
"uuuuuuuu ==y=====y== uuuuuuuuuuu",
"uuuuuuuu ==y=====y== uuuuuuuuuuu",
"uuuuuuuu ==y=====y== uuuuuuuuuuu",
"uuuuuuuu =========== uuuuuuuuuuu",
"uuuuuuuu =========== uuuuuuuuuuu",
"uuuuuuu7 =========== 7uuuuuuuuuu",
"uuuuuuu7             7uuuuuuuuuu",
"uuuuuu77<<        <<77uuuuuuuuuu",
"uuuuu777<<        <<77uuuuuuuuuu",
"uuuuu777<<        <<77uuuuuuuuuu",
"uuuu7777777<<   <275777uuuuuuuuu",
"uuu77777777<<   <<75777uuuuuuuuu",
"uuu7777777777<<<77777777uuuuuuuu",
"uu77777777777<<<77777777uuuuuuuu",
"u77773;,*777777777777777uuuuuuuu",
"u7777X    :7777777777777uuuuuuuu",
"u7777o$$0#O1777777777777uuuuuuuu",
"u7777.==q==@&77777777777uuuuuuuu",
"u7774+=qqq=  77777777777uuuuuuuu",
"uu777Otyyyr=        7777uuuuuuuu",
"uu776 y988y=        7777uuuuuuuu",
"uu777 y988w->>>>>   7777uuuuuuuu",
"uu777 y888y>>>>>>   7777uuuuuuuu",
"uuu77 yyyye>>>>>>>  7777uuuuuuuu",
"uuu77 oO  >>>>>>>>  7777uuuuuuuu",
"uuu77 oo  >>>>>>>>  7777uuuuuuuu",
"uuu7777   >>>>>>>>  7777uuuuuuuu",
"uuu7777<  >>>>>>>>  7777uuuuuuuu",
"uuu7777<   >>>>>>   7777uuuuuuuu",
"uuu7777<   >>>>>>   7777uuuuuuuu",
"uuuu7777            7777uuuuuuuu",
"uuuu7777            7777uuuuuuuu",
"uuuu7777            7777uuuuuuuu",
"uuuu7777            7777uuuuuuuu",
"uuuu7777            7777uuuuuuuu",
"uuuu7777            777uuuuuuuuu",
"uuuu7777            777uuuuuuuuu",
"uuuuuu77   uuuuuu   77uuuuuuuuuu",
"uuuuuu77   uuuuuu   77uuuuuuuuuu",
"uuuuu%%7  %%%%%%%%  77%%uuuuuuuu",
"uuuuu%%7  %%%%%%%%  7%%%uuuuuuuu",
"uuuu%%%7  %%%%%%%%  7%%%uuuuuuuu",
"uuu%%%%%  %%%%%%%%  7%%%%%%%uuuu",
"uuu%%%%%  %%%%%%%%  %%%%%%%%uuuu",
"u%%%%%%%  %%%%%%%%  %%%%%%%%%%uu",
"u%%%%%%%  %%%%%%%%  %%%%%%%%%%uu",
"uuu%%%%%%%%%%%%%%%%%%%%%%%%%uuuu",
"uuu%%%%%%%%%%%%%%%%%%%%%%%%%uuuu",
"uuu%%%%%%%%%%%%%%%%%%%%%%%%%uuuu",
"uuuuuuu%%%%%%%%%%%%%%%%%uuuuuuuu",
"uuuuuuu%%%%%%%%%%%%%%%%%uuuuuuuu",
"uuuuuuuuuuuuuuuuuuuuuuuuuuuuuuuu"
};
