/* XPM */
static char *result[] = {
/* columns rows colors chars-per-pixel */
"96 96 13 1 ",
"  c #24523B",
". c #333941",
"X c #327051",
"o c #5A4E44",
"O c #328464",
"+ c #477D85",
"@ c #285CC4",
"# c #5DAF8D",
"$ c #588DBE",
"% c #249FDE",
"& c #20D6C7",
"* c #E3E6FF",
"= c None",
/* pixels */
"======================================OOXXOOOOOOOOOOOOOO##======================================",
"======================================OOXXOOOOOOOOOOOOOO##======================================",
"================================OOOOOOXXXXXXOOOOOOOOOO##########================================",
"================================OOOOOOXXXXXXOOOOOOOOOO##########================================",
"==========================OOOOOOXXOOXXXXXXXXOOOOOOOO##################==========================",
"==========================OOOOOOXXOOXXXXXXXXOOOOOOOO##################==========================",
"========================OOOOOOXXXXXXXXXXXXXXXXOOOOOO##################OO========================",
"========================OOOOOOXXXXXXXXXXXXXXXXOOOOOO##################OO========================",
"====================OOOOOOOOOOOOXXXXXXXXXXXXXXOOOOOO################OOOO@@@@====================",
"====================OOOOOOOOOOOOXXXXXXXXXXXXXXOOOOOO################OOOO@@@@====================",
"==================OOOOOOOOOOOOOOOOXXXXXXXXXXXXXXOOOO############OOOOOO%%@@OOOO==================",
"==================OOOOOOOOOOOOOOOOXXXXXXXXXXXXXXOOOO############OOOOOO%%@@OOOO==================",
"================OOOOOOOOOOOOOOOOOOOOOOXXXXXXXXOOOOOOOO############OOOO%%OOOO  ..================",
"================OOOOOOOOOOOOOOOOOOOOOOXXXXXXXXOOOOOOOO############OOOO%%OOOO  ..================",
"==============OOOOOOOOOOOOOOOOOOOOOOOOOOOOOOOOOOOOOOOOOO####OO##OOOO%%&&OO      ..==============",
"==============OOOOOOOOOOOOOOOOOOOOOOOOOOOOOOOOOOOOOOOOOO####OO##OOOO%%&&OO      ..==============",
"============OOOOOOOOOOOOOOOOOOOOOOOOOOOOOOOOOOOOooooOOOOOOOOOOOO%%**&&OOOOOO    ....============",
"============OOOOOOOOOOOOOOOOOOOOOOOOOOOOOOOOOOOOooooOOOOOOOOOOOO%%**&&OOOOOO    ....============",
"==========OOOOOOOOOOOOOO&&**OO############ooooooooooOOOOOOOOOO%%**&&&&OOOOOOOO  ......==========",
"==========OOOOOOOOOOOOOO&&**OO############ooooooooooOOOOOOOOOO%%**&&&&OOOOOOOO  ......==========",
"========OOOOOOOOOOOO******OO################OOooOOOOOOOOOOOO%%%%&&&&OOOOOOOO      ......========",
"========OOOOOOOOOOOO******OO################OOooOOOOOOOOOOOO%%%%&&&&OOOOOOOO      ......========",
"========OOOOOOOOOO********&&******########OOOOOOOOOOOOOOOOOO%%OOOOOOOOOOOO      ..  ....========",
"========OOOOOOOOOO********&&******########OOOOOOOOOOOOOOOOOO%%OOOOOOOOOOOO      ..  ....========",
"======OOOOOOOOOOOO******&&**####&&**######OOOOOOOOOOOOOO%%%%%%OOOOOOOOOO        ..  ......======",
"======OOOOOOOOOOOO******&&**####&&**######OOOOOOOOOOOOOO%%%%%%OOOOOOOOOO        ..  ......======",
"====OOOOOOOOOOOO##**************############OO##OOOOXX%%%%OO%%OO##OOOOOO          ..........====",
"====OOOOOOOOOOOO##**************############OO##OOOOXX%%%%OO%%OO##OOOOOO          ..........====",
"====OOOOOOOOOO######**************################XXXXXXOOOO%%######OOOOOO          ........====",
"====OOOOOOOOOO######**************################XXXXXXOOOO%%######OOOOOO          ........====",
"====OOOOOOOOOOOO######&&**************##########XXXXXXOOOOOOOOOO####OOOOOOOO    ..  ........====",
"====OOOOOOOOOOOO######&&**************##########XXXXXXOOOOOOOOOO####OOOOOOOO    ..  ........====",
"==OOOOOOOOOOOOOO########&&&&********&&****XX##XXXXXXXXXXOOOOOOOO######OOOO        &&  ........==",
"==OOOOOOOOOOOOOO########&&&&********&&****XX##XXXXXXXXXXOOOOOOOO######OOOO        &&  ........==",
"==OOOOOOOOOOOO############&&&&&&##OO**OOXXXXXXXXXXXXXXOOOOOOOOOOOO##ooOO        &&**..........==",
"==OOOOOOOOOOOO############&&&&&&##OO**OOXXXXXXXXXXXXXXOOOOOOOOOOOO##ooOO        &&**..........==",
"==OOOOOOOOOO##########%%######&&&&OOOOXXXXXXXXXXOOOOOO**&&ooooooooooooOO**    &&**  ..........==",
"==OOOOOOOOOO##########%%######&&&&OOOOXXXXXXXXXXOOOOOO**&&ooooooooooooOO**    &&**  ..........==",
"OOOOOOOOOO##########%%%%%%%%####OOOOOO##XXXXXXOO****&&&&OOOOooooooooOO**&&******&&&&  ..........",
"OOOOOOOOOO##########%%%%%%%%####OOOOOO##XXXXXXOO****&&&&OOOOooooooooOO**&&******&&&&  ..........",
"OOOOOOOOOOOO######%%%%%%##########OO######OOOO**&&&&&&OOOOOOOOOOOO&&**********&&&&  ....$$......",
"OOOOOOOOOOOO######%%%%%%##########OO######OOOO**&&&&&&OOOOOOOOOOOO&&**********&&&&  ....$$......",
"OOOOOOOOOO######%%%%%%##################OOOOOOOOOOOOOOOO          ******&&&&&&&&&&&&&&&&........",
"OOOOOOOOOO######%%%%%%##################OOOOOOOOOOOOOOOO          ******&&&&&&&&&&&&&&&&........",
"OOOOOOOOOO############################OOOOOOOOOOOO            OOOO**&&&&&&&&&&&&&&..  ..........",
"OOOOOOOOOO############################OOOOOOOOOOOO            OOOO**&&&&&&&&&&&&&&..  ..........",
"OOOOOOOOOOOO########################OOOOOOOOOOOOOOOO        OOOOOO  &&&&&&&&    &&&&............",
"OOOOOOOOOOOO########################OOOOOOOOOOOOOOOO        OOOOOO  &&&&&&&&    &&&&............",
"OOOOOOOOOOOOOO####################OOOOOOooOOOOOOOO            OOOOOOOO          ..  ............",
"OOOOOOOOOOOOOO####################OOOOOOooOOOOOOOO            OOOOOOOO          ..  ............",
"OOOOOOOOOOOOOOOOOO############OO####OOooooOOOO                  OOOOOO        ..  ..............",
"OOOOOOOOOOOOOOOOOO############OO####OOooooOOOO                  OOOOOO        ..  ..............",
"OOOOOOOOOOOOOOOO############OOOOOOooooooOOOOOOOOOOOOOOOO      OOOOOOOOOO    ..  ..  ............",
"OOOOOOOOOOOOOOOO############OOOOOOooooooOOOOOOOOOOOOOOOO      OOOOOOOOOO    ..  ..  ............",
"OOOOOOOOOOOOOOOOOO##oo########OOooooooOOOOOOOOOOOOOOOOOOOOOOOOOO    OO      ..    ..........++++",
"OOOOOOOOOOOOOOOOOO##oo########OOooooooOOOOOOOOOOOOOOOOOOOOOOOOOO    OO      ..    ..........++++",
"OOOOXXOOOOOOOOOOOOOOOOoo&&&&&&&&ooOOOOOOOOOOOOOOOOOO%%%%OOOOOO            ..  ............++++++",
"OOOOXXOOOOOOOOOOOOOOOOoo&&&&&&&&ooOOOOOOOOOOOOOOOOOO%%%%OOOOOO            ..  ............++++++",
"==XXXXXXOOXXXXXXOOOO&&****&&ooOOOOOOOOOOOOOOOOOOOOOO%%OOOOOOOO          ..  ..    ......$$++++==",
"==XXXXXXOOXXXXXXOOOO&&****&&ooOOOOOOOOOOOOOOOOOOOOOO%%OOOOOOOO          ..  ..    ......$$++++==",
"==OOXXXXXXXXXXXXXX**********OOOOOOOOOOOOOOOOOOOOOOOO%%%%OOOOOOOO        ..  ..  ......$$++++++==",
"==OOXXXXXXXXXXXXXX**********OOOOOOOOOOOOOOOOOOOOOOOO%%%%OOOOOOOO        ..  ..  ......$$++++++==",
"==OOXXXXXXXXXX&&&&&&&&************OOOOOOOOOO  &&&&OOOO%%%%  OO        ..  ..    ....$$$$++++++==",
"==OOXXXXXXXXXX&&&&&&&&************OOOOOOOOOO  &&&&OOOO%%%%  OO        ..  ..    ....$$$$++++++==",
"====OOXXXXXXXX&&&&&&&&&&&&******OOOOOOOO&&  &&&&OOOO&&&&%%%%            ..  ......$$$$++++++====",
"====OOXXXXXXXX&&&&&&&&&&&&******OOOOOOOO&&  &&&&OOOO&&&&%%%%            ..  ......$$$$++++++====",
"====OOOOXXXXXX&&&&&&&&&&&&&&&&&&&&&&&&&&&&&&&&&&&&&&      @@        ..  ..  $$$$$$$$$$++++++====",
"====OOOOXXXXXX&&&&&&&&&&&&&&&&&&&&&&&&&&&&&&&&&&&&&&      @@        ..  ..  $$$$$$$$$$++++++====",
"====OO%%%%XX%%%%&&&&&&&&&&&&&&&&&&&&&&&&&&&&&&++++        @@      ..  ..    ..$$$$$$++++++++====",
"====OO%%%%XX%%%%&&&&&&&&&&&&&&&&&&&&&&&&&&&&&&++++        @@      ..  ..    ..$$$$$$++++++++====",
"======OO%%%%%%OOOOOO&&&&&&&&&&&&&&&&&&&&++++++            @@    ..  ..  ........$$$$++++++======",
"======OO%%%%%%OOOOOO&&&&&&&&&&&&&&&&&&&&++++++            @@    ..  ..  ........$$$$++++++======",
"========%%OOOOOOOOOO&&&&&&&&++++++++++++++OO              @@@@  ..  ..  ....$$$$$$$$++++========",
"========%%OOOOOOOOOO&&&&&&&&++++++++++++++OO              @@@@  ..  ..  ....$$$$$$$$++++========",
"========%%OOOOOOOOOOOO&&&&++++++OOOOOO                      @@@@  ..  ..$$$$$$$$++++++++========",
"========%%OOOOOOOOOOOO&&&&++++++OOOOOO                      @@@@  ..  ..$$$$$$$$++++++++========",
"==========OOOOOOOOOOOOOOOOOO  ++++OO                ..  ..  ..@@@@  ..$$$$$$++++..++++==========",
"==========OOOOOOOOOOOOOOOOOO  ++++OO                ..  ..  ..@@@@  ..$$$$$$++++..++++==========",
"============OOOOOOOOOOOOOO      ++++++          ..  ..  ..  ..  @@@@@@....++++......============",
"============OOOOOOOOOOOOOO      ++++++          ..  ..  ..  ..  @@@@@@....++++......============",
"==============OOOO                        ..  ..  ..  ..  ..  ......@@............==============",
"==============OOOO                        ..  ..  ..  ..  ..  ......@@............==============",
"================                        ..  ..  ..      ............@@..........================",
"================                        ..  ..  ..      ............@@..........================",
"==================  ..  ..  ..  ..  ..  ..  ..    ..  ............@@@@........==================",
"==================  ..  ..  ..  ..  ..  ..  ..    ..  ............@@@@........==================",
"====================........  ..  ..  ..  ..  ....................@@........====================",
"====================........  ..  ..  ..  ..  ....................@@........====================",
"========================..........................................@@@@..========================",
"========================..........................................@@@@..========================",
"==========================..........................................@@==========================",
"==========================..........................................@@==========================",
"================================................................================================",
"================================................................================================",
"======================================....................======================================",
"======================================....................======================================"
};
