/* XPM */
static char *result[] = {
/* columns rows colors chars-per-pixel */
"64 64 6 1 ",
"  c #040509",
". c #191E21",
"X c #07323C",
"o c #0C4451",
"O c #0D5A6D",
"+ c None",
/* pixels */
"++++++++++++++++++++++++++++++++++++++++++++++++++++++++++++++++",
"++++++++++++++++++++++++++++++++++++++++++++++++++++++++++++++++",
"++++++++++++++++++++++++++++++++++++++++++++++++++++++++++++++++",
"++++++++++++++++++++++++++++++++++++++++++++++++++++++++++++++++",
"++++                                                        ++++",
"++++                                                        ++++",
"++  XXooooooooooooooooooooooooooooooooooooooooooooooooooooXX  ++",
"++  XXooooooooooooooooooooooooooooooooooooooooooooooooooooXX  ++",
"  XXooOOOOOOOOOOOOOOOOOOOOOOOOOOOOOOOOOOOOOOOOOOOOOOOOOOOOooXX  ",
"  XXooOOOOOOOOOOOOOOOOOOOOOOOOOOOOOOOOOOOOOOOOOOOOOOOOOOOOooXX  ",
"  ooOOOOooOOooOOOOOOOOOOOOOOOOOOOOOOOOOOOOOOOOOOOOooOOooOOOOoo  ",
"  ooOOOOooOOooOOOOOOOOOOOOOOOOOOOOOOOOOOOOOOOOOOOOooOOooOOOOoo  ",
"  ooOOooooOOOOOOOOOOOOOOOOOOOOOOOOOOOOOOOOOOOOOOOOOOOOooooOOoo  ",
"  ooOOooooOOOOOOOOOOOOOOOOOOOOOOOOOOOOOOOOOOOOOOOOOOOOooooOOoo  ",
"  ooOOOOOOOOOOOOOOOOOOOO................OOOOOOOOOOOOOOOOOOOOoo  ",
"  ooOOOOOOOOOOOOOOOOOOOO................OOOOOOOOOOOOOOOOOOOOoo  ",
"  ooOOooOOOOOOOOOOOO........................OOOOOOOOOOOOooOOoo  ",
"  ooOOooOOOOOOOOOOOO........................OOOOOOOOOOOOooOOoo  ",
"  ooOOOOOOOOOOOOOO............................OOOOOOOOOOOOOOoo  ",
"  ooOOOOOOOOOOOOOO............................OOOOOOOOOOOOOOoo  ",
"  ooOOOOOOOOOOOOOO............................OOOOOOOOOOOOOOoo  ",
"  ooOOOOOOOOOOOOOO............................OOOOOOOOOOOOOOoo  ",
"  ooOOOOOOOOOOOO..........OOOOOOOOOOOO..........OOOOOOOOOOOOoo  ",
"  ooOOOOOOOOOOOO..........OOOOOOOOOOOO..........OOOOOOOOOOOOoo  ",
"  ooOOOOOOOOOOOO........OOOOOOOOOOOOOOOO........OOOOOOOOOOOOoo  ",
"  ooOOOOOOOOOOOO........OOOOOOOOOOOOOOOO........OOOOOOOOOOOOoo  ",
"  ooOOOOOOOOOOOO......OOOOOOOOOOOOOOOOOOOO......OOOOOOOOOOOOoo  ",
"  ooOOOOOOOOOOOO......OOOOOOOOOOOOOOOOOOOO......OOOOOOOOOOOOoo  ",
"  ooOOOOOOOOOOOO......OOOOOOOOOOOOOOOOOOOO......OOOOOOOOOOOOoo  ",
"  ooOOOOOOOOOOOO......OOOOOOOOOOOOOOOOOOOO......OOOOOOOOOOOOoo  ",
"  ooOOOOOOOOOOOO......OOOOOOOOOOOOOOOOOOOO......OOOOOOOOOOOOoo  ",
"  ooOOOOOOOOOOOO......OOOOOOOOOOOOOOOOOOOO......OOOOOOOOOOOOoo  ",
"  ooOOOOOOOOOOOO........OOOOOOOOOOOOOOOO........OOOOOOOOOOOOoo  ",
"  ooOOOOOOOOOOOO........OOOOOOOOOOOOOOOO........OOOOOOOOOOOOoo  ",
"  ooOOOOOOOOOO..........OOOOOOOOOOOOOOOO..........OOOOOOOOOOoo  ",
"  ooOOOOOOOOOO..........OOOOOOOOOOOOOOOO..........OOOOOOOOOOoo  ",
"  ooOOOOOOOO............OOOOOOOOOOOOOOOO............OOOOOOOOoo  ",
"  ooOOOOOOOO............OOOOOOOOOOOOOOOO............OOOOOOOOoo  ",
"  ooOOOOOOOO............OOOOOOOOOOOOOOOO............OOOOOOOOoo  ",
"  ooOOOOOOOO............OOOOOOOOOOOOOOOO............OOOOOOOOoo  ",
"  ooOOOOOOOO............OOOOOOOOOOOOOOOO............OOOOOOOOoo  ",
"  ooOOOOOOOO............OOOOOOOOOOOOOOOO............OOOOOOOOoo  ",
"  ooOOOOOOOO............OOOOOOOOOOOOOOOO............OOOOOOOOoo  ",
"  ooOOOOOOOO............OOOOOOOOOOOOOOOO............OOOOOOOOoo  ",
"  ooOOOOOOOOOO..........OOOOOOOOOOOOOOOO..........OOOOOOOOOOoo  ",
"  ooOOOOOOOOOO..........OOOOOOOOOOOOOOOO..........OOOOOOOOOOoo  ",
"  ooOOOOOOOOOOOO........OOOOOOOOOOOOOOOO........OOOOOOOOOOOOoo  ",
"  ooOOOOOOOOOOOO........OOOOOOOOOOOOOOOO........OOOOOOOOOOOOoo  ",
"  ooOOOOOOOOOOOOOOOOOOOOOOOOOOOOOOOOOOOOOOOOOOOOOOOOOOOOOOOOoo  ",
"  ooOOOOOOOOOOOOOOOOOOOOOOOOOOOOOOOOOOOOOOOOOOOOOOOOOOOOOOOOoo  ",
"  ooOOooOOOOOOOOOOOOOOOOOOOOOOOOOOOOOOOOOOOOOOOOOOOOOOOOooOOoo  ",
"  ooOOooOOOOOOOOOOOOOOOOOOOOOOOOOOOOOOOOOOOOOOOOOOOOOOOOooOOoo  ",
"  ooOOOOOOOOOOOOOOOOOOOOOOOOOOOOOOOOOOOOOOOOOOOOOOOOOOOOOOOOoo  ",
"  ooOOOOOOOOOOOOOOOOOOOOOOOOOOOOOOOOOOOOOOOOOOOOOOOOOOOOOOOOoo  ",
"  ooOOooooOOOOOOOOOOOOOOOOOOOOOOOOOOOOOOOOOOOOOOOOOOOOooooOOoo  ",
"  ooOOooooOOOOOOOOOOOOOOOOOOOOOOOOOOOOOOOOOOOOOOOOOOOOooooOOoo  ",
"  ooOOOOooOOooOOOOOOOOOOOOOOOOOOOOOOOOOOOOOOOOOOOOooOOooOOOOoo  ",
"  ooOOOOooOOooOOOOOOOOOOOOOOOOOOOOOOOOOOOOOOOOOOOOooOOooOOOOoo  ",
"  XXooOOOOOOOOOOOOOOOOOOOOOOOOOOOOOOOOOOOOOOOOOOOOOOOOOOOOooXX  ",
"  XXooOOOOOOOOOOOOOOOOOOOOOOOOOOOOOOOOOOOOOOOOOOOOOOOOOOOOooXX  ",
"++  XXooooooooooooooooooooooooooooooooooooooooooooooooooooXX  ++",
"++  XXooooooooooooooooooooooooooooooooooooooooooooooooooooXX  ++",
"++++                                                        ++++",
"++++                                                        ++++"
};
