/* XPM */
static char *_286852586c544d2e2a83a0acd8618c9WE3AI4PR1niabdZh[] = {
/* columns rows colors chars-per-pixel */
"64 64 6 1 ",
"  c None",
". c #040509",
"X c #191E21",
"o c #07323C",
"O c #0C4451",
"+ c #0D5A6D",
/* pixels */
"                                                                ",
"                                                                ",
"                                                                ",
"                                                                ",
"    ........................................................    ",
"    ........................................................    ",
"  ..ooOOOOOOOOOOOOOOOOOOOOOOOOOOOOOOOOOOOOOOOOOOOOOOOOOOOOoo..  ",
"  ..ooOOOOOOOOOOOOOOOOOOOOOOOOOOOOOOOOOOOOOOOOOOOOOOOOOOOOoo..  ",
"..ooOO++++++++++++++++++++++++++++++++++++++++++++++++++++OOoo..",
"..ooOO++++++++++++++++++++++++++++++++++++++++++++++++++++OOoo..",
"..OO++++OO++OO++++++++++++++++++++++++++++++++++++OO++OO++++OO..",
"..OO++++OO++OO++++++++++++++++++++++++++++++++++++OO++OO++++OO..",
"..OO++OOOO++++++++++++++++++++++++++++++++++++++++++++OOOO++OO..",
"..OO++OOOO++++++++++++++++++++++++++++++++++++++++++++OOOO++OO..",
"..OO++++++++++++++++++++++++++++++++++++++++++++XXXX++++++++OO..",
"..OO++++++++++++++++++++++++++++++++++++++++++++XXXX++++++++OO..",
"..OO++OO++++++++++++++++XXXXXX++++XXXXXXXXXXXXXXXXXX++++OO++OO..",
"..OO++OO++++++++++++++++XXXXXX++++XXXXXXXXXXXXXXXXXX++++OO++OO..",
"..OO++++++++++++++++++XXXXXXXX++++XXXXXXXXXXXXXXXX++++++++++OO..",
"..OO++++++++++++++++++XXXXXXXX++++XXXXXXXXXXXXXXXX++++++++++OO..",
"..OO++++++++++++++++++XXXXXXXX++++XXXXXXXXXXXXXX++++++++++++OO..",
"..OO++++++++++++++++++XXXXXXXX++++XXXXXXXXXXXXXX++++++++++++OO..",
"..OO++++++++++++++++++XXXXXXXX++++XXXXXXXXXXXXXX++++++++++++OO..",
"..OO++++++++++++++++++XXXXXXXX++++XXXXXXXXXXXXXX++++++++++++OO..",
"..OO++++++++++++XXXXXXXXXXXXXX++++++++XXXXXX++++++++++++++++OO..",
"..OO++++++++++++XXXXXXXXXXXXXX++++++++XXXXXX++++++++++++++++OO..",
"..OO++++++++++XXXXXXXXXXXXXXXX++++++XXXXXX++++++++++++++++++OO..",
"..OO++++++++++XXXXXXXXXXXXXXXX++++++XXXXXX++++++++++++++++++OO..",
"..OO++++++++++XXXXXXXXXXXXXXXX++++XXXXXXXXXXXXXX++++++++++++OO..",
"..OO++++++++++XXXXXXXXXXXXXXXX++++XXXXXXXXXXXXXX++++++++++++OO..",
"..OO++++++++++XXXXXXXXXXXXXXXX++XXXXXXXXXXXXXXXX++++++++++++OO..",
"..OO++++++++++XXXXXXXXXXXXXXXX++XXXXXXXXXXXXXXXX++++++++++++OO..",
"..OO++++++++++XXXXXXXXXXXXXXXXXXXXXXXXXXXXXXXXXX++++++++++++OO..",
"..OO++++++++++XXXXXXXXXXXXXXXXXXXXXXXXXXXXXXXXXX++++++++++++OO..",
"..OO++++++++++XXXXXXXXXXXXXXXXXXXXXXXXXXXXXXXXXX++++++++++++OO..",
"..OO++++++++++XXXXXXXXXXXXXXXXXXXXXXXXXXXXXXXXXX++++++++++++OO..",
"..OO++++++++++XXXXXXXXXXXXXXXXXX++++++++++++++++++++++++++++OO..",
"..OO++++++++++XXXXXXXXXXXXXXXXXX++++++++++++++++++++++++++++OO..",
"..OO++++++++++++XXXXXXXXXXXXXX++++++++++++++++++++++++++++++OO..",
"..OO++++++++++++XXXXXXXXXXXXXX++++++++++++++++++++++++++++++OO..",
"..OO++++++++++++++++++XXXXXXXX++++XXXXXXXXXXXXXX++++++++++++OO..",
"..OO++++++++++++++++++XXXXXXXX++++XXXXXXXXXXXXXX++++++++++++OO..",
"..OO++++++++++++++++XXXXXXXXXX++++XXXXXXXXXXXXXX++++++++++++OO..",
"..OO++++++++++++++++XXXXXXXXXX++++XXXXXXXXXXXXXX++++++++++++OO..",
"..OO++++++++++++++XXXXXXXXXXXX++++XXXXXXXXXXXXXX++++++++++++OO..",
"..OO++++++++++++++XXXXXXXXXXXX++++XXXXXXXXXXXXXX++++++++++++OO..",
"..OO++++++++++++XXXXXX++XXXXXX++++XXXXXXXXXXXXXX++++++++++++OO..",
"..OO++++++++++++XXXXXX++XXXXXX++++XXXXXXXXXXXXXX++++++++++++OO..",
"..OO++++++++++XXXXXX++++++++++++++++++++++++++++++++++++++++OO..",
"..OO++++++++++XXXXXX++++++++++++++++++++++++++++++++++++++++OO..",
"..OO++OO++++++XXXX++++++++++++++++++++++++++++++++++++++OO++OO..",
"..OO++OO++++++XXXX++++++++++++++++++++++++++++++++++++++OO++OO..",
"..OO++++++++++++++++++++++++++++++++++++++++++++++++++++++++OO..",
"..OO++++++++++++++++++++++++++++++++++++++++++++++++++++++++OO..",
"..OO++OOOO++++++++++++++++++++++++++++++++++++++++++++OOOO++OO..",
"..OO++OOOO++++++++++++++++++++++++++++++++++++++++++++OOOO++OO..",
"..OO++++OO++OO++++++++++++++++++++++++++++++++++++OO++OO++++OO..",
"..OO++++OO++OO++++++++++++++++++++++++++++++++++++OO++OO++++OO..",
"..ooOO++++++++++++++++++++++++++++++++++++++++++++++++++++OOoo..",
"..ooOO++++++++++++++++++++++++++++++++++++++++++++++++++++OOoo..",
"  ..ooOOOOOOOOOOOOOOOOOOOOOOOOOOOOOOOOOOOOOOOOOOOOOOOOOOOOoo..  ",
"  ..ooOOOOOOOOOOOOOOOOOOOOOOOOOOOOOOOOOOOOOOOOOOOOOOOOOOOOoo..  ",
"    ........................................................    ",
"    ........................................................    "
};
