/* XPM */
static char *result[] = {
/* columns rows colors chars-per-pixel */
"64 64 6 1 ",
"  c #040509",
". c #191E21",
"X c #07323C",
"o c #0C4451",
"O c #0D5A6D",
"+ c None",
/* pixels */
"++++++++++++++++++++++++++++++++++++++++++++++++++++++++++++++++",
"++++++++++++++++++++++++++++++++++++++++++++++++++++++++++++++++",
"++++++++++++++++++++++++++++++++++++++++++++++++++++++++++++++++",
"++++++++++++++++++++++++++++++++++++++++++++++++++++++++++++++++",
"++++                                                        ++++",
"++++                                                        ++++",
"++  XXooooooooooooooooooooooooooooooooooooooooooooooooooooXX  ++",
"++  XXooooooooooooooooooooooooooooooooooooooooooooooooooooXX  ++",
"  XXooOOOOOOOOOOOOOOOOOOOOOOOOOOOOOOOOOOOOOOOOOOOOOOOOOOOOooXX  ",
"  XXooOOOOOOOOOOOOOOOOOOOOOOOOOOOOOOOOOOOOOOOOOOOOOOOOOOOOooXX  ",
"  ooOOOOooOOooOOOOOOOOOOOOOOOOOOOOOOOOOOOOOOOOOOOOooOOooOOOOoo  ",
"  ooOOOOooOOooOOOOOOOOOOOOOOOOOOOOOOOOOOOOOOOOOOOOooOOooOOOOoo  ",
"  ooOOooooOOOOOOOOOOOOOOOOOOOOOOOOOOOOOOOOOOOOOOOOOOOOooooOOoo  ",
"  ooOOooooOOOOOOOOOOOOOOOOOOOOOOOOOOOOOOOOOOOOOOOOOOOOooooOOoo  ",
"  ooOOOOOOOOOOOOOOOOOOOO................OOOOOOOO....OOOOOOOOoo  ",
"  ooOOOOOOOOOOOOOOOOOOOO................OOOOOOOO....OOOOOOOOoo  ",
"  ooOOooOOOOOOOOOOOO........................OO......OOOOooOOoo  ",
"  ooOOooOOOOOOOOOOOO........................OO......OOOOooOOoo  ",
"  ooOOOOOOOOOOOOOO................................OOOOOOOOOOoo  ",
"  ooOOOOOOOOOOOOOO................................OOOOOOOOOOoo  ",
"  ooOOOOOOOOOOOOOO..............................OOOOOOOOOOOOoo  ",
"  ooOOOOOOOOOOOOOO..............................OOOOOOOOOOOOoo  ",
"  ooOOOOOOOOOOOO..........OOOOOOOOOOOO..........OOOOOOOOOOOOoo  ",
"  ooOOOOOOOOOOOO..........OOOOOOOOOOOO..........OOOOOOOOOOOOoo  ",
"  ooOOOOOOOOOOOO........OOOOOOOOOOOOOO..........OOOOOOOOOOOOoo  ",
"  ooOOOOOOOOOOOO........OOOOOOOOOOOOOO..........OOOOOOOOOOOOoo  ",
"  ooOOOOOOOOOOOO......OOOOOOOOOOOOOO............OOOOOOOOOOOOoo  ",
"  ooOOOOOOOOOOOO......OOOOOOOOOOOOOO............OOOOOOOOOOOOoo  ",
"  ooOOOOOOOOOOOO......OOOOOOOOOOOO......OO......OOOOOOOOOOOOoo  ",
"  ooOOOOOOOOOOOO......OOOOOOOOOOOO......OO......OOOOOOOOOOOOoo  ",
"  ooOOOOOOOOOOOO......OOOOOOOOOO......OOOO......OOOOOOOOOOOOoo  ",
"  ooOOOOOOOOOOOO......OOOOOOOOOO......OOOO......OOOOOOOOOOOOoo  ",
"  ooOOOOOOOOOOOO........OOOOOO......OOOO........OOOOOOOOOOOOoo  ",
"  ooOOOOOOOOOOOO........OOOOOO......OOOO........OOOOOOOOOOOOoo  ",
"  ooOOOOOOOOOO..........OOOO......OOOOOO..........OOOOOOOOOOoo  ",
"  ooOOOOOOOOOO..........OOOO......OOOOOO..........OOOOOOOOOOoo  ",
"  ooOOOOOOOO............OO......OOOOOOOO............OOOOOOOOoo  ",
"  ooOOOOOOOO............OO......OOOOOOOO............OOOOOOOOoo  ",
"  ooOOOOOOOO..................OOOOOOOOOO............OOOOOOOOoo  ",
"  ooOOOOOOOO..................OOOOOOOOOO............OOOOOOOOoo  ",
"  ooOOOOOOOO................OOOOOOOOOOOO............OOOOOOOOoo  ",
"  ooOOOOOOOO................OOOOOOOOOOOO............OOOOOOOOoo  ",
"  ooOOOOOOOO..............OOOOOOOOOOOOOO............OOOOOOOOoo  ",
"  ooOOOOOOOO..............OOOOOOOOOOOOOO............OOOOOOOOoo  ",
"  ooOOOOOOOOOO..........OOOOOOOOOOOOOOOO..........OOOOOOOOOOoo  ",
"  ooOOOOOOOOOO..........OOOOOOOOOOOOOOOO..........OOOOOOOOOOoo  ",
"  ooOOOOOOOOOOOO........OOOOOOOOOOOOOOOO........OOOOOOOOOOOOoo  ",
"  ooOOOOOOOOOOOO........OOOOOOOOOOOOOOOO........OOOOOOOOOOOOoo  ",
"  ooOOOOOOOOOO......OOOOOOOOOOOOOOOOOOOOOOOOOOOOOOOOOOOOOOOOoo  ",
"  ooOOOOOOOOOO......OOOOOOOOOOOOOOOOOOOOOOOOOOOOOOOOOOOOOOOOoo  ",
"  ooOOooOOOOOO....OOOOOOOOOOOOOOOOOOOOOOOOOOOOOOOOOOOOOOooOOoo  ",
"  ooOOooOOOOOO....OOOOOOOOOOOOOOOOOOOOOOOOOOOOOOOOOOOOOOooOOoo  ",
"  ooOOOOOOOOOOOOOOOOOOOOOOOOOOOOOOOOOOOOOOOOOOOOOOOOOOOOOOOOoo  ",
"  ooOOOOOOOOOOOOOOOOOOOOOOOOOOOOOOOOOOOOOOOOOOOOOOOOOOOOOOOOoo  ",
"  ooOOooooOOOOOOOOOOOOOOOOOOOOOOOOOOOOOOOOOOOOOOOOOOOOooooOOoo  ",
"  ooOOooooOOOOOOOOOOOOOOOOOOOOOOOOOOOOOOOOOOOOOOOOOOOOooooOOoo  ",
"  ooOOOOooOOooOOOOOOOOOOOOOOOOOOOOOOOOOOOOOOOOOOOOooOOooOOOOoo  ",
"  ooOOOOooOOooOOOOOOOOOOOOOOOOOOOOOOOOOOOOOOOOOOOOooOOooOOOOoo  ",
"  XXooOOOOOOOOOOOOOOOOOOOOOOOOOOOOOOOOOOOOOOOOOOOOOOOOOOOOooXX  ",
"  XXooOOOOOOOOOOOOOOOOOOOOOOOOOOOOOOOOOOOOOOOOOOOOOOOOOOOOooXX  ",
"++  XXooooooooooooooooooooooooooooooooooooooooooooooooooooXX  ++",
"++  XXooooooooooooooooooooooooooooooooooooooooooooooooooooXX  ++",
"++++                                                        ++++",
"++++                                                        ++++"
};
