/* XPM */
static char *result[] = {
/* columns rows colors chars-per-pixel */
"64 64 6 1 ",
"  c #040509",
". c #191E21",
"X c #07323C",
"o c #0C4451",
"O c #0D5A6D",
"+ c None",
/* pixels */
"++++++++++++++++++++++++++++++++++++++++++++++++++++++++++++++++",
"++++++++++++++++++++++++++++++++++++++++++++++++++++++++++++++++",
"++++++++++++++++++++++++++++++++++++++++++++++++++++++++++++++++",
"++++++++++++++++++++++++++++++++++++++++++++++++++++++++++++++++",
"++++                                                        ++++",
"++++                                                        ++++",
"++  XXooooooooooooooooooooooooooooooooooooooooooooooooooooXX  ++",
"++  XXooooooooooooooooooooooooooooooooooooooooooooooooooooXX  ++",
"  XXooOOOOOOOOOOOOOOOOOOOOOOOOOOOOOOOOOOOOOOOOOOOOOOOOOOOOooXX  ",
"  XXooOOOOOOOOOOOOOOOOOOOOOOOOOOOOOOOOOOOOOOOOOOOOOOOOOOOOooXX  ",
"  ooOOOOooOOooOOOOOOOOOOOOOOOOOOOOOOOOOOOOOOOOOOOOooOOooOOOOoo  ",
"  ooOOOOooOOooOOOOOOOOOOOOOOOOOOOOOOOOOOOOOOOOOOOOooOOooOOOOoo  ",
"  ooOOooooOOOOOOOOOOOOOOOOOOOOOOOOOOOOOOOOOOOOOOOOOOOOooooOOoo  ",
"  ooOOooooOOOOOOOOOOOOOOOOOOOOOOOOOOOOOOOOOOOOOOOOOOOOooooOOoo  ",
"  ooOOOOOOOOOO........OOOOOOOOOOOOOOOOOOOO........OOOOOOOOOOoo  ",
"  ooOOOOOOOOOO........OOOOOOOOOOOOOOOOOOOO........OOOOOOOOOOoo  ",
"  ooOOooOOOOOO........OOOOOOOOOOOOOOOOOOOO........OOOOOOooOOoo  ",
"  ooOOooOOOOOO........OOOOOOOOOOOOOOOOOOOO........OOOOOOooOOoo  ",
"  ooOOOOOOOOOO............OOOOOOOOOOOO............OOOOOOOOOOoo  ",
"  ooOOOOOOOOOO............OOOOOOOOOOOO............OOOOOOOOOOoo  ",
"  ooOOOOOOOOOO............OOOOOOOOOOOO............OOOOOOOOOOoo  ",
"  ooOOOOOOOOOO............OOOOOOOOOOOO............OOOOOOOOOOoo  ",
"  ooOOOOOOOOOOOOOO............OOOO............OOOOOOOOOOOOOOoo  ",
"  ooOOOOOOOOOOOOOO............OOOO............OOOOOOOOOOOOOOoo  ",
"  ooOOOOOOOOOOOOOO............................OOOOOOOOOOOOOOoo  ",
"  ooOOOOOOOOOOOOOO............................OOOOOOOOOOOOOOoo  ",
"  ooOOOOOOOOOOOOOOOOOO....................OOOOOOOOOOOOOOOOOOoo  ",
"  ooOOOOOOOOOOOOOOOOOO....................OOOOOOOOOOOOOOOOOOoo  ",
"  ooOOOOOOOOOOOOOOOOOO....................OOOOOOOOOOOOOOOOOOoo  ",
"  ooOOOOOOOOOOOOOOOOOO....................OOOOOOOOOOOOOOOOOOoo  ",
"  ooOOOOOOOOOOOOOOOOOOOO................OOOOOOOOOOOOOOOOOOOOoo  ",
"  ooOOOOOOOOOOOOOOOOOOOO................OOOOOOOOOOOOOOOOOOOOoo  ",
"  ooOOOOOOOOOOOOOOOOOOOO................OOOOOOOOOOOOOOOOOOOOoo  ",
"  ooOOOOOOOOOOOOOOOOOOOO................OOOOOOOOOOOOOOOOOOOOoo  ",
"  ooOOOOOOOOOOOOOOOOOO....................OOOOOOOOOOOOOOOOOOoo  ",
"  ooOOOOOOOOOOOOOOOOOO....................OOOOOOOOOOOOOOOOOOoo  ",
"  ooOOOOOOOOOOOOOOOOOO....................OOOOOOOOOOOOOOOOOOoo  ",
"  ooOOOOOOOOOOOOOOOOOO....................OOOOOOOOOOOOOOOOOOoo  ",
"  ooOOOOOOOOOOOOOO............................OOOOOOOOOOOOOOoo  ",
"  ooOOOOOOOOOOOOOO............................OOOOOOOOOOOOOOoo  ",
"  ooOOOOOOOOOOOOOO............OOOO............OOOOOOOOOOOOOOoo  ",
"  ooOOOOOOOOOOOOOO............OOOO............OOOOOOOOOOOOOOoo  ",
"  ooOOOOOOOOOO............OOOOOOOOOOOO............OOOOOOOOOOoo  ",
"  ooOOOOOOOOOO............OOOOOOOOOOOO............OOOOOOOOOOoo  ",
"  ooOOOOOOOOOO............OOOOOOOOOOOO............OOOOOOOOOOoo  ",
"  ooOOOOOOOOOO............OOOOOOOOOOOO............OOOOOOOOOOoo  ",
"  ooOOOOOOOOOO........OOOOOOOOOOOOOOOOOOOO........OOOOOOOOOOoo  ",
"  ooOOOOOOOOOO........OOOOOOOOOOOOOOOOOOOO........OOOOOOOOOOoo  ",
"  ooOOOOOOOOOO........OOOOOOOOOOOOOOOOOOOO........OOOOOOOOOOoo  ",
"  ooOOOOOOOOOO........OOOOOOOOOOOOOOOOOOOO........OOOOOOOOOOoo  ",
"  ooOOooOOOOOOOOOOOOOOOOOOOOOOOOOOOOOOOOOOOOOOOOOOOOOOOOooOOoo  ",
"  ooOOooOOOOOOOOOOOOOOOOOOOOOOOOOOOOOOOOOOOOOOOOOOOOOOOOooOOoo  ",
"  ooOOOOOOOOOOOOOOOOOOOOOOOOOOOOOOOOOOOOOOOOOOOOOOOOOOOOOOOOoo  ",
"  ooOOOOOOOOOOOOOOOOOOOOOOOOOOOOOOOOOOOOOOOOOOOOOOOOOOOOOOOOoo  ",
"  ooOOooooOOOOOOOOOOOOOOOOOOOOOOOOOOOOOOOOOOOOOOOOOOOOooooOOoo  ",
"  ooOOooooOOOOOOOOOOOOOOOOOOOOOOOOOOOOOOOOOOOOOOOOOOOOooooOOoo  ",
"  ooOOOOooOOooOOOOOOOOOOOOOOOOOOOOOOOOOOOOOOOOOOOOooOOooOOOOoo  ",
"  ooOOOOooOOooOOOOOOOOOOOOOOOOOOOOOOOOOOOOOOOOOOOOooOOooOOOOoo  ",
"  XXooOOOOOOOOOOOOOOOOOOOOOOOOOOOOOOOOOOOOOOOOOOOOOOOOOOOOooXX  ",
"  XXooOOOOOOOOOOOOOOOOOOOOOOOOOOOOOOOOOOOOOOOOOOOOOOOOOOOOooXX  ",
"++  XXooooooooooooooooooooooooooooooooooooooooooooooooooooXX  ++",
"++  XXooooooooooooooooooooooooooooooooooooooooooooooooooooXX  ++",
"++++                                                        ++++",
"++++                                                        ++++"
};
