/* XPM */
static char *result[] = {
/* columns rows colors chars-per-pixel */
"64 64 6 1 ",
"  c #040509",
". c #191E21",
"X c #07323C",
"o c #0C4451",
"O c #0D5A6D",
"+ c None",
/* pixels */
"++++++++++++++++++++++++++++++++++++++++++++++++++++++++++++++++",
"++++++++++++++++++++++++++++++++++++++++++++++++++++++++++++++++",
"++++++++++++++++++++++++++++++++++++++++++++++++++++++++++++++++",
"++++++++++++++++++++++++++++++++++++++++++++++++++++++++++++++++",
"+++                                                        +++++",
"+++                                                        +++++",
"+  XXooooooooooooooooooooooooooooooooooooooooooooooooooooXX  +++",
"+  XXooooooooooooooooooooooooooooooooooooooooooooooooooooXX  +++",
" XXooOOOOOOOOOOOOOOOOOOOOOOOOOOOOOOOOOOOOOOOOOOOOOOOOOOOOooXX  +",
" XXooOOOOOOOOOOOOOOOOOOOOOOOOOOOOOOOOOOOOOOOOOOOOOOOOOOOOooXX  +",
" ooOOOOooOOooOOOOOOOOOOOOOOOOOOOOOOOOOOOOOOOOOOOOooOOooOOOOoo  +",
" ooOOOOooOOooOOOOOOOOOOOOOOOOOOOOOOOOOOOOOOOOOOOOooOOooOOOOoo  +",
" ooOOooooOOOOOOOOOOOOOOOOOOOOOOOOOOOOOOOOOOOOOOOOOOOOooooOOoo  +",
" ooOOooooOOOOOOOOOOOOOOOOOOOOOOOOOOOOOOOOOOOOOOOOOOOOooooOOoo  +",
" ooOOOOOOOOOOOOOOOOOOOOOOOOOOOOOOOOOOOOOOOOOOOOOOOOOOOOOOOOoo  +",
" ooOOOOOOOOOOOOOOOOOOOOOOOOOOOOOOOOOOOOOOOOOOOOOOOOOOOOOOOOoo  +",
" ooOOooOOOOOOOOOOOOOOOO......OOOO..............OOOOOOOOooOOoo  +",
" ooOOooOOOOOOOOOOOOOOOO......OOOO..............OOOOOOOOooOOoo  +",
" ooOOOOOOOOOOOOOOOOOO........OOOO..............OOOOOOOOOOOOoo  +",
" ooOOOOOOOOOOOOOOOOOO........OOOO..............OOOOOOOOOOOOoo  +",
" ooOOOOOOOOOOOOOOOOOO........OOOO..............OOOOOOOOOOOOoo  +",
" ooOOOOOOOOOOOOOOOOOO........OOOO..............OOOOOOOOOOOOoo  +",
" ooOOOOOOOOOOOOOOOOOO........OOOO..............OOOOOOOOOOOOoo  +",
" ooOOOOOOOOOOOOOOOOOO........OOOO..............OOOOOOOOOOOOoo  +",
" ooOOOOOOOOOOOO..............OOOOOOOOOOOOOOOOOOOOOOOOOOOOOOoo  +",
" ooOOOOOOOOOOOO..............OOOOOOOOOOOOOOOOOOOOOOOOOOOOOOoo  +",
" ooOOOOOOOOOO................OOOOOOOOOOOOOOOOOOOOOOOOOOOOOOoo  +",
" ooOOOOOOOOOO................OOOOOOOOOOOOOOOOOOOOOOOOOOOOOOoo  +",
" ooOOOOOOOOOO................OOOO..............OOOOOOOOOOOOoo  +",
" ooOOOOOOOOOO................OOOO..............OOOOOOOOOOOOoo  +",
" ooOOOOOOOOOO................OOOO..............OOOOOOOOOOOOoo  +",
" ooOOOOOOOOOO................OOOO..............OOOOOOOOOOOOoo  +",
" ooOOOOOOOOOO................OOOO..............OOOOOOOOOOOOoo  +",
" ooOOOOOOOOOO................OOOO..............OOOOOOOOOOOOoo  +",
" ooOOOOOOOOOO................OOOO..............OOOOOOOOOOOOoo  +",
" ooOOOOOOOOOO................OOOO..............OOOOOOOOOOOOoo  +",
" ooOOOOOOOOOO................OOOOOOOOOOOOOOOOOOOOOOOOOOOOOOoo  +",
" ooOOOOOOOOOO................OOOOOOOOOOOOOOOOOOOOOOOOOOOOOOoo  +",
" ooOOOOOOOOOOOO..............OOOOOOOOOOOOOOOOOOOOOOOOOOOOOOoo  +",
" ooOOOOOOOOOOOO..............OOOOOOOOOOOOOOOOOOOOOOOOOOOOOOoo  +",
" ooOOOOOOOOOOOOOOOOOO........OOOO..............OOOOOOOOOOOOoo  +",
" ooOOOOOOOOOOOOOOOOOO........OOOO..............OOOOOOOOOOOOoo  +",
" ooOOOOOOOOOOOOOOOOOO........OOOO..............OOOOOOOOOOOOoo  +",
" ooOOOOOOOOOOOOOOOOOO........OOOO..............OOOOOOOOOOOOoo  +",
" ooOOOOOOOOOOOOOOOOOO........OOOO..............OOOOOOOOOOOOoo  +",
" ooOOOOOOOOOOOOOOOOOO........OOOO..............OOOOOOOOOOOOoo  +",
" ooOOOOOOOOOOOOOOOOOOOO......OOOO..............OOOOOOOOOOOOoo  +",
" ooOOOOOOOOOOOOOOOOOOOO......OOOO..............OOOOOOOOOOOOoo  +",
" ooOOOOOOOOOOOOOOOOOOOOOOOOOOOOOOOOOOOOOOOOOOOOOOOOOOOOOOOOoo  +",
" ooOOOOOOOOOOOOOOOOOOOOOOOOOOOOOOOOOOOOOOOOOOOOOOOOOOOOOOOOoo  +",
" ooOOooOOOOOOOOOOOOOOOOOOOOOOOOOOOOOOOOOOOOOOOOOOOOOOOOooOOoo  +",
" ooOOooOOOOOOOOOOOOOOOOOOOOOOOOOOOOOOOOOOOOOOOOOOOOOOOOooOOoo  +",
" ooOOOOOOOOOOOOOOOOOOOOOOOOOOOOOOOOOOOOOOOOOOOOOOOOOOOOOOOOoo  +",
" ooOOOOOOOOOOOOOOOOOOOOOOOOOOOOOOOOOOOOOOOOOOOOOOOOOOOOOOOOoo  +",
" ooOOooooOOOOOOOOOOOOOOOOOOOOOOOOOOOOOOOOOOOOOOOOOOOOooooOOoo  +",
" ooOOooooOOOOOOOOOOOOOOOOOOOOOOOOOOOOOOOOOOOOOOOOOOOOooooOOoo  +",
" ooOOOOooOOooOOOOOOOOOOOOOOOOOOOOOOOOOOOOOOOOOOOOooOOooOOOOoo  +",
" ooOOOOooOOooOOOOOOOOOOOOOOOOOOOOOOOOOOOOOOOOOOOOooOOooOOOOoo  +",
" XXooOOOOOOOOOOOOOOOOOOOOOOOOOOOOOOOOOOOOOOOOOOOOOOOOOOOOooXX  +",
" XXooOOOOOOOOOOOOOOOOOOOOOOOOOOOOOOOOOOOOOOOOOOOOOOOOOOOOooXX  +",
"+  XXooooooooooooooooooooooooooooooooooooooooooooooooooooXX  +++",
"+  XXooooooooooooooooooooooooooooooooooooooooooooooooooooXX  +++",
"+++                                                        +++++",
"+++                                                        +++++"
};
